<svg xmlns="http://www.w3.org/2000/svg" viewBox="0 0 338.73 338.78" width="338.73" height="338.78"><defs><style>.cls-1{fill:#fff;}.cls-2{fill:#1a396e;}.cls-3{fill:#0098d5;}.cls-4{fill:#ee3e5d;}</style></defs><title>asl19</title><g id="Layer_2" data-name="Layer 2"><g id="Layer_1-2" data-name="Layer 1"><circle class="cls-1" cx="169.21" cy="169.37" r="165.77"/><path class="cls-2" d="M338.73,169.37C338.44,98.9,293.84,34.65,227.63,10.2,160.91-14.44,83.48,6.67,38.38,61.59s-51.21,134.66-14.2,195.6C61,317.87,133.55,349.51,203.12,335.5c68.54-13.81,123.22-71.09,133.63-140.26a177.88,177.88,0,0,0,2-25.87c0-4.82-7.48-4.83-7.5,0-.28,67.43-43.16,129.46-106.84,152.4s-136.5,3.07-179.87-48.91C.78,220.44-4.74,143.63,30.65,85.34c35-57.68,104.25-88.2,170.47-74.86,65.8,13.25,117.66,67.42,128.19,133.67a165.05,165.05,0,0,1,1.92,25.22C331.25,174.2,338.75,174.21,338.73,169.37Z"/><path class="cls-3" d="M169.21,290A122.61,122.61,0,0,1,136.6,49.22a13.75,13.75,0,0,1,7.3,26.51,95.1,95.1,0,1,0,50.62,0,13.75,13.75,0,0,1,7.29-26.51A122.61,122.61,0,0,1,169.21,290Z"/><path class="cls-4" d="M124.76,193.35l21.75-21.75,13.29-13.3-.07.09.08-.08a13.45,13.45,0,0,1,9.4-3.81h0a13.47,13.47,0,0,1,9.4,3.81l.08.08-.08-.09L191,170.7l22.65,22.65a13.53,13.53,0,0,0,19.14,0h0a13.53,13.53,0,0,0,0-19.14l-22.65-22.65-31.37-31.37h0a13.54,13.54,0,0,0-19.14,0h0l-32.27,32.27-21.75,21.75a13.53,13.53,0,0,0,0,19.14h0A13.53,13.53,0,0,0,124.76,193.35Z"/></g></g></svg>
