<svg xmlns="http://www.w3.org/2000/svg" xmlns:xlink="http://www.w3.org/1999/xlink" viewBox="0 0 338.73 338.78" width="338.73" height="338.78"><defs><style>.cls-1{fill:none;}.cls-2{isolation:isolate;}.cls-13,.cls-3{fill:#fff;}.cls-22,.cls-4{fill:#1a396e;}.cls-5{clip-path:url(#clip-path);}.cls-11,.cls-6{fill:#1f81be;}.cls-10,.cls-11,.cls-13,.cls-15,.cls-16,.cls-17,.cls-18,.cls-19,.cls-20,.cls-22,.cls-23,.cls-24,.cls-7,.cls-9{fill-rule:evenodd;}.cls-8{fill:#409dd6;}.cls-9{fill:url(#New_Gradient_Swatch_1);}.cls-10{fill:url(#New_Gradient_Swatch_1-2);}.cls-12{fill:#fdeee9;}.cls-14{fill:#231f20;}.cls-15{fill:#1d82bf;}.cls-16{fill:#25a2ef;}.cls-17{fill:#f4d3c1;}.cls-18{fill:#c67132;}.cls-19{fill:#e0935f;}.cls-20{fill:#f6921e;}.cls-21{fill:#faaf40;}.cls-23{fill:#ff7029;}.cls-24{fill:#1b75ba;}</style><clipPath id="clip-path"><circle class="cls-1" cx="169.21" cy="169.37" r="162.35"/></clipPath><linearGradient id="New_Gradient_Swatch_1" x1="115.28" y1="713.95" x2="120.85" y2="713.95" gradientTransform="matrix(1, 0.02, -0.02, 1, 104.11, -436.91)" gradientUnits="userSpaceOnUse"><stop offset="0.37" stop-color="#f3d2c0"/><stop offset="0.63" stop-color="#f3c6b4"/><stop offset="1" stop-color="#f2b8a7"/></linearGradient><linearGradient id="New_Gradient_Swatch_1-2" x1="85.17" y1="201.59" x2="259.44" y2="201.59" gradientTransform="matrix(1, 0, 0, 1, 0, 0)" xlink:href="#New_Gradient_Swatch_1"/></defs><title>postchi</title><g id="Layer_2" data-name="Layer 2"><g id="Layer_1-2" data-name="Layer 1"><g class="cls-2"><circle class="cls-3" cx="169.21" cy="169.37" r="165.77"/><path class="cls-4" d="M338.73,169.37C338.44,98.9,293.84,34.65,227.63,10.2,160.91-14.44,83.48,6.67,38.38,61.59s-51.21,134.66-14.2,195.6C61,317.87,133.55,349.51,203.12,335.5c68.54-13.81,123.22-71.09,133.63-140.26a177.88,177.88,0,0,0,2-25.87c0-4.82-7.48-4.83-7.5,0-.28,67.43-43.16,129.46-106.84,152.4s-136.5,3.07-179.87-48.91C.78,220.44-4.74,143.63,30.65,85.34c35-57.68,104.25-88.2,170.47-74.86,65.8,13.25,117.66,67.42,128.19,133.67a165.05,165.05,0,0,1,1.92,25.22C331.25,174.2,338.75,174.21,338.73,169.37Z"/><g class="cls-5"><g class="cls-2"><path d="M253.22,198.28c4-1.72,8.34.12,17.71-10.68,4.42-5.09,4.79-10.93,4.37-15.56s-4.1-9-8.4-8.86c4.71-1.23,8.36-6.17,8.43-11.41s-3.44-10.3-8.11-11.69c3.35-2,5-6.8,3.6-10.65s-5.58-6.23-9.29-5.26c1.56-2.56,3.12-5.4,2.9-8.46s-3.19-6-5.79-4.77c4.42-3,3.5-10.92-.66-14.27s-9.93-3.1-15-1.69c2.36-4.15,1.15-9.93-2-13.37s-7.9-4.81-12.4-4.72-8.89,1.47-13.22,2.84c-.62-15.11-24.8-20-34.84-7.7,1.6-4-2.5-7.87-6.28-9.27a27.71,27.71,0,0,0-20.88.7c-4,1.81-8.11,5.54-7.69,10.23A27,27,0,0,0,124,75.38a18.92,18.92,0,0,0-8.08,7.82c-1.76,3.49-2,8-.07,11.37-5.58,1-10.25,6.33-10.93,12.42s2.71,12.43,7.91,14.86a12.21,12.21,0,0,0-9.06,8.84,13.49,13.49,0,0,0,3.34,12.7c-4.87.67-8.79,5.94-8.35,11.23s5.16,9.72,10.06,9.44c-1.72,4.36,1.28,9.53,5.27,11.48s8.58,1.55,12.93,1.12"/><path d="M125.31,214.92C114.5,220.3,82.59,212.16,84,197.74c-6.93,4.56-5.28,15.49-2.3,17.71-2.47-1-7.58-3.81-8.43-5.93.12,4,2.71,7.92,5,11.17-1.39.45-4,1.08-6.29,0,.51,3,4.78,7.09,7.64,8.21a20.75,20.75,0,0,1-6.76,3c19,15.93,48.31,8,59.56.49Z"/><path class="cls-6" d="M135,329.77a150.72,150.72,0,0,1-29.26-5.88"/><path class="cls-6" d="M115.93,300.71l-10.17,23.18A150.72,150.72,0,0,0,135,329.77l9.7-25.51Z"/><path class="cls-3" d="M136.83,286a16.64,16.64,0,0,1,2.36.75c1.28.6,2.49,1.33,4,1a35.66,35.66,0,0,0-12-3.93l-.15.48C133,284.94,134.91,285.48,136.83,286Z"/><path class="cls-7" d="M109.93,317.41c1.73-4.12,3.5-8.22,5.24-12.33,1.33-3.15,2.6-6.32,4-9.44,1.61-3.7,3.3-7.37,5-11.05.7-1.54,1.27-1.77,2.92-1.3,1.07.3,2.15.58,3.51.94-.26-.4-.34-.7-.5-.75-1.24-.37-2.5-.69-3.75-1.05a4.94,4.94,0,0,1-1.22-.45c-.63-.39-1.1-.54-1.63.19-.34.47-.87.57-1.16-.19a5.27,5.27,0,0,0-.45-.8,3.92,3.92,0,0,0-.66.77c-2,4.85-3.87,9.76-6,14.55-1.11,2.53-2.78,4.8-3.58,7.5s-1.66,5.48-2.6,8.19c-.43,1.28-1.13,2.47-1.66,3.72-1,2.43-2,4.9-3,7.3l-.09.19c1,.31,1.92.61,2.89.9C108,322,109,319.7,109.93,317.41Z"/><path class="cls-7" d="M107.08,324.3c-1-.29-1.93-.59-2.89-.9m31.61,9.87c.43-1.09.78-2.21,1.17-3.31-1.24-.11-2.47-.24-3.7-.38"/><path class="cls-7" d="M143.31,312.67c1-2.69,1.74-5.46,2.8-8.12,1.37-3.46,2.94-6.84,4.4-10.26a10.48,10.48,0,0,0,.61-2.14c0-.19-.24-.46-.4-.67-.49-.64-1-1.29-1.51-1.88a2,2,0,0,0-.93-.55,13.73,13.73,0,0,0-1.91-.38,10.43,10.43,0,0,0-1.25,0c0,.11,0,.23,0,.35a6.71,6.71,0,0,0,1.13.69c1,.34,1.08.88.75,1.83-1,2.88-1.83,5.83-2.89,8.7-1.23,3.35-2.7,6.62-4,10-1,2.75-1.89,5.56-2.84,8.34-.89,2.56-1.73,5.13-2.7,7.66l-1.32,3.38c1.23.14,2.46.27,3.7.38,0-.1.07-.21.11-.31C139.15,324,141.26,318.34,143.31,312.67Z"/><path class="cls-8" d="M114,327.71c3.19-3.48,4.57-9.66,4.78-14.23.07-1.42-.76-3.55-2.33-3.81s-2.48,1.54-2.77,2.89c-.42,2-.62,4.06-1,6.07s-1.11,4-1.36,6c-.15,1.18,1,4.9,2.72,3Z"/><path class="cls-9" d="M207.68,278.3a49.92,49.92,0,0,0-5.64,2.76,5.18,5.18,0,0,0,1.9-.57C205.21,279.81,206.44,279,207.68,278.3Z"/><path class="cls-10" d="M131.92,229.77c-1.85,1.1-3.19,2.95-4.69,4.29,0,.48-.1.88-.1,1.29,0,4.59-.07,9.2.08,13.79s-.39,9.38-.08,14.08c.3,4.38.42,8.78.78,13.16a20.59,20.59,0,0,0,1.17,5.67,15.24,15.24,0,0,0,11.6,9.87c1.3.29,2.61.56,3.87,1a25.59,25.59,0,0,0,5.42.91,34.27,34.27,0,0,0,6.72-.35,19.75,19.75,0,0,0,9.45-3.2,16.21,16.21,0,0,0,6-6.76c.25-.53.6-1,.89-1.52,1.46-.08,2.78-.15,4.1-.24a58.23,58.23,0,0,1,8.56-.25,38.41,38.41,0,0,0,4.29-.05l8-.21c1.33,0,2.66,0,4-.14l.13,0c1.8-1,4.49-.48,6.45-1.29.24-.14,10.82-1,11.06-1.18,2.76-1.57.65-1.82,3.83-2.36,1.92-.32,2.6-1.16,4.51-1.5,3-.54,1.49-.83,4.51-1.35.48-.08.22-.39.82-.53-.07-1.46.15-4.25.09-5.57-.14-3.37-.46-6.75-.36-10.11.19-5.75-.71-11.42-.86-17.14,0-.2-.05-.41-.08-.61-.67-3.86-.44-7.74-.41-11.63a4.48,4.48,0,0,1,.3-1c.5-.11,1.16-.47,1.62-.3a18.37,18.37,0,0,0,5.75.66c1.13,0,2.26,0,3.38.1a9.45,9.45,0,0,0,6.36-1.8,30.06,30.06,0,0,0,6.38-5.71,8.14,8.14,0,0,0,1.54-2.27,33.47,33.47,0,0,0,2.47-9.14,12,12,0,0,0-1.55-7.09,14.43,14.43,0,0,0-6.86-6.33c-2.3-1-4.45-1.36-6.85-.38-1.16,1.49-2.32,3-3.56,4.53a64.88,64.88,0,0,0-9.18,15.48,63.57,63.57,0,0,1-5.25,10.38c-.56.82-.81,1.87-1.69,2.48-2.79-1.18-12.86-8-15-10.22,1.06-1.43,2.06-3,3.24-4.34a38.15,38.15,0,0,0,4.63-6.85c.92-1.71,1.9-3.39,2.79-5.11,3.32-6.48,6.11-13.11,7-20.47.64-5.42,1.69-10.9.91-16.31-1.43-9.95-6-37.66-9.11-38.66s-3.56-10.58-6.8-11.45c-1.69-.45-10.47-4.58-12.22-4.65-4.29-.16-6.66,4.1-10.95,3.87-.61,0-8.85.39-9.45.29-6.57-1.09-5.81,5.31-12.45,5.13-1,0-12.95-6-13.94-6.21-3.39-.55-10,.91-13,2.32-11.08,5.18-12.62,7.28-15.83,15.9-1.67,5.73-1.46,5.1-3.07,7.94-2,3.47-.91,7.94-1.86,11.85a19.09,19.09,0,0,0-.63,5.75,52.62,52.62,0,0,0,2,10.84,11,11,0,0,0,1,1.94c1.56-.58,3-1.07,4.43-1.64s2.64-1.09,3.92-1.73,30.18-4.66,30.4-4c2.46,1.08,2.46,1.08,2.88,2.54-.64.73-1.51.49-2.3.48a51.5,51.5,0,0,0-12.44,1.15c-.59.14-1.2.21-1.81.3a58.59,58.59,0,0,0-8.69,1.82c-2.44.73-4.93,1.29-7.35,2.06-2.91.94-5.58,2.51-8.63,3.09a11.2,11.2,0,0,0-2,.87c-4,1.64-7.15,4.73-11,6.64-3.84,3.16-8.18,5.77-11.16,9.9-.3.41-.7.75-1,1.13a42.5,42.5,0,0,0-8.54,13c-.61,1.52-1.27,3-1.91,4.51-1.86,4.29-1.92,8.59.44,12.66a14,14,0,0,0,6.79,6.38c2.55,1,5.16,1.9,7.75,2.8a15.22,15.22,0,0,0,5.43.82,38.91,38.91,0,0,0,12.33-2.08,100.1,100.1,0,0,0,13.22-5.69c3.45-1.81,6.88-3.57,9.61-6.42a8.09,8.09,0,0,1,1-.77c2.12-1.6,4.3-3.11,6.34-4.81A85.07,85.07,0,0,0,161,200.55c3.1-3.79,6.43-7.4,8.81-11.74.08-.15.32-.21.5-.32,1.44,1,1.86,1.76,1.33,2.92a54.48,54.48,0,0,1-2.88,5.71,36.51,36.51,0,0,1-4.93,6.62,24.34,24.34,0,0,0-4.23,6.17c.65.25-8.86,7.07-8.29,7.2h-2.55ZM250.44,212.4c-.16.25-.32.49-.56.83L244,211.46c-2.5,1.73-2.88,4.72-4,7.36a5.85,5.85,0,0,1-1.52,0c-.66-.18-.86-.83-1-1.44a5.67,5.67,0,0,1,.52-3.57c1.45-2.94,3-5.81,5.9-7.63a12.18,12.18,0,0,0,2.34-2,8.09,8.09,0,0,1,4.64-2.13,2.32,2.32,0,0,1,2.8,1.39c-2.14,2.11-5.34,2.68-7.2,5.29C247.85,209.92,249.78,210.48,250.44,212.4Z"/><path class="cls-11" d="M144.74,330.54A173.59,173.59,0,0,1,118,327.1"/><path class="cls-11" d="M139.57,323.44l-6.88-2.62a15.45,15.45,0,0,1-1.95-.87c-1.41-.81-1.76-1.71-.91-3,1.23-1.92,1.8-4.12,2.79-6.13a5.52,5.52,0,0,0,.22-1.29,16.36,16.36,0,0,0-2.16-.47c-1-.09-2.05-.06-3.07-.07a4.55,4.55,0,0,1-3.13-1.13c-.61-2.2.84-3.86,1.55-5.73a23.86,23.86,0,0,1,2.6-5.17c1.13-1.65,2.39-3.22,3.66-4.9-1.31-1-2.51-1.91-3.75-2.78a6.89,6.89,0,0,0-1.41-.57,24,24,0,0,0-2.18,5.86c-.49,2.49-.93,5-1.65,7.43a162.58,162.58,0,0,0-3.69,16.44c-.55,2.89-1.07,5.79-1.6,8.69a173.59,173.59,0,0,0,26.73,3.44c.1-1.43.21-2.87.35-4.33A40.11,40.11,0,0,0,139.57,323.44Z"/><path class="cls-11" d="M237.68,275.52c-1.06-3.93-43.35,11.06-40.35,8.71h-.06c-1.11.17-2.22.35-3.31.63a8.87,8.87,0,0,1-3.63.26,15.43,15.43,0,0,0-3,0c-2.25.1-4.49.24-6.73.37-.92,0-1.84.08-2.75.2s-2,.36-3.09.57a9.54,9.54,0,0,0-.37,2.13c.1,1.52.33,3,.53,4.56a55.13,55.13,0,0,1,.9,8.21A2.79,2.79,0,0,1,174,304c-1.71.66-3.43,1.3-5.15,1.94-.84.3-1.69.57-2.58.87a45.2,45.2,0,0,1,1,5.85,43.8,43.8,0,0,1-.46,5.83c-1.53,1.38-3.56,1.85-5.43,2.6-2.09.84-4.21,1.57-6.29,2.41a22.76,22.76,0,0,1-4.63,1.57,9.75,9.75,0,0,0-2.06.83c0,1.11,0,2.12,0,3.13,0,.56,0,1.11,0,1.66,18.88.74,38.06-.83,57-2.41,12-.79,24-5.42,36-9.29C241.66,303.87,241,287.85,237.68,275.52Z"/><path class="cls-11" d="M241.21,319c-12,3.87-24,8.5-36,9.29-18.9,1.58-38.08,3.15-57,2.41-.06,2-.12,4-.22,6"/><path class="cls-11" d="M136,306.3c.26.37.53.6.58.86a2.18,2.18,0,0,1-.06,1.19c-.53,1.32-1.15,2.61-1.73,3.91a26.78,26.78,0,0,0-1.11,2.52c-.31.93-1,1.76-.94,3a14.25,14.25,0,0,0,2.43,1.17c2.94.81,5.81,1.84,8.7,2.81.23.08.55-.1.79-.15.05-.28.16-.49.11-.66-2.73-9.08-6.5-17.79-9.56-26.75-.05-.15-.28-.24-.44-.38-.86,0-1.2.74-1.55,1.3a46.63,46.63,0,0,0-5.38,10.64C130.51,306.62,133.14,306.31,136,306.3Z"/><path class="cls-11" d="M151,321.88a12.52,12.52,0,0,0,1.34-.42q5.48-2.37,10.93-4.78a4.08,4.08,0,0,0,.89-.79A43.86,43.86,0,0,0,162,305.71a10.77,10.77,0,0,1,1.61-1.1c1.21-.54,2.45-1,3.68-1.48a17.07,17.07,0,0,0,5.54-2.84c-.83-3-.22-6.26-2-9.06-1.21.33-1.64,1.3-2.22,2.12-.82,1.17-1.65,2.32-2.5,3.47s-1.69,2-2.41,3.14q-3.8,5.91-7.5,11.9c-1.82,2.94-3.56,5.94-5.32,8.92C150.61,321.1,150.41,321.51,151,321.88Z"/><path class="cls-7" d="M246.48,208.75c1.37,1.17,3.3,1.73,4,3.65-.16.25-.32.49-.56.83L244,211.46c-2.5,1.73-2.88,4.72-4,7.36a5.85,5.85,0,0,1-1.52,0c-.66-.18-.86-.83-1-1.44a5.67,5.67,0,0,1,.52-3.57c1.45-2.94,3-5.81,5.9-7.63a12.18,12.18,0,0,0,2.34-2,8.09,8.09,0,0,1,4.64-2.13,2.32,2.32,0,0,1,2.8,1.39C251.54,205.57,248.34,206.15,246.48,208.75Z"/><path class="cls-7" d="M148.08,336.69c.1-2,.16-4,.22-6-1.19,0-2.38-.1-3.56-.17M118,327.1q-2.16-.47-4.32-1c-.1.68-.19,1.3-.24,1.84"/><path class="cls-7" d="M148.34,325.92a9.75,9.75,0,0,1,2.06-.83,22.76,22.76,0,0,0,4.63-1.57c2.08-.84,4.2-1.57,6.29-2.41,1.87-.75,3.9-1.22,5.43-2.6a43.8,43.8,0,0,0,.46-5.83,45.2,45.2,0,0,0-1-5.85c.89-.3,1.74-.57,2.58-.87,1.72-.64,3.44-1.28,5.15-1.94a2.79,2.79,0,0,0,1.82-2.88,55.13,55.13,0,0,0-.9-8.21c-.2-1.52-.43-3-.53-4.56a9.54,9.54,0,0,1,.37-2.13c1.11-.21,2.1-.43,3.09-.57s1.83-.15,2.75-.2c2.24-.13,4.48-.27,6.73-.37a15.43,15.43,0,0,1,3,0,8.87,8.87,0,0,0,3.63-.26c1.09-.28,42.61-9.17,43.72-9.34l.32-8.26c0-2.65.08-5.32-.05-8-.27-5.82-.62-11.64-1-17.45-.21-3.37-.51-6.73-.71-10.09a5.26,5.26,0,0,1,.29-1.5c3.29-.08,6.35-.1,9.41-.23a8.62,8.62,0,0,0,4.61-1.47,14,14,0,0,1,1.53-1,17.81,17.81,0,0,0,7.4-7.94,34,34,0,0,0,3.15-12.08,11.06,11.06,0,0,0-.17-3.35,23.48,23.48,0,0,0-2.84-7.09,9,9,0,0,0-4.56-3.93,36.59,36.59,0,0,0-8.51-2.48c-.81-.1-1.64-.23-2-1.11.2-2.25.38-4.48.59-6.72a54.18,54.18,0,0,0-.47-14.05,72.77,72.77,0,0,0-2.87-11.89c-.94-2.69-.62-5.11-1.59-7.8-1.61-4.46-.46-5.05-5.52-15.41-8.73-17.88-17.8-21.17-22.51-23.7-3-1.64-6.64-2.55-10-3.89-.67-.27-10.27-4.62-28.74-2.79-24.78,2.46-33.18,6.73-33.69,6.66-18.43,14.1-20.18,25.63-21.48,31.24a8.37,8.37,0,0,1-.46,1.13,48.85,48.85,0,0,0-3.13,13.37,17.32,17.32,0,0,0,.65,6.67c.84,2.82,1.57,5.66,2.34,8.46a7.87,7.87,0,0,1-3.23,1.87,44.45,44.45,0,0,0-11.2,6.87c-.86.72-1.72,1.45-2.61,2.13-3.67,2.83-6.62,6.39-9.56,9.88-3.9,4.65-6.2,10.3-8.92,15.67a15,15,0,0,0-1.19,7.45A11.25,11.25,0,0,0,82,219.13c1.07,2.31,1.7,4.85,3.49,6.77,1,1.12,2.18,2.15,3.24,3.25a17.29,17.29,0,0,1,1.19,1.51l-.11.21c10.69,4.48,22.33,8.9,32.92,2.77-.42,2.52,0,5.33-.49,8-.1,1.89,0,3.79,0,5.68,0,2.65,0,5.28.13,7.93.08,2,0,4.08.09,6.12.13,3.07.45,6.12.49,9.19a47.51,47.51,0,0,0,1.34,11.95l-.71,2.56q-1.61,6.06-3.22,12.14c-.22.84-5.3,20.16-6.65,28.88q2.16.52,4.32,1c.53-2.9,1-5.8,1.6-8.69A162.58,162.58,0,0,1,123.3,302c.72-2.42,1.16-4.94,1.65-7.43a24,24,0,0,1,2.18-5.86,6.89,6.89,0,0,1,1.41.57c1.24.87,2.44,1.8,3.75,2.78-1.27,1.68-2.53,3.25-3.66,4.9a23.86,23.86,0,0,0-2.6,5.17c-.71,1.87-2.16,3.53-1.55,5.73a4.55,4.55,0,0,0,3.13,1.13c1,0,2,0,3.07.07a16.36,16.36,0,0,1,2.16.47,5.52,5.52,0,0,1-.22,1.29c-1,2-1.56,4.21-2.79,6.13-.85,1.32-.5,2.22.91,3a15,15,0,0,0,2,.87c2.28.88,4.58,1.74,6.87,2.62a40.11,40.11,0,0,1,5.52,2.77c-.14,1.46-.25,2.9-.35,4.33,1.18.07,2.37.12,3.56.17,0-.55,0-1.1,0-1.66C148.38,328,148.35,327,148.34,325.92Zm18.9-22.79c-1.23.47-2.47.94-3.68,1.48a10.77,10.77,0,0,0-1.61,1.1,43.86,43.86,0,0,1,2.24,10.18,4.08,4.08,0,0,1-.89.79q-5.46,2.42-10.93,4.78a12.52,12.52,0,0,1-1.34.42c-.62-.37-.42-.78-.23-1.1,1.76-3,3.5-6,5.32-8.92q3.69-6,7.5-11.9c.72-1.11,1.62-2.08,2.41-3.14s1.68-2.3,2.5-3.47c.58-.82,1-1.79,2.22-2.12,1.81,2.8,1.2,6.09,2,9.06A17.07,17.07,0,0,1,167.24,303.13Zm-22.61,18.49c-.24.05-.56.23-.79.15-2.89-1-5.76-2-8.7-2.81a14.25,14.25,0,0,1-2.43-1.17c-.08-1.25.63-2.08.94-3a26.78,26.78,0,0,1,1.11-2.52c.58-1.3,1.2-2.59,1.73-3.91a2.18,2.18,0,0,0,.06-1.19c-.05-.26-.32-.49-.58-.86-2.83,0-5.46.32-8.16-.53a46.63,46.63,0,0,1,5.38-10.64c.35-.56.69-1.29,1.55-1.3.16.14.39.23.44.38,3.06,9,6.83,17.67,9.56,26.75C144.79,321.13,144.68,321.34,144.63,321.62Zm-.08-28.73c-1.26-.41-2.57-.68-3.87-1a15.24,15.24,0,0,1-11.6-9.87,20.59,20.59,0,0,1-1.17-5.67c-.36-4.38-.48-8.78-.78-13.16-.31-4.7.23-9.38.08-14.08s-.07-9.2-.08-13.79c0-.41,5.77-2,7.62-3.07,1.08-.56,4.72-3.58,4.74-3.57,10.7-9.05,10.7-12.57,20.23-18.74l-.14-.06a24.34,24.34,0,0,1,4.23-6.17,36.51,36.51,0,0,0,4.93-6.62,54.48,54.48,0,0,0,2.88-5.71c.53-1.16.11-1.93-1.33-2.92-.18.11-.42.17-.5.32-2.38,4.34-5.71,7.95-8.81,11.74a85.07,85.07,0,0,1-11.57,11.36c-2,1.7-4.22,3.21-6.34,4.81a8.09,8.09,0,0,0-1,.77c-2.73,2.85-6.16,4.61-9.61,6.42a100.1,100.1,0,0,1-13.22,5.69A38.91,38.91,0,0,1,107,231.68a15.22,15.22,0,0,1-5.43-.82c-2.59-.9-5.2-1.76-7.75-2.8A14,14,0,0,1,87,221.68c-2.36-4.07-2.3-8.37-.44-12.66.64-1.5,1.3-3,1.91-4.51a42.5,42.5,0,0,1,8.54-13c.34-.38.74-.72,1-1.13,3-4.13,7.32-6.74,11.16-9.9,3.85-1.91,7-5,11-6.64a11.2,11.2,0,0,1,2-.87c3-.58,5.72-2.15,8.63-3.09,2.42-.77,4.91-1.33,7.35-2.06a58.59,58.59,0,0,1,8.69-1.82c.61-.09,1.22-.16,1.81-.3a51.5,51.5,0,0,1,12.44-1.15c.79,0,1.66.25,2.3-.48-.42-1.46-.42-1.46-2.88-2.54-.11-.32-4.22-.13-4.56.12-1.59.07-3.42.1-5.24.25s-3.84.48-5.76.66a30.7,30.7,0,0,1-4.28.23,2.71,2.71,0,0,1-.4,0,59.57,59.57,0,0,0-7.27,1.86l-.34.12c-.6.2-1.19.4-1.78.63.59-.23,1.18-.43,1.78-.63a17.12,17.12,0,0,0-2.55.79c-1.28.64-2.6,1.2-3.92,1.73s-2.87,1.06-4.43,1.64a11,11,0,0,1-1-1.94,52.62,52.62,0,0,1-2-10.84,19.09,19.09,0,0,1,.63-5.75c1-3.91.81-8.41,2.77-11.88,1.6-2.84,6-17.36,17.1-22.47s13.06-1.62,14.83,1.48c.5.87,1.37,7.33,2,8.15,2.31,3.15,1.8,2.78,8.37,3.86.61.1,9.19-.94,9.78-1.09,9.39-2.46,10.37-3,18.46-12.67,1.33-1.59,8.49-12.08,20.51,1.43.54.61,6.35,15.83,7,17.32,5.88,7.8,5.5,19.74,6.93,29.69a61.57,61.57,0,0,1,.08,16.16c-.88,7.36-3.67,14-7,20.47-.89,1.72-1.87,3.4-2.79,5.11a38.15,38.15,0,0,1-4.63,6.85c-1.18,1.37-2.18,2.91-3.24,4.34,2.12,2.2,12.19,9,15,10.21.88-.6,1.13-1.65,1.69-2.47a63.57,63.57,0,0,0,5.25-10.38A64.88,64.88,0,0,1,240.58,199c1.24-1.49,2.4-3,3.56-4.53,2.4-1,4.55-.58,6.85.38a14.43,14.43,0,0,1,6.86,6.33,12,12,0,0,1,1.55,7.09,33.47,33.47,0,0,1-2.47,9.14,8.14,8.14,0,0,1-1.54,2.27,30.06,30.06,0,0,1-6.38,5.71,9.47,9.47,0,0,1-6.37,1.8c-1.11-.13-2.24-.07-3.37-.1a18.37,18.37,0,0,1-5.75-.66c-.46-.17-1.12.19-1.62.3a4.48,4.48,0,0,0-.3,1c0,3.89-.26,7.77.41,11.63,0,.2.07.41.08.61.15,5.72,1,11.39.86,17.14-.1,3.36.22,6.74.36,10.11.06,1.32-.16,2.41-.09,3.86l-.05.82c-.44,1-31.22,9.12-31.26,9.12-1.32.12-2.65.1-4,.14l-8,.21a38.41,38.41,0,0,1-4.29.05,58.23,58.23,0,0,0-8.56.25c-1.32.09-2.64.16-4.1.24-.29.51-.64,1-.89,1.52a16.21,16.21,0,0,1-6,6.76,19.75,19.75,0,0,1-9.45,3.2,34.27,34.27,0,0,1-6.72.35A25.59,25.59,0,0,1,144.55,292.89Z"/><path d="M235.86,275.3c-.62,7.82,1.14,16.18,1.53,24,.29,5.72,1.09,12.62.39,17.95-.53,4.09,4.47,6.87,4.88,1.91.5-6.2.72-13.42.58-20-.16-7.62.36-18.72-4-25.36-1.23-1.89-3.25-.27-3.39,1.47Z"/><path d="M174.25,157.54c2.84-3,7.78-3.51,11.63-2.75C191.75,156,193,160.88,194,166c.4,2,2.36,1.25,2.32-.54-.1-5.34-2.57-11.5-8.14-13.12-4.69-1.36-11.34-.14-14.54,3.76-.4.48,0,2.11.59,1.44Z"/><path d="M148.3,152.19c-8.19-7.05-19.85-2.08-20.82,8.6-.17,1.9,2,3.39,2.36.92,1.38-8.49,10.85-12.37,18.1-8.09.63.38.73-1.11.36-1.43Z"/><path d="M186.29,140.93c1.7,2.57,3.94,3.18,6.8,4.32,3,1.21,6.07,2.37,9.11,3.55l.5-7.74a47.74,47.74,0,0,1-18.8-5.81l-1.27,8.13c3.42,1.83,8.11,4.58,12,3,2.1-.87,1.68-4.45.35-5.75-2.84-2.81-7.54-3.55-11.07-5.36s-4.38,6.49-1.27,8.13a49.29,49.29,0,0,0,20.26,5.54c3.32.21,3.13-6.8.5-7.73-3.06-1.08-6.1-2.19-9.16-3.24-2.55-.88-4.85-2.18-7.36-.95-1.36.67-1.31,2.84-.58,3.93Z"/><path d="M142.06,136c-2.64,1.14-5.53,1-8.24,1.91s-5.23,2.07-7.78,3.23c-2.93,1.33-2,8.87,1.54,7.44a120.49,120.49,0,0,0,17.12-8.37c2.74-1.68,1.93-9.54-1.6-7.74-5.69,2.91-11.25,6-17.06,8.67l2.13,7q3.41-2.67,7-5.11c2.51-1.71,4.46-4.14,7.27-5.35.69-.3.44-2-.35-1.71Z"/><path class="cls-12" d="M115.49,180c-9.84,6.49-20,15.77-20.59,28.32-.05,1,1.39,3.46,2.46,1.94,8.17-11.62,17-22.39,28.91-30.4,1-.71.48-3.92-1-3.44-6.43,2.07-12.12,5.23-16.29,10.67-2.15,2.8-4.61,5.48-6.59,8.41s-2.7,6.32-5.14,8.87c-.94,1,.38,3.93,1.64,2.61,4.27-4.46,7.07-10,10.34-15.18,2.79-4.4,7.11-6.88,10.78-10.4.66-.64.28-2.76-.87-2.2-10.57,5.13-14.48,16.86-21.89,25.17l1.64,2.61c1.93-2.16,2.76-4.77,4.08-7.3,1.56-3,4-5.34,6.07-8,4.41-5.78,9.45-10.48,16.93-11.7l-1-3.44c-12.41,7.38-21.6,18.67-29.69,30.42l2.46,1.94c.42-11.42,11.08-19.27,18.78-26.29.81-.74.2-3.41-1-2.61Z"/><path class="cls-7" d="M129.09,235.74c1.88-.09,2.95,1.22,5.85,1.7,3.42.43,6.58,1.2,10.21,1.37,3.7.66,11.86-2.32,11.88.81-.38,3.2-1,8.3-2.88,11a9.82,9.82,0,0,1-6,4,11.17,11.17,0,0,1-6.7-.46,29.33,29.33,0,0,1-4.79-2.31,15.38,15.38,0,0,1-3.45-2.82c-2.33-2.55-3.22-5.78-4.49-8.85C128.57,239.47,127.18,235.74,129.09,235.74Z"/><path class="cls-13" d="M153.05,241.42c-7.45,1.88-15.21.62-21.39-1.7a6.73,6.73,0,0,0,3.44,4.2,22.13,22.13,0,0,0,7.63,1.82c2.65.27,5.27.76,7.91.33C152.6,245.76,153.2,243.68,153.05,241.42Z"/><path d="M146.94,215.79c11.41,5.5,42.17-3.66,40.51-18.13,7.32,4.65,5.69,15.59,2.59,17.77,2.58-1,7.92-3.73,8.79-5.84-.08,4-2.77,7.9-5.08,11.13,1.46.48,4.21,1.14,6.6.05-.51,3-4.95,7-7.94,8.14a22.6,22.6,0,0,0,7.13,3c-19.74,15.76-56.28,6.69-68.17-.95Z"/><path class="cls-14" d="M136.18,95.23a19.54,19.54,0,0,1-1.83-2.33l-1.13-2.18c-1-.85-.9-1.06.43-.63,2.45-.19,5.78,1.35,8,2.15,1.6.57,2.26-1.61,2.26-2.75-.05-5,5.41-5.85,8.88-4.15,1.27.62,2.31,1.64,3.74,1.87,2.15.34,4-.54,6.22.21a10.42,10.42,0,0,1,6,5.59c1.36,2.82,3.79.09,3.15-2.13a12.69,12.69,0,0,0-6-8c-3.76-2.19-8-1.3-11.81-2.87-7.56-3.09-14.08,1.21-13.92,9.58l2.26-2.74c-3-1-11.17-4.66-13-.16-1.67,4,2.45,9.2,5.32,11.42,1.49,1.15,2.17-2,1.36-2.87Z"/><path class="cls-14" d="M120.5,135.26c1.67-4.54-6.42-8.54-9.81-6-5.46,4-.76,11.22,3,14.15l1.42-5.64c-5.6-2.12-9.06,4.88-8.58,9.65.52,5.05,5.4,9.05,10.35,9.22,2.53.08,2.47-5.28.38-5.95a15.4,15.4,0,0,1-4.54-1.9,6.05,6.05,0,0,1-1.94-1.83c-.25-1.87.89-2.95,3.4-3.25,2.76,1,3-4.43,1.42-5.64a23.73,23.73,0,0,1-1.92-1.52q-1-3.31,1.26-2.28c1.24-.17,3.31.82,4.37,1.4l-.93-1.76.06.61c.13,1.15,1.41,2.47,2,.78Z"/><path class="cls-14" d="M217.8,91.35q4.13-.33,4.6,3a7.79,7.79,0,0,1,.74,3.78c.05.76.53,2.74,1.72,2.48,2-.43,3.18-.92,5,.31,2.62,1.8.59.45,1.36,2,.56,1.17.45,1.95,1.73,2.68,1.64.94,4-.07,5.79.74,4,1.84,3.18,7.34-1.07,8.52-1.64.46-1.3,3.61-.27,4.46l.84.7a1.43,1.43,0,0,0,1.5.27c4.32-2.25,7.61-8.2,6.74-13.12A7.38,7.38,0,0,0,242.5,102a13.72,13.72,0,0,0-4.47-1.58c-1-.19-3.38.2-4.15-.33l.93,3.18c.45-7-4-9.36-10.52-7.58l2.08,1.71c-.49-3.94-2.44-11.59-8.14-10.3-3.28.74-4.08,4.59-2.1,7,1.45,1.76,2.66-1.46,1.67-2.7Z"/><path class="cls-15" d="M222.29,325.08a82.4,82.4,0,0,1-17,3.22c-4.27.36-8.56.72-12.86,1.05a9.17,9.17,0,0,1,1.51,1.76"/><path class="cls-15" d="M255.65,313.46c-.52-.72-1.05-1.43-1.58-2.13A34.1,34.1,0,0,0,249.2,306c-3.54-3-7.29-5.75-11-8.57-1.92-1.47-4-2.73-5.94-4.14a26.65,26.65,0,0,0-7.25-3.34,29,29,0,0,0-6.3,2.53,76.13,76.13,0,0,0-8.94,4.81,79.76,79.76,0,0,0-10.59,9c-.69.68-1.35,1.39-2,2.12a30.53,30.53,0,0,0-2.55,3.15c-2.18,3.42-4.28,6.9-6.4,10.36a2.81,2.81,0,0,0-.33.8c-.28,1-.53,2-.82,3.12,1.31.86,2.57,1.76,3.9,2.53a7.4,7.4,0,0,1,1.38,1c4.3-.33,8.59-.69,12.86-1.05a82.4,82.4,0,0,0,17-3.22l-4.5-7.38c-.86-1.4-1.81-2.74-2.61-4.16a2.92,2.92,0,0,1-.24-1.64c.06-.48.46-.84,1.2-.89a9.37,9.37,0,0,1,.85.95q4.31,6.06,8.57,12.15c8.24-2.51,16.47-5.61,24.7-7.81A19.87,19.87,0,0,0,255.65,313.46Z"/><path class="cls-15" d="M255.65,313.46a19.87,19.87,0,0,1-5.39,2.84c-8.23,2.2-16.46,5.3-24.7,7.81"/><path class="cls-16" d="M221.81,290.26l-4.56,2.06c14,4.18,26.18,14.73,34.39,23.45a20,20,0,0,0,2.25-1.16A79.92,79.92,0,0,0,221.81,290.26Z"/><path class="cls-16" d="M253.89,314.61a20,20,0,0,1-2.25,1.16"/><path class="cls-17" d="M193.5,335.75a15.66,15.66,0,0,0-4.67-5.46,3.59,3.59,0,0,0-1.23-.59l-2.14.15a30.61,30.61,0,0,0-1.68,7.59"/><path class="cls-17" d="M185.55,329.58c0,.09-.05.18-.09.27l2.14-.15A5.42,5.42,0,0,0,185.55,329.58Z"/><path class="cls-18" d="M175.54,336.68a35.59,35.59,0,0,1,4.9.27,30.12,30.12,0,0,0,1.76-6.27c0-.21.08-.41.11-.62q-5.94.38-11.89.6c-.06,1.41-.21,2.8-.4,4.19"/><path class="cls-18" d="M185.52,320.2c1.3-3.26,3.47-6,5.23-9a2.61,2.61,0,0,1,.38-.44c1.76-1.92,3.11-4.19,5.17-5.85a9.51,9.51,0,0,0,.75-.89c1.59-1.66,3.09-3.45,4.82-5a52.44,52.44,0,0,1,11.72-7.43,59.54,59.54,0,0,1,9.32-4c.23-.07.4-.37.66-.63-1.63-1.44-3.29-2.76-4.78-4.26a3.61,3.61,0,0,0-3.46-.94c-1.24.21-2.45.57-3.69.76a35,35,0,0,0-7.47,2.32,52.86,52.86,0,0,0-8.86,4.93,31.32,31.32,0,0,0-7.09,5.95c-2.31,2.74-4.5,5.57-6.66,8.43a59.14,59.14,0,0,0-7.09,11.94,65.06,65.06,0,0,0-3.09,8.44,17.44,17.44,0,0,0-.91,4.53c0,.52,0,1.05-.05,1.57q6-.23,11.89-.6a29.25,29.25,0,0,1,1.37-5C184.29,323.46,184.88,321.82,185.52,320.2Z"/><polygon class="cls-19" points="201.63 283.96 215.52 291.8 220.36 289.33 209.84 281.85 201.63 283.96"/><path class="cls-7" d="M216.14,311c-.74.05-1.14.41-1.2.89a2.92,2.92,0,0,0,.24,1.64c.8,1.42,1.75,2.76,2.61,4.16l4.5,7.38c1.09-.31,2.18-.64,3.27-1Q221.29,318,217,312A9.37,9.37,0,0,0,216.14,311Z"/><path class="cls-7" d="M170.47,329.09a17.44,17.44,0,0,1,.91-4.53,65.06,65.06,0,0,1,3.09-8.44,59.14,59.14,0,0,1,7.09-11.94c2.16-2.86,4.35-5.69,6.66-8.43a31.32,31.32,0,0,1,7.09-5.95,52.86,52.86,0,0,1,8.86-4.93,35,35,0,0,1,7.47-2.32c1.24-.19,2.45-.55,3.69-.76a3.61,3.61,0,0,1,3.46.94c1.49,1.5,3.15,2.82,4.78,4.26-.26.26-.43.56-.66.63a59.54,59.54,0,0,0-9.32,4A52.44,52.44,0,0,0,201.87,299c-1.73,1.51-3.23,3.3-4.82,5a9.51,9.51,0,0,1-.75.89c-2.06,1.66-3.41,3.93-5.17,5.85a2.61,2.61,0,0,0-.38.44c-1.76,3-3.93,5.76-5.23,9-.64,1.62-1.23,3.26-1.84,4.89a29.25,29.25,0,0,0-1.37,5l3.15-.21c0-.09.06-.18.09-.27a5.42,5.42,0,0,1,2,.12l4.8-.35a7.4,7.4,0,0,0-1.38-1c-1.33-.77-2.59-1.67-3.9-2.53.29-1.11.54-2.12.82-3.12a2.81,2.81,0,0,1,.33-.8c2.12-3.46,4.22-6.94,6.4-10.36a30.53,30.53,0,0,1,2.55-3.15c.63-.73,1.29-1.44,2-2.12a79.76,79.76,0,0,1,10.59-9,76.13,76.13,0,0,1,8.94-4.81,29,29,0,0,1,6.3-2.53,26.65,26.65,0,0,1,7.25,3.34c1.94,1.41,4,2.67,5.94,4.14,3.69,2.82,7.44,5.57,11,8.57a34.1,34.1,0,0,1,4.87,5.37c.53.7,1.06,1.41,1.58,2.13a27.34,27.34,0,0,0,2.65-2.22L257.21,310c-1.79-2-3.7-4-5.6-5.9-.88-.89-1.87-1.67-2.81-2.51s-2.07-2.05-3.23-2.9c-3.84-2.8-7.72-5.53-11.61-8.26a8,8,0,0,0-1.8-.92,9.29,9.29,0,0,1-4.11-3.12,39.93,39.93,0,0,0-5.76-5.72c-1-.86-2-1.79-2.88-2.57l-.1-.94c-1.44,0-2.88,0-4.31.06,0,.21.06.42.1.63-.56.2-1,.38-1.42.5-2.8.79-5.6,1.54-8.39,2.35-1.77.52-3.5,1.16-5.27,1.66a25.23,25.23,0,0,0-7.92,4.15c-1.33,1-2.6,2-3.95,2.91a4.82,4.82,0,0,1-1.23.59c-1.16,1.17-2.31,2.37-3.43,3.61h.09a6.45,6.45,0,0,1-.77,1.38A42.42,42.42,0,0,0,175,306.38a142.78,142.78,0,0,0-6.56,15.82,28.39,28.39,0,0,0-1.71,8.58l3.72-.12C170.45,330.14,170.47,329.61,170.47,329.09Z"/><path class="cls-7" d="M170,334.85c.19-1.39.34-2.78.4-4.19l-3.72.12a1.5,1.5,0,0,0,0,.22m17.1,6.44a30.61,30.61,0,0,1,1.68-7.59l-3.15.21c0,.21-.08.41-.11.62a30.12,30.12,0,0,1-1.76,6.27,35.59,35.59,0,0,0-4.9-.27m18.37-5.57a9.17,9.17,0,0,0-1.51-1.76l-4.8.35a3.59,3.59,0,0,1,1.23.59,15.66,15.66,0,0,1,4.67,5.46m32.06-11.64c-1.09.33-2.18.66-3.27,1m36-13.84a27.34,27.34,0,0,1-2.65,2.22"/><path class="cls-20" d="M198.07,302.44c14.47-.08,29.32-.57,42.7-6.1-1.38-12.57,2.37-25.67-1.33-37.77C198.68,269,156.05,273.16,114,272c-1,8.77-.27,16.44-3.05,24.83,4.82,2.39,10.34,2.86,15.72,3.25Q162.31,302.65,198.07,302.44Z"/><path d="M198.07,304.69c14.6-.1,29.24-.75,43-6.18.82-.32.75-2.15.7-2.76-1.17-12.84,2.06-25.67-1.43-38.32-.08-.27-.38-1.23-.86-1.11-41,10.35-83.22,14.51-125.43,13.46-.67,0-.91,1.21-1,1.65-.84,8.16-.53,16.37-2.94,24.29-.22.7-.34,2.89.59,3.31,5.7,2.57,11.78,3,18,3.46q11.39.79,22.78,1.3,23.31,1,46.63.9c1.39,0,1.4-4.5,0-4.5q-22.33.1-44.64-.82-10.92-.45-21.8-1.18c-6.93-.45-14-.6-20.4-3.5l.59,3.3c2.52-8.3,2.25-16.81,3.14-25.36l-.95,1.65c42.21,1.05,84.46-3.11,125.43-13.46l-.85-1.11c3.35,12.13.1,24.86,1.23,37.23l.69-2.76c-13.55,5.35-28,5.91-42.44,6C196.68,300.2,196.67,304.7,198.07,304.69Z"/><path class="cls-21" d="M123.9,293.44c.47-5,1.44-10.39.82-15.38-.1-.82-1.19-1.22-1.44-.25-1.25,4.84-.92,10.36-1,15.32,0,1.26,1.53,1.79,1.67.31Z"/><path class="cls-21" d="M139.81,295c1-2.39.76-5.31.92-7.87.17-2.93.61-6,.06-8.9-.22-1.16-1.69-1.81-2.09-.37-.73,2.63-.58,5.42-.64,8.13s-.55,6,.28,8.76c.25.82,1.06,1.23,1.47.25Z"/><path class="cls-21" d="M157,296.38c.25-3.35.61-6.71,1.09-10.05.44-3.07,1.32-6.15,1.16-9.26-.05-.86-1.09-2.39-1.81-1.09-3.07,5.51-2.53,14-2.17,20.09.07,1.24,1.61,1.9,1.73.31Z"/><path class="cls-21" d="M177.47,298.07c.9-4.61.55-9.57.47-14.25-.05-3.14.56-7-2-9.26-1.09-.95-1.6,1.1-1.47,1.81,1.22,7.19.08,14.57,1.21,21.74.21,1.34,1.54,1.17,1.78,0Z"/><path class="cls-21" d="M193.45,299c2.41-7.32,5.07-17.42,2.33-24.94-.46-1.26-1.63-.61-1.82.41-.64,3.36-.19,6.83-.4,10.24a67.08,67.08,0,0,1-2,12.66c-.36,1.39,1.22,3.76,1.92,1.63Z"/><path class="cls-21" d="M212.3,296.76a110,110,0,0,0,2.78-13.48,20.92,20.92,0,0,0-.93-11.7c-.9-2.16-2.57,0-2.27,1.54,1,4.76.4,9.16-.36,13.9-.51,3.19-1.12,6.37-.29,9.55.15.57.84.95,1.07.19Z"/><path class="cls-21" d="M232,291c-.53-1.28.12-3.67.24-5.11.14-1.7.23-3.4.35-5.1a59.45,59.45,0,0,0,.26-8.64c-.14-1.76-2-2.61-2.4-.44-.68,4-.51,8.21-.58,12.28-.05,2.66-.67,6.14,1,8.43.79,1.11,1.44-.71,1.15-1.42Z"/><path class="cls-20" d="M242.27,306.62c-.66-3.28-1.37-9.68-4.43-8.72-12.22,3.85-34.81,5.32-34.81,5.32-.92,8.62-4.15,17.32-7,25.84,3.1-.24,6.19-.5,9.27-.76,12.8-.85,25.59-6.06,38.39-10.06-.08-.54-.17-1.09-.24-1.63C243,313.28,242.93,309.9,242.27,306.62Z"/><path d="M243.13,305.48c-.51-2.66-.82-8.56-3.91-9.72-1.6-.6-4.33.74-5.93,1.12-2.54.6-5.12,1.08-7.7,1.51-7.46,1.24-15,2.08-22.56,2.58-.68,0-.89,1.15-.95,1.65-1.08,8.59-4,16.7-6.79,24.85-.22.65-.68,4,.7,3.84,8.43-.67,16.62-1.35,24.81-3.57,7.8-2.11,15.41-4.89,23.11-7.33.8-.25.77-2.22.69-2.77-.56-3.87-.71-7.77-1.38-11.62-.51-3-2.25-.82-1.9,1.2.66,3.85.81,7.75,1.37,11.62l.7-2.77c-8.13,2.57-16.15,5.55-24.42,7.65-7.57,1.92-15.21,2.47-23,3.09l.7,3.85c3-8.81,6.13-17.56,7.3-26.84l-1,1.65c5.78-.38,11.55-1,17.28-1.78,4.35-.6,8.7-1.3,13-2.31,2.08-.49,4.69-2,6.26-.39s1.49,4.8,1.87,6.76C242,310.6,243.4,306.91,243.13,305.48Z"/><path class="cls-20" d="M243.65,318.24c-12.8,4-25.59,9.21-38.39,10.06-3.08.26-6.17.52-9.27.76"/><path d="M243.39,316.07c-8.13,2.57-16.15,5.55-24.42,7.65-7.57,1.92-15.21,2.47-23,3.09-1.44.12-1.33,4.61,0,4.5,8.43-.67,16.62-1.35,24.81-3.57,7.8-2.11,15.41-4.89,23.11-7.33,1.22-.39,1-4.83-.52-4.34Z"/><path class="cls-21" d="M206.75,312.68c3.58,3,8.63,2.59,13,2.24a73.19,73.19,0,0,0,15.49-2.64c1.77-.54,1.48-5.12-.55-4.9-9.36,1-18.15,3.86-27.69,3.37-.86-.05-.74,1.56-.29,1.93Z"/></g><g class="cls-2"><path class="cls-15" d="M131.35,77.72a116.48,116.48,0,0,1,19.94,2.89,81.26,81.26,0,0,0,9.8,1.57c1.1.11,2.19.27,3.28.43L187.31,86c3.6.53,7.2,1.06,10.81,1.56,4.48.63,9,1.23,13.45,1.86.54.08,1.07.25,1.61.37,2.8.6,5.59,1.4,8.42,1.74q8.55,1,17,2.88a2.77,2.77,0,0,0,2.6-.29c.4-1.42.77-2.92,1.27-4.38a78,78,0,0,0,3.3-13.79,54.41,54.41,0,0,0,.14-16.46,8.11,8.11,0,0,0-4.09-6.13c-3-1.64-6.07-3.13-9.15-4.62-2.58-1.25-5.22-2.36-7.8-3.61a8.34,8.34,0,0,0-3.48-1,14.88,14.88,0,0,1-4.81-1.09A15.34,15.34,0,0,0,212.05,42c-3.24-.13-6.3-1-9.43-1.67-1.08-.21-2.16-.44-3.23-.7-3.95-1-7.93-1.9-11.85-3a70.46,70.46,0,0,0-10.37-2c-5.39-.69-10.81-.22-16.2-.65a15.51,15.51,0,0,0-4.24.57c-2.45.52-4.33,2.1-6.09,3.52-.59,1.26-1.06,2.38-1.62,3.46A52.75,52.75,0,0,0,144.57,55c-.19.86-.44,1.71-.64,2.56q-.75,3.23-1.48,6.45c-.44,1.92-.66,3.91-1.73,5.67a4.54,4.54,0,0,1-.95.36c-4.19.12-8.38.35-12.56.3-5.08-.07-10.16-.18-15.22.23-3.41.27-6.82.54-10.22.83-1,.08-2,.2-2.94.37-.24,0-.44.35-.62.52.4.88,1.14.73,1.75.86,1.94.39,3.92.63,5.83,1.16A47.67,47.67,0,0,0,115.57,76c1.1.07,2.2.16,3.3.29C123,76.75,127.17,77.53,131.35,77.72ZM166.08,46a10,10,0,0,1,6.72-3.7,30.26,30.26,0,0,1,10.82.25,14.28,14.28,0,0,1,8.92,5.22c.76.95,1.58,1.84,2.28,2.83a15.87,15.87,0,0,1,2.69,13.18,15,15,0,0,1-9.78,11.19,14.86,14.86,0,0,1-3.89.72c-1.64.16-3.29.16-4.94.23a.91.91,0,0,1-.33,0c-3.91-1.06-8.08-1.3-11.59-3.62a7.78,7.78,0,0,1-1.79-1.42c-3-3.74-4.56-8-4-14.08C161.25,53.34,163.39,49.53,166.08,46Z"/><path class="cls-22" d="M161.18,56.76c.07-3.42,2.21-7.23,4.9-10.79a10,10,0,0,1,6.72-3.7,30.26,30.26,0,0,1,10.82.25,14.28,14.28,0,0,1,8.92,5.22c.76.95,1.58,1.84,2.28,2.83a15.87,15.87,0,0,1,2.69,13.18,15,15,0,0,1-9.78,11.19,14.86,14.86,0,0,1-3.89.72c-1.64.16-3.29.16-4.94.23a.91.91,0,0,1-.33,0c-3.91-1.06-8.08-1.3-11.59-3.62a7.78,7.78,0,0,1-1.79-1.42C162.15,67.1,160.63,62.85,161.18,56.76Zm21.6-.35c-2,.5-3,2.22-4.64,2.87a9.18,9.18,0,0,0-4.06,2.86,8,8,0,0,1-4.81.2c-1.18-.29-2.38-.51-3.58-.69a8.63,8.63,0,0,0-1.73.1c1.13,4.32,3.26,7.53,7.33,9a48.85,48.85,0,0,0,7.38,1.84,11,11,0,0,0,7.11-.92,19.48,19.48,0,0,1,2.47-1,8.93,8.93,0,0,0,4.14-3.19c.32-.4.66-.89.24-1.4l-9.86-2C181.15,61.44,183,59.12,182.78,56.41ZM174.22,45.7a11.2,11.2,0,0,0-5.6,2.49A13.86,13.86,0,0,0,164.19,55a4.44,4.44,0,0,0,0,4c.92.12,1.89.26,2.86.35s1.75.16,2.63.18,2,.52,3.06-.47C173.19,54.92,173.67,50.58,174.22,45.7Zm13.25,3.13c-.66,4.07-1.31,8-1.93,11.86a2.81,2.81,0,0,0,.22.85c.82.22,1.75.51,2.7.72a33,33,0,0,0,3.25.57c.95.11,1.93.56,2.83-.06C196.9,58.13,192.79,50.25,187.47,48.83Z"/><path class="cls-23" d="M182.78,56.41c.24,2.71-1.63,5,0,7.65l9.86,2c.42.51.08,1-.24,1.4a8.93,8.93,0,0,1-4.14,3.19,19.48,19.48,0,0,0-2.47,1,11,11,0,0,1-7.11.92,48.85,48.85,0,0,1-7.38-1.84c-4.07-1.46-6.2-4.67-7.33-9a8.63,8.63,0,0,1,1.73-.1c1.2.18,2.4.4,3.58.69a8,8,0,0,0,4.81-.2,9.18,9.18,0,0,1,4.06-2.86C179.78,58.63,180.75,56.91,182.78,56.41Z"/><path class="cls-24" d="M174.22,45.7c-.55,4.88-1,9.22-1.5,13.34-1.1,1-2.11.48-3.06.47s-1.76-.09-2.63-.18-1.94-.23-2.86-.35a4.44,4.44,0,0,1,0-4,13.86,13.86,0,0,1,4.43-6.83A11.2,11.2,0,0,1,174.22,45.7Z"/><path class="cls-24" d="M187.47,48.83c5.32,1.42,9.43,9.3,7.07,13.94-.9.62-1.88.17-2.83.06a33,33,0,0,1-3.25-.57c-1-.21-1.88-.5-2.7-.72a2.81,2.81,0,0,1-.22-.85C186.16,56.79,186.81,52.9,187.47,48.83Z"/><path class="cls-7" d="M158.67,85.57a25.46,25.46,0,0,0,3.29.35c5.58.62,11.14,1.33,16.64,2.44,22.61,3.23,45,7.33,67.41,12.15a2.26,2.26,0,0,0-.11-.22,7,7,0,0,1-.54-4.76c1.18-6.28,2.93-12.47,3.41-18.88,0-.11,0-.22,0-.33,1-4,1.05-8.09,1.56-12.14a15.82,15.82,0,0,0-2-9.91c-1.6-2.86-3.34-5.68-6.53-7.21-1.59-.75-2.91-2.07-4.52-2.73a59.16,59.16,0,0,0-8.46-2.83,101.36,101.36,0,0,1-9.84-2.82A64.56,64.56,0,0,0,212,37c-3.44-.77-6.9-1.46-10.41-1.92a48.27,48.27,0,0,1-8.11-1.6A47.7,47.7,0,0,0,186.66,32c-4-.62-8.1-1.12-12.15-1.64a101.87,101.87,0,0,0-16.19-.59,12.25,12.25,0,0,0-11.21,7A52,52,0,0,0,144.75,43c-.52,1.45-.88,2.95-1.38,4.41-1.3,3.75-2.75,7.45-3.68,11.33-.59,2.45-1.47,4.83-2.24,7.28-.55.08-1,.17-1.4.19-4.52.24-9,.52-13.56.69-4.3.16-8.62.42-12.91.27a80.32,80.32,0,0,0-12.22.64,24.67,24.67,0,0,0-4.5,1,3.44,3.44,0,0,0-1,5.92,9.31,9.31,0,0,0,3.73,2c2.69.71,5.44.92,8.13,1.5a153.52,153.52,0,0,0,19.31,2.9c2.29.18,4.56.72,6.84,1.13.12,0,.21.32.31.49a1,1,0,0,0,0,.14q11.18.93,22.26,2.15A23.54,23.54,0,0,1,158.67,85.57Zm-27.32-7.85c-4.18-.19-8.32-1-12.48-1.47-1.1-.13-2.2-.22-3.3-.29a47.67,47.67,0,0,1-9.78-1.61c-1.91-.53-3.89-.77-5.83-1.16-.61-.13-1.35,0-1.75-.86.18-.17.38-.48.62-.52,1-.17,2-.29,2.94-.37,3.4-.29,6.81-.56,10.22-.83,5.06-.41,10.14-.3,15.22-.23,4.18.05,8.37-.18,12.56-.3a4.54,4.54,0,0,0,.95-.36C141.79,68,142,66,142.45,64.05q.74-3.22,1.48-6.45c.2-.85.45-1.7.64-2.56A52.75,52.75,0,0,1,149,41.57c.56-1.08,1-2.2,1.62-3.46,1.76-1.42,3.64-3,6.09-3.52A15.51,15.51,0,0,1,161,34c5.39.43,10.81,0,16.2.65a70.46,70.46,0,0,1,10.37,2c3.92,1.1,7.9,2,11.85,3,1.07.26,2.15.49,3.23.7,3.13.63,6.19,1.54,9.43,1.67a15.34,15.34,0,0,1,4.48,1.07,14.88,14.88,0,0,0,4.81,1.09,8.34,8.34,0,0,1,3.48,1c2.58,1.25,5.22,2.36,7.8,3.61,3.08,1.49,6.16,3,9.15,4.62a8.11,8.11,0,0,1,4.09,6.13,54.41,54.41,0,0,1-.14,16.46,78,78,0,0,1-3.3,13.79c-.5,1.46-.87,3-1.27,4.38a2.77,2.77,0,0,1-2.6.29q-8.4-1.86-17-2.88c-2.83-.34-5.62-1.14-8.42-1.74-.54-.12-1.07-.29-1.61-.37-4.48-.63-9-1.23-13.45-1.86-3.61-.5-7.21-1-10.81-1.56l-22.94-3.37c-1.09-.16-2.18-.32-3.28-.43a81.26,81.26,0,0,1-9.8-1.57A116.48,116.48,0,0,0,131.35,77.72Z"/><path class="cls-16" d="M106.36,74.17c-.43-1.6,29.93-.88,33.63-1s4.19-1.67,4.87-4.46S151.55,45,153.1,41.84s6-5.06,14.14-4.73,33.33,5.15,45.43,8.32a229.6,229.6,0,0,1,27.15,9c2.37,1.11-.55,2.13-3.16,1.16s-37.75-13.47-67-16c-9.07-.78-13.84-.62-15.74,5s-6,22.79-6.66,25-1.87,7.27-7.48,7.29S106.8,75.76,106.36,74.17Z"/></g></g></g></g></g></svg>
