<svg xmlns="http://www.w3.org/2000/svg" xmlns:xlink="http://www.w3.org/1999/xlink" viewBox="0 0 338.73 338.78" width="338.73" height="338.78"><defs><style>.cls-1,.cls-17{fill:none;}.cls-2{isolation:isolate;}.cls-13,.cls-3{fill:#fff;}.cls-4{fill:#1a396e;}.cls-5{clip-path:url(#clip-path);}.cls-6{fill:#f27121;}.cls-10,.cls-11,.cls-12,.cls-13,.cls-14,.cls-17,.cls-18,.cls-19,.cls-7,.cls-8,.cls-9{fill-rule:evenodd;}.cls-7{fill:url(#linear-gradient);}.cls-8{fill:#808184;}.cls-9{fill:url(#linear-gradient-2);}.cls-10,.cls-23{fill:#1f81be;}.cls-11,.cls-16{fill:#3b2314;}.cls-14,.cls-26{fill:#7ecaf0;}.cls-15{fill:#f9beb3;}.cls-17{opacity:0.72;}.cls-18{fill:#00a69c;}.cls-19{fill:#ffdd15;}.cls-20{opacity:0.5;}.cls-21{opacity:0.76;mix-blend-mode:multiply;}.cls-22{opacity:0.29;}.cls-24{fill:url(#linear-gradient-3);}.cls-25{fill:url(#linear-gradient-4);}</style><clipPath id="clip-path"><circle class="cls-1" cx="169.21" cy="169.37" r="162.3"/></clipPath><linearGradient id="linear-gradient" x1="170.48" y1="271" x2="170.48" y2="93.49" gradientUnits="userSpaceOnUse"><stop offset="0" stop-color="#808184"/><stop offset="0.2" stop-color="#949598"/><stop offset="0.55" stop-color="#b1b2b4"/><stop offset="0.75" stop-color="#bcbdbf"/></linearGradient><linearGradient id="linear-gradient-2" x1="199.34" y1="271.35" x2="199.34" y2="92.72" gradientUnits="userSpaceOnUse"><stop offset="0" stop-color="#a7a8ab"/><stop offset="0.17" stop-color="#b2b3b5"/><stop offset="0.46" stop-color="#cfd0d1"/><stop offset="0.65" stop-color="#e5e6e6"/><stop offset="1" stop-color="#fff"/></linearGradient><linearGradient id="linear-gradient-3" x1="170.28" y1="401.44" x2="170.28" y2="305.7" gradientUnits="userSpaceOnUse"><stop offset="0" stop-color="#808184"/><stop offset="0.27" stop-color="#949598"/><stop offset="0.74" stop-color="#b1b2b4"/><stop offset="1" stop-color="#bcbdbf"/></linearGradient><linearGradient id="linear-gradient-4" x1="171.66" y1="401.44" x2="171.66" y2="305.7" xlink:href="#linear-gradient-3"/></defs><title>robot</title><g class="cls-2"><g id="Layer_2" data-name="Layer 2"><g id="Layer_1-2" data-name="Layer 1"><circle class="cls-3" cx="169.21" cy="169.37" r="165.77"/><path class="cls-4" d="M338.73,169.37C338.44,98.9,293.84,34.65,227.63,10.2,160.91-14.44,83.48,6.67,38.38,61.59s-51.21,134.66-14.2,195.6C61,317.87,133.55,349.51,203.12,335.5c68.54-13.81,123.22-71.09,133.63-140.26a177.88,177.88,0,0,0,2-25.87c0-4.82-7.48-4.83-7.5,0-.28,67.43-43.16,129.46-106.84,152.4s-136.5,3.07-179.87-48.91C.78,220.44-4.74,143.63,30.65,85.34c35-57.68,104.25-88.2,170.47-74.86,65.8,13.25,117.66,67.42,128.19,133.67a165.05,165.05,0,0,1,1.92,25.22C331.25,174.2,338.75,174.21,338.73,169.37Z"/><g class="cls-5"><circle class="cls-6" cx="90.06" cy="62.31" r="9.22"/><circle class="cls-6" cx="244.74" cy="56.82" r="9.22"/><path class="cls-7" d="M124.73,264.14c-.15-4.32-.43-8.48-.39-12.64.07-8,.44-16,.48-24,0-6.69-.33-13.39-.37-20.08s.09-13.5.12-20.25c0-6.4,0-12.79.06-19.18a169.94,169.94,0,0,1,.64-18.32c.5-4.37.3-8.82.5-13.23.09-1.91.66-3.84.53-5.73-.1-1.37.49-2.6.33-3.95a29.07,29.07,0,0,1,0-4.07c.14-6.45.31-12.9.44-19.35,0-2.13,0-4.25,0-6.47,10.5-4.11,26.39-3.33,29.46-3.19,1,0,1.25.07,2.1.06,5.63,0,11.26-.15,16.89-.17,8.31,0,16.63,0,24.87,1.24,4.45.66,8.87,1.56,13.31,2.36.89.16,1.78.4,3,.67,0,4.15.07,8.27,0,12.39-.09,4.45-.37,8.89-.51,13.34-.12,4.08-.15,8.16-.24,12.24-.11,4.41-.31,8.82-.37,13.23-.09,6.84,0,13.68-.15,20.52-.08,4.94-.42,9.89-.48,14.83q-.12,8.75.08,17.48c.12,4.85.45,9.69.69,14.54a3.56,3.56,0,0,1,0,.73,49.66,49.66,0,0,0-.24,12c.35,5.81.6,11.63.71,17.45.06,3.49-.25,7-.35,10.47-.05,1.66,0,3.31,0,5,0,2,0,2.08-1.89,2.72a79.77,79.77,0,0,1-14.76,3.87c-5.19.68-10.36,1.64-15.57,2.06-4.93.39-9.9.19-14.85.34-5.46.17-10.85-.66-16.26-1.1-2.17-.17-4.3-.72-6.45-1.1-3.64-.64-7.29-1.17-10.89-1.95C131.7,266.09,128.4,265.11,124.73,264.14Zm84-107.77-.15,0a17,17,0,0,0,0-1.89c-.35-3.17-.3-6.47-1.21-9.47-2.09-6.91-6.52-12.38-11.92-17.08a25.69,25.69,0,0,0-9.05-5.42c-2.63-.83-5.21-1.86-7.89-2.49a68.85,68.85,0,0,0-7.75-1.11,12.56,12.56,0,0,0-3.62,0A48.26,48.26,0,0,0,153,124a30.72,30.72,0,0,0-11.8,11.35,56.71,56.71,0,0,0-4,7.9,39.62,39.62,0,0,0-2.54,8.19,31.36,31.36,0,0,0,.41,13.14,43.86,43.86,0,0,0,6.76,14,38.18,38.18,0,0,0,9.3,9.5c4,2.86,8.14,5.49,13.25,5.93,2.37.21,4.73.76,7.09.74A33.72,33.72,0,0,0,182.59,193a97.88,97.88,0,0,0,9.61-3.72c3.33-1.61,5.53-4.68,8-7.35a34.13,34.13,0,0,0,3.21-5,29.23,29.23,0,0,0,4.31-10.72C208.26,163,208.4,159.65,208.73,156.37Zm-71,61.75c1.63,1.74,3,3.18,4.36,4.7,1.45,1.69,2.59,3.7,4.24,5.14a104.67,104.67,0,0,0,9.19,7.06,41,41,0,0,0,5.92,3.08,17,17,0,0,0,4.18,1.62,34.54,34.54,0,0,0,8.39.46,19.51,19.51,0,0,0,11.67-5c1.62-1.39,3.07-3,4.64-4.4.6-.55,1.42-.86,2-1.42s1-1.48,1.61-2.16c1.87-2.23,3.82-4.38,5.6-6.66.34-.42.17-1.34,0-2s-.8-.67-1.4-.55a11.35,11.35,0,0,1-1.15.16,144.22,144.22,0,0,1-17.88.65c-3.54-.07-7.08.11-10.62.12-2.18,0-4.36-.08-6.54-.12-2.51,0-5,0-7.52-.15-5-.25-10.07-.6-15.1-.87A7.31,7.31,0,0,0,137.77,218.12Z"/><path class="cls-8" d="M201.54,165.15a36.11,36.11,0,1,1-36.11-36.1A36.11,36.11,0,0,1,201.54,165.15Z"/><polygon class="cls-9" points="188.67 92.72 189.79 271.36 210 267.59 210 94.03 188.67 92.72"/><path class="cls-10" d="M121.69,121.15c0,3.78,0,7.5,0,11.22-.05,2.8-.24,5.6-.38,8.4-.16,3.25-.38,6.5-.51,9.75-.18,4.3-.31,8.6-.42,12.9q-.18,7.13-.28,14.25c0,2.43,0,4.86,0,7.29a13.72,13.72,0,0,1-.18,1.48,21.59,21.59,0,0,1-7.69-4.29,3.69,3.69,0,0,0-1-.65c-3.49-1.66-5.7-4.59-7.72-7.71a38.5,38.5,0,0,1-4.45-10.26A30.4,30.4,0,0,1,98,149.58a50.52,50.52,0,0,1,2.06-8.74,31.09,31.09,0,0,1,3.91-6.91,48.09,48.09,0,0,1,5.06-5.81,23.11,23.11,0,0,1,12.12-6.94A3.51,3.51,0,0,1,121.69,121.15Z"/><path class="cls-10" d="M220.62,123.42c3.36-.31,5.83,1.12,8.28,2.78a36.35,36.35,0,0,1,8.8,8.38,21.63,21.63,0,0,1,4.4,9.52c.21,1.38.77,2.71,1,4.09a36.52,36.52,0,0,1-1.88,17.67c-2.21,5.19-4.84,10.15-9.08,14a29.77,29.77,0,0,1-5.59,3.59c-1.68.95-3.47,1.72-5.23,2.52-1.3.59-1.65.43-1.66-1,0-1.67.26-3.34.34-5,.06-1.2,0-2.4,0-3.6.12-6,.32-11.9.35-17.86,0-4.05-.18-8.1-.27-12.15a80.59,80.59,0,0,1,.07-9.95c.24-2.39.14-4.81.22-7.22C220.42,127.25,220.52,125.39,220.62,123.42Z"/><path class="cls-11" d="M208.73,156.37c-.33,3.28-.47,6.6-1,9.84a29.23,29.23,0,0,1-4.31,10.72,34.13,34.13,0,0,1-3.21,5c-2.44,2.67-4.64,5.74-8,7.35a97.88,97.88,0,0,1-9.61,3.72,33.72,33.72,0,0,1-11.12,1.74c-2.36,0-4.72-.53-7.09-.74-5.11-.44-9.28-3.07-13.25-5.93a38.18,38.18,0,0,1-9.3-9.5,43.86,43.86,0,0,1-6.76-14,31.36,31.36,0,0,1-.41-13.14,39.62,39.62,0,0,1,2.54-8.19,56.71,56.71,0,0,1,4-7.9A30.72,30.72,0,0,1,153,124a48.26,48.26,0,0,1,14.15-5.1,12.56,12.56,0,0,1,3.62,0A68.85,68.85,0,0,1,178.5,120c2.68.63,5.26,1.66,7.89,2.49a25.69,25.69,0,0,1,9.05,5.42c5.4,4.7,9.83,10.17,11.92,17.08.91,3,.86,6.3,1.21,9.47a17,17,0,0,1,0,1.89ZM205,157.56l.31-.05c-.53-3.39-.92-6.82-1.62-10.17-.8-3.82-2.93-7.05-5-10.27a19.91,19.91,0,0,0-4.53-5.27c-2-1.49-3.94-3-5.93-4.43a12.12,12.12,0,0,0-2.79-1.79c-3.67-1.27-7.37-2.59-11.3-2.62-3,0-6.11.32-9.16.53a20.65,20.65,0,0,0-9.81,3.31c-1.4.91-2.58,2.15-3.91,3.18a28.18,28.18,0,0,0-7.51,9.13,47.73,47.73,0,0,0-5.2,14.1,20.64,20.64,0,0,0-.4,5.64,46.94,46.94,0,0,0,1.54,7.67,23.36,23.36,0,0,0,4.64,9.15,108,108,0,0,0,8.53,8.72,21.13,21.13,0,0,0,5.25,3.35c3.87,1.82,7.88,3.34,12.28,3.15a46.87,46.87,0,0,0,7.79-.61,48.34,48.34,0,0,0,7.62-2.78c5.92-2.43,10.17-6.95,14-11.81C203.84,170.42,205.1,164.15,205,157.56Z"/><path class="cls-12" d="M137.77,218.12a7.31,7.31,0,0,1,1.62-.32c5,.27,10.06.62,15.1.87,2.5.13,5,.1,7.52.15,2.18,0,4.36.13,6.54.12,3.54,0,7.08-.19,10.62-.12a144.22,144.22,0,0,0,17.88-.65,11.35,11.35,0,0,0,1.15-.16c.6-.12,1.26-.24,1.4.55s.29,1.58,0,2c-1.78,2.28-3.73,4.43-5.6,6.66-.58.68-1,1.52-1.61,2.16s-1.38.87-2,1.42c-1.57,1.43-3,3-4.64,4.4a19.51,19.51,0,0,1-11.67,5,34.54,34.54,0,0,1-8.39-.46,17,17,0,0,1-4.18-1.62,41,41,0,0,1-5.92-3.08,104.67,104.67,0,0,1-9.19-7.06c-1.65-1.44-2.79-3.45-4.24-5.14C140.82,221.3,139.4,219.86,137.77,218.12Zm55.38,3.61c-2.44,0-4.7-.1-6.94,0s-4.6.71-6.91.75c-3.18.06-6.38-.14-9.55-.35-7.55-.5-15.14-.27-22.65-1.27a16.08,16.08,0,0,0-2,0c.4.48.63.8.9,1.07,2.5,2.51,5.23,4.71,8.78,5.44,2.51.51,5.08.71,7.63,1a65.44,65.44,0,0,0,11.2.17c3.24-.2,6.49-.26,9.73-.38C187.83,228,190.71,225.42,193.15,221.73Z"/><path class="cls-13" d="M205,157.56c.11,6.59-1.15,12.86-5.26,18.13-3.8,4.86-8,9.38-14,11.81a48.34,48.34,0,0,1-7.62,2.78,46.87,46.87,0,0,1-7.79.61c-4.4.19-8.41-1.33-12.28-3.15a21.13,21.13,0,0,1-5.25-3.35,108,108,0,0,1-8.53-8.72,23.36,23.36,0,0,1-4.64-9.15,46.94,46.94,0,0,1-1.54-7.67,20.64,20.64,0,0,1,.4-5.64,47.73,47.73,0,0,1,5.2-14.1,28.18,28.18,0,0,1,7.51-9.13c1.33-1,2.51-2.27,3.91-3.18a20.65,20.65,0,0,1,9.81-3.31c3.05-.21,6.11-.55,9.16-.53,3.93,0,7.63,1.35,11.3,2.62a12.12,12.12,0,0,1,2.79,1.79c2,1.46,4,2.94,5.93,4.43a19.91,19.91,0,0,1,4.53,5.27c2.1,3.22,4.23,6.45,5,10.27.7,3.35,1.09,6.78,1.62,10.17Z"/><path class="cls-13" d="M193.15,221.73c-2.44,3.69-5.32,6.28-9.78,6.45-3.24.12-6.49.18-9.73.38a65.44,65.44,0,0,1-11.2-.17c-2.55-.28-5.12-.48-7.63-1-3.55-.73-6.28-2.93-8.78-5.44-.27-.27-.5-.59-.9-1.07a16.08,16.08,0,0,1,2,0c7.51,1,15.1.77,22.65,1.27,3.17.21,6.37.41,9.55.35,2.31,0,4.6-.61,6.91-.75S190.71,221.73,193.15,221.73Z"/><path d="M148.55,119.86c5.33-3.52,12.08-4.83,18.35-5.38a42.8,42.8,0,0,1,11.58.45,28.05,28.05,0,0,1,5.46,1.61c1.7.69,3.23,1.86,5,2.43,2.15.72,1.82-3,1-4-2.52-2.81-7.14-4-10.72-4.59a39.61,39.61,0,0,0-12.39-.18c-6.57.88-13.72,3.07-18.94,7.3-.69.56-.25,2.95.7,2.32Z"/><path class="cls-12" d="M255.16,55c-.59-2.61-.93-5.12-3.09-7.11a14.78,14.78,0,0,0-4.71-3.25,6.86,6.86,0,0,0-4.67-.26,13.49,13.49,0,0,0-4.05,2.21c-2.71,2.07-4.64,4.57-4.39,8.22a3.44,3.44,0,0,1-.06.72,11.31,11.31,0,0,0,5.65,11.65c.62.33.88.68.64,1.38a14.82,14.82,0,0,0-.5,2c-.73,3.86-1.38,7.73-2.15,11.58-1.09,5.42-2.24,10.83-3.4,16.24-.53,2.46-1.24,4.89-1.75,7.36-.79,3.79-1.46,7.62-2.25,11.41-.3,1.46-.77,2.87-1.18,4.36l-.7-.2c-2.36-.88-4.72-1.76-7.09-2.62a1.21,1.21,0,0,1-1-1.37c.16-3,.24-6,.34-9,0-1.11,0-2.23.06-3.35.12-2.5.33-5,.39-7.51,0-1,0-2.23-1.09-2.83a8.45,8.45,0,0,0-2.58-.91q-6.36-1.12-12.74-2.1c-1.11-.18-2.45.2-3.33-.3a2.17,2.17,0,0,0-2.56-.09,8.49,8.49,0,0,0-2.15-.63c-2.08,0-4.18-.72-6.26.07a.81.81,0,0,1-.7-.1c-1.15-1.11-2.64-.91-4-.94-4.46-.1-8.93-.08-13.4-.08-3.69,0-7.38,0-11.08,0h-3l-5.38.22c-2.76.16-5.52.33-8.28.58-4.35.39-8.7.81-13,1.29-1.59.17-3.16.54-4.73.83-.76.15-1.51.33-2.26.51a1.21,1.21,0,0,0-1.07,1.33c0,1.09.06,2.19,0,3.28-.12,2.28-.3,4.56-.43,6.84-.19,3.19-.38,6.39-.54,9.58-.1,2.09-.14,1.92-2.09,2.64-2.68,1-5.25,2.25-7.86,3.4l-2.32,1.07c-.81-1.79-1.67-3.37-2.24-5.06-1.86-5.51-3.71-11-5.38-16.6-1.23-4.13-2.26-8.33-3.24-12.52a59.18,59.18,0,0,0-2.59-9.51,32.78,32.78,0,0,1-1.19-4.32,1.47,1.47,0,0,1,.91-2,4.83,4.83,0,0,0,1.74-1.27c3-3.29,4-9.06,1.3-13.09-1.19-1.79-1.78-4-3.9-5.11a13.75,13.75,0,0,0-2-1c-2.37-.77-4.8-1.38-7.19-.13A14.24,14.24,0,0,0,80.85,56c-2,3.47-2.26,7-.15,10.44a15.19,15.19,0,0,0,5.69,5.07,9.49,9.49,0,0,0,2.77,1.22A1.65,1.65,0,0,1,90.57,74c1,3.19,2,6.39,3,9.58q1.78,5.66,3.59,11.32c.88,2.75,1.79,5.5,2.65,8.25,1,3.05,1.87,6.12,2.83,9.16,1.16,3.66,2.38,7.29,3.5,11a2,2,0,0,1-.18,1.61,30.31,30.31,0,0,1-3.17,3.79A22.83,22.83,0,0,0,97.44,137c-.34.9-.58,1.86-1,2.72a27.33,27.33,0,0,0-2.53,12c0,2.22.27,4.45.44,6.67a22.09,22.09,0,0,0,.44,4.17,58.22,58.22,0,0,0,7.08,15.74,18.51,18.51,0,0,0,5.45,5.59,28.37,28.37,0,0,1,2.83,2.06,24.75,24.75,0,0,0,8.67,4.92,1.51,1.51,0,0,1,1.28,1.64c0,4.17,0,8.33-.06,12.5-.08,4.88-.32,9.76-.4,14.65-.08,4.31,0,8.63-.07,12.94,0,2.62-.28,5.25-.25,7.87.07,8.05.22,16.1.34,24.15a4.93,4.93,0,0,0,4.19,5q3.44.54,6.84,1.22c3.84.77,7.67,1.66,11.53,2.34,3.09.55,6.21,1,9.34,1.27a8.52,8.52,0,0,1,2.6.47c4.47,0,13.71.78,13.74.77.32-.1,8.46-.38,12.19-.51,1.2,0,8.09-.54,8.09-.77l3.62-.29.09,0-.09,0,.73-.06c3.82-.3,7.71-.23,11.44-1,4.91-1,9.92-1.84,14.36-4.39a6.64,6.64,0,0,0,1.69-1.49,4.49,4.49,0,0,0,.92-3.31c-.12-6.1,0-12.21-.07-18.32-.05-6-.21-11.91-.28-17.87,0-1.31.24-2.61.21-3.91-.06-2.08-.25-4.16-.41-6.23-.11-1.39-.29-2.77-.38-4.16-.08-1.21,0-2.42-.11-3.63-.06-1.06-.22-2.11-.24-3.17,0-1.78,0-3.57,0-5.35q-.13-4.36-.36-8.71a.88.88,0,0,1,.74-1,25.15,25.15,0,0,0,3.19-1,29,29,0,0,0,4.54-2.13c1.84-1.16,3.51-2.56,5.24-3.89a28.57,28.57,0,0,0,3.35-2.74,37.92,37.92,0,0,0,6.56-9.37,39.88,39.88,0,0,0,2.64-6.27,32.52,32.52,0,0,0,1.24-10.35,6.42,6.42,0,0,1,.09-.87c.24-2.64.61-5.28-.1-7.9-.21-.79-.5-1.56-.79-2.34-1-2.76-1.69-5.71-3.13-8.24-2-3.58-4.2-7.16-7.42-9.92a4.58,4.58,0,0,1-1.67-4.86c1.61-7.2,3-14.45,4.5-21.68.73-3.51,1.62-7,2.29-10.52.82-4.24,1.47-8.51,2.23-12.76.4-2.24.9-4.47,1.33-6.71a1.54,1.54,0,0,1,1.58-1.39c.7-.07,1.39-.37,2.1-.43,1.84-.16,3-1.53,4.28-2.53a6.32,6.32,0,0,0,2.48-3.29A14.32,14.32,0,0,0,255.16,55ZM91.26,68.81c-3.65.18-7.89-2.8-8.1-6.29a7,7,0,0,1,.47-3.37A16.41,16.41,0,0,1,86.53,55c2.11-2.18,6-2,8.56.46a6,6,0,0,1,1.22,2.28c.43,1.13.73,2.31,1.08,3.48C98.51,64.94,94.61,69.28,91.26,68.81Zm30.42,63.56c-.05,2.8-.24,5.6-.38,8.4-.16,3.25-.38,6.5-.51,9.75-.18,4.3-.31,8.6-.42,12.9q-.18,7.13-.28,14.25c0,2.43,0,4.86,0,7.29a13.72,13.72,0,0,1-.18,1.48,21.59,21.59,0,0,1-7.69-4.29,3.69,3.69,0,0,0-1-.65c-3.49-1.66-5.7-4.59-7.72-7.71a38.5,38.5,0,0,1-4.45-10.26A30.4,30.4,0,0,1,98,149.58a50.52,50.52,0,0,1,2.06-8.74,31.09,31.09,0,0,1,3.91-6.91,48.09,48.09,0,0,1,5.06-5.81,23.11,23.11,0,0,1,12.12-6.94,3.51,3.51,0,0,1,.57,0C121.69,124.93,121.74,128.65,121.68,132.37Zm94.91-22.18c-.09,4.45-.37,8.89-.51,13.34-.12,4.08-.15,8.16-.24,12.24-.11,4.41-.31,8.82-.37,13.23-.09,6.84,0,13.68-.15,20.52-.08,4.94-.42,9.89-.48,14.83q-.12,8.75.08,17.48c.12,4.85.45,9.69.69,14.54a3.56,3.56,0,0,1,0,.73,49.66,49.66,0,0,0-.24,12c.35,5.81.6,11.63.71,17.45.06,3.49-.25,7-.35,10.47-.05,1.66,0,3.31,0,5,0,2,0,2.08-1.89,2.72a79.77,79.77,0,0,1-14.76,3.87c-5.19.68-10.36,1.64-15.57,2.06-4.93.39-9.9.19-14.85.34-5.46.17-10.85-.66-16.26-1.1-2.17-.17-4.3-.72-6.45-1.1-3.64-.64-7.29-1.17-10.89-1.95-3.36-.73-6.66-1.71-10.33-2.68-.15-4.32-.43-8.48-.39-12.64.07-8,.44-16,.48-24,0-6.69-.33-13.39-.37-20.08s.09-13.5.12-20.25c0-6.4,0-12.79.06-19.18a169.94,169.94,0,0,1,.64-18.32c.5-4.37.3-8.82.5-13.23.09-1.91.66-3.84.53-5.73-.1-1.37.49-2.6.33-3.95a29.07,29.07,0,0,1,0-4.07c.14-6.45.31-12.9.44-19.35,0-2.13,0-4.25,0-6.47,8.72-2.19,17.23-4,26.16-3.07l5.4-.06c5.63,0,11.26-.15,16.89-.17,8.31,0,16.63,0,24.87,1.24,4.45.66,8.87,1.56,13.31,2.36.89.16,1.78.4,3,.67C216.61,102,216.68,106.07,216.59,110.19Zm21.11,24.39a21.63,21.63,0,0,1,4.4,9.52c.21,1.38.77,2.71,1,4.09a36.52,36.52,0,0,1-1.88,17.67c-2.21,5.19-4.84,10.15-9.08,14a29.77,29.77,0,0,1-5.59,3.59c-1.68.95-3.47,1.72-5.23,2.52-1.3.59-1.65.43-1.66-1,0-1.67.26-3.34.34-5,.06-1.2,0-2.4,0-3.6.12-6,.32-11.9.35-17.86,0-4.05-.18-8.1-.27-12.15a80.59,80.59,0,0,1,.07-9.95c.24-2.39.14-4.81.22-7.22.06-1.87.16-3.73.26-5.7,3.36-.31,5.83,1.12,8.28,2.78A36.35,36.35,0,0,1,237.7,134.58Zm5.6-70.3c-.21-.11-.5-.25-.68-.18-1.49.56-2.16-.51-3-1.36a7.53,7.53,0,0,1-2-8.39,9.15,9.15,0,0,1,5.36-5.77,4.54,4.54,0,0,1,2.4-.14,9.06,9.06,0,0,1,7.09,9.09C253,62.56,247,66.28,243.3,64.28Z"/><path class="cls-14" d="M109.26,131.84c-2.19,1.45-3.44,4-4.6,6.38a10.63,10.63,0,0,0-1,7.64,6.47,6.47,0,0,0,5.66,4.74,2.86,2.86,0,0,0,1.65-.38,4,4,0,0,0,1.33-2.12c1.33-3.67,2.8-7.43,5.52-10.24a5.42,5.42,0,0,0,1.72-2.44,3.24,3.24,0,0,0-.49-2.28c-1.08-1.84-3.77-3.37-5.88-3A13,13,0,0,0,109.26,131.84Z"/><path class="cls-14" d="M223.22,134.45a7.47,7.47,0,0,1,3,5.11c.35,2,.25,4.05.46,6.07.15,1.44.66,3.11,2,3.55a4.17,4.17,0,0,0,3.08-.68,6.14,6.14,0,0,0,2.29-1.69,6,6,0,0,0,.85-2.34c.47-2.19.94-4.49.27-6.62a10.41,10.41,0,0,0-2.24-4.46,13.71,13.71,0,0,0-6.7-3.53,4,4,0,0,0-3.22.84,2.78,2.78,0,0,0-.29,3.19"/><circle class="cls-15" cx="247.43" cy="55.07" r="3.41"/><circle class="cls-15" cx="91.51" cy="58.47" r="3.41"/><circle cx="172.49" cy="156.02" r="5.42"/><path d="M172.49,170.19A14.17,14.17,0,1,1,186.65,156,14.18,14.18,0,0,1,172.49,170.19Zm0-25.33A11.17,11.17,0,1,0,183.65,156,11.18,11.18,0,0,0,172.49,144.86Z"/><path class="cls-16" d="M206.34,157c1.63.91,4.44-1.8,5.78-2.65,2.21-1.39,4.54-2.56,6.77-3.91l-1.17-3.88-.4.49c-.64.79-1,3.61.71,3.51l.49,0c2.2-.14,1.52-5-.47-4.18a40,40,0,0,0-7.05,4.34c-1.92,1.33-4.61,2.66-5.15,5.09a1.15,1.15,0,0,0,.49,1.23Z"/><path class="cls-16" d="M136.51,154.39c-1.8-2.13-4.79-3.33-7.3-4.47-2.13-1-5.71-3.17-8-2-1,.5-1.14,2.34-.47,3.16,1.68,2.1,4.8,2.44,7.25,3.37s5.25,2.72,7.79,2.84c1.21.06,1.25-2.2.7-2.85Z"/><path class="cls-17" d="M205,157.56c.11,6.59-1.15,12.86-5.26,18.13-3.8,4.86-8,9.38-14,11.81a48.34,48.34,0,0,1-7.62,2.78,46.87,46.87,0,0,1-7.79.61c-4.4.19-8.41-1.33-12.28-3.15a21.13,21.13,0,0,1-5.25-3.35,108,108,0,0,1-8.53-8.72,23.36,23.36,0,0,1-4.64-9.15,46.94,46.94,0,0,1-1.54-7.67,20.64,20.64,0,0,1,.4-5.64,47.73,47.73,0,0,1,5.2-14.1,28.18,28.18,0,0,1,7.51-9.13c1.33-1,2.51-2.27,3.91-3.18a20.65,20.65,0,0,1,9.81-3.31c3.05-.21,6.11-.55,9.16-.53,3.93,0,7.63,1.35,11.3,2.62a12.12,12.12,0,0,1,2.79,1.79c2,1.46,4,2.94,5.93,4.43a19.91,19.91,0,0,1,4.53,5.27c2.1,3.22,4.23,6.45,5,10.27.7,3.35,1.09,6.78,1.62,10.17Z"/><path class="cls-18" d="M131.77,92.25c-8.34-9.67-12.58-22.89-6.63-36S144.82,34.62,159,32.32s30.3,1.59,39.81,12.6S211,73.74,204.44,84.66"/><path d="M132.28,91.44c-7.46-9-11.06-21.47-6.51-32.61,3.88-9.5,12.37-16.59,21.63-20.58,18.1-7.8,43.14-4.64,53.86,13.53,5.34,9,7.34,21.61,1.9,31-1.1,1.91,1,6.45,2.56,3.69,5.47-9.53,5-21.52,1.22-31.58A38.6,38.6,0,0,0,183.73,32c-21.5-7.8-49.51.9-59.49,22.36-6.34,13.64-2.4,27.75,7,38.72.89,1,1.61-.88,1-1.62Z"/><path class="cls-18" d="M138.75,90.32c-8.43,2.08-10.38,1.68-19.58,0C108.91,88.41,108,90,106.72,94c-.81,2.61,1.11,5.39,3.87,7s6.2,2.24,9.56,2.73c23.65,3.42,48,.72,71.44-3.43,14.21-2.52,28.75-5.76,39.93-13.12,1.65-1.08,3.27-2.32,4-3.93,1.77-4.1,1.62-10.06-8.2-10.17-9.44-.11-10.51,8.77-26.51,8.6"/><path d="M138.72,89.22a45.9,45.9,0,0,1-10.53.65c-4.07-.32-8-1.46-12.06-2-4.57-.64-8.61-.53-10.31,4.31-2.84,8.1,5.64,12.06,12.18,13.22a151.85,151.85,0,0,0,30.94,1.87,273,273,0,0,0,60.17-8.47c8.47-2.21,17.36-5.21,24.43-10.54,4-3,5.94-9.5,2.86-13.89-3.42-4.87-11.55-4.4-16.23-1.9-2.45,1.31-4.65,3-7.15,4.25a27.32,27.32,0,0,1-12.3,2.39c-2.24,0-2.15,5.09.12,5.08a29.48,29.48,0,0,0,15.9-4.33c3.41-2.14,6.4-4.43,10.61-4.45,2.24,0,6,.26,7.2,2.64,1.08,2.16-.69,4.7-2.23,6-5.61,4.74-13.65,7.41-20.57,9.47-16.25,4.85-33.69,7.3-50.55,8.78a198.92,198.92,0,0,1-27.07.66c-4.11-.2-8.21-.55-12.29-1.08s-9-1-12.16-3.77c-1.91-1.66-2.39-5.09.27-6.25,2.37-1,5.77-.16,8.2.24,3.68.61,7.4,1.48,11.14,1.45A31.94,31.94,0,0,0,139,91.39c.77-.26.65-2.31-.25-2.17Z"/><path class="cls-13" d="M196,37.58c-1.6-3.5-2.14-7-1-9.73a14.86,14.86,0,0,1,6.05-6.32c2.41-1.49,5.3-2.67,8-1.91a7.64,7.64,0,0,1,5.12,6.44,12.71,12.71,0,0,1-2.2,8.26,52.89,52.89,0,0,1-6.44,7.51"/><path d="M196.56,37c-1.5-4.51-1.58-8.57,2.22-11.92,2.83-2.49,7.78-5.46,11.44-3.14,4.24,2.68,3.05,7.92.68,11.44-1.78,2.66-4.37,4.64-6.15,7.26-.45.67-.15,3.63,1.14,2.78,6.85-4.51,15.13-19.67,4.65-25-5-2.54-11.33,1.57-14.49,5.37-3.59,4.31-3.2,9.57-.67,14.32.68,1.28,1.48-.22,1.18-1.11Z"/><path class="cls-13" d="M195.11,37.12c.31-1.68-1.28-4.17-2.34-5.52a10.35,10.35,0,0,0-4.12-3,11.1,11.1,0,0,0-6.89-.86,6.83,6.83,0,0,0-5,4.47,16.73,16.73,0,0,0-.13,6.35c.7,5.34,7.59,7.74,12.09,7.67"/><path d="M195.72,37.64c1.57-4-2.7-8.87-6-10.6-4.66-2.45-11.44-2-13.76,3.45-1.67,3.9-1.17,10,1.7,13.26,2.12,2.39,8.55,6.11,11.6,3.9a2.11,2.11,0,0,0-.07-2.87c-1.85-1.36-4.85-.88-7.05-1.88-3.35-1.52-4.68-3.9-4.61-7.57.11-5.55,5.44-6.65,9.87-5.15a10.65,10.65,0,0,1,7,7.24c.19.72.94,1.06,1.27.22Z"/><path class="cls-13" d="M187.83,46.08c-2.3-.54-7-.84-9.05.28a6.7,6.7,0,0,0-3.62,5.69c0,1.15-1,6.61,4,10.4a10,10,0,0,0,5.63,1.73c2.74.15,5.89.14,7.67-2,1.23-1.44,1.41-3.48,1.54-5.38"/><path d="M188,45c-4.31-1.73-9.93-2-12.77,2.37-1.93,3-1.87,7.58-.85,10.92,1.66,5.43,6.24,8,11.68,8.14,5.91.18,9.84-3.44,9.17-9.6-.13-1.27-1.82-3-2.4-.93s-.55,4.41-2.78,5.55a10,10,0,0,1-4.52.6c-4.17-.07-8.12-1.9-9-6.35-.49-2.55-.17-5.41,2-7.06,2.37-1.78,6.4-1.48,9.25-1.42,1,0,.88-1.92.15-2.22Z"/><path class="cls-13" d="M197.5,56.19c-.83.31-1.07,1.36-1.18,2.24-.21,1.68-.4,3.48.38,5a7.55,7.55,0,0,0,2.12,2.28,15.82,15.82,0,0,0,4.59,2.6,11.22,11.22,0,0,0,10-1.59,8.61,8.61,0,0,0,3.06-4,6,6,0,0,0-.38-4.9,10.84,10.84,0,0,0-3-3.61,9.57,9.57,0,0,0-5-1.94"/><path d="M197.28,55.13c-3.83.88-2.61,8.58-.88,10.81a13.54,13.54,0,0,0,14.53,4.49c4.51-1.54,7.93-5.94,7.32-10.83-.53-4.3-5.45-10.19-10.24-9.3-1.6.3-1.72,3.32-.26,3.91,2.75,1.1,5.21,1.67,6.88,4.44,2,3.27-1.24,6.14-4.16,7.24a10.42,10.42,0,0,1-8.66-.6c-2.73-1.44-6.32-5-3.78-8.33.45-.58.15-2-.75-1.83Z"/><path class="cls-13" d="M207,51.6c1.94,1,7.87,1.85,9.83.89a7.11,7.11,0,0,0,3.84-5,5.18,5.18,0,0,0,0-2,6,6,0,0,0-1-2.23,10.41,10.41,0,0,0-6.26-4.36,10.62,10.62,0,0,0-9.05,3"/><path d="M206.51,52.3c1.94,2.35,6.77,3,9.61,2.46,3.68-.68,6.07-4.8,6.07-8.33,0-4.07-3.22-7.71-6.84-9.23-4.12-1.73-8.67-.17-11.84,2.72-1.37,1.24-.21,5.52,1.6,3.88a9.76,9.76,0,0,1,7.64-2.75c2.51.36,6.76,2.91,6.46,5.87s-3.43,4-5.84,4.06c-2.11,0-4.39-.67-6.45-.36-.67.11-.78,1.22-.41,1.68Z"/><path class="cls-19" d="M196.82,40.69c-4.09-.08-6.58,3-7.25,7.56a5.55,5.55,0,0,0,.13,2.53,5.11,5.11,0,0,0,2.17,2.58,11.9,11.9,0,0,0,6,1.77c2.79.13,5.75-.5,7.7-2.7a5.57,5.57,0,0,0,1.45-3.18c.19-2.11-1-4.1-2.34-5.69s-2.74-3.14-4.55-3.67-5.46-.52-7.24.84"/><path d="M196.79,39.39c-5.57-1-8.65,4.86-8.74,9.74-.12,6.84,7.84,9.32,13.49,8,6.31-1.43,8.82-8,5.55-13.47-3-5-9.51-8.94-14.88-4.73-1.08.85-.6,4.58,1.14,3.73a7.88,7.88,0,0,1,9.31,1.36c1.42,1.47,3.5,3.86,2.35,6-.88,1.67-3.35,2.41-5,2.62-3.35.4-9.17-.4-8.88-4.77.21-3.22,3.13-5.34,6-6,1.06-.25.65-2.38-.29-2.54Z"/><g class="cls-20"><path class="cls-3" d="M144.45,45.15c-10.8,4.24-14.89,15.19-14.73,26.12.07,4.71,7.4,4.73,7.33,0-.11-7.23,1.8-16.09,9.35-19,4.34-1.7,2.45-8.79-2-7.07Z"/></g><g class="cls-21"><path class="cls-18" d="M108.23,99.05a10,10,0,0,0,2.36,1.89c2.76,1.6,6.2,2.24,9.56,2.73,23.65,3.42,48,.72,71.44-3.43,14.21-2.52,28.75-5.76,39.93-13.12,1.65-1.08,3.27-2.32,4-3.93a8.4,8.4,0,0,0,.54-5.88C196.19,95.16,151.88,103.81,108.23,99.05Z"/></g><g class="cls-22"><path class="cls-3" d="M150.9,161.78a23.08,23.08,0,0,1,9.19-19.09c6.3-4.88,13.37-5.41,21-5.57,1.81,0,1.72-4-.1-4.08-8.93-.25-17.68,1.24-24.17,7.88-5.17,5.3-9.11,13.64-7.36,21.18.28,1.21,1.39.76,1.39-.32Z"/></g><g class="cls-22"><path class="cls-3" d="M145.77,147.18c1.56-3.59,3.12-6.46,6.18-9.05s6.64-4.17,10.07-6.06c1.22-.67,1-3.85-.68-3.33a28.3,28.3,0,0,0-12.5,7.89c-2.38,2.65-5,6.64-4.24,10.34.14.73.85.93,1.17.21Z"/></g><path class="cls-1" d="M182.86,277.17l-.1,0Z"/><path class="cls-1" d="M183.18,277a.2.2,0,0,1-.08,0A.2.2,0,0,0,183.18,277Z"/><path class="cls-1" d="M161.53,275.91a1,1,0,0,0-.44.65A1,1,0,0,1,161.53,275.91Z"/><path class="cls-1" d="M183.45,276.87l-.06,0Z"/><path class="cls-1" d="M161.27,277.58a1.32,1.32,0,0,1-.15-.45A1.32,1.32,0,0,0,161.27,277.58Z"/><path class="cls-1" d="M182.05,277.46l-.16.05Z"/><path class="cls-1" d="M162.24,275.62l-.28.09a1.91,1.91,0,0,0-.43.2,1.91,1.91,0,0,1,.43-.2Z"/><path class="cls-1" d="M161.08,277h0a2.18,2.18,0,0,1,0-.45A2.18,2.18,0,0,0,161.08,277Z"/><path class="cls-1" d="M165.53,298.78c1.83-.08,3.67-.06,5.51,0,2.36.06,4.72.2,7.09.28,2,.07,3.92.12,5.83.17-1.91,0-3.87-.1-5.83-.17-2.37-.08-4.73-.22-7.09-.28-1.84,0-3.68-.06-5.51,0a2.21,2.21,0,0,0-1.74.78A2.17,2.17,0,0,1,165.53,298.78Z"/><path class="cls-1" d="M184.1,299.91a3.75,3.75,0,0,1,.09,1A3.75,3.75,0,0,0,184.1,299.91Z"/><path class="cls-1" d="M164,301.9a.91.91,0,0,1-.71-.38A.91.91,0,0,0,164,301.9Z"/><path class="cls-1" d="M163.24,300.64a3.1,3.1,0,0,1,.55-1.09,3.1,3.1,0,0,0-.55,1.09,1,1,0,0,0,0,.88A1,1,0,0,1,163.24,300.64Z"/><path class="cls-1" d="M184,274.36v0Z"/><path class="cls-1" d="M184,276.33h0Z"/><path class="cls-1" d="M183.84,276.52l0,0Z"/><path class="cls-1" d="M183.67,276.7l0,0Z"/><path class="cls-1" d="M184.06,274.81h0Z"/><path class="cls-1" d="M182.49,277.31l-.13.05Z"/><path class="cls-1" d="M122.05,327.66c-.08.67-.15,1.35-.27,2,0,.06,0,.12,0,.19h0c0-.07,0-.13,0-.19C121.9,329,122,328.33,122.05,327.66Z"/><path class="cls-1" d="M207,325.64h0c0,.31,0,.6,0,.88C207,326.24,207,326,207,325.64Z"/><path class="cls-1" d="M207.39,332.05c-.09-1.08-.2-2.17-.28-3.25,0-.24,0-.48-.05-.73,0,.25,0,.49.05.73C207.19,329.88,207.3,331,207.39,332.05Z"/><path class="cls-1" d="M168.07,321.54c-.8,0-1.6,0-2.4,0-1.67,0-3.33.05-5,.12,1.66-.07,3.32-.11,5-.12C166.47,321.51,167.27,321.52,168.07,321.54Z"/><path class="cls-1" d="M140.71,307.41c-1.33.07-2.67.13-4,.17a36.46,36.46,0,0,0-4.92.52,36.46,36.46,0,0,1,4.92-.52C138,307.54,139.38,307.48,140.71,307.41Z"/><path class="cls-1" d="M125.33,313.4c.26-1.09.47-2.18.65-3.28-.18,1.1-.39,2.19-.65,3.28-1,4.08-2,8.16-3,12.26a18.52,18.52,0,0,0-.31,2,18.52,18.52,0,0,1,.31-2C123.31,321.56,124.35,317.48,125.33,313.4Z"/><path class="cls-1" d="M126.55,309.21a.94.94,0,0,0-.47.51A.94.94,0,0,1,126.55,309.21Z"/><path class="cls-1" d="M160.91,326.71c2.72-.12,5.43-.22,8.14-.27C166.34,326.49,163.63,326.59,160.91,326.71Z"/><path class="cls-1" d="M218.82,329.22h0c-.93-5.53-1.86-11.05-2.72-16.59C217,318.17,217.89,323.69,218.82,329.22Z"/><path class="cls-1" d="M140.17,328.56a.93.93,0,0,0-.55.44A.93.93,0,0,1,140.17,328.56Z"/><path class="cls-1" d="M169.21,2.05A167.34,167.34,0,0,0,94.66,319.2a35.06,35.06,0,0,1,6.25-5.16c4-2.65,8.13-3.75,12.83-4.6,2.79-.51,5.14-.05,7.92.4a1.08,1.08,0,0,1,.19.08,6,6,0,0,0,.27-1.17,9,9,0,0,1,.41-1.65c.69-1.84,1.88-1.84,3.93-2.15,4.31-.64,8.68-.88,13-1.25,3.58-.3,7.17-.55,10.75-.78,1.5-.1,3-.11,4.5-.11H155c2.07.21,4.11.32,6.15.34-2,0-4.08-.13-6.15-.34,1-.05,1.34-.42,1.26-1.56-.31-4.3-.73-8.6-.94-12.91-.19-4-.23-8-.24-11.94,0-2.14-.06-3-.89-3.41,4.47,0,9.05.45,13.65.81l-.06,0,.15-.05a3.45,3.45,0,0,1,1-.18c3.73-.12,7.46-.21,11.19-.34,1.2,0,2.39-.17,3.55-.26.09.33.16.62.22.89a39.71,39.71,0,0,0,4.32-.72v3.64c0,2.1,0,4.21,0,6.32,0,1.25,0,2.5.07,3.75q.16,6.92.32,13.83c0,.22,0,.44,0,.67,0,.54.11.87.8.92q4.76.35,9.51.81c4,.4,8.12.74,12.15,1.3,2.34.33,4.63,1,6.94,1.59.65.16,1.15.51,1,1.34a1.45,1.45,0,0,0,.12.56c.59,2.35.59,2.34,3,2.49,2.66.17,5.35.23,8,.59a39.36,39.36,0,0,1,8,1.69,24.79,24.79,0,0,1,7.93,4.4c.24.21.47.43.7.65A167.34,167.34,0,0,0,169.21,2.05Z"/><path class="cls-1" d="M174.31,305.73a75.74,75.74,0,0,1,11.85.83,75.74,75.74,0,0,0-11.85-.83c-7.21.32-14.42.57-21.63.93-1.33.06-2.66.14-4,.23,1.33-.09,2.66-.17,4-.23C159.89,306.3,167.1,306.05,174.31,305.73Z"/><path class="cls-1" d="M160.91,326.71l-8.14.37-2.17.08,2.17-.08Z"/><path class="cls-1" d="M139,332.82c.15-1.22.37-2.42.58-3.63C139.33,330.4,139.11,331.6,139,332.82Z"/><path class="cls-1" d="M172.18,326.42c2.09,0,4.17.06,6.26.12C176.35,326.48,174.27,326.43,172.18,326.42Z"/><path class="cls-1" d="M207,326.52c0,.55,0,1.06.06,1.55C207,327.58,207,327.07,207,326.52Z"/><path class="cls-1" d="M162.92,284.51a1.28,1.28,0,0,0-.44.6,1.28,1.28,0,0,1,.44-.6A8.17,8.17,0,0,1,166,283c5.84-.79,11.71-1.41,17.82-2.12,0,1.31.11,2.56.14,3.79,0-1.23-.09-2.48-.14-3.79-6.11.71-12,1.33-17.82,2.12A8.17,8.17,0,0,0,162.92,284.51Z"/><path class="cls-1" d="M162.48,285.11a1.44,1.44,0,0,0-.13.74.47.47,0,0,0,.06.09.47.47,0,0,1-.06-.09A1.44,1.44,0,0,1,162.48,285.11Z"/><path class="cls-1" d="M182.9,290a1,1,0,0,1,.6.2A1,1,0,0,0,182.9,290Z"/><path class="cls-1" d="M164.47,292.12c.07-.41.61-.83,1-1.07,2.27-1.27,4.79-1.09,7.25-1.15,3-.06,6,.08,9,0-3,0-6-.1-9,0-2.46.06-5-.12-7.25,1.15-.43.24-1,.66-1,1.07a19.36,19.36,0,0,0-.05,3.12h0A19.36,19.36,0,0,1,164.47,292.12Z"/><path class="cls-1" d="M209.33,309.37c-2.11-.42-4.23-.86-6.36-1.13-4.1-.53-8.23-1-12.35-1.25,4.12.28,8.25.72,12.35,1.25C205.1,308.51,207.22,309,209.33,309.37Z"/><path class="cls-1" d="M183.86,291.87c-.05-1-.09-1.48-.36-1.72.27.24.31.73.36,1.72,0,.66.06,1.2,0,1.64C183.92,293.07,183.89,292.53,183.86,291.87Z"/><path class="cls-1" d="M214.71,310.37a3.13,3.13,0,0,0-1-.23c-.34,0-.67-.08-1-.13.33.05.66.11,1,.13A3.13,3.13,0,0,1,214.71,310.37Z"/><path class="cls-1" d="M212.37,310l-.92-.17-2.12-.41,2.12.41Z"/><path class="cls-1" d="M140.71,307.41c2.66-.15,5.32-.35,8-.52C146,307.06,143.37,307.26,140.71,307.41Z"/><path class="cls-23" d="M116,313.16a29,29,0,0,0-12.12,3.35,35.21,35.21,0,0,0-6.18,4.17q2.25,1.06,4.55,2.07a12.28,12.28,0,0,1,3.67-3.87,14,14,0,0,1,7-1c2.9.45,3.68,4.83,2.71,7.6a7.12,7.12,0,0,1-1.14,2.06c1,.36,2.08.71,3.13,1.05l2.76-14.85A21,21,0,0,0,116,313.16Z"/><path d="M120.39,314.62a17.63,17.63,0,0,0,1.39-4.53.87.87,0,0,0,.07-.17,1.08,1.08,0,0,0-.19-.08c-2.78-.45-5.13-.91-7.92-.4-4.7.85-8.81,1.95-12.83,4.6a35.06,35.06,0,0,0-6.25,5.16c1,.5,2,1,3,1.48a35.21,35.21,0,0,1,6.18-4.17A29,29,0,0,1,116,313.16a21,21,0,0,1,4.34.56l-2.76,14.85.83.27q1.31-7,2.62-14.08Z"/><path class="cls-23" d="M235.24,315.86a27.5,27.5,0,0,0-9.14-1.54c-1.54,0-3.1.08-4.64.17-.83.05-1.14.42-1,1.36.75,4,1.4,8.1,2.09,12.15.95-.32,1.89-.65,2.83-1a5.21,5.21,0,0,1,.28-4.1,9.15,9.15,0,0,1,2.06-2.76c2-1.26,4.59.59,6.69,1.63a18.37,18.37,0,0,1,1.72,1c1.82-.8,3.63-1.61,5.41-2.47a26.23,26.23,0,0,0-2.27-1.9A17.59,17.59,0,0,0,235.24,315.86Z"/><path class="cls-3" d="M182.24,301.74c1.11,0,1.67-.1,1.87-.53l-4.75.59Z"/><path class="cls-24" d="M215.85,311.62a2.23,2.23,0,0,0-.2-.41,1.8,1.8,0,0,0-.56-.63,2,2,0,0,0-.38-.21,3.13,3.13,0,0,0-1-.23c-.34,0-.67-.08-1-.13l-.34-.06-.92-.17-2.12-.41c-2.11-.42-4.23-.86-6.36-1.13-4.1-.53-8.23-1-12.35-1.25l-.24,0c-1.41-.1-2.82-.24-4.22-.41a75.74,75.74,0,0,0-11.85-.83c-7.21.32-14.42.57-21.63.93-1.33.06-2.66.14-4,.23-2.66.17-5.32.37-8,.52-1.33.07-2.67.13-4,.17a36.46,36.46,0,0,0-4.92.52c-1.62.28-3.22.63-4.83,1a1.8,1.8,0,0,0-.41.13.94.94,0,0,0-.47.51,1.37,1.37,0,0,0-.1.4c-.18,1.1-.39,2.19-.65,3.28-1,4.08-2,8.16-3,12.26a18.52,18.52,0,0,0-.31,2c-.08.67-.15,1.35-.27,2,0,.06,0,.12,0,.19q6.67,2,13.57,3.4l.18-1.82c.12-1.21.23-2.41.35-3.61a2.06,2.06,0,0,1,2.1-2,5.87,5.87,0,0,0,1-.25c2.32-.63,4.64-1.29,7-1.9,1.62-.41,3.25-.75,4.89-1s3.29-.49,4.94-.65,3.3-.27,5-.34,3.32-.11,5-.12c.8,0,1.6,0,2.4,0,2.39.06,4.79.22,7.19.37l4.17.25c4.18.25,8.36.52,12.52.95,2.24.23,4.47.56,6.7.91s4.45.75,6.67,1.1a3.43,3.43,0,0,1,.46.11c.45.12.86.3,1.18.41h0c0,.31,0,.6,0,.88,0,.55,0,1.06.06,1.55,0,.25,0,.49.05.73.08,1.08.19,2.17.28,3.25a2.28,2.28,0,0,1,0,.26q5.79-1.35,11.41-3.09c-.93-5.53-1.86-11.05-2.72-16.59A5.14,5.14,0,0,0,215.85,311.62Z"/><path class="cls-25" d="M201.37,328.62A82.85,82.85,0,0,0,193,327c-3.76-.43-7.58-.33-11.38-.42l-3.13-.08c-2.09-.06-4.17-.11-6.26-.12-1,0-2.08,0-3.13,0-2.71.05-5.42.15-8.14.27l-8.14.37-2.17.08-1.15.07c-.37,0-.73.06-1.1.11-2.73.34-5.46.78-8.18,1.22a.93.93,0,0,0-.55.44.52.52,0,0,0-.08.19c-.21,1.21-.43,2.41-.58,3.63,0,.37-.08.75-.11,1.12a168.21,168.21,0,0,0,65.62-1c-.08-1.5-.15-2.76-.2-3.73C203.29,329,202.33,328.83,201.37,328.62Z"/><path d="M238.07,312.65a39.36,39.36,0,0,0-8-1.69c-2.64-.36-5.33-.42-8-.59-2.41-.15-2.41-.14-3-2.49a1.45,1.45,0,0,1-.12-.56c.15-.83-.35-1.18-1-1.34-2.31-.56-4.6-1.26-6.94-1.59-4-.56-8.1-.9-12.15-1.3q-4.76-.46-9.51-.81c-.69,0-.79-.38-.8-.92,0-.23,0-.45,0-.67-1.48.16-2.95.34-4.42.52-.2.43-.76.51-1.87.53l-2.88.06c-4.05.5-8.08,1-12.14,1.19-2,.12-4.06.17-6.1.15S157,303,155,302.8h-.23c-1.5,0-3,0-4.5.11-3.58.23-7.17.48-10.75.78-4.35.37-8.72.61-13,1.25-2,.31-3.24.31-3.93,2.15a9,9,0,0,0-.41,1.65,6,6,0,0,1-.27,1.17.87.87,0,0,1-.07.17,17.63,17.63,0,0,1-1.39,4.53l.64.14q-1.31,7-2.62,14.08l3.33,1c0-.07,0-.13,0-.19.12-.66.19-1.34.27-2a18.52,18.52,0,0,1,.31-2c1-4.1,2-8.18,3-12.26.26-1.09.47-2.18.65-3.28a1.37,1.37,0,0,1,.1-.4.94.94,0,0,1,.47-.51,1.8,1.8,0,0,1,.41-.13c1.61-.35,3.21-.7,4.83-1a36.46,36.46,0,0,1,4.92-.52c1.33,0,2.67-.1,4-.17,2.66-.15,5.32-.35,8-.52,1.33-.09,2.66-.17,4-.23,7.21-.36,14.42-.61,21.63-.93a75.74,75.74,0,0,1,11.85.83c1.4.17,2.81.31,4.22.41l.24,0c4.12.28,8.25.72,12.35,1.25,2.13.27,4.25.71,6.36,1.13l2.12.41.92.17.34.06c.33.05.66.11,1,.13a3.13,3.13,0,0,1,1,.23,2,2,0,0,1,.38.21,1.8,1.8,0,0,1,.56.63,2.23,2.23,0,0,1,.2.41,5.14,5.14,0,0,1,.25,1c.86,5.54,1.79,11.06,2.72,16.59,1.26-.39,2.51-.8,3.76-1.22-.69-4.05-1.34-8.11-2.09-12.15-.17-.94.14-1.31,1-1.36,1.54-.09,3.1-.2,4.64-.17a27.5,27.5,0,0,1,9.14,1.54,17.59,17.59,0,0,1,4.06,2.52,26.23,26.23,0,0,1,2.27,1.9c1.73-.83,3.43-1.7,5.13-2.58-.23-.22-.46-.44-.7-.65A24.79,24.79,0,0,0,238.07,312.65Z"/><path d="M207.11,328.8c0-.24,0-.48-.05-.73,0-.49,0-1-.06-1.55,0-.28,0-.57,0-.88h0c-.32-.11-.73-.29-1.18-.41a3.43,3.43,0,0,0-.46-.11c-2.22-.35-4.45-.74-6.67-1.1s-4.46-.68-6.7-.91c-4.16-.43-8.34-.7-12.52-.95l-4.17-.25c-2.4-.15-4.8-.31-7.19-.37-.8,0-1.6,0-2.4,0-1.67,0-3.33.05-5,.12s-3.31.18-5,.34-3.3.37-4.94.65-3.27.62-4.89,1c-2.33.61-4.65,1.27-7,1.9a5.87,5.87,0,0,1-1,.25,2.06,2.06,0,0,0-2.1,2c-.12,1.2-.23,2.4-.35,3.61l-.18,1.82c1.18.24,2.36.46,3.54.68,0-.37.07-.75.11-1.12.15-1.22.37-2.42.58-3.63a.52.52,0,0,1,.08-.19.93.93,0,0,1,.55-.44c2.72-.44,5.45-.88,8.18-1.22.37,0,.73-.08,1.1-.11l1.15-.07,2.17-.08,8.14-.37c2.72-.12,5.43-.22,8.14-.27,1,0,2.09,0,3.13,0,2.09,0,4.17.06,6.26.12l3.13.08c3.8.09,7.62,0,11.38.42a82.85,82.85,0,0,1,8.42,1.58c1,.21,1.92.42,2.9.61,0,1,.12,2.23.2,3.73,1-.21,2-.42,2.94-.65a2.28,2.28,0,0,0,0-.26C207.3,331,207.19,329.88,207.11,328.8Z"/><path class="cls-26" d="M112.88,317.86a14,14,0,0,0-7,1,12.28,12.28,0,0,0-3.67,3.87c4,1.74,8.06,3.34,12.2,4.77a7.12,7.12,0,0,0,1.14-2.06C116.56,322.69,115.78,318.31,112.88,317.86Z"/><path class="cls-26" d="M227.75,320.15a9.15,9.15,0,0,0-2.06,2.76,5.21,5.21,0,0,0-.28,4.1q5.47-2,10.75-4.26a18.37,18.37,0,0,0-1.72-1C232.34,320.74,229.73,318.89,227.75,320.15Z"/><path class="cls-3" d="M166,283a8.17,8.17,0,0,0-3.06,1.56,1.28,1.28,0,0,0-.44.6,1.44,1.44,0,0,0-.13.74.47.47,0,0,0,.06.09.94.94,0,0,0,.35.33,3.77,3.77,0,0,0,.69.31,5,5,0,0,0,.85.19,8.5,8.5,0,0,0,.87.07c2,.08,4.08.2,6.11.15,3.88-.08,7.75-.26,11.62-.46.38,0,1-.45,1.06-.7s0-.81,0-1.21c0-1.23-.09-2.48-.14-3.79C177.69,281.54,171.82,282.16,166,283Z"/><path class="cls-3" d="M162,275.71a1.91,1.91,0,0,0-.43.2,1,1,0,0,0-.44.65,2.18,2.18,0,0,0,0,.45c0,.05,0,.08,0,.12a1.32,1.32,0,0,0,.15.45,1,1,0,0,0,.57.46,1.93,1.93,0,0,0,.51.09c2.42.09,4.84.26,7.26.33,3.82.11,7.61.45,11.41-.69l.87-.26.16-.05.31-.1.13-.05.27-.1.1,0,.24-.11a.2.2,0,0,0,.08,0l.21-.11.06,0c.07,0,.12-.09.18-.13l0,0,.15-.15,0,0a.71.71,0,0,0,.12-.18h0a2.39,2.39,0,0,0,.1-1.51h0c0-.13-.05-.27-.08-.42v0c0-.15-.07-.32-.11-.49h0c-.06-.27-.13-.56-.22-.89-1.16.09-2.35.22-3.55.26-3.73.13-7.46.22-11.19.34a3.45,3.45,0,0,0-1,.18l-.15.05c-1.84.6-3.67,1.23-5.51,1.81Z"/><path d="M167.22,303c4.06-.23,8.09-.69,12.14-1.19-4.22.09-8.43.19-12.65.26q-.69,0-1.38,0c-.46,0-.92-.07-1.37-.13a.91.91,0,0,1-.71-.38,1,1,0,0,1,0-.88,3.1,3.1,0,0,1,.55-1.09,2.21,2.21,0,0,1,1.74-.78c1.83-.07,3.67,0,5.51,0,2.36.06,4.72.2,7.09.28,2,.07,3.92.12,5.83.17,0,.26.1.49.14.7a3.75,3.75,0,0,1,.09,1,1,1,0,0,1-.08.32c1.47-.18,2.94-.36,4.42-.52q-.15-6.92-.32-13.83c0-1.25-.07-2.5-.07-3.75,0-2.11,0-4.22,0-6.32v-3.64a39.71,39.71,0,0,1-4.32.72h0c0,.17.08.34.11.49v0c0,.15.05.29.08.42h0a2.39,2.39,0,0,1-.1,1.51h0a.71.71,0,0,1-.12.18l0,0-.15.15,0,0c-.06,0-.11.09-.18.13l-.06,0-.21.11a.2.2,0,0,1-.08,0l-.24.11-.1,0-.27.1-.13.05-.31.1-.16.05-.87.26c-3.8,1.14-7.59.8-11.41.69-2.42-.07-4.84-.24-7.26-.33a1.93,1.93,0,0,1-.51-.09,1,1,0,0,1-.57-.46,1.32,1.32,0,0,1-.15-.45s0-.07,0-.12h0a2.18,2.18,0,0,1,0-.45,1,1,0,0,1,.44-.65,1.91,1.91,0,0,1,.43-.2l.28-.09c1.84-.58,3.67-1.21,5.51-1.81l.06,0c-4.6-.36-9.18-.79-13.65-.81.83.42.88,1.27.89,3.41,0,4,0,8,.24,11.94.21,4.31.63,8.61.94,12.91.08,1.14-.26,1.51-1.26,1.56,2.07.21,4.11.32,6.15.34S165.2,303.11,167.22,303Zm13.85-7.53h-.63c-3.59,0-7.18-.16-10.77-.23-1.64,0-3.29,0-5.25,0h0a19.36,19.36,0,0,1,.05-3.12c.07-.41.61-.83,1-1.07,2.27-1.27,4.79-1.09,7.25-1.15,3-.06,6,.08,9,0a10.17,10.17,0,0,1,1.14,0,1,1,0,0,1,.6.2c.27.24.31.73.36,1.72,0,.66.06,1.2,0,1.64C183.9,295.27,183.44,295.44,181.07,295.46Zm2.73-14.63c0,1.31.11,2.56.14,3.79,0,.4,0,.81,0,1.21s-.68.68-1.06.7c-3.87.2-7.74.38-11.62.46-2,.05-4.07-.07-6.11-.15a8.5,8.5,0,0,1-.87-.07,5,5,0,0,1-.85-.19,3.77,3.77,0,0,1-.69-.31.94.94,0,0,1-.35-.33.47.47,0,0,1-.06-.09,1.44,1.44,0,0,1,.13-.74,1.28,1.28,0,0,1,.44-.6A8.17,8.17,0,0,1,166,283C171.82,282.16,177.69,281.54,183.8,280.83Z"/><path class="cls-3" d="M183.5,290.15a1,1,0,0,0-.6-.2,10.17,10.17,0,0,0-1.14,0c-3,0-6-.1-9,0-2.46.06-5-.12-7.25,1.15-.43.24-1,.66-1,1.07a19.36,19.36,0,0,0-.05,3.12h0c2,0,3.61,0,5.25,0,3.59.07,7.18.23,10.77.23h.63c2.37,0,2.83-.19,2.84-1.95,0-.44,0-1,0-1.64C183.81,290.88,183.77,290.39,183.5,290.15Z"/><path class="cls-3" d="M184.19,300.89a3.75,3.75,0,0,0-.09-1c0-.21-.09-.44-.14-.7-1.91,0-3.87-.1-5.83-.17-2.37-.08-4.73-.22-7.09-.28-1.84,0-3.68-.06-5.51,0a2.17,2.17,0,0,0-1.74.77,3.1,3.1,0,0,0-.55,1.09,1,1,0,0,0,0,.88.91.91,0,0,0,.71.38c.45.06.91.11,1.37.13s.92,0,1.38,0c4.22-.07,8.43-.17,12.65-.26l4.75-.59A1,1,0,0,0,184.19,300.89Z"/></g></g></g></g></svg>
