<svg xmlns="http://www.w3.org/2000/svg" xmlns:xlink="http://www.w3.org/1999/xlink" viewBox="0 0 338.73 338.78" width="338.73" height="338.78"><defs><style>.cls-1{fill:none;}.cls-2{isolation:isolate;}.cls-25,.cls-3{fill:#fff;}.cls-22,.cls-4{fill:#1a396e;}.cls-5{clip-path:url(#clip-path);}.cls-6{fill:url(#New_Gradient_Swatch_1);}.cls-7{fill:#fcd6c4;}.cls-8{fill:#e5e6e6;}.cls-9{fill:url(#New_Gradient_Swatch_1-2);}.cls-10{fill:url(#New_Gradient_Swatch_1-3);}.cls-11{fill:url(#New_Gradient_Swatch_1-4);}.cls-12{fill:url(#New_Gradient_Swatch_1-5);}.cls-13{fill:url(#New_Gradient_Swatch_1-6);}.cls-14{fill:url(#New_Gradient_Swatch_1-7);}.cls-15{fill:url(#New_Gradient_Swatch_1-8);}.cls-16{fill:url(#New_Gradient_Swatch_1-9);}.cls-17{fill:url(#New_Gradient_Swatch_1-10);}.cls-18{fill:url(#New_Gradient_Swatch_1-11);}.cls-19{fill:url(#New_Gradient_Swatch_1-12);}.cls-20{fill:url(#New_Gradient_Swatch_1-13);}.cls-21{fill:#c13014;stroke:#000;stroke-miterlimit:10;}.cls-21,.cls-22,.cls-23,.cls-24,.cls-26,.cls-28{fill-rule:evenodd;}.cls-23,.cls-30{fill:#ff7029;}.cls-24{fill:#1b75ba;}.cls-25{opacity:0.43;}.cls-27{fill:#132847;}.cls-28{fill:#00a69c;}.cls-29{opacity:0.76;mix-blend-mode:multiply;}</style><clipPath id="clip-path"><circle class="cls-1" cx="169.21" cy="169.37" r="161.76"/></clipPath><linearGradient id="New_Gradient_Swatch_1" x1="147.95" y1="175.94" x2="231.54" y2="175.94" gradientUnits="userSpaceOnUse"><stop offset="0.37" stop-color="#f3d2c0"/><stop offset="0.63" stop-color="#f3c6b4"/><stop offset="1" stop-color="#f2b8a7"/></linearGradient><linearGradient id="New_Gradient_Swatch_1-2" x1="230.64" y1="165.3" x2="248.86" y2="165.3" xlink:href="#New_Gradient_Swatch_1"/><linearGradient id="New_Gradient_Swatch_1-3" x1="230.64" y1="180.63" x2="248.86" y2="180.63" xlink:href="#New_Gradient_Swatch_1"/><linearGradient id="New_Gradient_Swatch_1-4" x1="230.64" y1="146.17" x2="248.86" y2="146.17" xlink:href="#New_Gradient_Swatch_1"/><linearGradient id="New_Gradient_Swatch_1-5" x1="230.64" y1="159.48" x2="248.86" y2="159.48" xlink:href="#New_Gradient_Swatch_1"/><linearGradient id="New_Gradient_Swatch_1-6" x1="230.64" y1="172.99" x2="248.86" y2="172.99" xlink:href="#New_Gradient_Swatch_1"/><linearGradient id="New_Gradient_Swatch_1-7" x1="230.64" y1="146" x2="248.86" y2="146" xlink:href="#New_Gradient_Swatch_1"/><linearGradient id="New_Gradient_Swatch_1-8" x1="230.64" y1="150.53" x2="248.86" y2="150.53" xlink:href="#New_Gradient_Swatch_1"/><linearGradient id="New_Gradient_Swatch_1-9" x1="230.64" y1="160.44" x2="248.86" y2="160.44" xlink:href="#New_Gradient_Swatch_1"/><linearGradient id="New_Gradient_Swatch_1-10" x1="230.64" y1="152.96" x2="248.86" y2="152.96" xlink:href="#New_Gradient_Swatch_1"/><linearGradient id="New_Gradient_Swatch_1-11" x1="230.64" y1="184.25" x2="248.86" y2="184.25" xlink:href="#New_Gradient_Swatch_1"/><linearGradient id="New_Gradient_Swatch_1-12" x1="230.64" y1="187.06" x2="248.86" y2="187.06" xlink:href="#New_Gradient_Swatch_1"/><linearGradient id="New_Gradient_Swatch_1-13" x1="230.64" y1="178.75" x2="248.86" y2="178.75" xlink:href="#New_Gradient_Swatch_1"/></defs><title>roshan</title><g class="cls-2"><g id="Layer_2" data-name="Layer 2"><g id="Layer_1-2" data-name="Layer 1"><circle class="cls-3" cx="169.21" cy="169.37" r="165.77"/><path class="cls-4" d="M338.73,169.37C338.44,98.9,293.84,34.65,227.63,10.2,160.91-14.44,83.48,6.67,38.38,61.59s-51.21,134.66-14.2,195.6C61,317.87,133.55,349.51,203.12,335.5c68.54-13.81,123.22-71.09,133.63-140.26a177.88,177.88,0,0,0,2-25.87c0-4.82-7.48-4.83-7.5,0-.28,67.43-43.16,129.46-106.84,152.4s-136.5,3.07-179.87-48.91C.78,220.44-4.74,143.63,30.65,85.34c35-57.68,104.25-88.2,170.47-74.86,65.8,13.25,117.66,67.42,128.19,133.67a165.05,165.05,0,0,1,1.92,25.22C331.25,174.2,338.75,174.21,338.73,169.37Z"/><g class="cls-5"><path class="cls-1" d="M246.2,148.36a8,8,0,0,1,1,1.77A8,8,0,0,0,246.2,148.36Z"/><path class="cls-1" d="M175.71,246.12c.28,0,.56-.05.83-.08-.27,0-.55.07-.83.08-2,.06-4,.14-6,0C171.71,246.26,173.71,246.18,175.71,246.12Z"/><path class="cls-1" d="M71.7,194.76l0,0-.24-.38Z"/><path class="cls-1" d="M248.63,155.78c.06.55.12,1.1.16,1.65C248.75,156.88,248.69,156.33,248.63,155.78Z"/><path class="cls-1" d="M182.12,245a14,14,0,0,1-1.46.3c-.42.06-.83.14-1.24.22.41-.08.82-.16,1.24-.22A14,14,0,0,0,182.12,245Z"/><path class="cls-1" d="M163.43,245.09h0a23.71,23.71,0,0,0,6.24,1.08A23.71,23.71,0,0,1,163.43,245.09Z"/><path class="cls-1" d="M73.14,179.05c-2.1,1-4.19,2-6.25,3l-.44.23.44-.23C69,181,71,180,73.14,179.05Z"/><path class="cls-1" d="M80.28,175.85h0L80,176Z"/><path class="cls-1" d="M177.54,245.89c.63-.12,1.25-.26,1.88-.4C178.79,245.63,178.17,245.77,177.54,245.89Z"/><path class="cls-1" d="M189.81,242.38c0,.1,0,.19.05.27a.66.66,0,0,1,0,.31c-.52,2-1.05,4-1.58,6,.53-2,1.06-4,1.58-6a.66.66,0,0,0,0-.31c0-.08,0-.17-.05-.27a23.34,23.34,0,0,0-2.7.77l-1.1.47,1.1-.47A23.34,23.34,0,0,1,189.81,242.38Z"/><path class="cls-1" d="M185.44,255.74l.35-.17a2.43,2.43,0,0,0,.7-.53,2.43,2.43,0,0,1-.7.53Z"/><path class="cls-1" d="M73.14,179.05C75.41,178,77.7,177,80,176,77.7,177,75.41,178,73.14,179.05Z"/><path class="cls-1" d="M236.34,146.92c0,.15-.06.32-.08.49l-.21,2.08.21-2.08C236.28,147.24,236.31,147.07,236.34,146.92Z"/><path class="cls-1" d="M235.84,151.57c-.07.69-.14,1.38-.22,2.07-.15,1.22-.3,2.43-.46,3.65.16-1.22.31-2.43.46-3.65C235.7,153,235.77,152.26,235.84,151.57Z"/><path class="cls-1" d="M179.89,240.16a14.89,14.89,0,0,1-1.88.25A9.88,9.88,0,0,0,179.89,240.16Z"/><path class="cls-1" d="M222.42,200.19c-.48,1.56-1,3.13-1.63,4.69A49.28,49.28,0,0,0,222.42,200.19Z"/><path class="cls-1" d="M184,158.3c0-.25-.09-.5-.13-.75a25.66,25.66,0,0,0-1.75,3.84l1.89-3Z"/><path class="cls-1" d="M153.07,238.57c.76,1.67,1.53,3.34,2.24,5C154.6,241.91,153.83,240.24,153.07,238.57Z"/><path class="cls-1" d="M229.73,165.05c0,.46-.07.91-.07,1.36C229.66,166,229.7,165.51,229.73,165.05Z"/><path class="cls-1" d="M78,307.78l2.79-10.85c1.78-6.93,3.08-14.22,5.68-20.89,1.41-3.6,3-7.14,4.62-10.65a63,63,0,0,1-13.46,1.79,2.13,2.13,0,0,1-1.22-3.92,60.71,60.71,0,0,0,9.33-7.44c7.59-7.47,11.17-13.46,12.77-17.29L97.53,237a92.43,92.43,0,0,1-31,26.5c-3.38,1.71-12.7,3.18-21.76,1.79a2.14,2.14,0,0,1-.28-4.18C53.55,258.24,62.27,248.69,76,232c-14.56,12.46-25.49,13.22-35.37,11.89a2.14,2.14,0,0,1-.56-4.07c9.22-4,15.67-10.24,18-13.3,5.56-7.47,8.16-17.85,11.1-25-1.22-2-2.87-4.87-4-6.87-.91-1.57-2-3.06-2.86-4.64-.62-1.1-1.06-2.31-1.63-3.44-.32-.64-.8-1.21-1.11-1.86a33.68,33.68,0,0,1-1.4-3.2,1,1,0,0,1,.65-1.32c2-.91,3.92-1.84,5.89-2.74,4.55-2.1,9.13-4.13,13.66-6.3a36.56,36.56,0,0,0,4.29-2.46c1-3.15,2-6.69,3.14-10.73,1.69-5.94,5.36-11.13,6.17-13.58a129.34,129.34,0,0,1,6.25-15.43c12.17-26.09,14.56-44.74,28.17-57.71,5.33-5.08,12.68-8,19.23-10.62,9.83-3.93,25-4.68,35.59-3.81,11.23.91,19.64,6.15,29.16,11.63C227.06,78,238,91,237.72,106.07a126.73,126.73,0,0,0,2,23.38,24,24,0,0,1-1,10.47,1.9,1.9,0,0,1,.54.06c2.77.71,5.59,1.45,7.94,3.15a13.23,13.23,0,0,1,5.67,8,42.63,42.63,0,0,1,.6,8.79c0,1.83-1,6-3,10.72,7.51,3,15.16,5.62,22.8,8.23,4.62,1.58,9.49,3.82,14.29,4.73v0a4.83,4.83,0,0,1,.67.24l0,0c2.15,1,1.74,3.34.32,4.56l.23,0c-3.61,4.53-7.06,9.51-10.47,14.3Q267.44,218.14,257,233.86c.76,2.06,1.81,4,2.66,6,1.24,2.93,2.44,5.87,3.75,8.79.43,1,.87,1.91,1.31,2.87a203,203,0,0,0,62.62-32.25A165.76,165.76,0,0,0,335,169.37c0-1.6,0-3.2-.07-4.79-.8.95-1.64-1.28-1.07-2,.31-.4.63-.79,1-1.18A165.77,165.77,0,1,0,78,307.78Z"/><path class="cls-1" d="M278.4,290c.28,1.12.57,2.24.86,3.36q5.36-4.77,10.29-10-6,1.49-12.15,2.58C277.73,287.3,278.05,288.64,278.4,290Z"/><path class="cls-1" d="M231.54,133c-.2,6.19-.5,12.38-.85,18.57C231,145.37,231.34,139.18,231.54,133Z"/><path class="cls-1" d="M241.83,145.89a21.88,21.88,0,0,0-3.3-.56,2.71,2.71,0,0,0-.93.1,2.71,2.71,0,0,1,.93-.1A21.88,21.88,0,0,1,241.83,145.89Z"/><path class="cls-1" d="M225.12,191.46c-.3,1.06-.63,2.11-1,3.17C224.5,193.57,224.82,192.52,225.12,191.46Z"/><path class="cls-1" d="M159.05,326.91c-.85,1.66-1.72,3.3-2.6,4.95.88-1.65,1.75-3.29,2.6-4.95a37.74,37.74,0,0,1,2-4.31,16.54,16.54,0,0,0,1.5-2.85,16.54,16.54,0,0,1-1.5,2.85A37.74,37.74,0,0,0,159.05,326.91Z"/><path class="cls-1" d="M213.48,111.49l.26.3A1.93,1.93,0,0,0,213.48,111.49Z"/><path class="cls-1" d="M231.19,184.08c.39-2,.79-4.05,1.17-6.08-.38,2-.78,4.05-1.17,6.08-.07.4-.16.8-.24,1.2h0C231,184.88,231.12,184.48,231.19,184.08Z"/><path class="cls-1" d="M157.52,249.71q1.36,3,2.74,6.09-1.38-3-2.74-6.09a3.07,3.07,0,0,1-.2-.5c-.19-.54-.38-1.08-.56-1.61.18.53.37,1.07.56,1.61A3.07,3.07,0,0,0,157.52,249.71Z"/><path class="cls-1" d="M211.66,111.86l0-.07c-1.07,1.19-2.17,4-3.3,7.44.13-.32.25-.63.39-1C209.73,116.14,210.57,113.93,211.66,111.86Z"/><path class="cls-1" d="M163.83,246.65c.09.34.18.65.29.95s.23.55.35.82c-.12-.27-.24-.54-.35-.82S163.92,247,163.83,246.65Z"/><path class="cls-1" d="M246.2,148.36a5.82,5.82,0,0,0-3.07-2,2.43,2.43,0,0,1-.54-.26,2.43,2.43,0,0,0,.54.26A5.82,5.82,0,0,1,246.2,148.36Z"/><path class="cls-1" d="M169.15,280.7c.21,1.16.44,2.31.64,3.46C169.59,283,169.36,281.86,169.15,280.7Z"/><path class="cls-1" d="M163.35,262.57a73.05,73.05,0,0,1,4.55,12.67A72.23,72.23,0,0,0,163.35,262.57Z"/><path class="cls-1" d="M167.73,305.93c.48-2.5,1-5,1.61-7.46a29.66,29.66,0,0,0,.73-4.05,29.66,29.66,0,0,1-.73,4.05C168.71,300.93,168.21,303.43,167.73,305.93Z"/><path class="cls-1" d="M190.59,148.34a1.4,1.4,0,0,1,.1-.16c-1.12,1.28-2.2,2.59-3.21,3.91l.12.8C188.61,151.38,189.61,149.87,190.59,148.34Z"/><path class="cls-1" d="M244.68,173.25l-.48.84h0l.48-.84c1.75-3.12,3.61-6.14,4-9.89.05-.46.08-.92.11-1.38,0,.46-.06.92-.11,1.38C248.29,167.11,246.43,170.13,244.68,173.25Z"/><path class="cls-6" d="M224.85,127.44a25.81,25.81,0,0,1-6.86-6.13c-1.86-2.35-2.43-7.14-4.25-9.52l-.26-.3c-.58-.54-1.17-.38-1.78.3l0,.07c-1.09,2.07-1.93,4.28-2.87,6.42-.14.32-.26.63-.39,1-1.18,3.57-2.4,7.79-3.65,11.46-1.58,4.64-8.22,10.76-14.06,17.49a1.4,1.4,0,0,0-.1.16c-1,1.53-2,3-3,4.55q1,6.6,2,13.22c.77,5.19,1.56,10.37,2.3,15.55.36,2.53.67,5.07.9,7.61.2,2.24-1.05,3.6-3.32,3.82-.59.06-1.17.17-1.76.23-2.76.26-5.53.59-8.3.72-1.49.07-9.6-3.49-10-3.78.46-.15,8,.77,11.38.26,2.32-.35,4.62-.92,7-1.4-.15-1.79-.24-3.47-.43-5.13-.27-2.26-.65-4.5-.92-6.76-.3-2.61-.5-5.24-.79-7.85-.11-1.09-.33-2.16-.49-3.25-.38-2.58-.75-5.16-1.15-7.74l-1.89,3h0c-8,22.89-26.11,43.08-28.22,51.12q-1,3.87-2.22,7.3,3.21,8.33,6.63,16.56a5.07,5.07,0,0,0,.7,1.2,2.88,2.88,0,0,0,1,.86,30,30,0,0,0,4.63,1.44,14,14,0,0,0,1.6.21,29.52,29.52,0,0,0,4.15.63c1.27,0,2.55,0,3.82-.09l3.81-.21h0a14.89,14.89,0,0,0,1.88-.25h0c2.7-.63,5.24-1.65,7.89-2.54,20.39-6.85,29.61-24.31,33-32.74.6-1.56,1.15-3.13,1.63-4.69.55-1.87,1.16-3.71,1.74-5.56.33-1.06.66-2.11,1-3.17.21-.74.41-1.49.6-2.24.57-2.25,1.09-4.51,1.68-6.76a159,159,0,0,0,2.26-16h0c0-.45,0-.9.07-1.36.32-4.49.71-9,1-13.49.35-6.19.65-12.38.85-18.57a7.26,7.26,0,0,0-.26-2.3C231.09,130,228.37,129.59,224.85,127.44Zm-34.19,92.2a17.2,17.2,0,0,1-17.47-1.89,1.82,1.82,0,0,1-.4-.3,1.49,1.49,0,0,1-.36-.4,17.83,17.83,0,0,1-4.75-12,1.75,1.75,0,0,1,2.2-1.68c6.76,2.81,20,4.29,26.12-.67,1-.83,3.16-.44,3,1.23C198.29,210.27,197,216.78,190.66,219.64Z"/><path class="cls-7" d="M185.79,255.57a2.43,2.43,0,0,0,.7-.53,1.62,1.62,0,0,0,.38-.75c.32-1.28.68-2.55,1-3.83l.4-1.51c.53-2,1.06-4,1.58-6a.66.66,0,0,0,0-.31c0-.08,0-.17-.05-.27a23.34,23.34,0,0,0-2.7.77l-1.1.47a26.71,26.71,0,0,1-3.89,1.35,14,14,0,0,1-1.46.3c-.42.06-.83.14-1.24.22-.63.14-1.25.28-1.88.4-.33.06-.66.11-1,.15s-.55.07-.83.08c-2,.06-4,.14-6,0a23.71,23.71,0,0,1-6.24-1.08c.16.61.28,1.11.4,1.56s.18.65.29.95.23.55.35.82c.34.81.71,1.62,1.07,2.44.47,1.08.93,2.17,1.41,3.25a132,132,0,0,0,13.36,3.4,19.29,19.29,0,0,0,5.13-1.77Z"/><path class="cls-3" d="M73.14,179.05c-2.1,1-4.19,2-6.25,3l-.44.23c-1,.55-.89.84-.25,2,1.27,2.37,2.52,4.74,3.77,7.11.33.63.66,1.26,1,1.89l.56,1.08h0l.24.38a5.92,5.92,0,0,1,.5.4c2.16-3.89,4.39-8.24,8-19.34L80,176C77.7,177,75.41,178,73.14,179.05Z"/><path class="cls-3" d="M99.35,234a23.06,23.06,0,0,1-1.82,3l.94,1.54C100,235,99.72,233.26,99.35,234Z"/><path d="M71.51,194.4,71,193.32C71.22,194.06,71.62,195,71.51,194.4Z"/><path d="M72.25,195.19a5.92,5.92,0,0,0-.5-.4l0,0-.19-.35h0c.11.55-.29-.34-.56-1.08s-.65-1.26-1-1.89c-1.25-2.37-2.5-4.74-3.77-7.11-.64-1.18-.71-1.47.25-2l.44-.23c2.06-1,4.15-2,6.25-3C75.41,178,77.7,177,80,176l.3-.12c.7-2.14,1.46-4.54,2.28-7.23a36.56,36.56,0,0,1-4.29,2.46c-4.53,2.17-9.11,4.2-13.66,6.3-2,.9-3.92,1.83-5.89,2.74a1,1,0,0,0-.65,1.32,33.68,33.68,0,0,0,1.4,3.2c.31.65.79,1.22,1.11,1.86.57,1.13,1,2.34,1.63,3.44.89,1.58,1.95,3.07,2.86,4.64,1.16,2,2.81,4.82,4,6.87a36.79,36.79,0,0,1,1.69-3.64Z"/><path class="cls-8" d="M255.7,243.15c.31,2.25-.11,5.36-2,10.28-.18.44-.32.89-.46,1.35q3.45-.85,6.87-1.84-1.35-3-2.63-5.92C256.91,245.74,256.31,244.45,255.7,243.15Z"/><path class="cls-8" d="M238.62,301.51c.06-.33.15-.65.23-1a4.18,4.18,0,0,0-.25.82c-.71,3.51-1.27,7.06-1.64,10.62-.32,3-.5,6-.65,9l0,0c.16-3,.33-5.9.64-8.84C237.35,308.58,237.9,305,238.62,301.51Z"/><path class="cls-8" d="M247.47,289.15c-2.36,9-5.67,22.29-4.89,28.32l-.09.63a166.56,166.56,0,0,0,32.73-21.28q-1.31-5-2.59-10.07A218.33,218.33,0,0,1,247.47,289.15Z"/><path d="M277.4,286c-1.59.28-3.18.55-4.77.8q1.29,5,2.59,10.07,2-1.71,4-3.48c-.29-1.12-.58-2.24-.86-3.36C278.05,288.64,277.73,287.3,277.4,286Z"/><path d="M253.78,238.68a9.7,9.7,0,0,1,1.92,4.47c.61,1.3,1.21,2.59,1.76,3.87q1.28,3,2.63,5.92c1.54-.44,3.08-.9,4.61-1.38-.44-1-.88-1.91-1.31-2.87-1.31-2.92-2.51-5.86-3.75-8.79-.85-2-1.9-4-2.66-6C255.91,235.47,254.84,237.07,253.78,238.68Z"/><path class="cls-8" d="M241.92,178c-.11.16-.22.31-.34.46.12-.15.23-.3.34-.46.81-1.25,1.55-2.55,2.28-3.86h0C243.47,175.4,242.73,176.7,241.92,178Z"/><path class="cls-8" d="M231,187.16c.51-.32,1-.63,1.54-.93-.51.3-1,.61-1.54.93Z"/><path class="cls-8" d="M231,185.28h0c-.1.52-.2,1.05-.31,1.57l.14.12-.14-.12C230.75,186.33,230.85,185.8,231,185.28Z"/><path class="cls-8" d="M237.89,182.28c.67-.65,1.32-1.32,2-2,.39-.39.79-.79,1.16-1.22-.37.43-.77.83-1.16,1.22C239.21,181,238.56,181.63,237.89,182.28Z"/><path class="cls-8" d="M281.79,188.1c-3.39-1.07-6.77-2.5-10-3.62-7.86-2.67-15.71-5.38-23.42-8.47a3.36,3.36,0,0,1-.33-.16c-3.94,7.28-9.86,14.4-17.37,15.53-2.45-.4-6.62,13.58-9.35,19-5.51,12-18.09,24.59-25.77,29-.1.38-.24,1.42-.34,1.8-.5,1.93-.93,3.88-1.41,5.82-.31,1.28-.66,2.56-1,3.84-.44,1.85-.73,3.75-1.3,5.56-.3.94-.63,1.87-1,2.8a161.44,161.44,0,0,0,42.52-.48l1.16-.18c8.43-13.82,17.45-27.3,26.58-40.66C267.63,207.88,274.41,197.72,281.79,188.1Z"/><path class="cls-8" d="M255.7,243.15a9.7,9.7,0,0,0-1.92-4.47q-3.63,5.5-7.18,11c-1.6,2.49-3.25,5-4.9,7.55q5.79-1.08,11.52-2.5c.14-.46.28-.91.46-1.35C255.59,248.51,256,245.4,255.7,243.15Z"/><path class="cls-8" d="M238.6,301.35a4.18,4.18,0,0,1,.25-.82c.51-2.14,1.22-4.25,1.91-6.35a36.07,36.07,0,0,1,2.37-4.92c-2.61,0-5.22.06-7.84,0-3.73-.06-7.45-.2-11.18-.42-.33.83-.65,1.66-1,2.5-1.26,3.49-6.86,2-5.59-1.54.17-.47.36-.93.53-1.4-9.12-.75-18.21-2-27.21-3.58-2.77-.5-5.54-1-8.29-1.61-.28.84-.56,1.69-.86,2.52-.87,2.39-1.89,4.73-2.82,7.1s-1.81,4.74-2.71,7.12c-1.25,3.32-2.46,6.66-3.76,10-.89,2.28-1.92,4.51-2.86,6.77a30.83,30.83,0,0,1-1.62,3.57c-1.86,3.24-3.52,6.59-5.15,10-.75,1.55-1.43,3.13-2.12,4.71,2.82.14,5.65.22,8.51.22A165.26,165.26,0,0,0,236.31,321c.15-3,.33-6,.65-9C237.33,308.41,237.89,304.86,238.6,301.35Z"/><path class="cls-8" d="M116.94,308a23.12,23.12,0,0,1,3.44,11.32c.21-2.17.49-4.34.59-6.51.12-2.5,0-5,0-7.5,0-3.72-1.38-15.89-1.4-15.61a44.92,44.92,0,0,1-1.61,7.25c.13-11.49-2.94-22.43-11.18-30.12.33-.16-.64-3.13-2-6.67a58,58,0,0,1-7.63,3.39A108.05,108.05,0,0,0,90,280.27c-2.46,8.12-4.26,16.5-6.37,24.72-.48,1.83-1,3.67-1.42,5.5a165.29,165.29,0,0,0,33.11,15.69A55.23,55.23,0,0,0,116.94,308Z"/><path d="M90,280.27a108.05,108.05,0,0,1,7.21-16.74,62.33,62.33,0,0,1-6.15,1.86c-1.62,3.51-3.21,7.05-4.62,10.65-2.6,6.67-3.9,14-5.68,20.89L78,307.78c1.4.92,2.81,1.83,4.24,2.71.47-1.83.94-3.67,1.42-5.5C85.73,296.77,87.53,288.39,90,280.27Z"/><path class="cls-8" d="M159.05,326.91a37.74,37.74,0,0,1,2-4.31,16.54,16.54,0,0,0,1.5-2.85c.14-.32.28-.65.43-1a3.77,3.77,0,0,1,.27-.47,36.68,36.68,0,0,0,4.47-12.37c.48-2.5,1-5,1.61-7.46a29.66,29.66,0,0,0,.73-4.05,44.13,44.13,0,0,0,.14-6.8,29.16,29.16,0,0,0-.42-3.46c-.2-1.15-.43-2.3-.64-3.46-.13-.77-.25-1.54-.34-2.32a22.8,22.8,0,0,0-.91-3.14,73.05,73.05,0,0,0-4.55-12.67c-1.08-2.23-2.07-4.51-3.09-6.77q-1.38-3-2.74-6.09a3.07,3.07,0,0,1-.2-.5c-.19-.54-.38-1.08-.56-1.61-.45-1.35-.9-2.69-1.45-4-.71-1.69-1.48-3.36-2.24-5s-1.5-3.36-2.15-5.07c-.77-2-1.54-4-2.36-6-8.32,18-20.15,25.61-27.23,28.7a2.13,2.13,0,0,1-2.63-3.13c3.38-5.17,7.31-11.59,1.76-5.32a55.89,55.89,0,0,1-15.63,12.38c1.33,3.54,2.3,6.51,2,6.67,8.24,7.69,11.31,18.63,11.18,30.12a44.92,44.92,0,0,0,1.61-7.25c0-.28,1.43,11.89,1.4,15.61,0,2.5.1,5,0,7.5-.1,2.17-.38,4.34-.59,6.51a47,47,0,0,1-.31,8.44,164.89,164.89,0,0,0,35,6.8l1.41-2.68C157.33,330.21,158.2,328.57,159.05,326.91Z"/><path d="M120.38,319.3A23.12,23.12,0,0,0,116.94,308a55.23,55.23,0,0,1-1.63,18.2c1.58.54,3.16,1.07,4.76,1.56A47,47,0,0,0,120.38,319.3Z"/><path d="M247.47,289.15c-1.44.05-2.89.08-4.34.11a36.07,36.07,0,0,0-2.37,4.92c-.69,2.1-1.4,4.21-1.91,6.35-.08.33-.17.65-.23,1-.72,3.51-1.27,7.07-1.65,10.63-.31,2.94-.48,5.89-.64,8.84q3.12-1.38,6.16-2.88l.09-.63C241.8,311.44,245.11,298.15,247.47,289.15Z"/><path d="M168,320.27a30.83,30.83,0,0,0,1.62-3.57c.94-2.26,2-4.49,2.86-6.77,1.3-3.3,2.51-6.64,3.76-10,.9-2.38,1.79-4.76,2.71-7.12s2-4.71,2.82-7.1c.3-.83.58-1.68.86-2.52l-2.21-.45c-2.87-.62-5.27-.42-6.41-3.29-3.15-7.92-7.54-15.17-9.77-23.45a1.54,1.54,0,0,1,.32-1.5,1.48,1.48,0,0,1,1.79-.61l.63.18c-.48-1.08-.94-2.17-1.41-3.25-.36-.82-.73-1.63-1.07-2.44-.12-.27-.24-.54-.35-.82s-.2-.61-.29-.95-.24-1-.4-1.56h0a23.71,23.71,0,0,0,6.24,1.08c2,.09,4,0,6,0,.28,0,.56-.05.83-.08s.67-.09,1-.15c.63-.12,1.25-.26,1.88-.4.41-.08.82-.16,1.24-.22a14,14,0,0,0,1.46-.3,26.71,26.71,0,0,0,3.89-1.35l1.1-.47a23.34,23.34,0,0,1,2.7-.77c0,.1,0,.19.05.27a.66.66,0,0,1,0,.31c-.52,2-1.05,4-1.58,6l-.4,1.51c-.34,1.28-.7,2.55-1,3.83a1.62,1.62,0,0,1-.38.75,2.43,2.43,0,0,1-.7.53l-.35.17a19.29,19.29,0,0,1-5.13,1.77q5.07,1,10.22,1.68c.35-.93.68-1.86,1-2.8.57-1.81.86-3.71,1.3-5.56.3-1.28.65-2.56,1-3.84.48-1.94.91-3.89,1.41-5.82.1-.38.24-1.42.34-1.8,7.68-4.37,20.26-17,25.77-29,2.73-5.45,6.9-19.43,9.35-19,7.51-1.13,13.43-8.25,17.37-15.53-3-1.6-1.47-6.77,1.87-5.43l.62.24c2-4.73,3-8.89,3-10.72a42.63,42.63,0,0,0-.6-8.79,13.23,13.23,0,0,0-5.67-8c-2.35-1.7-5.17-2.44-7.94-3.15a1.9,1.9,0,0,0-.54-.06c-.52,1.53-1,2.34-1.2,2-1.9-.09-4.7-9.56-6.28-11.18a7.26,7.26,0,0,1,.26,2.3c-.2,6.19-.5,12.38-.85,18.57-.25,4.5-.64,9-1,13.49,0,.46-.07.91-.07,1.36h0a159,159,0,0,1-2.26,16c-.59,2.25-1.11,4.51-1.68,6.76-.19.75-.39,1.5-.6,2.24-.3,1.06-.62,2.11-1,3.17-.58,1.85-1.19,3.69-1.74,5.56a49.28,49.28,0,0,1-1.63,4.69c-3.39,8.43-12.61,25.89-33,32.74-2.65.89-5.19,1.91-7.89,2.54h0a9.88,9.88,0,0,1-1.88.25h0l-3.81.21c-1.27.06-2.55.1-3.82.09a29.52,29.52,0,0,1-4.15-.63,14,14,0,0,1-1.6-.21,30,30,0,0,1-4.63-1.44,2.88,2.88,0,0,1-1-.86,5.07,5.07,0,0,1-.7-1.2q-3.4-8.25-6.63-16.56c-1,2.76-2,5.32-3.1,7.7.82,2,1.59,4,2.36,6,.65,1.71,1.4,3.39,2.15,5.07s1.53,3.34,2.24,5c.55,1.31,1,2.65,1.45,4,.18.53.37,1.07.56,1.61a3.07,3.07,0,0,0,.2.5q1.36,3,2.74,6.09c1,2.26,2,4.54,3.09,6.77a72.23,72.23,0,0,1,4.55,12.67,22.8,22.8,0,0,1,.91,3.14c.09.78.21,1.55.34,2.32.21,1.16.44,2.31.64,3.46a29.16,29.16,0,0,1,.42,3.46,44.13,44.13,0,0,1-.14,6.8,29.66,29.66,0,0,1-.73,4.05c-.63,2.46-1.13,5-1.61,7.46a36.68,36.68,0,0,1-4.47,12.37,3.77,3.77,0,0,0-.27.47c-.15.33-.29.66-.43,1a16.54,16.54,0,0,1-1.5,2.85,37.74,37.74,0,0,0-2,4.31c-.85,1.66-1.72,3.3-2.6,4.95L155,334.54c1.88.16,3.76.3,5.66.39.69-1.58,1.37-3.16,2.12-4.71C164.45,326.86,166.11,323.51,168,320.27Zm66.65-158.61.54-4.37c.16-1.22.31-2.43.46-3.65.08-.69.15-1.38.22-2.07s.15-1.39.21-2.08l.21-2.08c0-.17.05-.34.08-.49a1.83,1.83,0,0,1,1.26-1.49,2.71,2.71,0,0,1,.93-.1,21.88,21.88,0,0,1,3.3.56l.43.09a2.26,2.26,0,0,1,.33.13,2.43,2.43,0,0,0,.54.26,5.82,5.82,0,0,1,3.07,2,8,8,0,0,1,1,1.77,13.1,13.1,0,0,1,.55,1.49,27.66,27.66,0,0,1,.85,4.16c.06.55.12,1.1.16,1.65s.05,1,.06,1.47c0,1,0,2-.08,3.08,0,.46-.06.92-.11,1.38-.37,3.75-2.23,6.77-4,9.89l-.48.84c-.73,1.31-1.47,2.61-2.28,3.86-.11.16-.22.31-.34.46a7,7,0,0,1-.55.67c-.37.43-.77.83-1.16,1.22-.66.66-1.31,1.33-2,2a26.07,26.07,0,0,1-2.09,1.85,32.21,32.21,0,0,1-3.25,2.1c-.51.3-1,.61-1.54.93h0l-.23-.19-.14-.12c.11-.52.21-1,.31-1.57s.17-.8.24-1.2c.39-2,.79-4.05,1.17-6.08s.76-4.06,1.1-6.1c.21-1.3.34-2.61.46-3.92a4.76,4.76,0,0,1-1.11,1c-.94.34-1.56.16-1.79-.76S233.13,163.7,234.62,161.66Z"/><path d="M97.2,263.53a58,58,0,0,0,7.63-3.39,55.89,55.89,0,0,0,15.63-12.38c5.55-6.27,1.62.15-1.76,5.32a2.13,2.13,0,0,0,2.63,3.13c7.08-3.09,18.91-10.69,27.23-28.7,1.1-2.38,2.14-4.94,3.1-7.7q1.2-3.44,2.22-7.3c2.11-8,20.25-28.23,28.22-51.12h0a25.66,25.66,0,0,1,1.75-3.84c-.22-1.26-.46-2.52-.69-3.78-.14-.78-.3-1.56-.45-2.33l-.3-.06L181,153.71c1-3.43,3.32-5.9,5.57-8.38a7.88,7.88,0,0,0,.09,1.17c.3,1.86.58,3.73.86,5.59,1-1.32,2.09-2.63,3.21-3.91,5.84-6.73,12.48-12.85,14.06-17.49,1.25-3.67,2.47-7.89,3.65-11.46s2.23-6.25,3.3-7.44c.61-.68,1.2-.84,1.78-.3a1.93,1.93,0,0,1,.26.3c1.82,2.38,2.39,7.17,4.25,9.52a25.81,25.81,0,0,0,6.86,6.13c3.52,2.15,6.24,2.58,6.43,3.25,1.58,1.62,4.38,11.09,6.28,11.18.15.39.68-.42,1.2-2a24,24,0,0,0,1-10.47,126.73,126.73,0,0,1-2-23.38C238,91,227.06,78,210.27,68.37c-9.52-5.48-17.93-10.72-29.16-11.63-10.57-.87-25.76-.12-35.59,3.81-6.55,2.62-13.9,5.54-19.23,10.62-13.61,13-16,31.62-28.17,57.71a129.34,129.34,0,0,0-6.25,15.43c-.81,2.45-4.48,7.64-6.17,13.58-1.14,4-2.19,7.58-3.14,10.73-.82,2.69-1.58,5.09-2.28,7.23h0c-3.64,11.1-5.87,15.45-8,19.34l-1.46,2.62a36.79,36.79,0,0,0-1.69,3.64c-2.94,7.19-5.54,17.57-11.1,25-2.28,3.06-8.73,9.33-18,13.3a2.14,2.14,0,0,0,.56,4.07c9.88,1.33,20.81.57,35.37-11.89-13.71,16.72-22.43,26.27-31.51,29.13a2.14,2.14,0,0,0,.28,4.18c9.06,1.39,18.38-.08,21.76-1.79a92.43,92.43,0,0,0,31-26.5,23.06,23.06,0,0,0,1.82-3c.37-.77.62.92-.88,4.5-1.6,3.83-5.18,9.82-12.77,17.29a60.71,60.71,0,0,1-9.33,7.44,2.13,2.13,0,0,0,1.22,3.92,63,63,0,0,0,13.46-1.79A62.33,62.33,0,0,0,97.2,263.53Z"/><path d="M223.16,291.36c.3-.84.62-1.67,1-2.5q-3-.18-6-.44c-.17.47-.36.93-.53,1.4C216.3,293.33,221.9,294.85,223.16,291.36Z"/><path d="M248,175.85a3.36,3.36,0,0,0,.33.16c7.71,3.09,15.56,5.8,23.42,8.47,3.26,1.12,6.64,2.55,10,3.62-7.38,9.62-14.16,19.78-21,29.77-9.13,13.36-18.15,26.84-26.58,40.66q3.75-.54,7.49-1.25c1.65-2.54,3.3-5.06,4.9-7.55q3.56-5.55,7.18-11c1.06-1.61,2.13-3.21,3.2-4.82q10.45-15.71,21.38-31.11c3.41-4.79,6.86-9.77,10.47-14.3l-.23,0c1.42-1.22,1.83-3.53-.32-4.56l0,0a4.83,4.83,0,0,0-.67-.24v0c-4.8-.91-9.67-3.15-14.29-4.73-7.64-2.61-15.29-5.25-22.8-8.23l-.62-.24C246.54,169.08,245,174.25,248,175.85Z"/><path class="cls-9" d="M235.29,160.8c.55-.66,1.1-1.33,1.66-2l.07.06a43.86,43.86,0,0,1,6.33-5.19c.24.48,1.06.73.65,1.48a13.91,13.91,0,0,1-1,1.9c-2,2.71-6.77,8.6-9,10.92-.12,1.31-.25,2.62-.46,3.92q-.51,3.06-1.1,6.1c-.38,2-.78,4.05-1.17,6.08-.07.4-.16.8-.24,1.2,3-3.55,6.09-10.69,8.85-11,1.07-.11,2.69-.17,4.4-.21l.48-.84c1.75-3.12,3.61-6.14,4-9.89.05-.46.08-.92.11-1.38.07-1,.1-2.06.08-3.08q0-.74-.06-1.47c0-.55-.1-1.1-.16-1.65a27.66,27.66,0,0,0-.85-4.16,13.1,13.1,0,0,0-.55-1.49,8,8,0,0,0-1-1.77,5.82,5.82,0,0,0-3.07-2,2.43,2.43,0,0,1-.54-.26,2.26,2.26,0,0,0-.33-.13l-.43-.09a21.88,21.88,0,0,0-3.3-.56,2.71,2.71,0,0,0-.93.1,1.85,1.85,0,0,0-1.26,1.49c0,.15-.06.32-.08.49l-.21,2.08c-.06.69-.14,1.38-.21,2.08s-.14,1.38-.22,2.07c-.15,1.22-.3,2.43-.46,3.65l-.54,4.37C234.87,161.32,235.1,161,235.29,160.8Z"/><path class="cls-8" d="M244.2,174.09c-1.71,0-3.33.1-4.4.21-2.76.29-5.9,7.43-8.85,11-.1.52-.2,1.05-.31,1.57l.14.12.23.19c.51-.32,1-.63,1.54-.93a32.21,32.21,0,0,0,3.25-2.1,26.07,26.07,0,0,0,2.09-1.85c.67-.65,1.32-1.32,2-2,.39-.39.79-.79,1.16-1.22a7,7,0,0,0,.55-.67c.12-.15.23-.3.34-.46C242.73,176.7,243.47,175.4,244.2,174.09Z"/><path class="cls-10" d="M244.2,174.09c-1.71,0-3.33.1-4.4.21-2.76.29-5.9,7.43-8.85,11-.1.52-.2,1.05-.31,1.57l.14.12.23.19c.51-.32,1-.63,1.54-.93a32.21,32.21,0,0,0,3.25-2.1,26.07,26.07,0,0,0,2.09-1.85c.67-.65,1.32-1.32,2-2,.39-.39.79-.79,1.16-1.22a7,7,0,0,0,.55-.67c.12-.15.23-.3.34-.46C242.73,176.7,243.47,175.4,244.2,174.09Z"/><path d="M237.6,145.43a1.83,1.83,0,0,0-1.26,1.49A1.85,1.85,0,0,1,237.6,145.43Z"/><path class="cls-11" d="M237.6,145.43a1.83,1.83,0,0,0-1.26,1.49A1.85,1.85,0,0,1,237.6,145.43Z"/><path d="M235.16,157.29l-.54,4.37h0Z"/><path class="cls-12" d="M235.16,157.29l-.54,4.37h0Z"/><path d="M233.92,168h0c-.12,1.31-.25,2.62-.46,3.92q-.51,3.06-1.1,6.1.58-3,1.1-6.1C233.67,170.6,233.8,169.29,233.92,168Z"/><path class="cls-13" d="M233.92,168h0c-.12,1.31-.25,2.62-.46,3.92q-.51,3.06-1.1,6.1.58-3,1.1-6.1C233.67,170.6,233.8,169.29,233.92,168Z"/><path d="M242.59,146.11a2.26,2.26,0,0,0-.33-.13l-.43-.09.43.09A2.26,2.26,0,0,1,242.59,146.11Z"/><path class="cls-14" d="M242.59,146.11a2.26,2.26,0,0,0-.33-.13l-.43-.09.43.09A2.26,2.26,0,0,1,242.59,146.11Z"/><path d="M235.84,151.57c.07-.7.15-1.39.21-2.08C236,150.18,235.91,150.87,235.84,151.57Z"/><path class="cls-15" d="M235.84,151.57c.07-.7.15-1.39.21-2.08C236,150.18,235.91,150.87,235.84,151.57Z"/><path d="M248.85,158.9c0,1,0,2-.08,3.08C248.84,161,248.87,159.92,248.85,158.9Z"/><path class="cls-16" d="M248.85,158.9c0,1,0,2-.08,3.08C248.84,161,248.87,159.92,248.85,158.9Z"/><path d="M248.63,155.78a27.66,27.66,0,0,0-.85-4.16,13.1,13.1,0,0,0-.55-1.49,13.1,13.1,0,0,1,.55,1.49A27.66,27.66,0,0,1,248.63,155.78Z"/><path class="cls-17" d="M248.63,155.78a27.66,27.66,0,0,0-.85-4.16,13.1,13.1,0,0,0-.55-1.49,13.1,13.1,0,0,1,.55,1.49A27.66,27.66,0,0,1,248.63,155.78Z"/><path d="M232.55,186.23a32.21,32.21,0,0,0,3.25-2.1,26.07,26.07,0,0,0,2.09-1.85,26.07,26.07,0,0,1-2.09,1.85A32.21,32.21,0,0,1,232.55,186.23Z"/><path class="cls-18" d="M232.55,186.23a32.21,32.21,0,0,0,3.25-2.1,26.07,26.07,0,0,0,2.09-1.85,26.07,26.07,0,0,1-2.09,1.85A32.21,32.21,0,0,1,232.55,186.23Z"/><path d="M231,187.16h0l-.23-.19Z"/><path class="cls-19" d="M231,187.16h0l-.23-.19Z"/><path d="M241.58,178.41a7,7,0,0,1-.55.67A7,7,0,0,0,241.58,178.41Z"/><path class="cls-20" d="M241.58,178.41a7,7,0,0,1-.55.67A7,7,0,0,0,241.58,178.41Z"/><path d="M232.81,168.94a4.76,4.76,0,0,0,1.11-1h0c2.27-2.32,7-8.21,9-10.92a13.91,13.91,0,0,0,1-1.9c.41-.75-.41-1-.65-1.48a43.86,43.86,0,0,0-6.33,5.19l-.07-.06c-.56.66-1.11,1.33-1.66,2-.19.22-.42.52-.67.86h0c-1.49,2-3.79,5.75-3.6,6.52S231.87,169.28,232.81,168.94Z"/><path d="M184,158.39c.4,2.58.77,5.16,1.15,7.74.16,1.09.38,2.16.49,3.25.29,2.61.49,5.24.79,7.85.27,2.26.65,4.5.92,6.76.19,1.66.28,3.34.43,5.13-2.35.48-4.65,1-7,1.4-3.38.51-10.92-.41-11.38-.26.37.29,8.48,3.85,10,3.78,2.77-.13,5.54-.46,8.3-.72.59-.06,1.17-.17,1.76-.23,2.27-.22,3.52-1.58,3.32-3.82-.23-2.54-.54-5.08-.9-7.61-.74-5.18-1.53-10.36-2.3-15.55q-1-6.62-2-13.22l-.12-.8c-.28-1.86-.56-3.73-.86-5.59a7.88,7.88,0,0,1-.09-1.17c-2.25,2.48-4.52,4.95-5.57,8.38l1.45-2.33.3.06c.15.77.31,1.55.45,2.33.23,1.26.47,2.52.69,3.78,0,.25.09.5.13.75Z"/><path d="M193.91,210.4a29.06,29.06,0,0,1-19.51.76,9,9,0,0,1-2.62-2.07,13.78,13.78,0,0,0,3.47,5.9,13.61,13.61,0,0,0,13.35,1.77,9.59,9.59,0,0,0,5.78-6.64A2.29,2.29,0,0,1,193.91,210.4Z"/><path d="M180.68,209.33h0Z"/><path d="M196,202.7c-6.11,5-19.36,3.48-26.12.67a1.75,1.75,0,0,0-2.2,1.68,17.83,17.83,0,0,0,4.75,12,1.49,1.49,0,0,0,.36.4,1.82,1.82,0,0,0,.4.3,17.2,17.2,0,0,0,17.47,1.89c6.35-2.86,7.63-9.37,8.32-15.71C199.16,202.26,197,201.87,196,202.7Zm-7.4,14.06A13.61,13.61,0,0,1,175.25,215a13.78,13.78,0,0,1-3.47-5.9c-.65-.69-1.13-1.37-1.06-1.7.18-.85,3.31.6,4.39.93a24.65,24.65,0,0,0,5.57,1h.12A28.55,28.55,0,0,0,193,207.19c1-.39,2.9-1.05,3.53-.45s-1.09,2.57-2.17,3.38A9.59,9.59,0,0,1,188.6,216.76Z"/><path class="cls-3" d="M174.4,211.16a29.06,29.06,0,0,0,19.51-.76,2.29,2.29,0,0,0,.47-.28c1.08-.81,2.69-2.89,2.17-3.38s-2.53.06-3.53.45a28.55,28.55,0,0,1-12.22,2.14h-.12a24.65,24.65,0,0,1-5.57-1c-1.08-.33-4.21-1.78-4.39-.93-.07.33.41,1,1.06,1.7A9,9,0,0,0,174.4,211.16Z"/><path d="M334.91,164.58q0-1.59-.12-3.18c-.32.39-.64.78-1,1.18C333.27,163.3,334.11,165.53,334.91,164.58Z"/><path class="cls-21" d="M201.2,234c-4.69,18.13-20,34.38-19.51,42.52-13.28-2.95-8.5-4.74-8.8-5.75-2-6.73-12.58-26.85-12.58-26.85s29.44,8.69,40.89-9.92"/><path d="M200.47,231.71c-2.61,9.68-7.68,18.33-12.75,26.89-3.06,5.18-7.8,11.55-7.65,17.88l2.1-1.6a37.49,37.49,0,0,1-8.31-2.67c-.6-.3-.37.41,0-.45,1.17-2.42-1.6-6.63-2.56-8.79-3.21-7.23-6.8-14.31-10.47-21.31L159,244.1c15.12,4.41,35.27,3.38,44.52-11.11,1.15-1.81-1.73-3.48-2.87-1.68-8.4,13.15-27.18,13.55-40.76,9.58a1.68,1.68,0,0,0-1.88,2.44c4,7.63,8,15.34,11.32,23.28.42,1,.84,2,1.2,3a7.73,7.73,0,0,0,.36,1.09c.36.65.34-1.11.05-.47a4,4,0,0,0-.62,2.33c.57,3.93,8.21,4.86,11,5.49a1.67,1.67,0,0,0,2.1-1.6c-.07-3,1.41-5.8,2.73-8.35,1.83-3.52,3.92-6.9,5.93-10.31,4.71-8,9.19-16.21,11.62-25.23a1.66,1.66,0,0,0-3.2-.88Z"/><path class="cls-22" d="M234.29,185.16c.38.15.89.33,1.38.56a6.12,6.12,0,0,1,2,2,5.37,5.37,0,0,1-2.08,7.94,6.33,6.33,0,0,1-1.69.33,11.05,11.05,0,0,1-1.29,0,.81.81,0,0,1-.22,0c-1.22-.41-2.55-.47-3.66-1.24a2.89,2.89,0,0,1-.88-.93,6.09,6.09,0,0,1-.89-3.71,7.71,7.71,0,0,1,1.62-3.94,3,3,0,0,1,1.79-1.13A9.41,9.41,0,0,1,234.29,185.16Z"/><path d="M234,186.31c2.27.89,4,3,3.43,5.53a4,4,0,0,1-4.43,3c-2.67-.16-4.92-1.54-4.75-4.48a5.18,5.18,0,0,1,1-2.93c1.29-1.6,2.92-1.43,4.72-1.15,1.5.23,2.15-2.07.63-2.31-4.26-.66-7.66.56-8.65,5.14s2.05,7.61,6.32,8.11c3.23.38,6.48-1.24,7.36-4.49,1.09-4-1.44-7.35-5-8.76C233.17,183.44,232.55,185.75,234,186.31Z"/><path d="M237.72,192.82a1.2,1.2,0,0,0,0-2.39,1.2,1.2,0,0,0,0,2.39Z"/><path class="cls-22" d="M234.19,185.13c.39.15.9.32,1.39.55a5.92,5.92,0,0,1,2.08,2,4.87,4.87,0,0,1,1,3.13,4.94,4.94,0,0,1-3,4.85A6.62,6.62,0,0,1,234,196a11,11,0,0,1-1.29,0,.55.55,0,0,1-.22,0c-1.23-.38-2.56-.42-3.68-1.17a2.89,2.89,0,0,1-.9-.91,6.07,6.07,0,0,1-.95-3.7,7.63,7.63,0,0,1,1.55-4,3,3,0,0,1,1.77-1.17A9.49,9.49,0,0,1,234.19,185.13Zm-6.14,6.33c0,.1-.05.17-.06.24a.5.5,0,0,0,0,.21,3.72,3.72,0,0,0,2.52,2.61c.52.15,1,.31,1.57.41a4.29,4.29,0,0,0,2.25,0,13.1,13.1,0,0,0,1.59-.68,2.35,2.35,0,0,0,1.21-1.35c-1.14-.26-2.25-.4-3.28-.71-.23-.7-.23-.7-.16-1.1s.11-.64.16-1c0-.13.06-.29-.17-.37a10,10,0,0,1-1.29.91,4,4,0,0,0-1.3,1C230,192,229.05,191.41,228.05,191.46Zm2.56-.73a30.7,30.7,0,0,0,.49-4.49,3.83,3.83,0,0,0-2.35,1.49,3.66,3.66,0,0,0-.81,2.79A7.41,7.41,0,0,0,230.61,190.73Zm4.22.57a5.72,5.72,0,0,0,2.75.49,2.17,2.17,0,0,0,.16-.25,3.84,3.84,0,0,0-1.48-3.92,1,1,0,0,0-.88-.32c-.18,1.1-.35,2.17-.52,3.23,0,.18-.06.35-.08.53A1.48,1.48,0,0,0,234.83,191.3Z"/><path class="cls-23" d="M228.05,191.46c1-.05,2,.55,3.06.15a4,4,0,0,1,1.3-1,10,10,0,0,0,1.29-.91c.23.08.18.24.17.37-.05.32-.11.64-.16,1s-.07.4.16,1.1c1,.31,2.14.45,3.28.71a2.35,2.35,0,0,1-1.21,1.35,13.1,13.1,0,0,1-1.59.68,4.29,4.29,0,0,1-2.25,0c-.53-.1-1-.26-1.57-.41a3.72,3.72,0,0,1-2.52-2.61.5.5,0,0,1,0-.21C228,191.63,228,191.56,228.05,191.46Z"/><path class="cls-24" d="M230.61,190.73a7.41,7.41,0,0,1-2.67-.21,3.66,3.66,0,0,1,.81-2.79,3.83,3.83,0,0,1,2.35-1.49A30.7,30.7,0,0,1,230.61,190.73Z"/><path class="cls-24" d="M234.83,191.3a1.48,1.48,0,0,1-.05-.24c0-.18.05-.35.08-.53.17-1.06.34-2.13.52-3.23a1,1,0,0,1,.88.32,3.84,3.84,0,0,1,1.48,3.92,2.17,2.17,0,0,1-.16.25A5.72,5.72,0,0,1,234.83,191.3Z"/><circle class="cls-25" cx="234.58" cy="188.64" r="2.27"/><path class="cls-26" d="M89.82,235.36c1.6,3.32,15.9,30.44,17.19,32.28,5,10.49,16.81,30.25,19.54,32.87,2.26-5-27.81-61.35-30.23-66-.53-.95-1.4-2.33-1.45-2.5l0,0C92.25,231.58,91.28,233.85,89.82,235.36Z"/><path d="M224.14,140.54c-3.18,6.47-8,11.21-15.15,12.91a31.52,31.52,0,0,1-8.16.77c-1.93-.05-4-.56-5.91-.11-.67.16-.61,1.61-.12,1.92,4,2.6,11.6,1.17,15.87-.1a19.72,19.72,0,0,0,14.12-14.84c.08-.34-.38-1.11-.65-.55Z"/><path d="M197.43,239.86a1.68,1.68,0,0,0,0-3.36,1.68,1.68,0,0,0,0,3.36Z"/><path class="cls-27" d="M85.23,264.26c4-.2,7.83-1.92,11.37-3.54a109.16,109.16,0,0,0,17.05-9.8,57,57,0,0,0,15.41-15.28c4.95-7.47,7.74-16.29,12.31-24,7.4-12.54,17.22-23.4,23.62-36.55,3.44-7,5-15.31,9.23-21.89,3.58-5.65,8.53-10.42,13.09-15.26,9.8-10.4,24.79-25,22.06-40.89-.34-2-2.22-1.69-2.61.07a51.83,51.83,0,0,1-7.56,18.71C195,122,189.84,127.53,184.71,133c-4.24,4.51-8.63,9-12.23,14-4,5.65-5.54,12.39-8.2,18.73-5.49,13.09-14.2,23.71-21.94,35.44a151.51,151.51,0,0,0-11.61,21.31,70.2,70.2,0,0,1-13.25,20,68.29,68.29,0,0,1-18.5,14c-4.21,2.19-9.06,4.7-13.8,5.46-1,.15-1,2.31,0,2.26Z"/><path class="cls-27" d="M134,179.91c6-1.63,11.17-7.23,14.35-12.3,2.21-3.52,3.47-7.51,5.77-11a69.4,69.4,0,0,1,7.81-9.48c11.41-11.87,24.69-24.46,26-41.91.27-3.58-3.67-6.47-4.48-1.76-2.92,16.78-14.95,27-24.68,40a61.14,61.14,0,0,0-5.8,8.95c-1.67,3.29-2.52,6.82-3.95,10.2-3,7.12-9.11,11.65-15.31,15.81-.48.32-.47,1.66.29,1.45Z"/><path class="cls-27" d="M132,159.71c3.23-6.64,9.06-9.56,13.46-15.12,1.83-2.31,2.4-5.12,4-7.56a33.18,33.18,0,0,1,6.27-6.59c9.35-8.26,19.88-15.68,18-29.72-.53-4-4.53-2.36-4.5,1,.11,12.81-13.09,18.48-19.76,27.71-3.6,5-3.5,11.86-7.78,16.15-4.1,4.12-9.62,7.09-10.51,13.36-.06.41.48,1.46.84.72Z"/><path d="M111.47,115.56a9.63,9.63,0,0,0,.78,7.15c.33.66,1,1.07,1.55.41a2.16,2.16,0,0,0,0-2.38,9.38,9.38,0,0,1-1-4.64c0-.83-1-1.68-1.4-.54Z"/><path class="cls-28" d="M230.37,70c0-26-49.3-36.95-84.28-25.29-38.2,12.74-60.77,51.37-64,72-5,31.4-.91,33.23,1.36,40.37,4.34,13.62,11.8-20.15,19.66-25.79"/><path d="M232,70c-.29-20.37-25.07-28.34-41.54-30.58-24.69-3.37-50,2.1-70.09,17.1C103.23,69.32,89,87.91,82.44,108.38a86.78,86.78,0,0,0-3,14.9,125.31,125.31,0,0,0-1.41,17.19,41.17,41.17,0,0,0,3.13,15.16c.81,2.11,1.4,5.69,4.08,6.2,2.87.55,4.75-3.12,5.85-5.15,2.29-4.24,4-8.77,6-13.13,1.64-3.56,3.46-8.41,6.69-10.87,1.61-1.23,0-4-1.61-2.76-5.52,4.21-8,12.36-10.71,18.45-1.34,3-2.59,6.3-4.53,9-.42.57-1.32,1.25-1.08,1.36-.73-.34-1-2.19-1.27-2.89-1.42-4-3-7.57-3.28-11.86-.74-9.9.61-20.77,2.91-30.36C88.75,95,101,77.59,115.11,64.92c17.77-16,40.27-23.85,64.09-23.21,11.51.31,23.53,2.34,33.86,7.64,8.12,4.15,15.57,10.94,15.71,20.67,0,2,3.22,2,3.19,0Z"/><path class="cls-28" d="M99.1,134.66c34.86-11.59,81.54-24.51,118.18-31.34,5.3-1,10.66-1.93,15.58-3.84a8.17,8.17,0,0,0,2.95-1.69,6.48,6.48,0,0,0,1.47-3.33,56.59,56.59,0,0,0,1.06-18.68c-.39-3.38-3.92-6.27-8-5.76-16.8,2.1-28.68,4.68-42.39,9.33C161.66,88.28,92,104.61,99.1,134.66Z"/><path d="M99.52,136.2q40.59-13.47,82.23-23.54c13.44-3.25,26.95-6,40.5-8.66,4.92-1,14-1.87,16.08-7.36,1.09-2.84,1.37-6.25,1.67-9.27a45.69,45.69,0,0,0-.09-11.8c-.89-5.37-5.79-7.58-10.76-7-7.06.83-14.11,2-21.06,3.5-10.11,2.19-19.81,5.6-29.67,8.66-17.64,5.47-35.5,10.72-52.16,18.81C113,106,93.6,117.41,97.56,135.09c.45,2,3.52,1.15,3.07-.85-3.22-14.38,12.41-24.19,23.15-29.87C139,96.31,155.67,91.11,172.08,86c7.43-2.3,14.81-4.78,22.25-7.06C200.12,77.2,206,75.72,212,74.53c3-.6,6-1.12,9-1.59,3.52-.56,8.2-2.06,11.71-1.23,4,1,4.29,4.69,4.42,8.13a55.64,55.64,0,0,1-.84,11.81c-.27,1.51-.44,3.82-1.53,5s-3,1.58-4.38,2a83.86,83.86,0,0,1-10.6,2.55c-12.46,2.37-24.86,5-37.19,7.94C154.26,116,126.25,124,98.67,133.13,96.73,133.77,97.56,136.85,99.52,136.2Z"/><path d="M219.23,77.23a53.06,53.06,0,0,1,4,16.73c.12,1.47,1.67,1.48,1.6,0A50.13,50.13,0,0,0,220.55,76c-.63-1.44-1.76.23-1.32,1.24Z"/><path d="M202.07,82.85A35,35,0,0,1,205.6,95.3c.19,1.71,1.93,1.76,1.88,0A26,26,0,0,0,203,81.72c-.57-.88-1.22.54-.92,1.13Z"/><path d="M185.19,87.76a53.25,53.25,0,0,1,2.34,11.86c.17,1.49,1.55.79,1.61-.37a26,26,0,0,0-2.89-12.48c-.56-1.17-1.34.19-1.06,1Z"/><path d="M171.09,94.11a16.21,16.21,0,0,1,2.17,7.62c.05,1.62,1.86,1.57,1.73,0a17.57,17.57,0,0,0-3.13-8.81c-.62-.88-1.1.65-.77,1.23Z"/><path d="M156.74,99.73c1.26,2.81,1.53,5.74,2.53,8.6.34,1,1.36.53,1.45-.33.33-3.28-1.07-6.74-2.54-9.61-.78-1.52-1.93.25-1.44,1.34Z"/><path d="M139.44,104.39a34.57,34.57,0,0,0,.46,6.75c.24,1,1.4,1.1,1.49,0a34,34,0,0,0-.46-6.75c-.15-1.35-1.53-1.39-1.49,0Z"/><path d="M124.43,109.05a22.82,22.82,0,0,0,2.84,10.54c.64,1.11,1.51-.66,1.14-1.4a25.13,25.13,0,0,1-2.8-9.17c-.09-1.08-1.22-1.09-1.18,0Z"/><path d="M170.93,47.74c9.36,1.75,17.53,7.13,20.66,16.43.47,1.4,1.74,0,1.48-1C190.44,53,181,47.4,171,46.52c-.5,0-.53,1.13-.08,1.22Z"/><path d="M144.9,58.55c9.62,2.2,15.27,10.06,20.12,18,.71,1.17,1.62-.72,1.22-1.51-4.42-8.59-11.06-16.69-21-18.68-1.07-.21-1.25,2-.34,2.16Z"/><path d="M99.06,88.45a23.15,23.15,0,0,0,1.63,20.25c.78,1.38,1.83-1,1.22-1.94a21,21,0,0,1-2-17.62c.19-.59-.46-1.56-.8-.69Z"/><path d="M88,114.87a16.31,16.31,0,0,0,8.11,17.81c1,.51,1.18-1.73.55-2.2-5-3.74-8.34-8.61-7.34-15.09.17-1.1-1-1.87-1.32-.52Z"/><path d="M120.86,71.38a33.61,33.61,0,0,1,13.32,16.09c.6,1.47,1.68-.24,1.32-1.24a31.59,31.59,0,0,0-14.19-16.64c-.74-.43-1,1.42-.45,1.79Z"/><g class="cls-29"><path class="cls-28" d="M98.84,133.4c.07.42.15.84.26,1.26,34.86-11.59,81.54-24.51,118.18-31.34,5.3-1,10.66-1.93,15.58-3.84a8.17,8.17,0,0,0,2.95-1.69,6.48,6.48,0,0,0,1.47-3.33c.69-3.23,1.14-10.72,1.32-13.84C189.81,90.67,144.78,115.4,98.84,133.4Z"/></g><g class="cls-29"><path class="cls-28" d="M96,128.33c-9.51-.72-14.57,6.18-16.28,14.54.2,8,2.08,10.28,3.33,14.42,3.52,11.56,9.32-13.27,15.6-22C99.07,132.32,99.15,128.8,96,128.33Z"/></g><circle class="cls-1" cx="169.21" cy="169.37" r="165.77"/><path class="cls-30" d="M168.45,258.16c2.38,7,6.09,13.49,8.81,20.41,29.17,6.58,59.4,9.34,89.17,5.65a190.78,190.78,0,0,0,27.28-5.41,165.6,165.6,0,0,0,31.63-53.61,215,215,0,0,1-38.51,21.62C250.07,262.84,207.47,269.51,168.45,258.16Z"/><path d="M260.09,252.94q-3.42,1-6.87,1.84-5.73,1.42-11.52,2.5-3.73.71-7.49,1.25l-1.16.18a161.44,161.44,0,0,1-42.52.48q-5.15-.65-10.22-1.68a132,132,0,0,1-13.36-3.4l-.63-.18a1.48,1.48,0,0,0-1.79.61,1.54,1.54,0,0,0-.32,1.5c2.23,8.28,6.62,15.53,9.77,23.45,1.14,2.87,3.54,2.67,6.41,3.29l2.21.45c2.75.57,5.52,1.11,8.29,1.61,9,1.61,18.09,2.83,27.21,3.58q3,.25,6,.44c3.73.22,7.45.36,11.18.42,2.62,0,5.23,0,7.84,0,1.45,0,2.9-.06,4.34-.11a218.33,218.33,0,0,0,25.16-2.4c1.59-.25,3.18-.52,4.77-.8q6.12-1.09,12.15-2.58c1.42-1.49,2.8-3,4.16-4.56a190.78,190.78,0,0,1-27.28,5.41c-29.77,3.69-60,.93-89.17-5.65-2.72-6.92-6.43-13.38-8.81-20.41,39,11.35,81.62,4.68,118.38-11.34a215,215,0,0,0,38.51-21.62c.69-1.95,1.36-3.91,2-5.89a203,203,0,0,1-62.62,32.25C263.17,252,261.63,252.5,260.09,252.94Z"/></g></g></g></g></svg>
