<svg xmlns="http://www.w3.org/2000/svg" xmlns:xlink="http://www.w3.org/1999/xlink" viewBox="0 0 338.73 338.78" width="338.73" height="338.78"><defs><style>.cls-1{fill:none;}.cls-2,.cls-9{fill:#fff;}.cls-3{fill:#1a396e;}.cls-4{clip-path:url(#clip-path);}.cls-5{fill:#29b473;}.cls-6{fill:#289961;}.cls-7{fill:#ffdd15;}.cls-8{fill:#009345;}.cls-10,.cls-9{fill-rule:evenodd;}.cls-11{fill:url(#linear-gradient);}.cls-12{fill:url(#linear-gradient-2);}.cls-13{fill:url(#linear-gradient-3);}.cls-14{fill:url(#linear-gradient-4);}.cls-15{fill:url(#linear-gradient-5);}.cls-16{fill:url(#linear-gradient-6);}.cls-17{fill:url(#linear-gradient-7);}.cls-18{fill:url(#linear-gradient-8);}.cls-19{fill:url(#linear-gradient-9);}.cls-20{fill:url(#linear-gradient-10);}.cls-21{fill:url(#linear-gradient-11);}.cls-22{fill:url(#linear-gradient-12);}.cls-23{fill:url(#linear-gradient-13);}.cls-24{fill:#404041;}</style><clipPath id="clip-path"><circle class="cls-1" cx="169.21" cy="169.37" r="162.09"/></clipPath><linearGradient id="linear-gradient" x1="247.99" y1="102.92" x2="272.26" y2="98.64" gradientUnits="userSpaceOnUse"><stop offset="0.13" stop-color="#a7a8ab"/><stop offset="0.65" stop-color="#fff"/></linearGradient><linearGradient id="linear-gradient-2" x1="249.97" y1="114.16" x2="274.24" y2="109.88" xlink:href="#linear-gradient"/><linearGradient id="linear-gradient-3" x1="244.31" y1="82.04" x2="268.58" y2="77.76" xlink:href="#linear-gradient"/><linearGradient id="linear-gradient-4" x1="247.26" y1="98.8" x2="271.54" y2="94.52" xlink:href="#linear-gradient"/><linearGradient id="linear-gradient-5" x1="246.86" y1="96.5" x2="271.13" y2="92.22" xlink:href="#linear-gradient"/><linearGradient id="linear-gradient-6" x1="245.21" y1="87.18" x2="269.49" y2="82.9" xlink:href="#linear-gradient"/><linearGradient id="linear-gradient-7" x1="53.21" y1="112.94" x2="75.6" y2="116.89" gradientUnits="userSpaceOnUse"><stop offset="0.35" stop-color="#fff"/><stop offset="0.87" stop-color="#a7a8ab"/></linearGradient><linearGradient id="linear-gradient-8" x1="55.71" y1="98.8" x2="78.09" y2="102.74" xlink:href="#linear-gradient-7"/><linearGradient id="linear-gradient-9" x1="52.55" y1="116.7" x2="74.93" y2="120.65" xlink:href="#linear-gradient-7"/><linearGradient id="linear-gradient-10" x1="51.3" y1="123.8" x2="73.68" y2="127.75" xlink:href="#linear-gradient-7"/><linearGradient id="linear-gradient-11" x1="49.67" y1="133.02" x2="72.06" y2="136.97" xlink:href="#linear-gradient-7"/><linearGradient id="linear-gradient-12" x1="239.83" y1="168.71" x2="226.35" y2="135.35" gradientUnits="userSpaceOnUse"><stop offset="0.11" stop-color="#1c75bc"/><stop offset="0.35" stop-color="#218ece"/><stop offset="0.6" stop-color="#25a3dc"/><stop offset="0.77" stop-color="#27aae1"/></linearGradient><linearGradient id="linear-gradient-13" x1="123.34" y1="174.32" x2="108.14" y2="136.71" xlink:href="#linear-gradient-12"/></defs><title>sayeh</title><g id="Layer_2" data-name="Layer 2"><g id="Layer_1-2" data-name="Layer 1"><circle class="cls-2" cx="169.21" cy="169.37" r="165.77"/><path class="cls-3" d="M338.73,169.37C338.44,98.9,293.84,34.65,227.63,10.2,160.91-14.44,83.48,6.67,38.38,61.59s-51.21,134.66-14.2,195.6C61,317.87,133.55,349.51,203.12,335.5c68.54-13.81,123.22-71.09,133.63-140.26a177.88,177.88,0,0,0,2-25.87c0-4.82-7.48-4.83-7.5,0-.28,67.43-43.16,129.46-106.84,152.4s-136.5,3.07-179.87-48.91C.78,220.44-4.74,143.63,30.65,85.34c35-57.68,104.25-88.2,170.47-74.86,65.8,13.25,117.66,67.42,128.19,133.67a165.05,165.05,0,0,1,1.92,25.22C331.25,174.2,338.75,174.21,338.73,169.37Z"/><g class="cls-4"><path class="cls-1" d="M79.79,309.89q5.68-6.75,11.27-13.58c10.64-13,21.52-26,31.35-39.62a20.65,20.65,0,0,1,2.65-5.29A16.36,16.36,0,0,1,135.84,245a4.63,4.63,0,0,1,.57-1.34,139.88,139.88,0,0,1,2-15.52c-4.31-.48-11-.34-12.51-.47-9.51-.85-19-1.76-28.5-3a43.65,43.65,0,0,1-10.13-2.56c-7.81-3-15.48-6.35-23.23-9.47a4.94,4.94,0,0,0-3.05-.24c-6.08,1.88-12.11,3.9-18.15,5.88-.4.13-.91.43-1.19.29A27.46,27.46,0,0,1,39,217c.49-.74.83-1.9,1.5-2.15,4.31-1.61,8.69-3,13-4.51L58,208.79c-3.24-3.17-6.06-6.28-9.29-8.87-1-.79-3.16-.46-4.71-.17-5.66,1.07-11.29,2.35-16.94,3.51-1.66.34-3.89.6-4.3-1.29-.48-2.2,1.8-2.61,3.55-3q8.7-1.92,17.42-3.87a11,11,0,0,0,1.58-.57c-1.29-4.39-2.47-8.62-3.83-12.79a2.64,2.64,0,0,0-1.94-1.24c-4-.48-8-.77-12-1.19a4.87,4.87,0,0,1-2.39-.68,13.18,13.18,0,0,1-2-2.38c1-.38,2-1.17,2.92-1.09,4.16.34,8.31.9,12.45,1.46,2.07.28,2.88-.45,2.82-2.59-.29-10.9,3.14-20.56,10.71-28.37,3.66-3.78,2.57-8.12,2.57-12.24,0-6.92-.84-13.85-1-20.78-.31-11.46-.41-22.93-.55-34.4,0-.67.29-1.85.62-1.92a3.65,3.65,0,0,1,2.61.34c15,10.08,29.86,20.25,44.8,30.36,5.61,3.8,11.24,7.57,17,11.22a5.54,5.54,0,0,0,3.35.47c9.52-1.18,19-2.73,28.54-3.6,8.74-.8,17.53-1.16,26.31-1.22,10.12-.08,20.28,0,30.36.78,4.32.34,6.68-1.06,9.24-4.06,3.13-3.67,6.85-6.82,10.24-10.28,6.91-7,13.7-14.17,20.65-21.16,2.83-2.83,6-5.35,8.94-8,4.26-3.88,8.46-7.82,12.75-11.66a11.22,11.22,0,0,1,2.59-1.3,9.81,9.81,0,0,1,1,2.65c.51,7.51,1.15,15,1.3,22.53.17,8.17-.37,16.35-.15,24.51.15,5.91.7,11.78-.13,17.7a4,4,0,0,0,2,3.13c13.25,6.15,20.07,17.23,23.88,30.68a6.46,6.46,0,0,0,.46.88l13.29-2.83c1,2.93.9,3.25-1.83,3.92-3,.73-6,1.29-9,2.06-.75.19-1.91.87-1.94,1.38-.24,4.15-.26,8.31-.35,12.46,5.42.84,10.66-2.58,16.23-.44-.42,2.13-1.4,3.15-3.71,3.3-4.08.24-8.14.84-12.19,1.4a2.44,2.44,0,0,0-1.69,1.13c-2.17,5.05-4.24,10.16-6.39,15.37.5.11,1.56.3,2.58.51a2,2,0,0,1,1,3.4c-.91.71-2,.36-1.9.28-4.11-1.86-4.22-1.08-6.78,1.43a48.82,48.82,0,0,1-26.28,13.85c-8,1.38-16.19,2.29-24.27,3.46-5.07.74-16.31,2.57-23,3.63-.2,4.15-.26,8.31-.31,12.47a18,18,0,0,1,12.39,6.58,27.69,27.69,0,0,1,4.6,10.09c9.08,14.12,19.26,27.64,29.2,41.11q3.66,4.95,7.35,9.88a166.53,166.53,0,1,0-186.51,5.2Z"/><path class="cls-5" d="M237.28,288.93q2.52,11.94,4.93,23.93,1.93,2.13,3.86,4.28,4-2.1,7.91-4.4-6.36-9.17-12.77-18.28Q239.26,291.69,237.28,288.93Z"/><path class="cls-5" d="M233.39,271l1.35,6.12c3.95,5.26,7.84,10.57,11.74,15.84q6.2,8.39,12.22,16.88c.7-.44,1.4-.9,2.09-1.36q-8.51-11.3-16.78-22.75C240.47,280.84,236.9,275.94,233.39,271Z"/><path d="M229.75,253.7c1.22,4.56,1.88,9.42,2.8,13.52.29,1.26.56,2.52.84,3.78,3.51,4.94,7.08,9.84,10.62,14.73q8.3,11.43,16.78,22.75,2.79-1.85,5.51-3.79-3.69-4.94-7.35-9.88C249,281.34,238.83,267.82,229.75,253.7Z"/><path class="cls-6" d="M234.74,277.12q1.27,5.89,2.54,11.81,2,2.76,3.93,5.53,6.42,9.1,12.77,18.28c1.59-.95,3.17-1.9,4.72-2.9q-6-8.49-12.22-16.88C242.58,287.69,238.69,282.38,234.74,277.12Z"/><path class="cls-6" d="M242.21,312.86q.57,2.83,1.13,5.67c.92-.46,1.83-.92,2.73-1.39Q244.15,315,242.21,312.86Z"/><path class="cls-5" d="M115.27,280.93l1.71-6q-14.39,18.4-29.43,36.3l-1.89,2.24,2.24,1.28q8.05-10.31,16.34-20.39C107.91,289.89,111.57,285.4,115.27,280.93Z"/><path class="cls-5" d="M105.83,316.06q3-11.49,6.09-23c-.79,1-1.57,2-2.35,3q-8.08,10.32-16.09,20.72c-.18.22-.35.45-.52.67q3.83,2,7.77,3.77C102.43,319.5,104.12,317.77,105.83,316.06Z"/><path d="M117,274.92c1.08-3.74,2.16-7.47,3.29-11.2.7-2.29,1.3-4.71,2.14-7-9.83,13.66-20.71,26.66-31.35,39.62q-5.59,6.82-11.27,13.58,2.89,1.85,5.87,3.57l1.89-2.24Q102.57,293.31,117,274.92Z"/><path class="cls-6" d="M109.57,296.07c.78-1,1.56-2,2.35-3l0-.14q1.64-6,3.32-12c-3.7,4.47-7.36,9-11,13.42q-8.3,10.09-16.34,20.39c1.67.93,3.36,1.85,5.06,2.72.17-.22.34-.45.52-.67Q101.49,306.4,109.57,296.07Z"/><path class="cls-6" d="M100.73,321.23c1.12.5,2.25,1,3.38,1.47.57-2.21,1.15-4.42,1.72-6.64C104.12,317.77,102.43,319.5,100.73,321.23Z"/><path class="cls-5" d="M144.05,333.47,144,334l.72.1Z"/><path class="cls-5" d="M134.89,311c.47-10.33,6.41-19.48,14.26-26.42,1.75-9.48,3.35-19,4.46-28.6-2-.25-3.92-.56-5.86-1-3.84-.8-7.82-1.58-9.56-4.3a2.46,2.46,0,0,1-2.07-1.63,14.5,14.5,0,0,0-8,5.73c-1.53,2.34-2,5.22-2.72,7.89-1.27,4.66-2.48,9.34-3.68,14-4.11,16-8.3,32-12.39,48.07,2.21.85,4.43,1.66,6.68,2.42,1.3-5,2.59-10,3.92-15.06,2.61-9.86,5.71-19.57,8.37-29.42,2.22-8.19,3.5-16.5,5.41-24.74.32-1.41,1.67-1,1.67.3,0,18.22-6.89,36.16-11.47,53.58-1.44,5.5-2.83,11-4.23,16.53a166.17,166.17,0,0,0,20.62,5c.19-1.22.37-2.44.57-3.66A29.36,29.36,0,0,1,134.89,311Z"/><path class="cls-5" d="M196.19,255.49a170.57,170.57,0,0,1,2.36,18.08,44.6,44.6,0,0,1,11.49,9,33.49,33.49,0,0,1,5.5,7.57c-2.6-12.51-5.22-25-7.61-37.56A71.14,71.14,0,0,1,196.19,255.49Z"/><path class="cls-5" d="M219.06,307.28c-.08-.37-.15-.73-.22-1.09a36.86,36.86,0,0,1-9.2,20.91,50.73,50.73,0,0,1-4.93,5A167.22,167.22,0,0,0,223,327Q221,317.15,219.06,307.28Z"/><path class="cls-5" d="M226.78,267.59c-1.81-7.93-2.31-18.69-11.37-21.56a13,13,0,0,0-2.81-.56c0,.73,0,1.46-.06,2.19,0,1.19-.32,2.9-1.41,3.66,4.57,17.9,8,36.14,11.84,54.2q2.1,10,4.26,20,5.51-2.06,10.82-4.46C234.48,303.2,230.83,285.34,226.78,267.59Z"/><path class="cls-5" d="M192.38,256a141.46,141.46,0,0,1-16.09.89c-.17,4.76-.49,9.52-.81,14.26a42.91,42.91,0,0,1,12.52-.74,28,28,0,0,1,6.2,1.29C193.59,266.5,192.93,261.27,192.38,256Z"/><path class="cls-5" d="M172.25,256.92l-2.94,0c-4.27-.05-8.56-.19-12.81-.59A129,129,0,0,1,154,280.72a61.79,61.79,0,0,1,9.78-5.7,53.35,53.35,0,0,1,7.31-2.75C171.45,267.15,171.82,262,172.25,256.92Z"/><path d="M237.28,288.93Q236,283,234.74,277.12L233.39,271c-.28-1.26-.55-2.52-.84-3.78-.92-4.1-1.58-9-2.8-13.52a27.69,27.69,0,0,0-4.6-10.09A18,18,0,0,0,212.76,237c0,2.81-.08,5.63-.16,8.44a13,13,0,0,1,2.81.56c9.06,2.87,9.56,13.63,11.37,21.56,4.05,17.75,7.7,35.61,11.27,53.47,1.78-.81,3.54-1.66,5.29-2.53q-.56-2.83-1.13-5.67Q239.8,300.88,237.28,288.93Z"/><path d="M121.72,276.74c1.2-4.68,2.41-9.36,3.68-14,.72-2.67,1.19-5.55,2.72-7.89a14.5,14.5,0,0,1,8-5.73,2.46,2.46,0,0,0,2.07,1.63l-.21-.35a3.81,3.81,0,0,1-1.75-3.54c0-1.05.11-2.11.18-3.17a4.63,4.63,0,0,0-.57,1.34,16.36,16.36,0,0,0-10.78,6.39,20.65,20.65,0,0,0-2.65,5.29c-.84,2.32-1.44,4.74-2.14,7-1.13,3.73-2.21,7.46-3.29,11.2l-1.71,6q-1.68,6-3.32,12l0,.14q-3.12,11.46-6.09,23c-.57,2.22-1.15,4.43-1.72,6.64,1.72.74,3.47,1.44,5.22,2.11C113.42,308.78,117.61,292.77,121.72,276.74Z"/><path class="cls-6" d="M223,305.52c-3.8-18.06-7.27-36.3-11.84-54.2a1.76,1.76,0,0,1-.42.24c-.92.37-1.85.71-2.78,1,2.39,12.54,5,25,7.61,37.56a29.35,29.35,0,0,1,3.3,16c.07.36.14.72.22,1.09q2,9.86,4,19.74c1.41-.48,2.82-1,4.21-1.5Q225.09,315.52,223,305.52Z"/><path class="cls-6" d="M196.19,255.49q-1.89.31-3.81.54c.55,5.24,1.21,10.47,1.82,15.7a29.87,29.87,0,0,1,4.35,1.84A170.57,170.57,0,0,0,196.19,255.49Z"/><path class="cls-6" d="M176.29,256.92h-4c-.43,5.11-.8,10.23-1.14,15.35,1.44-.43,2.9-.79,4.37-1.09C175.8,266.44,176.12,261.68,176.29,256.92Z"/><path class="cls-6" d="M140.87,329.75c-.2,1.22-.38,2.44-.57,3.66l3.66.6.09-.54A34.12,34.12,0,0,1,140.87,329.75Z"/><path class="cls-6" d="M156.5,256.3c-1-.09-1.93-.19-2.89-.31-1.11,9.62-2.71,19.12-4.46,28.6a56.21,56.21,0,0,1,4.87-3.87A129,129,0,0,0,156.5,256.3Z"/><path class="cls-6" d="M123.91,311.89c4.58-17.42,11.42-35.36,11.47-53.58,0-1.32-1.35-1.71-1.67-.3-1.91,8.24-3.19,16.55-5.41,24.74-2.66,9.85-5.76,19.56-8.37,29.42-1.33,5-2.62,10-3.92,15.06,1.22.41,2.44.81,3.67,1.19C121.08,322.91,122.47,317.39,123.91,311.89Z"/><path class="cls-7" d="M203.73,322c4.94-5.05,9.5-11.54,9.56-18.89s-5.58-13.05-10.76-17.63c-10.84-9.59-26.19-7.79-38.42-1.75-10.65,5.26-24.76,16.76-23.9,30,.63,9.7,8.73,17.42,17.87,21.81q5.52.38,11.13.38c2.63,0,5.24-.07,7.83-.19a69.09,69.09,0,0,0,8.87-2.27A45.22,45.22,0,0,0,203.73,322Zm-18.3-6.32c-.22,3-3.38,1.91-3.38-.61,0-4,.35-7.82.17-11.78a88.18,88.18,0,0,1-6.12,6.42c.14.66.27,1.32.43,2,.31,1.34.75,2.67,1,4,.18.94,0,2.61-1,3s-1.82-.75-2-1.66a30.74,30.74,0,0,1-.64-5.31c-1.68,1.49-3.41,2.9-5.17,4.22a19.6,19.6,0,0,1,1.53,6.39c.16,1.87.06,6.88-2.94,6.56-2.66-.29-3.74-4.25-3.79-6.42a18.63,18.63,0,0,1,.61-5.26c-3.65.94-10.54,5.08-12.75.28a3,3,0,0,1,.16-2.65c2.52-3.45,10.79-4.56,14.54-1.93a1.81,1.81,0,0,1,.3-.41c.67-.64,1.35-1.29,2-1.95a27.07,27.07,0,0,1-3.51.29c-2.65,0-2.6-5.33-.14-5.79A27,27,0,0,1,174,305c.86-.84,1.73-1.66,2.61-2.48a47.87,47.87,0,0,1-10.39.57c-2.83-.1-2.79-6.44-.15-6.2,4.89.44,11.33-1.55,15.78.84l.14.1c.35-.28.71-.57,1.07-.84-1.12-.7-2.27-1.36-3.47-2a2.66,2.66,0,0,1-1-2.52c-1.07.47-1.46-1.73-1-2.48,3.91-6,13.49-8.13,20-5.6,3.48,1.36,3.21,4.91,3,8.19-.29,4.3-1.3,9.08-4.14,12.43-.63.74-1.17.65-1.59.17a1.23,1.23,0,0,1-.92.32c-2.51-.12-4.45-3.45-6.21-5.05-.64-.58-1.29-1.12-2-1.62-.58.78-1.18,1.57-1.8,2.34C185.6,305.67,185.78,310.92,185.43,315.65Z"/><path class="cls-7" d="M196.67,292.32a18.88,18.88,0,0,0,.13-2.38,4.37,4.37,0,0,1-.47-.27,10.83,10.83,0,0,0-3.18-.83A19.45,19.45,0,0,0,180.8,291c4.6,1,11.37,4,13.86,8.48A29.57,29.57,0,0,0,196.67,292.32Zm-6.44,1.52a1.38,1.38,0,0,1-1.62-.6,3.36,3.36,0,0,1-.4-2.73c.17-.69.64-1.57,1.46-1.58h.1c1.12,0,1.57,1.43,1.6,2.32v.14A2.59,2.59,0,0,1,190.23,293.84Z"/><path class="cls-6" d="M209.64,327.1a36.86,36.86,0,0,0,9.2-20.91,29.35,29.35,0,0,0-3.3-16,33.49,33.49,0,0,0-5.5-7.57,44.6,44.6,0,0,0-11.49-9,29.87,29.87,0,0,0-4.35-1.84,28,28,0,0,0-6.2-1.29,42.91,42.91,0,0,0-12.52.74c-1.47.3-2.93.66-4.37,1.09A53.35,53.35,0,0,0,163.8,275a61.79,61.79,0,0,0-9.78,5.7,56.21,56.21,0,0,0-4.87,3.87c-7.85,6.94-13.79,16.09-14.26,26.42a29.36,29.36,0,0,0,6,18.74,34.12,34.12,0,0,0,3.18,3.72l.63.64q6.62,1,13.4,1.42c-9.14-4.39-17.24-12.11-17.87-21.81-.86-13.26,13.25-24.76,23.9-30,12.23-6,27.58-7.84,38.42,1.75,5.18,4.58,10.81,10.24,10.76,17.63s-4.62,13.84-9.56,18.89a45.22,45.22,0,0,1-17.82,11.48,69.09,69.09,0,0,1-8.87,2.27,165.68,165.68,0,0,0,27.67-3.61A50.73,50.73,0,0,0,209.64,327.1Z"/><path class="cls-6" d="M186.54,297.75c-.26.36-.54.72-.81,1.09.67.5,1.32,1,2,1.62,1.76,1.6,3.7,4.93,6.21,5.05a1.23,1.23,0,0,0,.92-.32,5.26,5.26,0,0,1-.86-3.72c.22-.67.46-1.33.7-2C192.17,295,185.4,292,180.8,291a15,15,0,0,0-2,1.31,1.58,1.58,0,0,1-.27.16,2.66,2.66,0,0,0,1,2.52c1.2.65,2.35,1.31,3.47,2,.73-.56,1.46-1.11,2.2-1.62C186.59,294.48,187.15,296.9,186.54,297.75Z"/><path class="cls-6" d="M180.8,291a19.45,19.45,0,0,1,12.35-2.17,10.83,10.83,0,0,1,3.18.83,4.37,4.37,0,0,0,.47.27,18.88,18.88,0,0,1-.13,2.38,29.57,29.57,0,0,1-2,7.17c-.24.65-.48,1.31-.7,2a5.26,5.26,0,0,0,.86,3.72c.42.48,1,.57,1.59-.17,2.84-3.35,3.85-8.13,4.14-12.43.23-3.28.5-6.83-3-8.19-6.5-2.53-16.08-.37-20,5.6-.48.75-.09,2.95,1,2.48a1.58,1.58,0,0,0,.27-.16A15,15,0,0,1,180.8,291Z"/><path class="cls-6" d="M183.91,301.11s0,.05,0,.07c.62-.77,1.22-1.56,1.8-2.34.27-.37.55-.73.81-1.09.61-.85.05-3.27-1.27-2.36-.74.51-1.47,1.06-2.2,1.62-.36.27-.72.56-1.07.84a1.83,1.83,0,0,1-.07,2.83,16.85,16.85,0,0,1-5.31,1.86c-.88.82-1.75,1.64-2.61,2.48a1.25,1.25,0,0,0,.19,0c.85.16,1.16,1.28,1,2.3a.93.93,0,0,1,.4.55,17.87,17.87,0,0,1,.46,1.78,88.18,88.18,0,0,0,6.12-6.42c0-.46-.05-.91-.08-1.36C182.05,300.79,183.38,299.7,183.91,301.11Z"/><path class="cls-6" d="M173.88,309.19a26.49,26.49,0,0,1-5.53,1.38c-.67.66-1.35,1.31-2,1.95a1.81,1.81,0,0,0-.3.41,5.09,5.09,0,0,1,1,.9,0,0,0,0,1,0,0l.07,0a6,6,0,0,1,1.56,2.07c1.76-1.32,3.49-2.73,5.17-4.22C173.82,310.87,173.83,310,173.88,309.19Z"/><path class="cls-6" d="M182,297.85l-.14-.1c-4.45-2.39-10.89-.4-15.78-.84-2.64-.24-2.68,6.1.15,6.2a47.87,47.87,0,0,0,10.39-.57,16.85,16.85,0,0,0,5.31-1.86A1.83,1.83,0,0,0,182,297.85Z"/><path class="cls-6" d="M173.88,309.19c0-.31.05-.62.08-.91.08-.73.78-1.22,1.28-.93.12-1-.19-2.14-1-2.3a1.25,1.25,0,0,1-.19,0,27,27,0,0,0-9.31.05c-2.46.46-2.51,5.83.14,5.79a27.07,27.07,0,0,0,3.51-.29A26.49,26.49,0,0,0,173.88,309.19Z"/><path class="cls-6" d="M183.91,301.11c-.53-1.41-1.86-.32-1.77.79,0,.45.06.9.08,1.36.18,4-.17,7.79-.17,11.78,0,2.52,3.16,3.64,3.38.61.35-4.73.17-10-1.5-14.47C183.92,301.16,183.92,301.13,183.91,301.11Z"/><path class="cls-6" d="M175.24,307.35c-.5-.29-1.2.2-1.28.93,0,.29-.06.6-.08.91,0,.82-.06,1.68,0,2.55a30.74,30.74,0,0,0,.64,5.31c.19.91.93,2.07,2,1.66s1.22-2.09,1-3c-.25-1.35-.69-2.68-1-4-.16-.66-.29-1.32-.43-2a17.87,17.87,0,0,0-.46-1.78A.93.93,0,0,0,175.24,307.35Z"/><path class="cls-6" d="M189.77,288.93h-.1c-.82,0-1.29.89-1.46,1.58a3.36,3.36,0,0,0,.4,2.73,1.38,1.38,0,0,0,1.62.6,2.59,2.59,0,0,0,1.15-2.45v-.14C191.34,290.36,190.89,288.91,189.77,288.93Z"/><path class="cls-6" d="M167.11,313.89l-.07,0a1.51,1.51,0,0,1-.32,2,4.82,4.82,0,0,1-1.09.48,1.36,1.36,0,0,1-1,.73l-.55.12a18.63,18.63,0,0,0-.61,5.26c.05,2.17,1.13,6.13,3.79,6.42,3,.32,3.1-4.69,2.94-6.56a19.6,19.6,0,0,0-1.53-6.39A6,6,0,0,0,167.11,313.89Z"/><path class="cls-6" d="M165.63,316.38a4.82,4.82,0,0,0,1.09-.48,1.51,1.51,0,0,0,.32-2,0,0,0,0,0,0,0,5.09,5.09,0,0,0-1-.9c-3.75-2.63-12-1.52-14.54,1.93a3,3,0,0,0-.16,2.65c2.21,4.8,9.1.66,12.75-.28l.55-.12A1.36,1.36,0,0,0,165.63,316.38Z"/><path d="M136.23,246.84a3.81,3.81,0,0,0,1.75,3.54l.21.35c1.74,2.72,5.72,3.5,9.56,4.3,1.94.4,3.9.71,5.86,1,1,.12,1.92.22,2.89.31,4.25.4,8.54.54,12.81.59l2.94,0h4a141.46,141.46,0,0,0,16.09-.89q1.92-.22,3.81-.54a71.14,71.14,0,0,0,11.74-2.9c.93-.32,1.86-.66,2.78-1a1.76,1.76,0,0,0,.42-.24c1.09-.76,1.36-2.47,1.41-3.66,0-.73,0-1.46.06-2.19.08-2.81.13-5.63.16-8.44.05-4.16.11-8.32.31-12.47,0-.25,0-.5,0-.74.07-1.46-1.21-4.47-3.19-3.53a25,25,0,0,1-5.28,1.76,92.73,92.73,0,0,1-12,1.33q-8.37.7-16.78.82a255,255,0,0,1-29.63-1.34c-1.55-.16-3.09-.33-4.63-.52s-2.43,2.1-2.66,3.25c-.17.85-.34,1.71-.5,2.56a139.88,139.88,0,0,0-2,15.52C136.34,244.73,136.27,245.79,136.23,246.84Zm7.61-15.61a242.66,242.66,0,0,0,34,1.37c9.58-.3,20.95-.06,30.22-3.64-.18,5.19-.42,10.38-.63,15.57-10.58,3.88-21.76,4.37-32.95,4.5-5.76.07-11.51,0-17.26-.44-1.09-.08-12-.72-15.45-1.44C142.27,241.84,142.93,236.5,143.84,231.23Z"/><path class="cls-8" d="M141.76,247.15c3.48.72,14.36,1.36,15.45,1.44,5.75.4,11.5.51,17.26.44,11.19-.13,22.37-.62,32.95-4.5.21-5.19.45-10.38.63-15.57-9.27,3.58-20.64,3.34-30.22,3.64a242.66,242.66,0,0,1-34-1.37C142.93,236.5,142.27,241.84,141.76,247.15Z"/><path class="cls-9" d="M174.2,151c1,1.81,1.82,3.22,2.51,4.69a49.22,49.22,0,0,0,12.79,16.63c6.33,5.46,12.87,10.89,16.66,18.68a40,40,0,0,1,4.29,17.82c0,2.55-1.19,5.25-2.37,7.61-3.87,7.72-8.77,14.56-16.9,18.37C186.61,237,182,238.6,176.79,238c-3.47-.39-7-.4-10.43-1-4.44-.8-8.62-2.36-11.86-5.84-1.7-1.82-3.85-3.23-5.44-5.13-9.76-11.61-8.91-25.76-.35-38.14,3.39-4.91,7.69-9.16,11.39-13.86a79.84,79.84,0,0,0,6.05-8.88c2.43-4.08,4.58-8.34,6.86-12.51C173.25,152.24,173.59,151.87,174.2,151Z"/><path d="M172.22,152.2c3.14,5.73,5.91,11.48,10.26,16.45,4.59,5.26,10.43,9.23,15.19,14.33a38.8,38.8,0,0,1,10.08,20.35c1.26,7.82-2.37,14.81-7.09,20.86a30.78,30.78,0,0,1-17.78,11.21c-4,.84-8.19.22-12.19-.16s-7.91-1-11.31-3.05c-13.57-8.27-18.83-24.41-11.44-38.57,3.85-7.39,10.13-13,15.08-19.63,5.11-6.81,8-15.09,13.16-21.79,1.79-2.34-2.19-4.63-4-2.32-2.73,3.57-4.51,7.92-6.71,11.82a85.51,85.51,0,0,1-8,12c-5.49,6.72-11.64,12.78-15,20.92a32,32,0,0,0-1.69,20.63c2.12,7.79,7.25,13.32,13.13,18.54s13.61,5.78,21.18,6.37a32.7,32.7,0,0,0,22-6.13c6-4.28,10.25-10.56,13.35-17.13,3.52-7.44,2.42-15.4-.49-22.92-3.33-8.56-9.17-14.88-16-20.83-3.84-3.34-7.61-6.65-10.63-10.79-2.84-3.88-4.81-8.28-7.11-12.48C174.76,147.3,170.79,149.61,172.22,152.2Z"/><path class="cls-10" d="M177.94,214.71c14.25-1.06,16.46-11.55,16.46-11.55s2.3.14,3.69.32c0,2-5.09,16.17-22.2,16.74-18.2-.57-23.75-14.7-23.84-15.87.25.06,3.8-.4,3.8-.4s3.39,10.44,18.35,10.42c0-3.81.05-7.53.07-11.25a4.87,4.87,0,0,1,0-1c1-4.23-1.36-6.93-4.2-9.43-1.44-1.27-2.83-2.61-4.25-3.89-2.13-1.93-1.93-3.47.85-4.22,4.86-1.32,9.83-2.15,14.86-1.07a13,13,0,0,1,3.8,1.62c1.2.72,1,1.65.09,2.68-2.07,2.29-4.11,4.62-6,7.08a6.59,6.59,0,0,0-1.42,3.56C177.84,203.71,177.93,209,177.94,214.71Z"/><path class="cls-1" d="M210.38,207.68A39.7,39.7,0,0,0,205.53,190c-4.05-7.68-10.79-12.91-17.33-18.18a49.77,49.77,0,0,1-13.36-16.25c-.74-1.46-1.63-2.83-2.67-4.61A18,18,0,0,0,171,152.6c-2.17,4.24-4.21,8.55-6.52,12.7a81.49,81.49,0,0,1-5.82,9c-3.58,4.81-7.78,9.19-11,14.19-7.34,11.25-8.46,23.72-1.43,34.32a255,255,0,0,0,29.63,1.34q8.4-.12,16.78-.82a92.73,92.73,0,0,0,12-1.33,60.45,60.45,0,0,0,3.61-6.7C209.35,213,210.44,210.23,210.38,207.68Z"/><path class="cls-1" d="M61.43,137.23a3.23,3.23,0,0,1-1.47.66,3.23,3.23,0,0,0,1.47-.66c3-2,5.87-4,8.84-5.95.25-.17.51-.32.77-.47-.26.15-.52.3-.77.47C67.3,133.22,64.39,135.26,61.43,137.23Z"/><path class="cls-1" d="M57.48,111.08c-.09-4.66-.13-9.32-.17-14C57.35,101.76,57.39,106.42,57.48,111.08Z"/><path class="cls-1" d="M72.61,130c-.5.24-1,.5-1.57.79C71.57,130.52,72.11,130.26,72.61,130Z"/><path class="cls-1" d="M57.48,111.08q.06,3.49.16,7c0,.06,0,.13,0,.2s0-.14,0-.2Q57.54,114.57,57.48,111.08Z"/><path class="cls-1" d="M262.86,122.72a87.94,87.94,0,0,0-10.13-3.4A87.94,87.94,0,0,1,262.86,122.72Z"/><path class="cls-1" d="M264.29,123.27c1.6.6,3.09,1.5,5,2.44.27-4.48.36-8.93.34-13.35,0,4.42-.07,8.87-.34,13.35C267.38,124.77,265.89,123.87,264.29,123.27Z"/><path class="cls-1" d="M267.09,73c-.73,1.71-1.47,3.42-2.2,5.12.73-1.7,1.47-3.41,2.2-5.12Z"/><path class="cls-1" d="M251.38,118.83c-1-.58-.93-1.42-.46-2.76,1.62-4.57,3.22-9.14,4.84-13.71.32-.88.62-1.76.93-2.64-.31.88-.61,1.76-.93,2.64-1.62,4.57-3.22,9.14-4.84,13.71C250.45,117.41,250.4,118.25,251.38,118.83Z"/><path d="M141.59,222.34c1.54.19,3.08.36,4.63.52-7-10.6-5.91-23.07,1.43-34.32,3.26-5,7.46-9.38,11-14.19a81.49,81.49,0,0,0,5.82-9c2.31-4.15,4.35-8.46,6.52-12.7a18,18,0,0,1,1.14-1.65c1,1.78,1.93,3.15,2.67,4.61a49.77,49.77,0,0,0,13.36,16.25c6.54,5.27,13.28,10.5,17.33,18.18a39.7,39.7,0,0,1,4.85,17.69c.06,2.55-1,5.28-2.14,7.67a60.45,60.45,0,0,1-3.61,6.7,25,25,0,0,0,5.28-1.76c2-.94,3.26,2.07,3.19,3.53,0,.24,0,.49,0,.74,6.68-1.06,17.92-2.89,23-3.63,8.08-1.17,16.22-2.08,24.27-3.46a48.82,48.82,0,0,0,26.28-13.85c2.56-2.51,2.67-3.29,6.78-1.43-.14.08,1,.43,1.9-.28a2,2,0,0,0-1-3.4c-1-.21-2.08-.4-2.58-.51,2.15-5.21,4.22-10.32,6.39-15.37a2.44,2.44,0,0,1,1.69-1.13c4.05-.56,8.11-1.16,12.19-1.4,2.31-.15,3.29-1.17,3.71-3.3-5.57-2.14-10.81,1.28-16.23.44.09-4.15.11-8.31.35-12.46,0-.51,1.19-1.19,1.94-1.38,3-.77,6-1.33,9-2.06,2.73-.67,2.84-1,1.83-3.92l-13.29,2.83a6.46,6.46,0,0,1-.46-.88c-3.81-13.45-10.63-24.53-23.88-30.68a4,4,0,0,1-2-3.13c.83-5.92.28-11.79.13-17.7-.22-8.16.32-16.34.15-24.51-.15-7.51-.79-15-1.3-22.53a9.81,9.81,0,0,0-1-2.65,11.22,11.22,0,0,0-2.59,1.3c-4.29,3.84-8.49,7.78-12.75,11.66-3,2.69-6.11,5.21-8.94,8-7,7-13.74,14.13-20.65,21.16-3.39,3.46-7.11,6.61-10.24,10.28-2.56,3-4.92,4.4-9.24,4.06-10.08-.79-20.24-.86-30.36-.78-8.78.06-17.57.42-26.31,1.22-9.54.87-19,2.42-28.54,3.6a5.54,5.54,0,0,1-3.35-.47c-5.71-3.65-11.34-7.42-17-11.22C86.19,96.91,71.28,86.74,56.33,76.66a3.65,3.65,0,0,0-2.61-.34c-.33.07-.62,1.25-.62,1.92.14,11.47.24,22.94.55,34.4.19,6.93,1,13.86,1,20.78,0,4.12,1.09,8.46-2.57,12.24-7.57,7.81-11,17.47-10.71,28.37.06,2.14-.75,2.87-2.82,2.59-4.14-.56-8.29-1.12-12.45-1.46-.94-.08-1.94.71-2.92,1.09a13.18,13.18,0,0,0,2,2.38,4.87,4.87,0,0,0,2.39.68c4,.42,8,.71,12,1.19a2.64,2.64,0,0,1,1.94,1.24c1.36,4.17,2.54,8.4,3.83,12.79a11,11,0,0,1-1.58.57Q35,197.07,26.3,199c-1.75.39-4,.8-3.55,3,.41,1.89,2.64,1.63,4.3,1.29,5.65-1.16,11.28-2.44,16.94-3.51,1.55-.29,3.72-.62,4.71.17,3.23,2.59,6,5.7,9.29,8.87l-4.45,1.54c-4.36,1.48-8.74,2.9-13,4.51-.67.25-1,1.41-1.5,2.15a27.46,27.46,0,0,0,2.68,1.64c.28.14.79-.16,1.19-.29,6-2,12.07-4,18.15-5.88a4.94,4.94,0,0,1,3.05.24c7.75,3.12,15.42,6.49,23.23,9.47a43.65,43.65,0,0,0,10.13,2.56c9.47,1.19,19,2.1,28.5,3,1.48.13,8.2,0,12.51.47.16-.85.33-1.71.5-2.56C139.16,224.44,140,222.15,141.59,222.34ZM250.92,116.07c1.62-4.57,3.22-9.14,4.84-13.71.32-.88.62-1.76.93-2.64.65-1.84,1.29-3.68,1.94-5.51.48-1.36,1-2.72,1.45-4.07s1-2.7,1.51-4c1-2.68,2.16-5.33,3.3-8,.73-1.7,1.47-3.41,2.2-5.12h0l.66,0c.16,3.25.36,6.51.55,9.77q.21,3.25.4,6.53c.13,2.17.26,4.35.37,6.54.23,4.36.41,8.75.49,13.15,0,1.11,0,2.21,0,3.32,0,4.42-.07,8.87-.34,13.35-1.88-.94-3.37-1.84-5-2.44l-1.43-.55a87.94,87.94,0,0,0-10.13-3.4,5.16,5.16,0,0,1-1.35-.49C250.4,118.25,250.45,117.41,250.92,116.07ZM201,156.42a93.51,93.51,0,0,1,13.28-13.7,45.8,45.8,0,0,1,8.33-5.73,8.16,8.16,0,0,1,1.52-.73c2.61-.7,5.14-1.76,7.85-2.07a21.09,21.09,0,0,1,4.2-.15,25.79,25.79,0,0,1,6.93,1.05c2.87.09,5.41,1.43,8.12,2.13a1.18,1.18,0,0,1,.27.06c4.13,2,8.53,3.34,12.62,5.41,1.83.92,3.63,1.92,5.57,3a7.65,7.65,0,0,1-.73,1.28,74.71,74.71,0,0,1-6.88,7c-1.88,1.55-3.59,3.3-5.49,4.83a82.3,82.3,0,0,1-10,6.83,27.49,27.49,0,0,1-9.15,3.44c-.92.16-1.85.29-2.75.52a19.46,19.46,0,0,1-7.25.42c-1.75-.22-3.52-.17-5.27-.5a53.51,53.51,0,0,1-7.9-1.92c-2.39-.82-4.89-1.3-7.27-2.13-2.91-1-5.76-2.19-8.62-3.34-.31-.12-.51-.49-.8-.78A25.6,25.6,0,0,1,201,156.42ZM72.61,130c-.5.24-1,.5-1.57.79-.26.15-.52.3-.77.47-3,1.94-5.88,4-8.84,5.95a3.23,3.23,0,0,1-1.47.66l-.16,0a1,1,0,0,1-.33-.25,2.55,2.55,0,0,1-.59-1.32c-.11-1.52-.24-3-.36-4.55-.37-4.49-.72-9-.87-13.46,0-.07,0-.14,0-.2q-.11-3.5-.16-7c-.09-4.66-.13-9.32-.17-14q0-3.5-.07-7l.42-.15q3.9,9.86,7.8,19.74t7.89,20Zm55.88,41.29c-1.73.45-3.49.52-5.22.86a19.27,19.27,0,0,1-7.26.07c-.92-.16-1.85-.23-2.78-.32a27.57,27.57,0,0,1-9.36-2.81A80.43,80.43,0,0,1,93.47,163c-2-1.39-3.83-3-5.81-4.44A72.23,72.23,0,0,1,80.32,152a7.79,7.79,0,0,1-.82-1.22c1.87-1.17,3.59-2.3,5.35-3.34,3.94-2.34,8.24-4,12.23-6.26a1.12,1.12,0,0,1,.26-.08c2.66-.88,5.1-2.39,8-2.69a26.41,26.41,0,0,1,6.85-1.51,21,21,0,0,1,4.2-.14c2.72.12,5.32,1,8,1.53a8.4,8.4,0,0,1,1.57.62,45.91,45.91,0,0,1,8.7,5.15,92.8,92.8,0,0,1,14.18,12.75,25.38,25.38,0,0,1,3.7,4.66c-.26.31-.44.69-.74.84-2.78,1.34-5.54,2.72-8.37,3.92-2.32,1-4.78,1.64-7.1,2.63A54.17,54.17,0,0,1,128.49,171.31Z"/><path class="cls-11" d="M250.92,116.07c-.47,1.34-.52,2.18.46,2.76a5.16,5.16,0,0,0,1.35.49,87.94,87.94,0,0,1,10.13,3.4l1.43.55c1.6.6,3.09,1.5,5,2.44.27-4.48.36-8.93.34-13.35,0-1.11,0-2.21,0-3.32-.08-4.4-.26-8.79-.49-13.15-.11-2.19-.24-4.37-.37-6.54s-.26-4.36-.4-6.53c-.19-3.26-.39-6.52-.55-9.77l-.66,0c-.73,1.71-1.47,3.42-2.2,5.12-1.14,2.64-2.27,5.29-3.3,8-.51,1.35-1,2.7-1.51,4s-1,2.71-1.45,4.07c-.65,1.83-1.29,3.67-1.94,5.51-.31.88-.61,1.76-.93,2.64C254.14,106.93,252.54,111.5,250.92,116.07Z"/><path d="M269.56,109c0,1.11,0,2.21,0,3.32C269.59,111.25,269.58,110.15,269.56,109Z"/><path class="cls-12" d="M269.56,109c0,1.11,0,2.21,0,3.32C269.59,111.25,269.58,110.15,269.56,109Z"/><path d="M268.3,82.82c-.19-3.26-.39-6.52-.55-9.77l-.66,0h0l.66,0C267.91,76.3,268.11,79.56,268.3,82.82Z"/><path class="cls-13" d="M268.3,82.82c-.19-3.26-.39-6.52-.55-9.77l-.66,0h0l.66,0C267.91,76.3,268.11,79.56,268.3,82.82Z"/><path d="M256.69,99.72c.65-1.84,1.29-3.68,1.94-5.51C258,96,257.34,97.88,256.69,99.72Z"/><path class="cls-14" d="M256.69,99.72c.65-1.84,1.29-3.68,1.94-5.51C258,96,257.34,97.88,256.69,99.72Z"/><path d="M268.7,89.35c.13,2.17.26,4.35.37,6.54C269,93.7,268.83,91.52,268.7,89.35Z"/><path class="cls-15" d="M268.7,89.35c.13,2.17.26,4.35.37,6.54C269,93.7,268.83,91.52,268.7,89.35Z"/><path d="M264.89,78.12c-1.14,2.64-2.27,5.29-3.3,8-.51,1.35-1,2.7-1.51,4,.5-1.35,1-2.7,1.51-4C262.62,83.41,263.75,80.76,264.89,78.12Z"/><path class="cls-16" d="M264.89,78.12c-1.14,2.64-2.27,5.29-3.3,8-.51,1.35-1,2.7-1.51,4,.5-1.35,1-2.7,1.51-4C262.62,83.41,263.75,80.76,264.89,78.12Z"/><path class="cls-17" d="M57.66,90l-.42.15q0,3.49.07,7c0,4.66.08,9.32.17,14q.06,3.49.16,7c0,.06,0,.13,0,.2.15,4.49.5,9,.87,13.46.12,1.51.25,3,.36,4.55a2.55,2.55,0,0,0,.59,1.32,1,1,0,0,0,.33.25l.16,0a3.23,3.23,0,0,0,1.47-.66c3-2,5.87-4,8.84-5.95.25-.17.51-.32.77-.47.53-.29,1.07-.55,1.57-.79l.74-.37q-4-10.07-7.89-20T57.66,90Z"/><path d="M57.66,90q3.9,9.86,7.8,19.74Q61.55,99.8,57.66,90l-.42.15q0,3.49.07,7,0-3.5-.07-7Z"/><path class="cls-18" d="M57.66,90q3.9,9.86,7.8,19.74Q61.55,99.8,57.66,90l-.42.15q0,3.49.07,7,0-3.5-.07-7Z"/><path d="M73.35,129.65q-4-10.07-7.89-20Q69.38,119.6,73.35,129.65Z"/><path class="cls-19" d="M73.35,129.65q-4-10.07-7.89-20Q69.38,119.6,73.35,129.65Z"/><path d="M58.52,131.73c-.37-4.49-.72-9-.87-13.46C57.8,122.76,58.15,127.24,58.52,131.73Z"/><path class="cls-20" d="M58.52,131.73c-.37-4.49-.72-9-.87-13.46C57.8,122.76,58.15,127.24,58.52,131.73Z"/><path d="M58.52,131.73c.12,1.51.25,3,.36,4.55a2.55,2.55,0,0,0,.59,1.32,2.55,2.55,0,0,1-.59-1.32C58.77,134.76,58.64,133.24,58.52,131.73Z"/><path class="cls-21" d="M58.52,131.73c.12,1.51.25,3,.36,4.55a2.55,2.55,0,0,0,.59,1.32,2.55,2.55,0,0,1-.59-1.32C58.77,134.76,58.64,133.24,58.52,131.73Z"/><path d="M198.45,162.1c2.86,1.15,5.71,2.34,8.62,3.34,2.38.83,4.88,1.31,7.27,2.13a53.51,53.51,0,0,0,7.9,1.92c1.75.33,3.52.28,5.27.5a19.46,19.46,0,0,0,7.25-.42c.9-.23,1.83-.36,2.75-.52a27.49,27.49,0,0,0,9.15-3.44,82.3,82.3,0,0,0,10-6.83c1.9-1.53,3.61-3.28,5.49-4.83a74.71,74.71,0,0,0,6.88-7,7.65,7.65,0,0,0,.73-1.28c-1.94-1-3.74-2-5.57-3-4.09-2.07-8.49-3.43-12.62-5.41a1.18,1.18,0,0,0-.27-.06c-2.71-.7-5.25-2-8.12-2.13A25.79,25.79,0,0,0,236.2,134a21.09,21.09,0,0,0-4.2.15c-2.71.31-5.24,1.37-7.85,2.07a8.16,8.16,0,0,0-1.52.73,45.8,45.8,0,0,0-8.33,5.73A93.51,93.51,0,0,0,201,156.42a25.6,25.6,0,0,0-3.37,4.9C197.94,161.61,198.14,162,198.45,162.1Zm20.14-11.85a9.64,9.64,0,1,1,7.23,11.56A9.65,9.65,0,0,1,218.59,150.25Z"/><path class="cls-22" d="M198.45,162.1c2.86,1.15,5.71,2.34,8.62,3.34,2.38.83,4.88,1.31,7.27,2.13a53.51,53.51,0,0,0,7.9,1.92c1.75.33,3.52.28,5.27.5a19.46,19.46,0,0,0,7.25-.42c.9-.23,1.83-.36,2.75-.52a27.49,27.49,0,0,0,9.15-3.44,82.3,82.3,0,0,0,10-6.83c1.9-1.53,3.61-3.28,5.49-4.83a74.71,74.71,0,0,0,6.88-7,7.65,7.65,0,0,0,.73-1.28c-1.94-1-3.74-2-5.57-3-4.09-2.07-8.49-3.43-12.62-5.41a1.18,1.18,0,0,0-.27-.06c-2.71-.7-5.25-2-8.12-2.13A25.79,25.79,0,0,0,236.2,134a21.09,21.09,0,0,0-4.2.15c-2.71.31-5.24,1.37-7.85,2.07a8.16,8.16,0,0,0-1.52.73,45.8,45.8,0,0,0-8.33,5.73A93.51,93.51,0,0,0,201,156.42a25.6,25.6,0,0,0-3.37,4.9C197.94,161.61,198.14,162,198.45,162.1Zm20.14-11.85a9.64,9.64,0,1,1,7.23,11.56A9.65,9.65,0,0,1,218.59,150.25Z"/><path d="M225.82,161.81a9.64,9.64,0,1,0-7.23-11.56A9.64,9.64,0,0,0,225.82,161.81Zm5.2-16.57a2.65,2.65,0,1,1-2.81,2.48A2.64,2.64,0,0,1,231,145.24Z"/><path class="cls-2" d="M230.68,150.53a2.65,2.65,0,1,0-2.47-2.81A2.65,2.65,0,0,0,230.68,150.53Z"/><path d="M151.72,162.31c.3-.15.48-.53.74-.84a25.38,25.38,0,0,0-3.7-4.66,92.8,92.8,0,0,0-14.18-12.75,45.91,45.91,0,0,0-8.7-5.15,8.4,8.4,0,0,0-1.57-.62c-2.65-.52-5.25-1.41-8-1.53a21,21,0,0,0-4.2.14,26.41,26.41,0,0,0-6.85,1.51c-2.85.3-5.29,1.81-8,2.69a1.12,1.12,0,0,0-.26.08c-4,2.25-8.29,3.92-12.23,6.26-1.76,1-3.48,2.17-5.35,3.34a7.79,7.79,0,0,0,.82,1.22,72.23,72.23,0,0,0,7.34,6.53c2,1.42,3.81,3.05,5.81,4.44a80.43,80.43,0,0,0,10.4,6.14,27.57,27.57,0,0,0,9.36,2.81c.93.09,1.86.16,2.78.32a19.27,19.27,0,0,0,7.26-.07c1.73-.34,3.49-.41,5.22-.86a54.17,54.17,0,0,0,7.76-2.45c2.32-1,4.78-1.64,7.1-2.63C146.18,165,148.94,163.65,151.72,162.31Zm-27.32,1.58a9.64,9.64,0,1,1,6.41-12A9.64,9.64,0,0,1,124.4,163.89Z"/><path class="cls-23" d="M151.72,162.31c.3-.15.48-.53.74-.84a25.38,25.38,0,0,0-3.7-4.66,92.8,92.8,0,0,0-14.18-12.75,45.91,45.91,0,0,0-8.7-5.15,8.4,8.4,0,0,0-1.57-.62c-2.65-.52-5.25-1.41-8-1.53a21,21,0,0,0-4.2.14,26.41,26.41,0,0,0-6.85,1.51c-2.85.3-5.29,1.81-8,2.69a1.12,1.12,0,0,0-.26.08c-4,2.25-8.29,3.92-12.23,6.26-1.76,1-3.48,2.17-5.35,3.34a7.79,7.79,0,0,0,.82,1.22,72.23,72.23,0,0,0,7.34,6.53c2,1.42,3.81,3.05,5.81,4.44a80.43,80.43,0,0,0,10.4,6.14,27.57,27.57,0,0,0,9.36,2.81c.93.09,1.86.16,2.78.32a19.27,19.27,0,0,0,7.26-.07c1.73-.34,3.49-.41,5.22-.86a54.17,54.17,0,0,0,7.76-2.45c2.32-1,4.78-1.64,7.1-2.63C146.18,165,148.94,163.65,151.72,162.31Zm-27.32,1.58a9.64,9.64,0,1,1,6.41-12A9.64,9.64,0,0,1,124.4,163.89Z"/><path d="M118.78,145.45a9.64,9.64,0,1,0,12,6.41A9.63,9.63,0,0,0,118.78,145.45Zm0,7.52a2.65,2.65,0,1,1,2.28-3A2.65,2.65,0,0,1,118.77,153Z"/><path class="cls-2" d="M118.07,147.72a2.65,2.65,0,1,0,3,2.28A2.63,2.63,0,0,0,118.07,147.72Z"/><path class="cls-10" d="M212.73,85.79c9.74-1.9,11.6-7.29,12.19-10.06.42,7.25-1.85,15.92-4.31,22.54-13.81,37.18-84.7,26-95.32,22.84-2.33-7.67.5-16.54,5.55-22.15s11.95-8.46,18.81-10.08,13.88-2.16,20.71-4a60.36,60.36,0,0,0,15.11-6.33c5.32-3.13,10.52-7.44,12.9-13.8a32.85,32.85,0,0,0,1.86-8.15c.68-6.93-4.59-8.43-4.59-8.43,2.23-1.69,7.34-.24,9.86,3.26,3.13,4.35,3.71,11.48,2.5,21.69,3.52-2.62,10.65-9.34,10.76-15.83A27.35,27.35,0,0,1,212.73,85.79Z"/><path class="cls-24" d="M217.4,100.68c-3.07,2.72-4.69,6.91-7.48,9.95a20.3,20.3,0,0,1-9.4,5.9C192,119,179.8,115,173,122c-.73.74-1,4.26.78,3.87,2.95-.66,5.57-2,8.59-2.55a60.41,60.41,0,0,1,8.61-.64c4.31-.11,8.78-.42,12.76-2.23,6.93-3.15,13-11.42,14.6-18.73.1-.48-.33-1.59-.94-1Z"/><path class="cls-24" d="M219.43,66.74c-1.8,9.56-5.06,17.75-14,22.65a34.87,34.87,0,0,1-17.33,4.16c-1.29,0-1.36,2.9-.2,3.14,17,3.44,34-13,32.71-29.74-.07-.87-1-1.26-1.17-.21Z"/><path class="cls-24" d="M144,95.91c-2.42-1.18-5.91,2.44-7.35,4a18.07,18.07,0,0,0-4.66,8.84c-.19,1,1.17,3.57,2.1,1.77,1.37-2.69,2.45-5.44,4.45-7.75,1.68-1.93,4.58-3.16,5.76-5.38.24-.46.24-1.24-.3-1.5Z"/><path class="cls-24" d="M201.74,57.22c-.14,1.79.21,3.55-.08,5.33a12.74,12.74,0,0,1-2.43,5.51c-.62.83.19,3.56,1.29,2.4a11.86,11.86,0,0,0,3.2-7.1c.22-2.1.26-5-1.35-6.55-.28-.29-.61.14-.63.41Z"/></g></g></g></svg>
