<svg xmlns="http://www.w3.org/2000/svg" xmlns:xlink="http://www.w3.org/1999/xlink" viewBox="0 0 35 35"><defs><style>.cls-1{fill:#fff;}.cls-2{fill:#ff7113;}.cls-3{fill:#0f73be;}.cls-4{fill:#1b75bb;}.cls-5{fill:url(#linear-gradient);}.cls-6{fill:#1a396e;}</style><linearGradient id="linear-gradient" x1="9.98" y1="20.99" x2="25" y2="20.99" gradientUnits="userSpaceOnUse"><stop offset="0" stop-color="#c15018"/><stop offset="1" stop-color="#ff7113"/></linearGradient></defs><title>Asset 1</title><g id="Layer_2" data-name="Layer 2"><g id="Layer_1-2" data-name="Layer 1"><circle class="cls-1" cx="17.5" cy="17.5" r="17.5"/><path class="cls-2" d="M25,16.16,10,25.78H3.57a16.21,16.21,0,0,0,27.85,0H25Z"/><path class="cls-3" d="M10,3.15A16.21,16.21,0,0,0,3.57,25.78H10Z"/><path class="cls-3" d="M25,3.15v13h0v9.62h6.41A16.21,16.21,0,0,0,25,3.15Z"/><polygon class="cls-4" points="25.02 16.16 25.02 16.16 25.02 3.15 25.02 3.14 25.02 16.16"/><rect class="cls-5" x="9.98" y="16.2" width="15.02" height="9.59"/><path class="cls-6" d="M17.5,1.3A16.13,16.13,0,0,0,10,3.15V25.78l15-9.62v-13A16.13,16.13,0,0,0,17.5,1.3Z"/></g></g></svg>