<svg xmlns="http://www.w3.org/2000/svg" width="22.3175" height="22.3175" viewBox="0 0 22.3175 22.3175"><title>ic_instagram</title><rect width="22.3175" height="22.3175" fill="none"/><path d="M21.19,6.9751q.0447,1.26.0449,4.1836t-.0674,4.2061a8.4787,8.4787,0,0,1-.3823,2.2266,5.2687,5.2687,0,0,1-3.1938,3.1938,8.4787,8.4787,0,0,1-2.2266.3823q-1.2825.0673-4.2061.0674t-4.206-.0674A7.3509,7.3509,0,0,1,4.7261,20.74,4.7954,4.7954,0,0,1,2.77,19.5479a5.24,5.24,0,0,1-1.2373-1.9565A8.4826,8.4826,0,0,1,1.15,15.3648q-.0674-1.2825-.0673-4.2061T1.15,6.9527a8.4826,8.4826,0,0,1,.3824-2.2266A5.2687,5.2687,0,0,1,4.7261,1.5323,8.4826,8.4826,0,0,1,6.9527,1.15q1.2825-.0674,4.206-.0673t4.2061.0673a8.4826,8.4826,0,0,1,2.2266.3824,5.2687,5.2687,0,0,1,3.1938,3.1938A9.1543,9.1543,0,0,1,21.19,6.9751ZM19.0308,17.0967a9.4924,9.4924,0,0,0,.36-2.4292q.0447-.9894.0449-2.789v-1.44q0-1.8442-.0449-2.7891a9.0425,9.0425,0,0,0-.36-2.4292,3.2475,3.2475,0,0,0-1.9346-1.934,9.0336,9.0336,0,0,0-2.4287-.36q-.9894-.0447-2.789-.0449h-1.44q-1.8,0-2.7891.0449a9.4854,9.4854,0,0,0-2.4287.36,3.2471,3.2471,0,0,0-1.9345,1.934,9.0425,9.0425,0,0,0-.36,2.4292q-.0447.99-.0449,2.7891v1.44q0,1.8.0449,2.789a9.4924,9.4924,0,0,0,.36,2.4292,3.4116,3.4116,0,0,0,1.9345,1.9341,9.4854,9.4854,0,0,0,2.4287.36q.99.0447,2.7891.0449h1.44q1.8443,0,2.789-.0449a9.0336,9.0336,0,0,0,2.4287-.36A3.4118,3.4118,0,0,0,19.0308,17.0967ZM11.1587,5.9859a5.0332,5.0332,0,0,1,2.5865.6972,5.1849,5.1849,0,0,1,1.8891,1.8892,5.1455,5.1455,0,0,1,0,5.1729,5.1839,5.1839,0,0,1-1.8891,1.8891,5.1455,5.1455,0,0,1-5.1729,0,5.1849,5.1849,0,0,1-1.8892-1.8891,5.1462,5.1462,0,0,1,0-5.1729A5.1859,5.1859,0,0,1,8.5723,6.6831,5.0326,5.0326,0,0,1,11.1587,5.9859Zm0,8.5464a3.3777,3.3777,0,0,0,3.3736-3.3736,3.3777,3.3777,0,0,0-3.3736-3.3735,3.3777,3.3777,0,0,0-3.3735,3.3735,3.3777,3.3777,0,0,0,3.3735,3.3736ZM17.771,5.7608a1.2144,1.2144,0,1,0-2.0688.8545,1.1653,1.1653,0,0,0,.8545.36,1.0932,1.0932,0,0,0,.832-.36A1.3975,1.3975,0,0,0,17.771,5.7608Z" fill="#ffffff"/></svg>