<svg xmlns="http://www.w3.org/2000/svg" width="22.3175" height="22.3175" viewBox="0 0 22.3175 22.3175"><title>ic_telegram</title><rect width="22.3175" height="22.3175" fill="none"/><path d="M18.1269,18.5748a1.32,1.32,0,0,1-.6069.9673,1.134,1.134,0,0,1-1.0572-.1577L11.83,15.9659l-2.249,2.1592a2.6506,2.6506,0,0,1-.36.315,1.1279,1.1279,0,0,1-.5849.1347l.36-4.7231L17.5873,6.07c.12-.09.1573-.1724.1123-.2471s-.1347-.105-.27-.09a1.0726,1.0726,0,0,0-.4272.1577L6.3867,12.5919,1.7983,11.1525q-.7647-.2248-.72-.6744t.9449-.81L19.8813,2.7858a1.0048,1.0048,0,0,1,1.08.1577A1.3992,1.3992,0,0,1,21.186,4.27Z" fill="#ffffff"/></svg>