<svg xmlns="http://www.w3.org/2000/svg" width="22.3175" height="22.3175" viewBox="0 0 22.3175 22.3175"><title>ic_twitter</title><rect width="22.3175" height="22.3175" fill="none"/><path d="M19.6616,7.3659A12.3573,12.3573,0,0,1,18.2029,13.16a11.9,11.9,0,0,1-4.21,4.71,12.026,12.026,0,0,1-6.7944,1.9591A12.141,12.141,0,0,1,.4882,17.8694q.4588.0422,1.042.0417a8.6776,8.6776,0,0,0,5.46-1.8754,4.0712,4.0712,0,0,1-2.5631-.8547,4.3506,4.3506,0,0,1-1.5216-2.1464q.4167.0414.7923.0416a5.5348,5.5348,0,0,0,1.1668-.1253,4.4086,4.4086,0,0,1-2.5006-1.542,4.1961,4.1961,0,0,1-1-2.7508V8.5744a4.1146,4.1146,0,0,0,1.9591.5836A4.8549,4.8549,0,0,1,1.9053,7.574,4.246,4.246,0,0,1,1.989,3.2807a12.062,12.062,0,0,0,3.98,3.2513,12.1145,12.1145,0,0,0,5.0226,1.3338,6.1155,6.1155,0,0,1-.0833-1,4.3368,4.3368,0,0,1,.5837-2.1881,4.2841,4.2841,0,0,1,1.584-1.6048,4.2267,4.2267,0,0,1,2.1672-.5837,4.1753,4.1753,0,0,1,1.7718.3751,4.956,4.956,0,0,1,1.4379,1,8.9,8.9,0,0,0,2.7925-1.042A4.3424,4.3424,0,0,1,19.3286,5.24a9.3825,9.3825,0,0,0,2.5007-.7085A9.6284,9.6284,0,0,1,19.62,6.8238,2.4736,2.4736,0,0,1,19.6616,7.3659Z" fill="#ffffff"/></svg>