<svg xmlns="http://www.w3.org/2000/svg" viewBox="0 0 30 30" width="30" height="30"><defs><style>.cls-1{fill:#287cfc;}.cls-2{fill:#fff;}</style></defs><title>Telegram</title><g id="Layer_2" data-name="Layer 2"><g id="Layer_1-2" data-name="Layer 1"><path id="path3019" class="cls-1" d="M30,15A15,15,0,1,1,15,0,15,15,0,0,1,30,15Z"/><path id="path3043" class="cls-2" d="M18.31,18.43c.46-1.26,2.15-6.06,2.42-7.32C21,9.69,20.4,9.55,18.94,10s-5.21,1.87-5.84,2.09-3.7,1.26-4.34,1.56c-1.3.7-.67,1.76.79,2.31,4.34,2.08,3.11,1,5,4.88.4,1,1.34,2.66,2.24,1.4A28.16,28.16,0,0,0,18.31,18.43Z"/></g></g></svg>
