<svg xmlns="http://www.w3.org/2000/svg" viewBox="0 0 30 30" width="30" height="30"><defs><style>.cls-1{fill:#287cfc;}.cls-2{fill:#fff;}</style></defs><title>Instagram</title><g id="Layer_2" data-name="Layer 2"><g id="Layer_1-2" data-name="Layer 1"><circle class="cls-1" cx="15" cy="15" r="15"/><path class="cls-2" d="M15,8.85c2,0,2.24,0,3,0a4.15,4.15,0,0,1,1.39.26,2.48,2.48,0,0,1,1.42,1.42A4.15,4.15,0,0,1,21.1,12c0,.79,0,1,0,3s0,2.24,0,3a4.15,4.15,0,0,1-.26,1.39,2.48,2.48,0,0,1-1.42,1.42A4.15,4.15,0,0,1,18,21.1c-.79,0-1,0-3,0s-2.24,0-3,0a4.15,4.15,0,0,1-1.39-.26,2.48,2.48,0,0,1-1.42-1.42A4.15,4.15,0,0,1,8.9,18c0-.79,0-1,0-3s0-2.24,0-3a4.15,4.15,0,0,1,.26-1.39,2.48,2.48,0,0,1,1.42-1.42A4.15,4.15,0,0,1,12,8.9c.79,0,1,0,3,0M15,7.5c-2,0-2.29,0-3.09,0a5.5,5.5,0,0,0-1.82.35,3.84,3.84,0,0,0-2.19,2.19,5.5,5.5,0,0,0-.35,1.82c0,.8,0,1.06,0,3.09s0,2.29,0,3.09a5.5,5.5,0,0,0,.35,1.82,3.84,3.84,0,0,0,2.19,2.19,5.5,5.5,0,0,0,1.82.35c.8,0,1.06,0,3.09,0s2.29,0,3.09,0a5.5,5.5,0,0,0,1.82-.35,3.84,3.84,0,0,0,2.19-2.19,5.5,5.5,0,0,0,.35-1.82c0-.8,0-1.06,0-3.09s0-2.29,0-3.09a5.5,5.5,0,0,0-.35-1.82,3.84,3.84,0,0,0-2.19-2.19,5.5,5.5,0,0,0-1.82-.35c-.8,0-1.06,0-3.09,0Z"/><path class="cls-2" d="M15,11.15A3.85,3.85,0,1,0,18.85,15,3.85,3.85,0,0,0,15,11.15Zm0,6.35A2.5,2.5,0,1,1,17.5,15,2.5,2.5,0,0,1,15,17.5Z"/><circle class="cls-2" cx="19" cy="11" r="0.9"/></g></g></svg>
