<svg xmlns="http://www.w3.org/2000/svg" viewBox="0 0 30 30" width="30" height="30"><defs><style>.cls-1{fill:#287cfc;}.cls-2{fill:#fff;}</style></defs><title>Twitter</title><g id="Layer_2" data-name="Layer 2"><g id="Layer_1-2" data-name="Layer 1"><circle class="cls-1" cx="15" cy="15" r="15"/><path class="cls-2" d="M12.22,21.09A8.7,8.7,0,0,0,21,12.34c0-.13,0-.27,0-.4a6.26,6.26,0,0,0,1.54-1.59,6.14,6.14,0,0,1-1.77.48,3.09,3.09,0,0,0,1.35-1.7,6.17,6.17,0,0,1-2,.75,3.08,3.08,0,0,0-5.24,2.81A8.74,8.74,0,0,1,8.54,9.47a3.08,3.08,0,0,0,1,4.11,3.05,3.05,0,0,1-1.4-.39v0a3.08,3.08,0,0,0,2.47,3,3.07,3.07,0,0,1-1.39.05,3.08,3.08,0,0,0,2.88,2.14,6.18,6.18,0,0,1-3.82,1.32,6.26,6.26,0,0,1-.73,0,8.71,8.71,0,0,0,4.72,1.38"/></g></g></svg>
