<?xml version="1.0" encoding="utf-8"?>
<!-- Generator: Adobe Illustrator 19.2.1, SVG Export Plug-In . SVG Version: 6.00 Build 0)  -->
<svg version="1.1" id="Layer_1" xmlns="http://www.w3.org/2000/svg" xmlns:xlink="http://www.w3.org/1999/xlink" width="370.4075623" height="121.1499634" viewBox="0 0 370.4075623 121.1499634">
<g>
	<g>
		<g>
			<g>
				<path fill="#ffffff" d="M308.855011,121.1499634c-33.9403687,0-61.5525208-27.6123581-61.5525208-61.5525322
					c0-27.6201859,18.5795288-52.0251579,45.1821289-59.3484077c3.6765137-1.0102162,7.4734497,1.14739,8.485199,4.8219509
					c1.0112915,3.6745605-1.1473999,7.4732523-4.8217468,8.4849901
					c-20.6334534,5.6797752-35.0438538,24.6127987-35.0438538,46.0414658c0,26.3299675,21.4208374,47.7508125,47.7507935,47.7508125
					c26.3299866,0,47.750824-21.420845,47.750824-47.7508125c0-21.428669-14.4104004-40.3616943-35.0438538-46.0414658
					c-3.6743469-1.0117378-5.8330383-4.8104296-4.8217468-8.4849901c1.0117493-3.6749957,4.8113098-5.832819,8.485199-4.8219509
					c26.6025696,7.3232522,45.1821289,31.7282219,45.1821289,59.3484077
					C370.4075623,93.5376053,342.7954102,121.1499634,308.855011,121.1499634z"/>
			</g>
		</g>
		<g>
			<path fill="#ffffff" d="M286.5358276,72.6140823l10.9233398-10.923336l6.6740417-6.6740265
				c-0.0135193,0.0134964-0.0258789,0.0276718-0.0392151,0.0412521c0.0135193-0.0132904,0.0275269-0.0260925,0.0411682-0.0392761
				c1.2224121-1.1813126,2.8856506-1.9094086,4.7198792-1.9094086v-0.0000038c1.8342285,0,3.4974365,0.7280998,4.7198792,1.9094048
				c0.0136414,0.0131874,0.0276489,0.0259819,0.0411682,0.0392876c-0.0133362-0.0135841-0.0256958-0.0277596-0.0392151-0.041256
				l6.2243042,6.2242928l11.3730774,11.3730698c2.6534424,2.6534424,6.9555054,2.6534576,9.6089478,0.0000153l0.0000305-0.0000229
				c2.6534424-2.6534424,2.6534119-6.955513-0.0000305-9.6089554l-11.3730469-11.3730698l-15.7506409-15.750618v-0.0000114
				c-2.6534424-2.6534386-6.9555054-2.65345-9.6089478-0.0000114l-0.0000305,0.0000229l-16.2003479,16.2003441
				l-10.9233398,10.9233322c-2.6534424,2.6534386-2.6534424,6.9555321,0,9.6089745v0.0000153
				C279.5802917,75.26754,283.8823853,75.2675171,286.5358276,72.6140823z"/>
		</g>
	</g>
	<g>
		<path fill="#ffffff" d="M9.130373,26.5706253L0,31.6641731l0.2835119,0.484333
			c3.2689786,5.5768089,4.9270935,13.5280304,4.9270935,23.6324387v28.6541977h10.5565243V54.0100708
			c0-10.5694122-2.1413746-19.642868-6.3661318-26.9701481L9.130373,26.5706253z"/>
		<path fill="#ffffff" d="M57.7333412,30.2970886c-3.223877-3.3011971-7.4378929-4.9066906-12.8761673-4.9066906
			c-5.1655045,0-9.265686,1.6871109-12.5389595,5.1612072c-3.0799732,3.3334122-4.6414356,7.5764275-4.6414356,12.6098366
			c0,5.0097847,1.5421333,9.2474289,4.5812931,12.5937309c3.2109909,3.5406761,7.2510338,5.2610779,12.347805,5.2610779
			c1.7547684,0,3.4236221-0.2298164,4.9636078-0.6840782l2.3368263-0.6905251v25.3626709h10.6402893V43.1614418
			C62.5466003,37.8971405,60.9271431,33.5692902,57.7333412,30.2970886z M51.906311,43.2033234
			c0,3.7468681-3.0477562,6.7946243-6.7956963,6.7946243c-3.7457924,0-6.7935486-3.0477562-6.7935486-6.7946243
			s3.0477562-6.7946205,6.7935486-6.7946205C48.8585548,36.4087029,51.906311,39.4564552,51.906311,43.2033234z"/>
	</g>
	<g>
		<rect x="212.9611359" y="26.5247154" fill="#ffffff" width="10.719758" height="57.9116096"/>
		<path fill="#ffffff" d="M182.2758026,48.1753883c-7.8545685,0-20.0783386,10.1708565-29.471283,19.298275
			c-0.2636414-2.9365997-1.1839905-5.8897171-2.771759-8.7824249l-0.2770691-0.5047379l-7.6763,4.684391l0.2276764,0.4531898
			c1.6774445,3.3248215,2.0124969,5.8979034,1.0266571,7.8653107c-0.3119812,0.6220551-0.8032837,1.1157913-1.3746033,1.548439
			v-0.045105l-0.7882538,0.3790894c-0.9128265,0.4392319-1.9502258,0.6679764-3.0821228,0.6808624
			c-4.4073181-0.0010757-6.5486908-3.636261-6.5486908-11.112812l-0.0386658-35.255352h-10.7691574v47.3944168h-0.0021439
			c0,0.407814-0.0295334,0.8087845-0.0622864,1.2088165l-0.0193329,0.2467346
			c-0.0091248,0.131279-0.0332947,0.2580032-0.045639,0.3883514c-0.922493,7.3929214-7.2870102,13.1963272-14.9128342,13.1963272
			c-8.2508469,0-15.0411682-6.7893906-15.0411682-15.0402298c0-2.5181808,0.6325302-4.9963608,1.8396072-7.206604
			l-9.3064957-5.1468391c-2.0780182,3.7856636-3.1669617,8.0351219-3.1669617,12.3534431
			c0,0.020134,0.0026855,0.0395966,0.0026855,0.0597382c-0.0016098,0.1116867-0.0209427,0.2220306-0.0209427,0.3337173
			c0,13.1105423,10.0528641,23.9082947,22.8517075,25.1120148c0.9348373,0.1049728,1.8804169,0.1694031,2.841568,0.1694031
			c12.1877899,0,22.4930191-8.6855011,25.0505295-20.1504211c0.7109222,1.8139648,2.4887848,4.147438,7.012085,4.147438
			l4.2065125,0.0065765v-0.003891c7.2542419-0.0271149,7.419632-6.1180573,7.4223175-6.2422333h0.0010681
			c0.004837,0.1244431,0.2582703,6.243576,7.605423,6.243576l28.5686646-0.0044327
			c9.1126556-0.0012054,16.4989929-7.3897018,16.4973907-16.5023499
			C202.0529022,57.0262756,193.1974487,48.1737785,182.2758026,48.1753883z M184.5170441,73.843956h-21.54422
			c0,0,11.9171753-14.982502,20.1916351-14.982502c4.5109558,0,8.1676178,3.6567917,8.1676178,8.167614
			C191.332077,70.7928467,188.2810974,73.843956,184.5170441,73.843956z"/>
	</g>
</g>
</svg>
