<svg xmlns="http://www.w3.org/2000/svg" viewBox="0 0 9.5 13.188" width="9.5" height="13.188"><defs><style>.cls-1{fill:#ffffff;}</style></defs><title>download</title><g id="Layer_2" data-name="Layer 2"><g id="Layer_1-2" data-name="Layer 1"><path class="cls-1" d="M4.218,9.277a.757.757,0,0,0,.247.166.787.787,0,0,0,.152.03A.747.747,0,0,0,4.75,9.5a.747.747,0,0,0,.133-.027.787.787,0,0,0,.152-.03.757.757,0,0,0,.247-.166l4-4a.75.75,0,0,0-1.06-1.06L5.5,6.938V.75A.75.75,0,0,0,4,.75V6.938L1.28,4.219A.75.75,0,0,0,.22,5.279Z"/><path class="cls-1" d="M8.75,11.688h-8a.75.75,0,0,0,0,1.5h8a.75.75,0,0,0,0-1.5Z"/></g></g></svg>
