<svg xmlns="http://www.w3.org/2000/svg" viewBox="0 0 12 11.2" width="12" height="11.2"><defs><style>.cls-1{fill:#aaaaaa;}</style></defs><title>rating-preview</title><g id="Layer_2" data-name="Layer 2"><g id="Layer_1-2" data-name="Layer 1"><path class="cls-1" d="M11.8,4.619a.492.492,0,0,0-.289-.89H8.029A.491.491,0,0,1,7.564,3.4L6.538.405a.56.56,0,0,0-1.076,0L4.436,3.4a.491.491,0,0,1-.465.332H.493a.492.492,0,0,0-.289.89l2.821,2.05a.491.491,0,0,1,.179.548l-1.07,3.339a.492.492,0,0,0,.759.547L5.634,9.1a.631.631,0,0,1,.732,0L9.107,11.1a.492.492,0,0,0,.759-.547L8.8,7.217a.491.491,0,0,1,.179-.548Z"/></g></g></svg>
