<svg xmlns="http://www.w3.org/2000/svg" width="569.21" height="569.2202" viewBox="0 0 569.21 569.2202"><title>Zanga-logo-white</title><path d="M284.62,0C127.68,0,0,127.68,0,284.61,0,441.55,127.68,569.22,284.62,569.22c156.93,0,284.59-127.67,284.59-284.61C569.21,127.68,441.55,0,284.62,0ZM153.17,49.69V424.03H54.33A267.6087,267.6087,0,0,1,15.35,284.61C15.35,183.85,71,95.85,153.17,49.69ZM284.62,553.87c-90.94,0-171.48-45.31-220.26-114.54h88.81a7.6851,7.6851,0,0,0,1.92-.27,4.2775,4.2775,0,0,0,.47-.15,7.35,7.35,0,0,0,1.51-.68,2.2158,2.2158,0,0,0,.22-.1l243.41-154.9V431.66a7.6713,7.6713,0,0,0,7.67,7.67h96.49C456.08,508.5605,375.55,553.87,284.62,553.87Zm230.3-129.89H416.05V49.68c82.17,46.16,137.82,134.16,137.82,234.93A267.6223,267.6223,0,0,1,514.92,423.9805Z" fill="#fff"/></svg>