<svg version="1" xmlns="http://www.w3.org/2000/svg" width="933.333" height="933.333" viewBox="0 0 700.000000 700.000000"><path d="M327.5 25c-66.6 4.9-129.6 29.7-182 71.6-14.1 11.3-37.6 34.8-48.9 48.9C31.3 227.1 9 331.4 35.1 432.9c10.8 42.1 33 85.9 61.5 121.6 11.1 14 34.7 37.5 48.9 48.9 81.5 65.3 185.9 87.6 287.4 61.5 42.1-10.8 86-33 121.6-61.5 14.1-11.3 37.6-34.8 48.9-48.9 21.2-26.5 41-61.5 52.5-92.5 20.6-55.7 25.2-118.9 12.9-178.5-10-48.7-33.3-97.9-65.4-138-11.4-14.2-34.9-37.8-48.9-48.9C528 75.4 493 55.6 462 44.1c-22.9-8.5-52.4-15.3-78-18-14.1-1.5-42.9-2.1-56.5-1.1zM199 295.5V509H86.2l-4.6-7.8c-13.2-22.6-25.4-54.1-32-83-5.7-24.4-7-37.5-7-68.2 0-24.5.3-30.5 2.3-43 8.8-57.3 29.7-105.5 64.7-149.5 11.2-14.1 33.8-36.7 47.9-47.9 12.3-9.8 38.1-27.2 40.8-27.5.4-.1.7 96 .7 213.4zM507.2 85.1c37.9 22.3 74.9 57.5 99.2 94.4 26.4 40.1 41.2 78.9 48.7 127.5 2 12.5 2.3 18.5 2.3 43 0 30.7-1.3 43.8-7 68.2-6.6 28.9-18.8 60.4-32 83l-4.6 7.8H501V295.5c0-117.4.2-213.5.5-213.5.2 0 2.8 1.4 5.7 3.1zM483 436.9v83.9l2.6 3.1 2.6 3.1h56.9c56.4 0 57 0 55.9 2-4 7.5-27.2 33.8-41.7 47.2-46.6 43.3-101 69.1-167.3 79.5-16.6 2.6-67.4 2.6-84 0-66.3-10.4-120.7-36.2-167.3-79.5C126.2 562.8 103 536.5 99 529c-1.1-2-.6-2 51.5-2h52.6l111.2-70.7c92.1-58.5 164.3-102.9 168-103.2.4-.1.7 37.7.7 83.8z"/></svg>