<svg xmlns="http://www.w3.org/2000/svg" viewBox="0 0 370.41 121.15"><defs><style>.cls-1{fill:#0098d5;}.cls-2{fill:#ee3e5d;}.cls-3{fill:#1099d6;}</style></defs><title>Asset 2</title><g id="Layer_2" data-name="Layer 2"><g id="Layer_1-2" data-name="Layer 1"><path class="cls-1" d="M61.55,121.15A61.56,61.56,0,0,1,45.18.25a6.9,6.9,0,0,1,3.66,13.31,47.75,47.75,0,1,0,25.41,0A6.9,6.9,0,0,1,77.92.25a61.56,61.56,0,0,1-16.37,120.9Z"/><path class="cls-2" d="M39.23,72.61,50.16,61.69,56.83,55l0,0,0,0a6.77,6.77,0,0,1,4.72-1.91h0A6.77,6.77,0,0,1,66.27,55l0,0,0,0,6.22,6.22L83.87,72.61a6.79,6.79,0,0,0,9.61,0h0a6.79,6.79,0,0,0,0-9.61L82.11,51.63,66.36,35.88h0a6.79,6.79,0,0,0-9.61,0h0l-16.2,16.2L29.62,63a6.79,6.79,0,0,0,0,9.61h0A6.79,6.79,0,0,0,39.23,72.61Z"/><path class="cls-3" d="M169.82,34.76h9.4l22.46,51.62H188.85L184.4,75.45H164.35L160,86.39H147.51Zm4.37,15-6.27,16h12.61Z"/><path class="cls-3" d="M236,47.38C234.2,45,230.56,44,227.79,44c-3.21,0-7.66,1.46-7.66,5.32,0,9.41,23.77,3.35,23.77,21.44,0,11.52-9.26,17-19.91,17a24.51,24.51,0,0,1-17.35-6.49l8.09-8.9a12.65,12.65,0,0,0,9.92,4.89c3.72,0,7.87-1.75,7.87-5.4,0-9.48-24.21-4.37-24.21-21.58,0-11,9.55-16.77,19.69-16.77,5.83,0,11.45,1.53,15.82,5.4Z"/><path class="cls-3" d="M252.8,34.76h11.37V75.89h21.07v10.5H252.8Z"/><path class="cls-2" d="M307.26,47l-10.35,9.11L290.71,49l16.84-14.22h10.21V86.39h-10.5Z"/><path class="cls-2" d="M351.67,67.94a14.57,14.57,0,0,1-3.57.51c-9.7,0-16.19-7.44-16.19-16.84,0-10.64,8.46-17.72,19.25-17.72S370.41,41,370.41,51.61c0,7.44-2.92,12-6.2,17.13l-11.3,17.64H339.57Zm-.51-7.8A8.1,8.1,0,1,0,342.85,52,7.91,7.91,0,0,0,351.16,60.14Z"/></g></g></svg>