<?xml version="1.0" encoding="utf-8"?>
<!-- Generator: Adobe Illustrator 19.2.1, SVG Export Plug-In . SVG Version: 6.00 Build 0)  -->
<svg version="1.1" id="Layer_1" xmlns="http://www.w3.org/2000/svg" xmlns:xlink="http://www.w3.org/1999/xlink" x="0px" y="0px"
	 width="123.3332596px" height="123.3332596px" viewBox="0 0 123.3332596 123.3332596"
	 enable-background="new 0 0 123.3332596 123.3332596" xml:space="preserve">
<g>
	<circle fill="#FFFFFF" cx="61.6666298" cy="61.6666298" r="61.6666298"/>
	<g>
		<g>
			<g>
				<path fill="#FF7029" d="M5.7622232,61.6673737c0,30.874855,25.0316925,55.9039459,55.9070282,55.9039459
					c30.8722305,0,55.9018707-25.0290909,55.9018707-55.9039459c0-12.4632912-4.0823364-23.9707146-10.9763641-33.2671585
					H16.7400055C9.8441782,37.6966591,5.7622232,49.2040825,5.7622232,61.6673737z"/>
			</g>
			<linearGradient id="SVGID_1_" gradientUnits="userSpaceOnUse" x1="48.007103" y1="53.0153351" x2="75.325882" y2="100.3328476">
				<stop  offset="0.44314" style="stop-color:#AD4820"/>
				<stop  offset="0.90326" style="stop-color:#C65224;stop-opacity:0"/>
			</linearGradient>
			<rect x="35.133049" y="60.4481735" fill="url(#SVGID_1_)" width="53.0668907" height="32.4518356"/>
			<path fill="#1a396e" d="M61.6692505,5.7623172c-30.8753338,0-55.9070282,25.0288029-55.9070282,55.905056
				c0,11.567749,3.5147171,22.3152008,9.5331163,31.2326355H35.133049c0.1346512,0,0.2632294-0.0226364,0.3879623-0.0544281
				c0.0318871-0.0082321,0.0627594-0.0190735,0.0945473-0.0295486c0.1074409-0.0357132,0.2095528-0.080986,0.3048515-0.137825
				c0.0144005-0.008049,0.0311394-0.0112228,0.0446968-0.0202103l49.136982-31.2703056v29.9632072
				c0,0.855629,0.6934814,1.5491104,1.5489273,1.5491104h0.6650391h12.9154358h7.8070755
				c6.0183945-8.9174347,9.5325546-19.6648865,9.5325546-31.2326355
				C117.5711212,30.7911205,92.541481,5.7623172,61.6692505,5.7623172z"/>
			<g>
				<path fill="#1B75BA" d="M35.133049,12.4524097C17.6452808,21.9007969,5.7622232,40.3953972,5.7622232,61.6673737
					c0,10.2645721,2.7795429,19.8753052,7.6080818,28.1428299H35.133049V12.4524097z"/>
			</g>
			<g>
				<path fill="#1B75BA" d="M88.1999359,12.4508209v77.3511505h21.767952
					c4.8255692-8.26548,7.6032333-17.8730316,7.6032333-28.1345978
					C117.5711212,40.3940964,105.6878738,21.8992081,88.1999359,12.4508209z"/>
			</g>
		</g>
		<g>
			<g>
				<defs>
					<path id="SVGID_7_" d="M61.6692505,119.1200485c-31.681673,0-57.4560432-25.7730484-57.4560432-57.4526749
						c0-31.680275,25.7743721-57.4541664,57.4560432-57.4541664c31.6784973,0,57.450798,25.7738914,57.450798,57.4541664
						C119.1200485,93.3470001,93.3477478,119.1200485,61.6692505,119.1200485z M61.6692505,7.3112483
						c-29.9730282,0-54.3581924,24.3841324-54.3581924,54.3561249c0,29.9719162,24.3851662,54.3548279,54.3581924,54.3548279
						c29.9698486,0,54.3525848-24.3829117,54.3525848-54.3548279C116.0218353,31.6953812,91.6390991,7.3112483,61.6692505,7.3112483
						z"/>
				</defs>
				<use xlink:href="#SVGID_7_"  overflow="visible" fill="#1a396e"/>
				<clipPath id="SVGID_3_">
					<use xlink:href="#SVGID_7_"  overflow="visible"/>
				</clipPath>
			</g>
		</g>
	</g>
</g>
</svg>
