<?xml version="1.0" encoding="UTF-8"?>
<svg width="120px" height="120px" viewBox="0 0 120 120" version="1.1" xmlns="http://www.w3.org/2000/svg" xmlns:xlink="http://www.w3.org/1999/xlink">
    <!-- Generator: sketchtool 62 (101010) - https://sketch.com -->
    <title>E5193587-978C-41D6-A0F6-7133A9C6BA49@1x</title>
    <desc>Created with sketchtool.</desc>
    <g id="UI-Kit" stroke="none" stroke-width="1" fill="none" fill-rule="evenodd">
        <g transform="translate(-759.000000, -1064.000000)" fill-rule="nonzero" id="Zanga-logo-icon">
            <g transform="translate(759.000000, 1064.000000)">
                <path d="M106.286316,92.4905263 C96.0168421,107.065263 79.0631579,116.604211 59.92,116.604211 C40.7747368,116.604211 23.8189474,107.065263 13.5494737,92.4905263 L32.2463158,92.4905263 C32.382912,92.4887196 32.5187295,92.4696203 32.6505263,92.4336842 C32.6840888,92.4250703 32.7171262,92.4145265 32.7494737,92.4021053 C32.8604933,92.3665141 32.9671349,92.31849 33.0673684,92.2589474 C33.0831785,92.2527776 33.0986401,92.2457496 33.1136842,92.2378947 L84.3578947,59.6273684 L84.3578947,90.8757895 C84.3580458,91.7675214 85.0808996,92.4903752 85.9726316,92.4905263 L106.286316,92.4905263 Z" id="Path" fill="#FF8D5F"></path>
                <path d="M32.2463158,10.4610526 L32.2463158,89.2694737 L11.4378947,89.2694737 C6.0577908,80.4253616 3.21845246,70.2698831 3.23153364,59.9178947 C3.23153364,38.7052632 14.9473684,20.1789474 32.2463158,10.4610526 Z" id="Path" fill="#FFD300"></path>
                <path d="M116.604255,59.9178947 C116.617158,70.2656865 113.7801,80.4171841 108.404211,89.2589474 L87.5894737,89.2589474 L87.5894737,10.4589474 C104.888421,20.1768421 116.604255,38.7031579 116.604255,59.9178947 Z" id="Path" fill="#FFD300"></path>
                <path d="M59.92,0 C26.88,0 0,26.88 0,59.9178947 C0,92.9578947 26.88,119.835789 59.92,119.835789 C92.9578947,119.835789 119.833684,92.9578947 119.833684,59.9178947 C119.833684,26.88 92.9578947,0 59.92,0 Z M32.2463158,10.4610526 L32.2463158,89.2694737 L11.4378947,89.2694737 C6.0577908,80.4253616 3.21845246,70.2698831 3.23153364,59.9178947 C3.23153364,38.7052632 14.9473684,20.1789474 32.2463158,10.4610526 Z M59.92,116.604211 C40.7747368,116.604211 23.8189474,107.065263 13.5494737,92.4905263 L32.2463158,92.4905263 C32.382912,92.4887196 32.5187295,92.4696203 32.6505263,92.4336842 C32.6840888,92.4250703 32.7171262,92.4145265 32.7494737,92.4021053 C32.8604933,92.3665141 32.9671349,92.31849 33.0673684,92.2589474 C33.0831785,92.2527776 33.0986401,92.2457496 33.1136842,92.2378947 L84.3578947,59.6273684 L84.3578947,90.8757895 C84.3580458,91.7675214 85.0808996,92.4903752 85.9726316,92.4905263 L106.286316,92.4905263 C96.0168421,107.065368 79.0631579,116.604211 59.92,116.604211 Z M108.404211,89.2590526 L87.5894737,89.2590526 L87.5894737,10.4589474 C104.888421,20.1768421 116.604255,38.7031579 116.604255,59.9178947 C116.617177,70.2657222 113.780118,80.4172588 108.404211,89.2590526 L108.404211,89.2590526 Z" id="Shape" fill="#0054B0"></path>
            </g>
        </g>
    </g>
</svg>