<svg xmlns="http://www.w3.org/2000/svg" width="24" height="24" viewBox="0 0 24 24"><title>Asset 94</title><rect width="24" height="24" fill="none"/><path d="M20,20.3916H4a1.7522,1.7522,0,0,1-1.75-1.75v-3.27a.75.75,0,1,1,1.5,0v3.2705a.25.25,0,0,0,.25.25H20a.25.25,0,0,0,.25-.25v-3.27a.75.75,0,1,1,1.5,0v3.2705A1.7522,1.7522,0,0,1,20,20.3916Z" fill="#0054b0"/><path d="M17.5334,10.4946l-5,5a.742.742,0,0,1-.53.22.71.71,0,0,1-.53-.22l-5-5a.7367.7367,0,0,1,0-1.06.7543.7543,0,0,1,1.06,0l3.72,3.72v-9.19a.75.75,0,0,1,1.5,0v9.19l3.72-3.72a.75.75,0,0,1,1.06,1.06Z" fill="#0054b0"/></svg>