<svg xmlns="http://www.w3.org/2000/svg" width="32" height="32" viewBox="0 0 32 32"><title>ic_civic_grey</title><rect width="32" height="32" fill="none"/><path d="M16.0878,13.4975a3.9993,3.9993,0,1,1,3.9995-3.9989A4.0037,4.0037,0,0,1,16.0878,13.4975Zm0-6.6793a2.68,2.68,0,1,0,2.68,2.68A2.6838,2.6838,0,0,0,16.0878,6.8182Z" fill="#7b7b7b"/><path d="M20.9141,26.501H11.2614a.6592.6592,0,0,1-.66-.66V20.5361A5.3644,5.3644,0,0,1,15.96,15.1774h.2551a5.3649,5.3649,0,0,1,5.3587,5.3587v5.3053A.6592.6592,0,0,1,20.9141,26.501Zm-8.993-1.3192h8.3334V20.5361a4.0439,4.0439,0,0,0-4.04-4.04H15.96a4.0438,4.0438,0,0,0-4.0388,4.04Z" fill="#7b7b7b"/><path d="M24.9438,14.3926a2.76,2.76,0,1,1,2.76-2.76A2.763,2.763,0,0,1,24.9438,14.3926Zm0-4.2006a1.4407,1.4407,0,1,0,1.4409,1.441A1.443,1.443,0,0,0,24.9438,10.192Z" fill="#7b7b7b"/><path d="M28.34,23.9559H23.2013a.66.66,0,0,1,0-1.3192h4.48v-3.12a2.6912,2.6912,0,0,0-2.6881-2.6881h-.1816a2.6836,2.6836,0,0,0-1.2916.33.66.66,0,0,1-.6364-1.1556,4.0076,4.0076,0,0,1,1.928-.4934h.1816A4.012,4.012,0,0,1,29,19.5171v3.7792A.6592.6592,0,0,1,28.34,23.9559Z" fill="#7b7b7b"/><path d="M7.0569,14.3926a2.76,2.76,0,1,1,2.76-2.76A2.763,2.763,0,0,1,7.0569,14.3926Zm0-4.2006a1.4407,1.4407,0,1,0,1.441,1.441A1.443,1.443,0,0,0,7.0569,10.192Z" fill="#7b7b7b"/><path d="M8.7993,23.9559H3.66a.6592.6592,0,0,1-.66-.66V19.5171A4.0121,4.0121,0,0,1,7.0079,15.51h.181a4.0111,4.0111,0,0,1,1.928.4934.6593.6593,0,0,1-.6351,1.1556,2.6924,2.6924,0,0,0-1.2929-.33h-.181a2.6913,2.6913,0,0,0-2.6887,2.6881v3.12h4.48a.66.66,0,0,1,0,1.3192Z" fill="#7b7b7b"/></svg>