<svg xmlns="http://www.w3.org/2000/svg" width="24" height="24" viewBox="0 0 24 24"><title>ic_download</title><rect width="24" height="24" fill="none"/><path d="M19.933,20.3916h-16a1.7522,1.7522,0,0,1-1.75-1.75v-3.27a.75.75,0,1,1,1.5,0v3.2705a.25.25,0,0,0,.25.25h16a.25.25,0,0,0,.25-.25v-3.27a.75.75,0,1,1,1.5,0v3.2705A1.7521,1.7521,0,0,1,19.933,20.3916Z" fill="#7b7b7b"/><path d="M17.46,10.4946l-5,5a.7261.7261,0,0,1-.53.22.742.742,0,0,1-.53-.22l-5-5a.75.75,0,0,1,1.06-1.06l3.72,3.72v-9.19a.75.75,0,1,1,1.5,0v9.19l3.72-3.72a.7543.7543,0,0,1,1.06,0A.7367.7367,0,0,1,17.46,10.4946Z" fill="#7b7b7b"/></svg>