<svg xmlns="http://www.w3.org/2000/svg" width="22.3175" height="22.3175" viewBox="0 0 22.3175 22.3175"><title>ic_facebook</title><rect width="22.3175" height="22.3175" fill="none"/><path d="M21.2349,19.0757a2.1507,2.1507,0,0,1-2.1592,2.1592H15.252V13.273h2.6992l.4048-3.0591H15.252V8.28a1.7908,1.7908,0,0,1,.27-1.08,1.5592,1.5592,0,0,1,1.2149-.4047H18.356V4.0962a16.99,16.99,0,0,0-2.3389-.1347,3.86,3.86,0,0,0-2.8564,1.0571,3.9811,3.9811,0,0,0-1.0571,2.9463v2.249H9.3594V13.273h2.7442v7.9619H3.2417a2.0824,2.0824,0,0,1-1.5293-.63,2.0821,2.0821,0,0,1-.63-1.5293V3.2417a2.0823,2.0823,0,0,1,.63-1.5293,2.0823,2.0823,0,0,1,1.5293-.63h15.834a2.0821,2.0821,0,0,1,1.5293.63,2.0824,2.0824,0,0,1,.63,1.5293Z" fill="#7c7c7c"/></svg>