<svg xmlns="http://www.w3.org/2000/svg" width="24" height="24" viewBox="0 0 24 24"><title>ic_link</title><rect width="24" height="24" fill="none"/><path d="M6.8049,13.84a.7476.7476,0,0,1-.53-.22L3.7717,11.1177a5.1945,5.1945,0,1,1,7.3462-7.3462l2.5029,2.5029A.75.75,0,1,1,12.56,7.335L10.0574,4.832a3.784,3.784,0,0,0-5.2251,0,3.699,3.699,0,0,0,0,5.2251L7.3352,12.56a.75.75,0,0,1-.53,1.28Z" fill="#0054b0"/><path d="M16.5554,21.75a5.1588,5.1588,0,0,1-3.6733-1.5215l-2.6734-2.6733a.75.75,0,0,1,1.0606-1.0606l2.6733,2.6734a3.784,3.784,0,0,0,5.2251,0,3.6992,3.6992,0,0,0,0-5.2251L16.4944,11.27a.75.75,0,0,1,1.0605-1.0605l2.6734,2.6733A5.1946,5.1946,0,0,1,16.5554,21.75Z" fill="#0054b0"/><path d="M14.385,15.1352a.7476.7476,0,0,1-.53-.22l-4.77-4.77a.75.75,0,0,1,1.0605-1.06l4.77,4.7705a.75.75,0,0,1-.53,1.28Z" fill="#0054b0"/></svg>