<svg xmlns="http://www.w3.org/2000/svg" width="32" height="32" viewBox="0 0 32 32"><title>ic_messaging_blue</title><rect width="32" height="32" fill="none"/><path d="M24.265,23.4a.6666.6666,0,0,1-.4714-.1953l-4.8-4.8H13.4062a3.6873,3.6873,0,0,1-3.6829-3.6829V6.4335a3.6874,3.6874,0,0,1,3.6829-3.683H25.4714a3.6874,3.6874,0,0,1,3.6829,3.683v8.2884a3.6873,3.6873,0,0,1-3.6829,3.6829h-.54v4.3288a.6666.6666,0,0,1-.6666.6667ZM13.4062,4.0839a2.3523,2.3523,0,0,0-2.35,2.35v8.2884a2.3523,2.3523,0,0,0,2.35,2.35H19.27a.666.666,0,0,1,.4713.1953l3.8568,3.8574v-3.386a.6663.6663,0,0,1,.6667-.6667h1.2064a2.3523,2.3523,0,0,0,2.35-2.35V6.4335a2.3523,2.3523,0,0,0-2.35-2.35Z" fill="#0054b0"/><path d="M6.6908,29.25a.6666.6666,0,0,1-.6667-.6667v-3.09H5.7865a2.9438,2.9438,0,0,1-2.9408-2.9408V16.3208A2.9438,2.9438,0,0,1,5.7865,13.38H7.0273a.6667.6667,0,1,1,0,1.3333H5.7865A1.61,1.61,0,0,0,4.179,16.3208v6.2318A1.61,1.61,0,0,0,5.7865,24.16h.9043a.6663.6663,0,0,1,.6666.6667v2.1471l2.6185-2.6185a.6662.6662,0,0,1,.4714-.1953h4.41a1.61,1.61,0,0,0,1.6074-1.6074V21.0774a.6667.6667,0,1,1,1.3334,0v1.4752a2.9438,2.9438,0,0,1-2.9408,2.9408H10.7233L7.1621,29.0546A.6665.6665,0,0,1,6.6908,29.25Z" fill="#0087e7"/></svg>