<svg xmlns="http://www.w3.org/2000/svg" width="24" height="24" viewBox="0 0 24 24"><title>ic_newsletter_w</title><rect width="24" height="24" fill="none"/><path d="M17.4177,9.8242H10.946a.75.75,0,0,1,0-1.5h6.4717a.75.75,0,0,1,0,1.5Z" fill="#fff"/><path d="M17.4177,14.3965H13.6071a.75.75,0,1,1,0-1.5h3.8106a.75.75,0,0,1,0,1.5Z" fill="#fff"/><path d="M4.86,20.46a.7569.7569,0,0,0,.15-.01.0909.0909,0,0,0,.05-.01A1.2427,1.2427,0,0,1,4.86,20.46Z" fill="#fff"/><path d="M5.53,20.28a1.4718,1.4718,0,0,0,.81-1.32v-.13A1.6684,1.6684,0,0,1,5.53,20.28Z" fill="#fff"/><path d="M21.33,2.58H7.03a.6894.6894,0,0,0-.69.68V13.5H2.67a.6914.6914,0,0,0-.69.69v4.77a2.8789,2.8789,0,0,0,.95,2.13,2.8079,2.8079,0,0,0,1.78.73.7569.7569,0,0,0,.15.01H18.83a3.1923,3.1923,0,0,0,3.19-3.19V3.26A.6894.6894,0,0,0,21.33,2.58ZM4.84,20.46a1.49,1.49,0,0,1-.99-.39,1.5064,1.5064,0,0,1-.49-1.11V14.88H6.34v4.08a1.4718,1.4718,0,0,1-.81,1.32.6717.6717,0,0,1-.23.1c-.01.01-.02.01-.04.01a.4539.4539,0,0,1-.2.05.0909.0909,0,0,1-.05.01.7569.7569,0,0,1-.15.01Zm15.8-1.82a1.8181,1.8181,0,0,1-1.81,1.82H7.3a2.9669,2.9669,0,0,0,.41-1.33c0-.1.01-.2.01-.3V3.95H20.64Z" fill="#fff"/></svg>