<svg xmlns="http://www.w3.org/2000/svg" width="24" height="24" viewBox="0 0 24 24"><title>ic_support_newsletter_1_w</title><rect width="24" height="24" fill="none"/><path d="M12.001,14.7116h0a.7489.7489,0,0,1-.5307-.22l-5.3921-5.4A.75.75,0,1,1,7.14,8.0315l4.8618,4.8691L16.75,8.15a.75.75,0,0,1,1.0605,1.0606l-5.2793,5.2812A.75.75,0,0,1,12.001,14.7116Z" fill="#fff"/><path d="M19.755,4.1019H4.245a2.2534,2.2534,0,0,0-2.25,2.25v11.3a2.2534,2.2534,0,0,0,2.25,2.25h15.51a2.2534,2.2534,0,0,0,2.25-2.25v-11.3A2.2534,2.2534,0,0,0,19.755,4.1019Zm-15.08,14.3,2.58-2.57a.7545.7545,0,0,0,0-1.06.7367.7367,0,0,0-1.06,0l-2.7,2.69V6.3519a.7427.7427,0,0,1,.75-.75h15.51a.7427.7427,0,0,1,.75.75v11.11l-2.69-2.69a.75.75,0,0,0-1.06,1.06l2.57,2.57Z" fill="#fff"/></svg>