<svg xmlns="http://www.w3.org/2000/svg" width="32" height="32" viewBox="0 0 32 32"><title>ic_security_grey</title><rect width="32" height="32" fill="none"/><path d="M16,29.9319a.6989.6989,0,0,1-.3413-.0893C7.2588,25.1307,3,16.8412,3,5.2032V4.9845A.6975.6975,0,0,1,4,4.3556a9.9021,9.9021,0,0,0,4.3188.9838,9.8646,9.8646,0,0,0,7.1782-3.0658.72.72,0,0,1,1.007,0,9.8646,9.8646,0,0,0,7.1782,3.0658,9.9021,9.9021,0,0,0,4.3188-.9838.6975.6975,0,0,1,1,.6289v.2187c0,11.7184-4.26,20.0086-12.6634,24.6421A.6942.6942,0,0,1,16,29.9319ZM4.4028,6.0378c.1955,10.5,4.0947,18.0294,11.6,22.3945C23.5059,24.1387,27.4037,16.61,27.5972,6.0378a11.4416,11.4416,0,0,1-3.9155.6969A11.2318,11.2318,0,0,1,16,3.7336,11.2318,11.2318,0,0,1,8.3183,6.7347,11.4416,11.4416,0,0,1,4.4028,6.0378Z" fill="#7b7b7b"/><path d="M14.7321,18.7285h0a.6973.6973,0,0,1-.4933-.2044l-2.8765-2.8772a.6976.6976,0,1,1,.9866-.9865l2.3832,2.3839,4.919-4.92a.6976.6976,0,0,1,.9866.9865l-5.4123,5.413A.6975.6975,0,0,1,14.7321,18.7285Z" fill="#7b7b7b"/></svg>