<svg xmlns="http://www.w3.org/2000/svg" width="32" height="32" viewBox="0 0 32 32"><title>ic_vpn_blue</title><rect width="32" height="32" fill="none"/><path d="M25.0562,12.3329h-2.161a.1724.1724,0,0,0,.0134-.081V9.402a6.9087,6.9087,0,0,0-13.8173,0v2.85a.1712.1712,0,0,0,.0135.081H6.9438a2.3174,2.3174,0,0,0-2.31,2.31V27.19a2.3173,2.3173,0,0,0,2.31,2.31H25.0562a2.3173,2.3173,0,0,0,2.31-2.31V14.6426A2.3174,2.3174,0,0,0,25.0562,12.3329Zm-14.6142-.081V9.402a5.558,5.558,0,0,1,11.116,0v2.85a.1712.1712,0,0,0,.0135.081H10.4284A.17.17,0,0,0,10.442,12.2519ZM26.0152,27.19a.9627.9627,0,0,1-.959.959H6.9438a.9627.9627,0,0,1-.959-.959V14.6426a.9627.9627,0,0,1,.959-.959H25.0562a.9627.9627,0,0,1,.959.959Z" fill="#0054b0"/><path d="M16,23.6193a3.0337,3.0337,0,1,1,3.0337-3.0337A3.0375,3.0375,0,0,1,16,23.6193Zm0-4.7168a1.6831,1.6831,0,1,0,1.683,1.6831A1.6852,1.6852,0,0,0,16,18.9025Z" fill="#0087e7"/></svg>