<svg xmlns="http://www.w3.org/2000/svg" width="32" height="32" viewBox="0 0 32 32"><title>ic_vpn_grey_1</title><rect width="32" height="32" fill="none"/><path d="M23.9978,19.5843a4.9985,4.9985,0,0,0-4.9306,4.2425H3.7167A.7188.7188,0,0,0,3,24.5435v3.2679a.7188.7188,0,0,0,.7167.7167.71.71,0,0,0,.7166-.7167V25.26H7.0562v1.72a.7167.7167,0,0,0,1.4333,0V25.26H19.0529a4.9967,4.9967,0,1,0,4.9449-5.6758Zm0,8.5711a3.5689,3.5689,0,1,1,3.5689-3.5689A3.5692,3.5692,0,0,1,23.9978,28.1554Z" fill="#7b7b7b"/><path d="M18.6035,16.1277a.7144.7144,0,0,1-.5067-.21,3.0625,3.0625,0,0,0-4.1936,0A.7165.7165,0,0,1,12.89,14.9044a4.5291,4.5291,0,0,1,6.22,0,.7166.7166,0,0,1-.5066,1.2233Z" fill="#7b7b7b"/><path d="M22.3417,12.39a.7144.7144,0,0,1-.5067-.21,8.2683,8.2683,0,0,0-11.67,0,.7165.7165,0,0,1-1.0134-1.0133,9.7008,9.7008,0,0,1,13.6968,0,.7167.7167,0,0,1-.5067,1.2233Z" fill="#7b7b7b"/><path d="M26.5307,8.2005a.7142.7142,0,0,1-.5067-.21,14.191,14.191,0,0,0-20.048,0A.7166.7166,0,0,1,4.9626,6.9771a15.6238,15.6238,0,0,1,22.0748,0,.7167.7167,0,0,1-.5067,1.2234Z" fill="#7b7b7b"/></svg>