<?xml version="1.0" encoding="utf-8"?>
<!-- Generator: Adobe Illustrator 19.2.1, SVG Export Plug-In . SVG Version: 6.00 Build 0)  -->
<svg version="1.1" id="Layer_1" xmlns="http://www.w3.org/2000/svg" xmlns:xlink="http://www.w3.org/1999/xlink" width="20" height="23.5019684" viewBox="0 0 20 23.5019684">
<g id="UOU6q5.tif_6_">
	<g>
		<path fill="#FFFFFF" d="M9.9898682,7.4381895c2.0988493,0.0000014,4.1976986,0.0004897,6.296545-0.001883
			c0.0793324-0.0000896,0.0967751,0.0214162,0.0967274,0.0982065c-0.0020084,3.2370791,0.0006371,6.4741645-0.0037384,9.7112389
			c-0.0009003,0.6654606-0.3089046,1.1616116-0.895505,1.4775562c-0.2329731,0.1254787-0.4871511,0.1758652-0.752039,0.1740723
			c-0.2576532-0.0017395-0.5153542,0.0016499-0.772974-0.0017796c-0.0629435-0.0008373-0.0789776,0.0177441-0.0788755,0.0797615
			c0.0018349,1.1182156-0.0085478,2.2365627,0.0057697,3.3545971c0.0065517,0.5116768-0.2333527,0.8343239-0.6744041,1.0391083
			c-0.5200958,0.2414913-1.2110901,0.1452541-1.6127787-0.2220058c-0.2140017-0.1956596-0.3253574-0.4337234-0.3244562-0.7290497
			c0.0034819-1.1407242,0.0014038-2.2814636,0.0013933-3.4221973c-0.000001-0.0987492-0.0000095-0.0987892-0.1021423-0.0987911
			c-0.7955103-0.0000095-1.5910225-0.0000095-2.3865337,0.0000057c-0.0983162,0.0000019-0.0983448,0.0000534-0.0983458,0.0951004
			c-0.0000048,1.1232204-0.0068283,2.2465057,0.0034266,3.3696346c0.003994,0.4374847-0.1907721,0.7384052-0.5544968,0.9481888
			c-0.5035348,0.2904263-1.2051206,0.2473869-1.6581569-0.1019268c-0.2606115-0.2009449-0.3995447-0.4606438-0.3980751-0.7993698
			c0.0049486-1.1407127,0.0011868-2.2814598,0.0035372-3.4221878c0.0001478-0.071928-0.0177064-0.0922546-0.0904031-0.0912228
			c-0.275104,0.0039005-0.5503998,0.0051289-0.825458-0.0005856c-0.8505025-0.0176754-1.55389-0.721714-1.5740495-1.5715981
			c-0.0010087-0.0425091-0.0008693-0.0850506-0.00087-0.1275749c-0.000037-3.2170687-0.0000346-6.4341373-0.0000303-9.6512051
			C3.5939353,7.4382029,3.5939627,7.43819,3.7008255,7.43819C5.797173,7.4381871,7.8935199,7.4381876,9.9898682,7.4381895z"/>
		<path fill="#FFFFFF" d="M17.3877964,11.7300844c-0.0000114-1.012949,0.0097065-2.0260324-0.0041199-3.0387926
			c-0.0068836-0.5042086,0.2251263-0.837111,0.6649055-1.0285835c0.5385475-0.2344742,1.0658512-0.1926241,1.5488625,0.1548686
			c0.2697659,0.194078,0.4016209,0.4655309,0.4011688,0.8051534c-0.0027447,2.0609102-0.0047874,4.1218367,0.001379,6.1827326
			c0.0013123,0.4383287-0.186636,0.7541904-0.5620003,0.9501381c-0.5611553,0.2929392-1.1188374,0.2687578-1.6426525-0.0965471
			c-0.272007-0.1896944-0.4103661-0.4586668-0.4090233-0.800087C17.390419,13.8160191,17.3878059,12.7730465,17.3877964,11.7300844z
			"/>
		<path fill="#FFFFFF" d="M2.6082401,11.7366781c0.0000033,1.0279322-0.0064428,2.0559244,0.0031369,3.083766
			c0.0039003,0.4184713-0.182478,0.7116251-0.5251594,0.9197731c-0.510272,0.309948-1.2158425,0.2725563-1.6898503-0.0888624
			c-0.2570401-0.1959877-0.3953313-0.4523153-0.394882-0.7849894c0.0028003-2.0733671,0.0047353-4.1467505-0.0014791-6.2201023
			c-0.0012034-0.4014959,0.1708325-0.6887136,0.4962766-0.8983159C1.0176783,7.4121404,1.7842366,7.45575,2.2533212,7.8490386
			c0.2321572,0.1946445,0.3574712,0.4400659,0.3563485,0.751328C2.6058991,9.645792,2.608237,10.6912394,2.6082401,11.7366781z"/>
		<g>
			<path fill="#FFFFFF" d="M16.3794994,6.4523797c-0.0281658-0.3954754-0.0967293-0.783823-0.2071705-1.1645412
				c-0.2314072-0.7977815-0.6121655-1.5133233-1.176487-2.1269495c-0.5022926-0.5461752-1.1023808-0.9531991-1.7824535-1.2444335
				c-0.0573568-0.0245615-0.055686-0.041695-0.0243292-0.0879046c0.1936417-0.2853949,0.384387-0.5727539,0.5761042-0.8594515
				c0.1403141-0.2098342,0.2822151-0.4186314,0.4204197-0.6298472c0.0927629-0.1417657,0.0180988-0.3140056-0.1454306-0.3368942
				c-0.1007929-0.0141084-0.1693707,0.0384628-0.2235947,0.1198592c-0.3450003,0.5178887-0.6919575,1.0344728-1.0361185,1.5529166
				c-0.0304737,0.0459055-0.0561657,0.0539382-0.1082096,0.0368962c-0.140069-0.0458724-0.2815638-0.0885129-0.4245529-0.124176
				c-0.9642315-0.2404989-1.9429741-0.307785-2.9330406-0.2459921c-0.6993961,0.04365-1.386076,0.1533493-2.0525465,0.3748093
				C7.221498,1.7301602,7.2006431,1.7227377,7.177227,1.6864809c-0.0908437-0.1406406-0.1856084-0.2787455-0.278698-0.4179424
				C6.6429062,0.8863031,6.3868737,0.5043352,6.1322622,0.1214292C6.0781226,0.0400108,6.0094275-0.0123442,5.9084039,0.0025191
				C5.7394843,0.0273682,5.6718884,0.2018984,5.7725015,0.3528658c0.3284917,0.492882,0.6575294,0.9854029,0.9884686,1.4766396
				C6.7931261,1.877234,6.7915173,1.8933762,6.735846,1.9172872c-0.5021677,0.2157012-0.9633703,0.4986938-1.374537,0.8595046
				C4.5911365,3.4526453,4.0894704,4.2969661,3.8031797,5.275229c-0.1121125,0.3830833-0.174021,0.7750978-0.213737,1.1714101
				C3.5795741,6.5451398,3.5760159,6.5448613,3.6758192,6.5448613c2.1010211,0.0000148,4.2020464,0.000011,6.3030672,0.0000148
				c2.1035242,0.0000033,4.2070475,0.0000072,6.3105764-0.0000091C16.386755,6.5448651,16.3860817,6.5448356,16.3794994,6.4523797z
				 M7.2311611,4.7340574C6.8378515,4.7335463,6.5209656,4.4164166,6.5200973,4.0224547
				C6.5192251,3.6271005,6.8329706,3.3097601,7.2267747,3.3076768C7.625145,3.3055696,7.9457321,3.6219921,7.9465313,4.0180774
				C7.94733,4.4137344,7.6267648,4.7345724,7.2311611,4.7340574z M12.7056065,4.7340078
				c-0.3951311-0.0001612-0.7159777-0.3231812-0.7133064-0.718142c0.0026636-0.3937216,0.320385-0.7085629,0.7146807-0.7081926
				c0.3949804,0.00037,0.7106867,0.3147237,0.7125816,0.7095287C13.421464,4.4132762,13.1018476,4.7341695,12.7056065,4.7340078z"/>
		</g>
	</g>
</g>
</svg>
