<?xml version="1.0" encoding="utf-8"?>
<!-- Generator: Adobe Illustrator 19.2.1, SVG Export Plug-In . SVG Version: 6.00 Build 0)  -->
<svg version="1.1" id="Layer_1" xmlns="http://www.w3.org/2000/svg" xmlns:xlink="http://www.w3.org/1999/xlink" width="20" height="20" viewBox="0 0 20 20">
<g>
	<path fill="#FFFFFF" d="M5.4066629,8.5862379C6.0117188,6.6237979,7.8416467,5.19381,10.0000753,5.19381h8.7689295
		C17.0690346,2.0988581,13.780386,0,10,0C6.991962,0,4.3010068,1.3344351,2.4677734,3.4362981L3.5580678,5.384315
		L5.4066629,8.5862379z"/>
	<path fill="#FFFFFF" d="M13.2678032,9.9996996c0-1.8016825-1.465745-3.2674279-3.2677279-3.2674279
		S6.7323465,8.1980171,6.7323465,9.9996996c0,1.8022833,1.465745,3.2680292,3.2677288,3.2680292
		c1.1221075,0,2.1129808-0.5691109,2.701622-1.4329929l0.044734-0.0778246
		C13.0728292,11.248498,13.2678032,10.6475363,13.2678032,9.9996996z"/>
	<path fill="#FFFFFF" d="M10.0000753,14.8061895c-1.7484598,0-3.2771935-0.9417067-4.1182017-2.3413458L5.8726711,12.470252
		L1.627479,5.0880408L1.6148587,5.0952525l-0.086839-0.1502404l0.0030049-0.0024037L1.4611253,4.8149037
		C0.5401517,6.3284254,0,8.0988579,0,10c0,4.8753004,3.4907227,8.9305897,8.1080227,9.8155041l2.9535761-5.1313095
		C10.7195759,14.7617188,10.3652344,14.8061895,10.0000753,14.8061895z"/>
	<path fill="#FFFFFF" d="M14.8062649,9.9996996c0,0.95012-0.2807236,1.8344355-0.7584133,2.58113l-4.2640476,7.4080524
		C9.8564081,19.9906845,9.927021,20,10,20c5.5228367,0,10-4.4771633,10-10c0-1.1460333-0.2022991-2.2424879-0.5571671-3.2677283
		h-5.9282217C14.3133259,7.590745,14.8062649,8.73738,14.8062649,9.9996996z"/>
	<path fill="#FFFFFF" d="M10.0000753,13.2677288c-1.8019838,0-3.2677288-1.4657459-3.2677288-3.2680292
		c0-1.8016825,1.465745-3.2674279,3.2677288-3.2674279s3.2677279,1.4657454,3.2677279,3.2674279
		c0,0.6478367-0.1949739,1.2487984-0.5213718,1.7572117c-0.0161505,0.0252399-0.0279064,0.0531845-0.044734,0.0778246
		C12.1130562,12.6986179,11.1221828,13.2677288,10.0000753,13.2677288z"/>
</g>
</svg>
