<?xml version="1.0" encoding="utf-8"?>
<!-- Generator: Adobe Illustrator 19.2.1, SVG Export Plug-In . SVG Version: 6.00 Build 0)  -->
<svg version="1.1" id="Layer_1" xmlns="http://www.w3.org/2000/svg" xmlns:xlink="http://www.w3.org/1999/xlink" width="20" height="19.5739441" viewBox="0 0 20 19.5739441">
<g>
	<g>
		<path fill="#FFFFFF" d="M2.6551228,2.9601636C2.6338522,2.9261882,2.6312702,3.0446308,2.6083605,3.0040569
			C2.4567623,2.7301228,2.3277457,2.2631965,2.3154097,1.9289751c0,0-0.2481148,0.1452868-0.410164,0.6579509
			C1.8763522,2.6776226,1.8559015,2.7313113,1.8351638,2.7811062C1.8287704,2.7965159,1.8481966,2.6163108,1.8406965,2.6308193
			C1.8096719,2.6945488,1.7217621,2.7964749,1.6923769,2.9120896c-0.022295,0.0894263-0.0587705,0.1416805-0.0709425,0.2573361
			c-0.0035657,0.0333607-0.0040164-0.1344671-0.0129919-0.109508c-0.2108606,0.5581968-0.3828278,1.3457372-0.2865573,2.411557
			C2.2722538,4.6137695,3.616188,3.9730728,3.616188,3.9730728C3.470942,3.8807368,2.9899995,3.5031137,2.6551228,2.9601636z"/>
		<path fill="#FFFFFF" d="M0.1713115,11.5945063c0.012623-0.1618853,0.3989754-3.3879499,1.8858603-4.4803271
			C3.3399177,6.1706958,2.343688,6.5133185,1.8484833,6.5525403C1.3259015,6.5945482,1.0472131,6.9138107,1.1483195,6.7957778
			c0.0041394-0.0049181,0.0057787-0.0076232,0.0045902-0.0086069C1.1355736,6.7666788-0.0725,7.7859001,0.1713115,11.5945063z"/>
		<path fill="#FFFFFF" d="M0,9.0748758c0,0,0.8755326-2.7931147,2.6450405-2.7692623
			c1.1742623,0.0153689,0.2430329-0.9968438-0.1120081-1.1504102C2.1627867,4.9955316,2.0734422,5.00172,1.9872128,5.0788102
			C1.8579504,5.193769,0.6927458,5.1496711,0,9.0748749V9.0748758z"/>
		<path fill="#FFFFFF" d="M16.2215538,2.0308197c0,0,0.8347149,0.4071312,1.3768864,1.2738934
			c0.4409847,0.7055323,0.2298775,1.6589754-0.1642208,1.4937704c-0.3943844-0.1649184-1.2126637-2.7676637-1.2126637-2.7676637
			H16.2215538z"/>
		<path fill="#FFFFFF" d="M17.6613903,4.8921714c0.2301216-1.7994668-1.4398766-2.861311-1.4398766-2.861311
			s0.1088943,0.6162705,0.2403278,1.986434c0.1501236,1.562254,1.0919266,1.71668,1.1995506,0.874877H17.6613903z"/>
		<path fill="#FFFFFF" d="M12.0492611,18.7596283c3.0240564,0.6429501,5.3147945-1.9226208,3.6801624-2.5380325
			C14.2488098,15.664793,10.6143417,18.4542599,12.0492611,18.7596283z"/>
		<path fill="#FFFFFF" d="M15.9977016,16.3009396c3.0195084-0.6637287,4.0565166-3.9499578,2.3150005-3.834506
			c-1.5777473,0.1045494-3.7481966,4.1500807-2.3150005,3.8345079V16.3009396z"/>
		<path fill="#FFFFFF" d="M18.6774158,11.1892605c1.9799995-1.4384012,1.039753-3.9916382,1.039753-3.9916382
			s-0.4350815,1.3152456-0.834713,2.8724985C18.4876194,11.6089325,17.4891357,12.052989,18.6774158,11.1892605z"/>
		<path fill="#FFFFFF" d="M19.2658997,6.7217207c-0.2117214-2.4668031-1.7336884-3.7415569-1.7336884-3.7415569
			s0.1538105,0.8364346,0.3564739,1.9864342C18.1639328,6.531147,19.39217,8.1901226,19.2658997,6.7217207z"/>
	</g>
	<g>
		<path fill="#FFFFFF" d="M10.0068007,0.0847133c3.7084417,0,6.923646,2.123811,8.508359,5.22754
			C16.945858,2.1626637,13.7066774,0,9.9647932,0C4.6856546,0,0.4063521,4.30336,0.4063521,9.6108999
			c0,1.5788937,0.3787704,3.0688925,1.0498357,4.3831129c-0.6445491-1.2935247-1.0078276-2.7532778-1.0078276-4.2984819
			c0-5.3074584,4.2794666-9.6108179,9.5584402-9.6108179V0.0847133z"/>
	</g>
	<g>
		<path fill="#FFFFFF" d="M17.2288094,15.3638906c0.5501213-1.0402861,1.2967205-1.6495895,1.700573-2.3691807
			c0.5361462-0.9572124,1.5496311-3.6483593,0.785656-5.818769c0.3501644,1.3589339,0.240696,2.7397122-0.8762302,3.4332366
			c0.361311-0.9574995,0.5874996-3.0582781,0.2153683-4.9508185c-0.2422943-1.229836-1.0081959-2.3317623-1.5075397-2.6754503
			c0.459631,0.3465164,0.8293858,1.5872536,0.8191795,2.1565976c-0.9618835-1.6274178-2.531105-3.1837697-4.9034815-3.8409829
			c1.8427048,1.2208606,2.531065,2.2581143,2.9665976,3.1809421c-0.4925814-0.5062704-1.3361874-1.03459-1.905654-1.0785656
			c0.8541803,0.6383195,2.2835226,2.5318027,2.1314745,5.4004097C16.4358597,8.3393011,16.0348759,7.6159,15.7500391,7.3627443
			c0.3065977,2.8175812,0.0382385,3.4226227-0.1479912,4.1709013c-0.0409012-0.3438931-0.1641397-0.6022549-0.2352457-0.7594261
			c0,0-0.0328274,0.8805313-0.6022539,2.1351633c-0.4311886,0.9502869-0.8764744,1.2438107-1.0733194,1.2104502
			c-0.0533609-0.0038519-0.0823364-0.026844-0.0817623-0.0288925c0.0140982-0.1229506,0.026763-0.2520075-0.0059023-0.3339748
			c0,0-0.1817617,0.0632372-0.2991791,0.2289343c-0.0473366,0.066762-0.1087303,0.1321726-0.1890993,0.1933603
			c-0.0137291,0.0106554,0.1299591-0.1849594,0.1190987-0.1760654c-0.0706148,0.057951-0.1463928,0.1256561-0.2227049,0.2051229
			c-0.2792206,0.2913113-0.530983,0.6141386-0.6620083,0.5227461c0.1220493-0.0375814,0.2195902-0.1934834,0.2459431-0.3467207
			c-0.1097546,0.0771723-0.388279,0.2862701-1.0127459,0.3795481c-0.2554922,0.0382786-1.3423767,0.236763-2.7876225-0.4896307
			c0.2106972-0.0242624,0.5259428-0.0988512,0.7662706,0.0439348c-0.2403278-0.263648-0.8210659-0.2089758-1.2374592-0.3409014
			c-0.3627868-0.1152468-0.8363113-0.6269264-1.1083608-0.8852873c1.1123366,0.2738113,2.2937293,0.0761881,2.9765973-0.393033
			c0.6902466-0.4744253,1.0991802-0.8207378,1.4659014-0.7386875c0.366066,0.0822945,0.6102867-0.2873774,0.3250828-0.6155338
			c-0.2843037-0.3284836-0.9740162-0.7702045-1.9123764-0.5335655c-0.718401,0.1806555-1.3308201,0.7602453-2.3397536,0.3575821
			c-0.0611067-0.0243444-0.1240983-0.0524178-0.1886888-0.0845089c-0.0643444-0.0321722,0.2109427,0.0384426,0.1432376-0.0018444
			c-0.1938524-0.0717211-0.5465169-0.2344265-0.6341801-0.2959433c-0.0143447-0.0106564,0.1460247,0.0292616,0.129303,0.0190573
			C6.223074,10.2361441,6.2857385,9.78053,6.2857385,9.4985628c0-0.2254095,0.1363115-0.5305328,0.3921719-0.6734838
			C6.8159428,8.874505,6.901722,8.9197111,6.901722,8.9197111s-0.0637708-0.098484-0.1041393-0.1461477
			C6.8069677,8.7700386,6.8165169,8.76758,6.8262711,8.7648344C6.9390578,8.803195,7.1928692,8.8972931,7.3213935,8.9623337
			C7.495615,9.0502024,7.5542212,9.1399565,7.5542212,9.1399565s0.0406146-0.0258598-0.0018854-0.1155319
			C7.5349588,8.9868832,7.4734836,8.8786869,7.3009424,8.7735224l0.0081964-0.0009422
			c0.0904918,0.0361071,0.1865163,0.0818443,0.292254,0.1421318C7.6343436,8.7603264,7.700573,8.6002855,7.6559415,8.3204079
			c-0.031352-0.1968441-0.0272951-0.2474995-0.0763931-0.3189754C7.5374584,7.9401212,7.5909829,7.9131536,7.6559415,7.968236
			C7.640327,7.9193015,7.6184421,7.8708997,7.5923352,7.8221292l0.0006967-0.002295
			C7.6468434,7.5769243,9.0873346,6.8183589,9.1950397,6.738523c0.1489754-0.1109428,0.3010654-0.2820497,0.3961477-0.4790168
			c0.0690575-0.1258607,0.1187296-0.3047948,0.1053686-0.5627866C9.6865969,5.5104899,9.5768433,5.3966789,8.0407362,5.4095888
			C7.6209002,5.4127855,7.3475399,5.167335,7.1823759,4.9332776c-0.0332785-0.0509019-0.0630736-0.0993032-0.0895085-0.142951
			c-0.0362296-0.0651226-0.0606966-0.122869-0.0793443-0.16959c0.1834016-0.6690986,0.551024-1.249918,1.124754-1.7204096
			c0.0346718-0.0292621-0.1367216,0.019918-0.1042213-0.0111067C8.0727444,2.852622,8.3158588,2.7361465,8.361228,2.7103269
			c0.0589342-0.0331964-0.2644262-0.1209013-0.5405741-0.0631967c-0.2772541,0.0577457-0.3315163,0.0907376-0.4743443,0.165041
			c0.0579095-0.0604098,0.2460246-0.1559834,0.1997132-0.1457787C7.24508,2.7341385,6.89008,2.9331958,6.5876217,3.1479089
			c-0.0023365-0.0273769,0-0.0496311,0.0062289-0.0935245c-0.1427865,0.0743854-0.4872541,0.3410244-0.5752048,0.544795
			c0-0.0443444,0-0.0665164-0.0054507-0.1157377C5.9150805,3.5740566,5.8208179,3.6802862,5.7356133,3.7990563L5.7321706,3.8036056
			C4.834343,3.5794253,4.0722942,3.6336875,3.4352038,3.8389745c-0.1524591-0.1111884-0.3966804-0.2815576-0.7820492-0.879549
			C2.6303267,2.9234009,2.6280317,3.0411878,2.6070073,3.0034008c-0.1515985-0.2737296-0.2805328-0.739877-0.2932377-1.0736064
			c0,0-0.2472541,0.1445082-0.4095491,0.656885C1.8756138,2.677376,1.8556138,2.7310238,1.8349172,2.7804911
			C1.8282369,2.7962699,1.8468435,2.615983,1.8399173,2.630368C1.8090156,2.6943433,1.7210238,2.79545,1.6924174,2.9112694
			C1.6709009,2.9978268,1.635983,3.0504088,1.6222534,3.1586876L1.6193026,3.1654909
			C1.6168847,3.1378679,1.6154091,3.0397122,1.6072944,3.0592203C1.5358191,3.2490566,1.4692616,3.4665976,1.4156961,3.7121711
			C1.3375815,4.100286,1.2576634,4.6304493,1.3051634,5.3034C1.3046306,5.3580308,1.3134011,5.4109001,1.3115568,5.4599166
			C1.0699176,5.794343,0.9125405,6.0819654,0.8510241,6.2238507c-0.294713,0.5775409-0.5965573,1.4655328-0.8401638,2.8447537
			c0,0,0.1636885-0.5199184,0.4908606-1.1084428c-0.2412705,0.7415166-0.429836,1.894877-0.3192213,3.6248355
			c0.0045492-0.0570078,0.055041-0.4939756,0.1837295-1.0832787c0.062377,1.1501637,0.3340983,2.5641394,1.2257785,4.0974579
			c0.6791801,1.1692209,2.4697537,3.8858185,6.9623756,4.9025803c-0.4931145-0.142868-0.7996716-0.4293022-0.7996716-0.4293022
			s1.6779504,0.5418034,2.9026628,0.495533c-0.3835249-0.0662308-0.4601641-0.2529106-0.4601641-0.2529106
			s4.3539753,0.2473774,5.8595085-1.8161469c-0.5146732,0.6049595-1.8178682,0.7757778-2.3109007,0.781147
			c0.7502871-0.6928272,2.4091787-0.6769257,4.2060251-2.4538107c0.9855309-0.9753695,1.0922527-1.7170076,1.1995487-2.4101629
			c-0.1644669,0.9075413-1.0245495,1.4522533-1.9225826,1.9477863V15.3638906z"/>
		<path fill="#FFFFFF" d="M17.2288094,15.3638906c0.5501213-1.0402861,1.2967205-1.6495895,1.700573-2.3691807
			c0.5361462-0.9572124,1.5496311-3.6483593,0.785656-5.818769c0.3501644,1.3589339,0.240696,2.7397122-0.8762302,3.4332366
			c0.361311-0.9574995,0.5874996-3.0582781,0.2153683-4.9508185c-0.2422943-1.229836-1.0081959-2.3317623-1.5075397-2.6754503
			c0.459631,0.3465164,0.8293858,1.5872536,0.8191795,2.1565976c-0.9618835-1.6274178-2.531105-3.1837697-4.9034815-3.8409829
			c1.8427048,1.2208606,2.531065,2.2581143,2.9665976,3.1809421c-0.4925814-0.5062704-1.3361874-1.03459-1.905654-1.0785656
			c0.8541803,0.6383195,2.2835226,2.5318027,2.1314745,5.4004097C16.4358597,8.3393011,16.0348759,7.6159,15.7500391,7.3627443
			c0.3065977,2.8175812,0.0382385,3.4226227-0.1479912,4.1709013c-0.0409012-0.3438931-0.1641397-0.6022549-0.2352457-0.7594261
			c0,0-0.0328274,0.8805313-0.6022539,2.1351633c-0.4311886,0.9502869-0.8764744,1.2438107-1.0733194,1.2104502
			c-0.0533609-0.0038519-0.0823364-0.026844-0.0817623-0.0288925c0.0140982-0.1229506,0.026763-0.2520075-0.0059023-0.3339748
			c0,0-0.1817617,0.0632372-0.2991791,0.2289343c-0.0473366,0.066762-0.1087303,0.1321726-0.1890993,0.1933603
			c-0.0137291,0.0106554,0.1299591-0.1849594,0.1190987-0.1760654c-0.0706148,0.057951-0.1463928,0.1256561-0.2227049,0.2051229
			c-0.2792206,0.2913113-0.530983,0.6141386-0.6620083,0.5227461c0.1220493-0.0375814,0.2195902-0.1934834,0.2459431-0.3467207
			c-0.1097546,0.0771723-0.388279,0.2862701-1.0127459,0.3795481c-0.2554922,0.0382786-1.3423767,0.236763-2.7876225-0.4896307
			c0.2106972-0.0242624,0.5259428-0.0988512,0.7662706,0.0439348c-0.2403278-0.263648-0.8210659-0.2089758-1.2374592-0.3409014
			c-0.3627868-0.1152468-0.8363113-0.6269264-1.1083608-0.8852873c1.1123366,0.2738113,2.2937293,0.0761881,2.9765973-0.393033
			c0.6902466-0.4744253,1.0991802-0.8207378,1.4659014-0.7386875c0.366066,0.0822945,0.6102867-0.2873774,0.3250828-0.6155338
			c-0.2843037-0.3284836-0.9740162-0.7702045-1.9123764-0.5335655c-0.718401,0.1806555-1.3308201,0.7602453-2.3397536,0.3575821
			c-0.0611067-0.0243444-0.1240983-0.0524178-0.1886888-0.0845089c-0.0643444-0.0321722,0.2109427,0.0384426,0.1432376-0.0018444
			c-0.1938524-0.0717211-0.5465169-0.2344265-0.6341801-0.2959433c-0.0143447-0.0106564,0.1460247,0.0292616,0.129303,0.0190573
			C6.223074,10.2361441,6.2857385,9.78053,6.2857385,9.4985628c0-0.2254095,0.1363115-0.5305328,0.3921719-0.6734838
			C6.8159428,8.874505,6.901722,8.9197111,6.901722,8.9197111s-0.0637708-0.098484-0.1041393-0.1461477
			C6.8069677,8.7700386,6.8165169,8.76758,6.8262711,8.7648344C6.9390578,8.803195,7.1928692,8.8972931,7.3213935,8.9623337
			C7.495615,9.0502024,7.5542212,9.1399565,7.5542212,9.1399565s0.0406146-0.0258598-0.0018854-0.1155319
			C7.5349588,8.9868832,7.4734836,8.8786869,7.3009424,8.7735224l0.0081964-0.0009422
			c0.0904918,0.0361071,0.1865163,0.0818443,0.292254,0.1421318C7.6343436,8.7603264,7.700573,8.6002855,7.6559415,8.3204079
			c-0.031352-0.1968441-0.0272951-0.2474995-0.0763931-0.3189754C7.5374584,7.9401212,7.5909829,7.9131536,7.6559415,7.968236
			C7.640327,7.9193015,7.6184421,7.8708997,7.5923352,7.8221292l0.0006967-0.002295
			C7.6468434,7.5769243,9.0873346,6.8183589,9.1950397,6.738523c0.1489754-0.1109428,0.3010654-0.2820497,0.3961477-0.4790168
			c0.0690575-0.1258607,0.1187296-0.3047948,0.1053686-0.5627866C9.6865969,5.5104899,9.5768433,5.3966789,8.0407362,5.4095888
			C7.6209002,5.4127855,7.3475399,5.167335,7.1823759,4.9332776c-0.0332785-0.0509019-0.0630736-0.0993032-0.0895085-0.142951
			c-0.0362296-0.0651226-0.0606966-0.122869-0.0793443-0.16959c0.1834016-0.6690986,0.551024-1.249918,1.124754-1.7204096
			c0.0346718-0.0292621-0.1367216,0.019918-0.1042213-0.0111067C8.0727444,2.852622,8.3158588,2.7361465,8.361228,2.7103269
			c0.0589342-0.0331964-0.2644262-0.1209013-0.5405741-0.0631967c-0.2772541,0.0577457-0.3315163,0.0907376-0.4743443,0.165041
			c0.0579095-0.0604098,0.2460246-0.1559834,0.1997132-0.1457787C7.24508,2.7341385,6.89008,2.9331958,6.5876217,3.1479089
			c-0.0023365-0.0273769,0-0.0496311,0.0062289-0.0935245c-0.1427865,0.0743854-0.4872541,0.3410244-0.5752048,0.544795
			c0-0.0443444,0-0.0665164-0.0054507-0.1157377C5.9150805,3.5740566,5.8208179,3.6802862,5.7356133,3.7990563L5.7321706,3.8036056
			C4.834343,3.5794253,4.0722942,3.6336875,3.4352038,3.8389745c-0.1524591-0.1111884-0.3966804-0.2815576-0.7820492-0.879549
			C2.6303267,2.9234009,2.6280317,3.0411878,2.6070073,3.0034008c-0.1515985-0.2737296-0.2805328-0.739877-0.2932377-1.0736064
			c0,0-0.2472541,0.1445082-0.4095491,0.656885C1.8756138,2.677376,1.8556138,2.7310238,1.8349172,2.7804911
			C1.8282369,2.7962699,1.8468435,2.615983,1.8399173,2.630368C1.8090156,2.6943433,1.7210238,2.79545,1.6924174,2.9112694
			C1.6709009,2.9978268,1.635983,3.0504088,1.6222534,3.1586876L1.6193026,3.1654909
			C1.6168847,3.1378679,1.6154091,3.0397122,1.6072944,3.0592203C1.5358191,3.2490566,1.4692616,3.4665976,1.4156961,3.7121711
			C1.3375815,4.100286,1.2576634,4.6304493,1.3051634,5.3034C1.3046306,5.3580308,1.3134011,5.4109001,1.3115568,5.4599166
			C1.0699176,5.794343,0.9125405,6.0819654,0.8510241,6.2238507c-0.294713,0.5775409-0.5965573,1.4655328-0.8401638,2.8447537
			c0,0,0.1636885-0.5199184,0.4908606-1.1084428c-0.2412705,0.7415166-0.429836,1.894877-0.3192213,3.6248355
			c0.0045492-0.0570078,0.055041-0.4939756,0.1837295-1.0832787c0.062377,1.1501637,0.3340983,2.5641394,1.2257785,4.0974579
			c0.6791801,1.1692209,2.4697537,3.8858185,6.9623756,4.9025803c-0.4931145-0.142868-0.7996716-0.4293022-0.7996716-0.4293022
			s1.6779504,0.5418034,2.9026628,0.495533c-0.3835249-0.0662308-0.4601641-0.2529106-0.4601641-0.2529106
			s4.3539753,0.2473774,5.8595085-1.8161469c-0.5146732,0.6049595-1.8178682,0.7757778-2.3109007,0.781147
			c0.7502871-0.6928272,2.4091787-0.6769257,4.2060251-2.4538107c0.9855309-0.9753695,1.0922527-1.7170076,1.1995487-2.4101629
			c-0.1644669,0.9075413-1.0245495,1.4522533-1.9225826,1.9477863V15.3638906z"/>
		<path opacity="0.1" fill="#FFFFFF" enable-background="new    " d="M8.7647524,18.3507347l-0.0006962-0.0007381
			 M8.7651215,18.2954063c0.0573769,0.1454906,0.5954514,0.3473778,1.8341398,0.2888527
			c1.0066795-0.0474586,1.5652456-0.4344673,1.5652456-0.4344673s-0.4138927,0.1898346-1.807909,0.2390976
			c-1.196352,0.0418034-1.5741806-0.0781136-1.5914755-0.093483H8.7651215z M8.0069246,17.9061451
			c1.0043859,0.2249584,2.2547541,0.0299187,2.2547541,0.0299187S9.0643845,17.946146,7.828032,17.6529484
			c-1.3218851-0.3132782-1.6980734-0.7345905-1.6907372-0.740654c0.0171723,0.2223759,0.8647542,0.7686062,1.8696308,0.9938507
			H8.0069246z M8.8515968,17.816349c0.7346716,0.0889759,1.5007782-0.0193424,1.5007782-0.0193424
			s-0.7651234-0.0104523-1.6285238-0.1336479c-0.8538523-0.1212711-1.1775823-0.25877-1.1754093-0.2656136
			c0.0854917,0.1632366,0.7702866,0.3547535,1.3031549,0.4186058V17.816349z M6.3663921,17.6782341
			c0.5968032,0.2971725,1.1761885,0.3777466,1.1761885,0.3777466s-0.9781141-0.3594666-1.4115977-0.6230736
			c-0.4334016-0.2641811-0.7834015-0.4914341-0.7932787-0.5118847c0.0919676,0.1690578,0.453115,0.5068436,1.0286889,0.7572136
			L6.3663921,17.6782341z M8.4534006,19.2304058l-0.000164-0.0009422"/>
		<path fill="#FFFFFF" d="M9.7105722,5.7142205C9.700532,5.5280733,9.5782366,5.3942204,8.0418434,5.4067616
			C7.4089746,5.4119663,7.1140976,4.8589334,7.0168843,4.6248355C6.8532777,5.2227449,6.823647,5.8387699,6.948278,6.5654907
			c0.0809836,0.4764757,0.419754,0.8833194,0.6085653,1.1702046c0.0438933,0.0443439,0.0661068,0.0546308,0.078279,0.0274587
			c0.0685658-0.1502872,1.4207783-0.9204507,1.5280323-1.0013118C9.2701635,6.6811047,9.740695,6.2826214,9.7105722,5.71422
			V5.7142205z"/>
		<path fill="#FFFFFF" d="M7.602294,5.5345078c0,0,0.5327864,0.2609835,0.6138525,0.4287705
			C8.2412281,6.0142622,7.9457359,5.8743029,7.961802,5.9293437C7.97963,5.9892206,8.3451633,6.1752453,8.3565559,6.265573
			c0.008812,0.0672131-0.2016802-0.0756969-0.3159418-0.0925002C8.1109419,6.2277036,8.1974583,6.3178267,8.1460238,6.374507
			C8.0947943,6.4315152,7.905942,6.4549575,7.8743024,6.4749579C7.3854909,6.7912693,8.5666389,6.8610234,8.9943428,6.6306138
			c0.4282379-0.2299595,0.6904106-0.5674181,0.705615-0.6180735c0.0152044-0.0499587,0.1557379-0.5034423-0.7377462-0.3459015
			C8.3978271,5.7666793,8.0473757,5.7557368,7.602294,5.5345078z"/>
		<path fill="#FFFFFF" d="M9.258482,6.6782775c0.0809832-0.0611882,0.357336-0.3174176,0.4263115-0.6212702
			C9.6346703,6.0773759,9.6298342,6.019876,9.5705309,6.0447941C9.4695883,6.1514335,9.2158585,6.4150395,8.9244652,6.6011462
			c0.0820904-0.0769677,0.2190981-0.1813931,0.2572536-0.2422538c-0.3183603,0.2202048-0.70959,0.3765159-1.0186472,0.341516
			c-0.0463114-0.0016804,0.2281561,0.0300407,0.4632788-0.160697c-0.2351227,0.1067214-0.6306143,0.0988111-0.671926,0.0836062
			C7.9185224,6.6096292,8.3444653,6.5684819,8.3072109,6.555285C8.1105309,6.4861455,7.849957,6.5328255,7.7911863,6.5626616
			C7.684875,6.6160221,7.5762682,6.6896696,7.4948339,6.7828665c0.0425406-0.0568442,0.0632792-0.1081967,0.1114755-0.1947136
			c-0.1477456,0.143115-0.3536067,0.2943854-0.3800821,0.3045907C7.2476616,6.8500381,7.58426,6.5895472,7.5205307,6.6136041
			C7.4819651,6.6518831,7.3414326,6.7331939,7.242949,6.8049974C7.2147932,6.8202429,7.4424982,6.617743,7.4192605,6.631391
			c-0.379631,0.0991397-0.3406558,0.3082376-0.350246,0.3151226l0.0164342,0.0537705
			C7.1319242,7.139915,7.2947516,7.3713083,7.4511862,7.5944233C7.5644646,7.7301202,7.5968828,7.883194,7.6070061,7.8337674
			c0.0541806-0.2424178,1.5436068-1.0746722,1.651475-1.1554918L9.258482,6.6782775z"/>
		<path fill="#FFFFFF" d="M9.6056547,6.1201224c-0.0127869-0.002254-0.022378-0.183115-0.0072546-0.1372137
			C9.611105,6.0212698,9.5832767,6.394876,9.2491789,6.6084828C9.1781139,6.6537695,9.2423344,6.4871306,9.1615152,6.5731964
			C9.0286875,6.7150817,8.7099581,7.1881142,7.8952045,7.1881142c-0.0305328,0,0.3204508-0.1564345,0.2756147-0.145164
			C8.0884829,7.064384,7.9889755,7.0968022,7.6724181,7.1981139C7.6439753,7.207376,7.9390168,7.0136056,7.9088116,7.0232773
			C7.8699179,7.0357366,7.6929917,7.1526217,7.4800825,7.2442608c0.1015573-0.1016803,0.2228689-0.2072544,0.1845078-0.1863933
			C7.4956565,7.1577034,7.3680739,7.2615557,7.2950416,7.3712277C7.3456559,7.4540968,7.408607,7.5093422,7.45123,7.5943427
			c0.1135654,0.1356969,0.1238933,0.2782784,0.1558199,0.2393436C7.9053698,7.4703259,9.0961065,6.9143429,9.3628693,6.63131
			c0.2733603-0.2900004,0.1664753-0.2481971,0.2427864-0.5111885L9.6056547,6.1201224z"/>
		<path fill="#FFFFFF" d="M9.7305317,6.1542206C9.7999992,5.9836063,9.879015,5.5821304,9.651269,5.4981141
			C9.4612284,5.4523764,9.3004904,5.4192619,8.990777,5.4262695C9.0927448,5.4517612,9.3856955,5.5098352,9.4616795,5.647171
			C9.606802,5.9097943,9.4888105,6.4212284,9.4389334,6.5552449c0.1559839-0.118484,0.223115-0.2331557,0.2915983-0.4010248
			V6.1542206z"/>
		<path fill="#FFFFFF" d="M2.653893,2.9605737C2.6312699,2.9238522,2.6286471,3.042336,2.6073356,3.0041802
			c-0.1519263-0.2731557-0.280082-0.7395079-0.2928691-1.0736883c0,0-0.2471719,0.145328-0.4091803,0.6570082
			C1.8763927,2.6782374,1.8556551,2.7319672,1.8352042,2.7813525c-0.0065573,0.015656,0.012787-0.1643853,0.0055327-0.149754
			C1.8097124,2.6951642,1.7218026,2.7963934,1.6929501,2.9122133C1.6703273,3.0016804,1.633688,3.0539756,1.6214747,3.1697953
			C1.6179092,3.2024181,1.6179092,3.0352461,1.608483,3.0598364C1.210942,4.0661888,1.2581551,5.531188,1.3068845,5.4675822
			C2.2509007,4.2360249,3.4388106,3.840574,3.4388106,3.840574C3.2940564,3.7486889,2.9878271,3.5025413,2.6538925,2.9605742
			L2.653893,2.9605737z"/>
		<path fill="#FFFFFF" d="M7.8470478,14.3829069c-1.5259423-0.4790983-3.2710242-1.1884413-3.408442-3.1985636
			C4.2579093,8.5434418,6.6799989,8.825613,6.6799989,8.825613C6.5935235,8.8588104,6.4068437,9.0560226,6.3456545,9.2743435
			C6.278851,9.51299,6.1506548,9.9821711,6.6978269,10.4668026c0.861516,0.763114-1.4193029,2.1835241,2.4674172,3.9991388
			c0.0932379,0.0434837-0.8675814,0.0582371-1.3181963-0.0830326V14.3829069z"/>
		<path fill="#FFFFFF" d="M7.2408185,13.0993414c1.0676227,0.2538939,2.2704501,0.0743446,2.9558606-0.4022951
			c0.4606552-0.3201227,1.1234837-0.7934017,1.4270897-0.7420893c-0.3426638-0.0964756-0.6018448-0.1346321-0.9006567-0.1202869
			c-0.0539751,0.0026636-0.1096716,0.0070906-0.1669674,0.0131559c-0.1014757,0.0109844-0.209713,0.0244665-0.3277044,0.0481558
			c-0.1838112,0.0370893-0.3783197,0.1771717-0.5679512,0.1771717c-0.0125408,0,0.1762705-0.098238,0.1611061-0.0941391
			c-0.0976629,0.026885-0.2049179,0.0463524-0.3190575,0.0727453c-0.0683603,0.0159435-0.1362696,0.0299997-0.2038937,0.0427046
			c-2.1390977,0.3983612-4.0999994-0.7685251-4.0999994-0.7685251c-0.1128688,0.5377045,0.8417625,1.4877043,2.042172,1.7734013
			L7.2408185,13.0993414z"/>
		<path opacity="0.1" fill="#FFFFFF" enable-background="new    " d="M4.6078272,4.2726226
			C4.618114,4.2717619,4.2065158,4.321475,3.4713926,4.9676223c-0.3119671,0.2568855-0.562336,0.5061479-0.7579095,0.7255735
			c-0.532541,0.6489344-0.8463932,1.2756557-0.8463932,1.2756557s0.0481147-0.3874178,0.2883607-0.9256144
			C1.379549,7.2773767,1.0832375,9.0695896,1.0832375,9.0695896S1.0429096,8.2553682,1.249426,7.2971721
			C1.169631,7.519959,1.0718441,7.8315978,1.0204917,8.2509012c-0.1545492,1.2525406,0,2.356926,0,2.356926
			s-0.067664-0.2402458-0.1436066-0.5844669c0.0260656,0.2512302,0.0665984,0.5484428,0.1361886,0.8836069
			c0.2469672,1.1885242,0.7066802,2.3109827,0.7066802,2.3109827S1.1512704,12.446106,0.7769672,11.272212
			c0.0704098,0.3608189,0.1738935,0.8072538,0.3258196,1.33918c0.4634016,1.6255741,1.0830326,2.4723759,1.0830326,2.4723759
			s-0.4773771-0.4230318-1.0952048-1.9889336c-0.2742212-0.6956558-0.4158605-1.3603687-0.5052868-1.848073
			C0.5343851,10.888072,0.4907786,10.5550804,0.444795,10.075901C0.4287704,9.9086056,0.4038934,9.7176218,0.4028688,9.5539341
			c-0.1346721,0.6494265-0.2202048,1.2027864-0.2202048,1.2027864s0.0336065-1.2982378,0.2461066-2.4763107
			c0.0323361-0.1758614,0.075123-0.3440166,0.1254098-0.5040989C0.3540164,8.164959,0.1989754,8.4842615,0.1989754,8.4842615
			s0.2586065-0.7306962,0.5113933-1.341516c-0.247377,0.4533606-0.3964344,0.8243036-0.3964344,0.8243036
			s0.4360245-1.5064344,0.9619671-2.2654915C1.5596309,5.2918854,1.8441391,5.0118856,2.04668,4.8397546
			c0.0681148-0.0668445,0.1380327-0.1291394,0.2096722-0.1849594c0.0765574-0.0590982,0.1509833-0.1132374,0.2226229-0.1629915
			C2.5153685,4.4638939,2.5531552,4.4357791,2.5930321,4.408402c0.7047951-0.5231147,1.458729-0.6485653,1.7158196-0.6202869
			c0.0079508,0-0.2238932,0.0136476-0.7084017,0.2714343c0.2379508-0.0836883,0.4309835-0.1140981,0.5453277-0.1075819
			c0.0070901-0.0002456-0.1710241,0.0398362-0.5712295,0.3031147c0.5241804-0.257623,1.000082-0.3241391,1.1938934-0.3031147
			c0.0098767,0-0.3677049,0.0208199-1.1643443,0.5437706C3.5814333,4.5103693,3.5599167,4.5251641,3.5379498,4.5397949h0.0008194
			C4.002089,4.3235655,4.4333186,4.2682786,4.6078267,4.2726231L4.6078272,4.2726226z M2.3756142,8.7829905L2.376147,8.7821302
			 M2.3756142,8.7829905c-0.1410246,0.0660658-0.3090982,0.6180334-0.1763115,1.8567629
			C2.3072536,11.6467619,2.72545,12.1834822,2.72545,12.1834822s-0.2135656-0.4034014-0.3467212-1.7989349
			C2.2651222,9.18717,2.3614748,8.8009815,2.3756142,8.7829905L2.3756142,8.7829905z M2.7634828,7.8261881
			c-0.1957376,1.0150814,0.0660245,2.4486475,0.0660245,2.4486475S2.7863517,9.0725403,3.0434828,7.8225408
			c0.274549-1.3364344,0.6833196-1.7261472,0.6895494-1.7190576C3.5121715,6.126967,2.9595077,6.8105736,2.7634828,7.8261881z
			 M3.287745,5.2717619C3.1701221,5.3976636,3.0684829,5.5356965,2.9801633,5.6790977
			C2.6629093,5.9923358,2.2963111,6.6140976,2.1193848,7.4770074c-0.3429098,1.6742625-0.0965164,2.6810641-0.0965164,2.6810641
			S2.0181143,8.6132364,2.3787701,7.2865558c0.0515163-0.187705,0.104836-0.3573356,0.1601639-0.5109425
			C2.4468026,7.1534824,2.4281142,7.4288921,2.4281142,7.4288921S2.7258191,6.2088103,3.7672124,5.162499
			C4.42377,4.5030732,4.8702855,4.372458,4.8764338,4.3749995C4.3869257,4.4362698,3.776516,4.7497945,3.2877455,5.2717614
			L3.287745,5.2717619z M2.9096305,8.8551626c-0.068115,0.7405739,0.0610244,1.5068445,0.0610244,1.5068445
			S2.9595072,9.5933189,3.057909,8.7226629c0.0968852-0.8610654,0.2247131-1.1900411,0.2315164-1.1881146
			C3.1294665,7.624999,2.9581139,8.3181133,2.9096305,8.8551626z M2.9878271,6.3372126
			C2.6548352,6.9169254,2.5382779,7.4926219,2.5382779,7.4926219S2.957417,6.5346718,3.2465975,6.1166387
			c0.2896721-0.4178691,0.5738933-0.6889758,0.5718443-0.687459C3.6444664,5.5107775,3.2727451,5.7759008,2.9878271,6.3372126z
			 M1.4914747,8.4947939l0.0011066-0.0003691 M1.4914747,8.4947939c-0.1442622,0.0572948-0.3469671,0.5975819-0.292336,1.8422537
			c0.045,1.0114746,0.4293443,1.5736065,0.4293443,1.5736065s-0.1889344-0.4158611-0.2337704-1.816967 M7.3851213,2.7962701
			c0,0-0.687295,0.2531149-1.0750813,0.7474179C5.92172,4.037991,5.8503675,4.5530319,5.8503675,4.5530319
			S6.280941,3.4105322,7.3851213,2.7962701z M6.9021297,3.4322946c-0.495615,0.6533606-0.6124592,1.1306145-0.6124592,1.1306145
			s0.5524182-1.3049181,1.9383197-1.8645897C8.2279902,2.6983194,7.3973341,2.7783606,6.9021297,3.4322946z M1.9339336,3.3224995
			C2.0169663,2.5585651,2.235532,2.1094668,2.235532,2.1094668s-0.7115983,1.0805736-0.2821722,2.398524
			C1.9533598,4.5079908,1.8512287,4.0863924,1.9339336,3.3224995z M2.4671714,4.2390156c0,0-0.16082-0.3509424-0.2235658-1.0061884
			C2.1806138,2.5770895,2.2881138,2.178565,2.2881138,2.178565S1.8702451,3.1522126,2.4671714,4.2390156z"/>
		<g>
			<path opacity="0.5" fill="#FFFFFF" enable-background="new    " d="M10.807745,10.9230309
				c0.5746307,0.0514345,1.017951,0.3762293,1.0253277,0.3922138c-0.1022129-0.1393032-0.5427866-0.4617214-1.0364342-0.4958191
				c-0.5655336-0.0390987-1.0409012,0.1661463-1.1615162,0.2236061
				C9.7370892,10.9966784,10.1059418,10.8601208,10.807745,10.9230309z M9.6350803,11.0430717
				c-0.0199585,0.0090971-0.0298767,0.0147533-0.0298767,0.0147533S9.615777,11.0522518,9.6350803,11.0430717z
				 M10.9731541,10.9871292c-0.7640991-0.1494255-1.3314762,0.1759424-1.3314762,0.1759424s0.4359016-0.1847534,1.3229923-0.0388937
				c0.6103277,0.1000414,1.0795078,0.4396305,1.0873775,0.455533
				C11.9484406,11.4361458,11.5743008,11.1048336,10.9731541,10.9871292z"/>
			<path opacity="0.5" fill="#FFFFFF" enable-background="new    " d="M11.8380308,11.5825796
				c-0.0837297-0.0815172-0.2794266-0.2178278-0.6129093-0.3115168c-0.5407381-0.151968-0.9044676-0.0102463-0.9044676-0.0102463
				s0.2156143-0.0499582,0.7666397,0.0568857C11.4304085,11.3842592,11.8338509,11.5747519,11.8380308,11.5825796z"/>
		</g>
		<path fill="#FFFFFF" d="M5.7265978,3.8049586c0,0-0.1527052,0.1851637-0.2684016,0.364959
			c-0.129467,0.2008195-0.2406149,0.4132376-0.2406149,0.4132376S4.571434,4.1049585,3.9934421,4.0078683
			C3.4152863,3.910696,3.244262,3.9265976,3.244262,3.9265976S4.2104502,3.4239748,5.7265978,3.8049586z"/>
		<path fill="#FFFFFF" d="M14.879178,17.2786446c-0.5145493,0.2860241-1.7361059,0.6600819-2.0863924,0.6767216
			c2.1300812-0.6601639,2.8147116-1.5570488,3.1656961-2.1513929c1.1003695-0.2147141,3.1102858-1.2220078,3.1928282-2.3879499
			c-0.0826225,1.5953684-1.3988934,2.7036457-2.339262,3.3453274c-1.111434,0.75914-2.0569267,0.8189335-2.8582792,1.3369675
			c0.2468033-0.1761074,0.5640574-0.401598,0.9254093-0.8196716V17.2786446z"/>
		<path fill="#FFFFFF" d="M19.7172108,7.1975808c0.6643028,2.1751637-0.4234028,3.1171317-0.8836899,3.4063926
			c0.585247-1.6196718,0.7977047-3.633688,0.1601238-5.4031954c-0.5327873-1.4776227-1.4470081-2.2177455-1.4470081-2.2177455
			c1.2815971,1.4113524,1.1352463,2.9685647,0.7615566,4.0616388c0.1750412,1.0325813-0.4166374,3.9042616,0.3223362,3.7686882
			c-0.178196,1.6052046-0.865942,3.5732775-1.1718845,4.1706142c0.5093842-0.8085661,1.2413521-1.5651636,1.5768852-2.1955318
			c0.6413116-1.2022953,1.3808193-3.5655317,0.6816807-5.5908604V7.1975808z"/>
		<path fill="#FFFFFF" d="M17.1084805,7.7040148c0,0-0.2820892,0.5540571-0.262991,1.6328688
			c-0.365942-1.4070897-1.0954514-1.9740577-1.0954514-1.9740577c0.0988522,1.1338935,0.2958603,2.7840981-0.1425819,4.1931138
			c0.0495081,0.4124994,0.1534834,1.419507-0.240696,2.509016c0.6409836-0.7430334,1.4950409-1.3424997,1.6155319-1.9370899
			c0.0027065-0.0195484,0.0037308-0.0388937,0.0059834-0.058197c0.2168865,0.04041,0.5153694-0.1230335,0.7757378-0.3905735
			c0.2137299-0.3691387,0.7829514-1.4765167,0.8338928-2.07127c-1.3362694-0.5391397-1.4894257-1.9038115-1.4894257-1.9038115
			V7.7040148z"/>
		<path fill="#FFFFFF" d="M16.8670044,11.4018021c1.7498779-2.4595079,1.1392632-5.0184417,0.9528275-5.8106961
			c2.5082779,4.1377034-0.0597954,8.941761-0.5856133,9.745285c-0.1425419,0.1156149-0.9472141,0.4180727-1.2757378,0.4515982
			c0.1090584-0.1656141,0.3831558-0.7433605,0.3505726-1.4199581c-0.3782377,0.9352856-1.7337294,1.6313925-2.4812279,1.8874598
			c1.2979908-0.9415169,2.7877045-3.5663118,3.0391788-4.8536882V11.4018021z"/>
		<path fill="#FFFFFF" d="M16.5716362,9.5530319c0,0,0.142746,2.1405725-0.9297953,3.8539743
			c0.2912703-1.6131964-0.2750826-2.6327858-0.2750826-2.6327858s-0.0785646,0.8745489-0.4213114,1.7167625
			c-0.5915565,1.4529085-1.1256552,1.750205-1.3365984,1.6003685c-0.455287,1.807869-3.4571304,1.7236481-3.4571304,1.7236481
			c0.6814346,0.1688108,3.0709839,0.3049173,4.8240566-0.9928284c-0.0990982,0.2308607-0.6351233,1.3156958-1.9292622,1.8774595
			c1.2786884-0.0772133,2.9633198-1.4388943,3.2624588-2.3317223c0.0213928,0.6711063-0.192131,1.1390572-0.3340988,1.4084835
			c2.1356144-2.401475,0.5967617-6.2233601,0.5967617-6.2233601H16.5716362z"/>
		<path fill="#FFFFFF" d="M9.7999983,16.9963093c1.1145077-0.1011086,2.0201235-0.3512726,2.6361055-1.1638126
			c-1.0056963,0.16959-1.8020906,0.0975418-2.294632-0.0193033c0,0,0.7890987,0.0326633,1.7886477-0.2200813
			c1.1568851-0.2931566,2.5963926-0.9699593,3.4184837-2.526598c-0.0376225,3.7055731-3.7843027,4.4436884-5.5486059,3.9297953
			H9.7999983z"/>
		<path fill="#FFFFFF" d="M16.4225388,4.4626222c0,0,0.8171291,0.8826227,1.2036877,1.7270489
			c0.3872128,0.8445082,0.5065975,1.8007379,0.5065975,1.8007379s0.0572128-0.8046722-0.384058-2.1550817
			c-0.4793835-1.4676638-1.4223347-2.7191799-2.3520079-3.4114749c-0.629631-0.4690981-1.8824177-1.0986882-1.8824177-1.0986882
			s2.1636066,1.2890571,2.9081964,3.1374588L16.4225388,4.4626222z"/>
		<path fill="#FFFFFF" d="M18.7681942,14.7608585c-0.1075001,0.2075405-0.2490578,0.4256153-0.4389343,0.6570082
			c-0.4613934,0.571476-1.0374184,1.0197954-1.5166397,1.3465567c-0.1940575,0.1325417-0.3830338,0.2434845-0.5671711,0.33955
			l-0.0042629-0.0691795l-0.0036888,0.0020885v-0.000164c0.5503693-0.2883606,1.1469669-0.6855316,1.7597942-1.2917614
			C18.3576202,15.3887672,18.5998745,15.0637264,18.7681942,14.7608585z M1.8805329,2.6993856
			C1.9013525,2.6498365,1.9211477,2.596189,1.9497541,2.5054922C1.9831147,2.4002051,2.020123,2.3111479,2.0577869,2.2350414
			c-0.052623,0.0916393-0.1062703,0.207664-0.1528687,0.354713c-0.0088115,0.0283198-0.0168443,0.052705-0.0245491,0.0748773
			C1.8789756,2.6881971,1.8783609,2.7047133,1.8805329,2.6993856z M7.8004093,18.9913101
			c0,0,0.0778685,0.0726643,0.2180328,0.1629906c0.5200825,0.1485252,1.7101231,0.4519272,2.6396303,0.4168434
			c-0.1155739-0.0198765-0.2028284-0.0508595-0.2689352-0.0843449c-1.17836-0.0402031-2.5887294-0.495491-2.5887294-0.495491
			L7.8004093,18.9913101z M0.5473777,7.8789759c-0.0268033,0.0481143-0.052377,0.0958605-0.0770082,0.142746l0.009959-0.0186062
			C0.2446728,8.7471323,0.0628286,9.892746,0.1719679,11.5977869c0.0008606-0.0105324,0.0033607-0.0349169,0.007541-0.0706139
			l0.0037705,0.0610247c0.0018033-0.0248766,0.012541-0.1207781,0.0342213-0.2689342
			c-0.0862295-1.6277056,0.0974181-2.7255735,0.329877-3.4402866L0.5473777,7.8789759z M1.6376233,14.5179501
			c-0.8915982-1.5333195-1.1633195-2.9471722-1.2258195-4.0973768c-0.0138935,0.0638113-0.0266804,0.1254091-0.0388934,0.1852455
			c0.0727459,1.1314335,0.3539753,2.5077868,1.219672,3.9965563c0.679262,1.1693029,2.4697537,3.8859005,6.9623351,4.9024162
			c-0.2058601-0.0598354-0.3786068-0.1441383-0.5105734-0.2224998C3.9582787,18.1764736,2.288115,15.637825,1.637623,14.5179491
			L1.6376233,14.5179501z M16.0537262,17.4711056c0.0162296-0.0169258,0.0481167-0.0526237,0.0486069-0.053442
			c-1.5054092,2.0637302-5.8595886,1.8161049-5.8595886,1.8161049s0.0168447,0.0399609,0.0720081,0.0890999
			c0.6206961,0.0190163,3.566433,0.0370903,5.1816788-1.2440166c0.4004498-0.3031139,0.6658192-0.6536884,0.7490978-0.9748764
			l-0.0228691,0.0116386c-0.0332794,0.1375008-0.1054916,0.2640572-0.1689339,0.3554935V17.4711056z M0.9540156,6.0234437
			c-0.3293852,0.5654917-0.6785245,1.497541-0.9533195,3.0546718c0,0,0.0070902-0.0225821,0.0210246-0.0631561L0.0115978,9.071681
			c0,0,0.0203688-0.0648365,0.0609016-0.174222C0.313278,7.5695901,0.6084009,6.707541,0.8965976,6.1426234
			C0.910696,6.1103692,0.930245,6.0697131,0.9540156,6.0234427V6.0234437z M1.6678679,3.0775425
			c0.0138116-0.1084015,0.0485656-0.1608608,0.070164-0.2473359c0.0060246-0.024631,0.0152049-0.0485246,0.0255738-0.0715575
			C1.7348353,2.8054113,1.7070893,2.8581984,1.6930729,2.914428C1.6840155,2.9512722,1.672417,2.9819281,1.6611058,3.0132396
			l0.0038935,0.0710247L1.6678679,3.0775425z M1.3571712,5.3787303c0.0018033-0.0489345-0.0068443-0.1018028-0.0063933-0.1565576
			c-0.047541-0.6728277,0.032418-1.203033,0.1105326-1.5913112c0.0439754-0.2016804,0.0969672-0.3842623,0.1541804-0.5484838
			C1.6143843,3.0704105,1.6129909,3.0616813,1.6111057,3.0610251C1.6102451,3.0593448,1.6090975,3.0594268,1.607991,3.0622957
			C1.5965976,3.0928285,1.585245,3.1243038,1.5741385,3.156312L1.5673761,3.1755333L1.5522532,3.2200005
			C1.5346303,3.2718856,1.518032,3.3246727,1.502581,3.3781152C1.477827,3.4622545,1.4545482,3.5507791,1.432745,3.6431563
			l-0.007254,0.032377L1.4163107,3.7151237L1.4122534,3.7355335C1.3741386,3.9137712,1.3430321,4.1070499,1.3226223,4.3159022
			C1.2566795,4.8988943,1.2725812,5.3892221,1.297991,5.462378C1.3170484,5.4348779,1.3367615,5.4070497,1.3571712,5.3787303z
			 M16.2375374,17.0369263c-0.0345478,0.018074-0.3184414,0.1655731-0.7847128,0.3604088
			c-0.8733196,0.3645496-1.4782791,0.6452866-1.5301638,0.7422962c0,0,0.2284012-0.1562309,1.0073366-0.4654922
			c0.812623-0.3226643,1.1996298-0.5115566,1.2927046-0.5584431l0.0228691-0.0116386l-0.0042629-0.0691814L16.2375374,17.0369263z"
			/>
		<path fill="#FFFFFF" d="M17.2288094,15.3638906c0.5501213-1.0402861,1.2967205-1.6495895,1.700573-2.3691807
			c0.5361462-0.9572124,1.5496311-3.6483593,0.785656-5.818769c0.3501644,1.3589339,0.240696,2.7397122-0.8762302,3.4332366
			c0.361311-0.9574995,0.5874996-3.0582781,0.2153683-4.9508185c-0.2422943-1.229836-1.0081959-2.3317623-1.5075397-2.6754503
			c0.459631,0.3465164,0.8293858,1.5872536,0.8191795,2.1565976c-0.9618835-1.6274178-2.531105-3.1837697-4.9034815-3.8409829
			c1.8427048,1.2208606,2.531065,2.2581143,2.9665976,3.1809421c-0.4925814-0.5062704-1.3361874-1.03459-1.905654-1.0785656
			c0.8541803,0.6383195,2.2835226,2.5318027,2.1314745,5.4004097C16.4358597,8.3393011,16.0348759,7.6159,15.7500391,7.3627443
			c0.3065977,2.8175812,0.0382385,3.4226227-0.1479912,4.1709013c-0.0409012-0.3438931-0.1641397-0.6022549-0.2352457-0.7594261
			c0,0-0.0328274,0.8805313-0.6022539,2.1351633c-0.4311886,0.9502869-0.8764744,1.2438107-1.0733194,1.2104502
			c-0.0533609-0.0038519-0.0823364-0.026844-0.0817623-0.0288925c0.0140982-0.1229506,0.026763-0.2520075-0.0059023-0.3339748
			c0,0-0.1817617,0.0632372-0.2991791,0.2289343c-0.0473366,0.066762-0.1087303,0.1321726-0.1890993,0.1933603
			c-0.0137291,0.0106554,0.1299591-0.1849594,0.1190987-0.1760654c-0.0706148,0.057951-0.1463928,0.1256561-0.2227049,0.2051229
			c-0.2792206,0.2913113-0.530983,0.6141386-0.6620083,0.5227461c0.1220493-0.0375814,0.2195902-0.1934834,0.2459431-0.3467207
			c-0.1097546,0.0771723-0.388279,0.2862701-1.0127459,0.3795481c-0.2554922,0.0382786-1.3423767,0.236763-2.7876225-0.4896307
			c0.2106972-0.0242624,0.5259428-0.0988512,0.7662706,0.0439348c-0.2403278-0.263648-0.8210659-0.2089758-1.2374592-0.3409014
			c-0.3627868-0.1152468-0.8363113-0.6269264-1.1083608-0.8852873c1.1123366,0.2738113,2.2937293,0.0761881,2.9765973-0.393033
			c0.6902466-0.4744253,1.0991802-0.8207378,1.4659014-0.7386875c0.366066,0.0822945,0.6102867-0.2873774,0.3250828-0.6155338
			c-0.2843037-0.3284836-0.9740162-0.7702045-1.9123764-0.5335655c-0.718401,0.1806555-1.3308201,0.7602453-2.3397536,0.3575821
			c-0.0611067-0.0243444-0.1240983-0.0524178-0.1886888-0.0845089c-0.0643444-0.0321722,0.2109427,0.0384426,0.1432376-0.0018444
			c-0.1938524-0.0717211-0.5465169-0.2344265-0.6341801-0.2959433c-0.0143447-0.0106564,0.1460247,0.0292616,0.129303,0.0190573
			C6.223074,10.2361441,6.2857385,9.78053,6.2857385,9.4985628c0-0.2254095,0.1363115-0.5305328,0.3921719-0.6734838
			C6.8159428,8.874505,6.901722,8.9197111,6.901722,8.9197111s-0.0637708-0.098484-0.1041393-0.1461477
			C6.8069677,8.7700386,6.8165169,8.76758,6.8262711,8.7648344C6.9390578,8.803195,7.1928692,8.8972931,7.3213935,8.9623337
			C7.495615,9.0502024,7.5542212,9.1399565,7.5542212,9.1399565s0.0406146-0.0258598-0.0018854-0.1155319
			C7.5349588,8.9868832,7.4734836,8.8786869,7.3009424,8.7735224l0.0081964-0.0009422
			c0.0904918,0.0361071,0.1865163,0.0818443,0.292254,0.1421318C7.6343436,8.7603264,7.700573,8.6002855,7.6559415,8.3204079
			c-0.031352-0.1968441-0.0272951-0.2474995-0.0763931-0.3189754C7.5374584,7.9401212,7.5909829,7.9131536,7.6559415,7.968236
			C7.640327,7.9193015,7.6184421,7.8708997,7.5923352,7.8221292l0.0006967-0.002295
			C7.6468434,7.5769243,9.0873346,6.8183589,9.1950397,6.738523c0.1489754-0.1109428,0.3010654-0.2820497,0.3961477-0.4790168
			c0.0690575-0.1258607,0.1187296-0.3047948,0.1053686-0.5627866C9.6865969,5.5104899,9.5768433,5.3966789,8.0407362,5.4095888
			C7.6209002,5.4127855,7.3475399,5.167335,7.1823759,4.9332776c-0.0332785-0.0509019-0.0630736-0.0993032-0.0895085-0.142951
			c-0.0362296-0.0651226-0.0606966-0.122869-0.0793443-0.16959c0.1834016-0.6690986,0.551024-1.249918,1.124754-1.7204096
			c0.0346718-0.0292621-0.1367216,0.019918-0.1042213-0.0111067C8.0727444,2.852622,8.3158588,2.7361465,8.361228,2.7103269
			c0.0589342-0.0331964-0.2644262-0.1209013-0.5405741-0.0631967c-0.2772541,0.0577457-0.3315163,0.0907376-0.4743443,0.165041
			c0.0579095-0.0604098,0.2460246-0.1559834,0.1997132-0.1457787C7.24508,2.7341385,6.89008,2.9331958,6.5876217,3.1479089
			c-0.0023365-0.0273769,0-0.0496311,0.0062289-0.0935245c-0.1427865,0.0743854-0.4872541,0.3410244-0.5752048,0.544795
			c0-0.0443444,0-0.0665164-0.0054507-0.1157377C5.9150805,3.5740566,5.8208179,3.6802862,5.7356133,3.7990563L5.7321706,3.8036056
			C4.834343,3.5794253,4.0722942,3.6336875,3.4352038,3.8389745c-0.1524591-0.1111884-0.3966804-0.2815576-0.7820492-0.879549
			C2.6303267,2.9234009,2.6280317,3.0411878,2.6070073,3.0034008c-0.1515985-0.2737296-0.2805328-0.739877-0.2932377-1.0736064
			c0,0-0.2472541,0.1445082-0.4095491,0.656885C1.8756138,2.677376,1.8556138,2.7310238,1.8349172,2.7804911
			C1.8282369,2.7962699,1.8468435,2.615983,1.8399173,2.630368C1.8090156,2.6943433,1.7210238,2.79545,1.6924174,2.9112694
			C1.6709009,2.9978268,1.635983,3.0504088,1.6222534,3.1586876L1.6193026,3.1654909
			C1.6168847,3.1378679,1.6154091,3.0397122,1.6072944,3.0592203C1.5358191,3.2490566,1.4692616,3.4665976,1.4156961,3.7121711
			C1.3375815,4.100286,1.2576634,4.6304493,1.3051634,5.3034C1.3046306,5.3580308,1.3134011,5.4109001,1.3115568,5.4599166
			C1.0699176,5.794343,0.9125405,6.0819654,0.8510241,6.2238507c-0.294713,0.5775409-0.5965573,1.4655328-0.8401638,2.8447537
			c0,0,0.1636885-0.5199184,0.4908606-1.1084428c-0.2412705,0.7415166-0.429836,1.894877-0.3192213,3.6248355
			c0.0045492-0.0570078,0.055041-0.4939756,0.1837295-1.0832787c0.062377,1.1501637,0.3340983,2.5641394,1.2257785,4.0974579
			c0.6791801,1.1692209,2.4697537,3.8858185,6.9623756,4.9025803c-0.4931145-0.142868-0.7996716-0.4293022-0.7996716-0.4293022
			s1.6779504,0.5418034,2.9026628,0.495533c-0.3835249-0.0662308-0.4601641-0.2529106-0.4601641-0.2529106
			s4.3539753,0.2473774,5.8595085-1.8161469c-0.5146732,0.6049595-1.8178682,0.7757778-2.3109007,0.781147
			c0.7502871-0.6928272,2.4091787-0.6769257,4.2060251-2.4538107c0.9855309-0.9753695,1.0922527-1.7170076,1.1995487-2.4101629
			c-0.1644669,0.9075413-1.0245495,1.4522533-1.9225826,1.9477863V15.3638906z"/>
	</g>
	<path fill="#FFFFFF" d="M9.9999981,0.4508196c1.2539425,0,2.4701376,0.2454839,3.6148014,0.7296389
		c1.1058369,0.4677305,2.0990791,1.1374211,2.9521351,1.9904723c0.8530521,0.8530564,1.5227413,1.8462958,1.9904709,2.9521351
		c0.4841537,1.1446643,0.729641,2.3608599,0.729641,3.6148014s-0.2454872,2.4701376-0.729641,3.6148014
		c-0.4677296,1.1058397-1.1374187,2.0990791-1.9904709,2.9521351c-0.853056,0.8530521-1.8462982,1.5227413-2.9521351,1.9904747
		c-1.1446638,0.4841537-2.3608589,0.7296371-3.6148014,0.7296371s-2.4701371-0.2454834-3.6148014-0.7296371
		c-1.1058369-0.4677334-2.0990787-1.1374226-2.9521348-1.9904747c-0.8530512-0.853056-1.5227418-1.8462954-1.9904736-2.9521351
		c-0.4841538-1.1446638-0.7296377-2.3608589-0.7296377-3.6148014s0.2454839-2.4701371,0.7296377-3.6148014
		C1.91032,5.0172267,2.5800107,4.0239873,3.4330618,3.1709309c0.8530562-0.8530512,1.846298-1.5227418,2.9521348-1.9904723
		C7.529861,0.6963035,8.7460566,0.4508196,9.9999981,0.4508196 M9.9999981,0C4.6219215,0,0.2621309,4.3597903,0.2621309,9.7378674
		s4.3597908,9.7378674,9.7378674,9.7378674s9.7378674-4.3597908,9.7378674-9.7378674S15.3780756,0,9.9999981,0L9.9999981,0z"/>
</g>
</svg>
