<svg xmlns="http://www.w3.org/2000/svg" width="24" height="24" viewBox="0 0 24 24"><title>ic_android</title><rect width="24" height="24" fill="none"/><path d="M17.4293,9.52l1.8461-3.198a.375.375,0,0,0-.1357-.5112.37.37,0,0,0-.5087.1357l-1.87,3.2392a11.6706,11.6706,0,0,0-9.5212,0l-1.87-3.2392a.374.374,0,0,0-.6469.3755L6.5683,9.52A11.0225,11.0225,0,0,0,.8725,18.24h22.255A11.02,11.02,0,0,0,17.4293,9.52ZM6.8905,15.1144a.9328.9328,0,1,1,.9328-.9327A.9331.9331,0,0,1,6.8905,15.1144Zm10.2166,0a.9328.9328,0,1,1,.9327-.9327A.9331.9331,0,0,1,17.1071,15.1144Z" fill="#7b7b7b"/></svg>