<svg xmlns="http://www.w3.org/2000/svg" width="24" height="24" viewBox="0 0 24 24"><title>ic_chrome</title><rect width="24" height="24" fill="none"/><path d="M7.7767,12.0972A4.2232,4.2232,0,1,1,12,16.3205,4.2232,4.2232,0,0,1,7.7767,12.0972Z" fill="#7b7b7b"/><path d="M21.6652,17.6058v.0074a11.4612,11.4612,0,0,1-9.6825,5.5339l5.031-8.8035.0114-.0224A5.4941,5.4941,0,0,0,14.91,7.4392h7.24a10.1475,10.1475,0,0,1,.8416,2.7483A11.7779,11.7779,0,0,1,21.6652,17.6058Z" fill="#7b7b7b"/><path d="M14.6417,16.9131l-3.6049,6.2414h-.0223a10.09,10.09,0,0,1-3.4857-.8862A11.8761,11.8761,0,0,1,2.3,17.6356,11.4806,11.4806,0,0,1,2.3822,6.4114L7.1341,14.634l.1192.216a5.4781,5.4781,0,0,0,7.3437,2.0854Z" fill="#7b7b7b"/><path d="M21.6949,6.605H12.3105c-.1043-.0074-.2086-.0074-.3129-.0074a5.5,5.5,0,0,0-5.4891,5.2955L2.8738,5.5921A11.2392,11.2392,0,0,1,11.9753.8477,11.4338,11.4338,0,0,1,21.6949,6.605Z" fill="#7b7b7b"/></svg>