<svg xmlns="http://www.w3.org/2000/svg" width="24" height="24" viewBox="0 0 24 24"><title>ic_firefox</title><rect width="24" height="24" fill="none"/><path d="M23.0405,11.0151h0c-.0317-.2079-.0633-.33-.0633-.33s-.0813.0943-.2158.2719a7.7485,7.7485,0,0,0-.2668-1.4629,9.9612,9.9612,0,0,0-.6739-1.734,7.2313,7.2313,0,0,0-.6156-1.0557q-.1266-.1891-.2582-.3668c-.41-.67-.88-1.0788-1.4248-1.8527a5.6151,5.6151,0,0,1-.7127-1.9311,7.7924,7.7924,0,0,0-.3423,1.2637c-.5589-.5639-1.045-.9645-1.3385-1.2378C15.6809,1.2274,15.8492.5262,15.8492.5262h0S13.145,3.5447,14.3165,6.6891A6.042,6.042,0,0,0,16.33,9.3738c1.1335.935,2.354,1.6707,2.9976,3.5507a6.0251,6.0251,0,0,0-2.2611-2.3856,5.4482,5.4482,0,0,1,.4315,2.1576,5.1234,5.1234,0,0,1-6.265,4.9913,4.7209,4.7209,0,0,1-1.2694-.4315A5.1667,5.1667,0,0,1,8.4428,15.85l-.0072-.0122.0906.0331a4.6738,4.6738,0,0,0,.6473.1733A4.0468,4.0468,0,0,0,11.75,15.74c.81-.45,1.3-.7825,1.6981-.6509h.0072c.3883.1237.6947-.2531.4171-.6473a2.1146,2.1146,0,0,0-2.0483-.8c-.8105.1179-1.5535.694-2.6157.1359A2.2357,2.2357,0,0,1,9.01,13.661c-.0719-.041.228.0626.1583.0158A5.2787,5.2787,0,0,1,8.5,13.2784c-.0158-.013.16.05.1439.0374a2.5761,2.5761,0,0,1-.6962-.7041,1.2524,1.2524,0,0,1-.0475-1.1177.986.986,0,0,1,.4316-.4056c.1373.0676.2222.1187.2222.1187s-.0626-.1151-.0964-.1755c.0122-.0043.023,0,.0353-.0079.12.0518.3862.187.5264.27a.73.73,0,0,1,.2409.2157s.0482-.0237.0123-.1244a.6471.6471,0,0,0-.2489-.3049h.0115a2.1091,2.1091,0,0,1,.3064.1906,1.4943,1.4943,0,0,0,.1223-.6473.8481.8481,0,0,0-.05-.36c-.0382-.0719.0215-.1007.0884-.0252a.7042.7042,0,0,0-.0568-.1712v-.0057h0s.0381-.05.0554-.0676a1.02,1.02,0,0,1,.1553-.1266A7.1633,7.1633,0,0,1,10.7105,9.33c.2977-.13.5444-.2295.5947-.2582A1.654,1.654,0,0,0,11.516,8.91a1.4147,1.4147,0,0,0,.4746-.82,1.1471,1.1471,0,0,0,.0123-.1281V7.9045h0V7.8959h0V7.8865h0c-.0432-.1618-.3222-.2833-1.7808-.42a1.2751,1.2751,0,0,1-1.0428-.9781v.0065c-.0209.0532-.04.1071-.0583.1618.0187-.054.0374-.1079.0583-.1618V6.4834A3.6954,3.6954,0,0,1,10.6076,4.71c.0374-.03-.15.0079-.1122-.023a3.7062,3.7062,0,0,1,.3812-.1611c.0654-.0273-.28-.16-.5862-.1273a1.5818,1.5818,0,0,0-.5437.128c.0719-.0618.2877-.1438.2366-.1438a3.4969,3.4969,0,0,0-1.109.4193.2272.2272,0,0,1,.0216-.1007,1.7262,1.7262,0,0,0-.6933.5351A.9186.9186,0,0,0,8.21,5.1111a2.07,2.07,0,0,0-.34.3193l-.0065.0051A4.52,4.52,0,0,0,5.3337,5.22l-.0072-.0065h.0086A2.1153,2.1153,0,0,1,4.8856,4.71l-.0115.0029-.0136-.0158q-.0831-.123-.17-.2784c-.0417-.0719-.0841-.156-.1266-.2431,0-.0057-.0064-.0079-.0093-.0086-.0173,0-.0295.08-.0439.059V4.2215a3.0987,3.0987,0,0,1-.2035-1.2133l-.0115.0057a1.3543,1.3543,0,0,0-.5135.6718c-.0439.0985-.072.1524-.1007.2064V3.8669c.0065-.05.028-.1517.023-.1438L3.69,3.7439a1.245,1.245,0,0,0-.1805.2676,1.6917,1.6917,0,0,0-.1079.2747c-.0043.0151,0-.0129,0-.046s.0065-.0921,0-.08l-.0158.031A6.8333,6.8333,0,0,0,2.8107,6.374a2.1786,2.1786,0,0,0-.0223.387v.0115a4.77,4.77,0,0,0-.5875.7911A11.2215,11.2215,0,0,0,.9588,10.6058,7.4483,7.4483,0,0,1,1.6241,9.44a10.7876,10.7876,0,0,0-.7516,3.9556,10.24,10.24,0,0,1,.3236-1.1716,9.93,9.93,0,0,0,.8976,4.649,10.8143,10.8143,0,0,0,4.28,4.8531h0a9.3576,9.3576,0,0,0,2.4942,1.1953c.1165.0425.2344.0842.3552.1245-.0381-.0151-.0719-.0317-.11-.0482a11.2949,11.2949,0,0,0,3.2364.4761c3.8794,0,5.16-1.4772,5.2782-1.6247h0a1.964,1.964,0,0,0,.4582-.6156h0q.1122-.0461.2265-.0986l.0482-.0215.087-.041a8.1361,8.1361,0,0,0,1.6377-1.0256,3.9554,3.9554,0,0,0,1.5268-2.23h0A1.394,1.394,0,0,0,21.633,16.79q.06-.0942.123-.2013a9.1383,9.1383,0,0,0,1.3715-4.4454v-.1316A5.561,5.561,0,0,0,23.0405,11.0151Z" fill="#7b7b7b"/></svg>