<svg xmlns="http://www.w3.org/2000/svg" width="24" height="24" viewBox="0 0 24 24"><title>ic_apple</title><rect width="24" height="24" fill="none"/><path d="M16.4,2.9794a5.4824,5.4824,0,0,1-.9856,1.764v.001A4.8093,4.8093,0,0,1,13.8,5.9918a3.6154,3.6154,0,0,1-1.83.3624l-.1914-.016-.0242-.1907a3.9972,3.9972,0,0,1,.22-1.8119,5.4363,5.4363,0,0,1,1.0116-1.74h0a5.2169,5.2169,0,0,1,1.569-1.2034A4.4979,4.4979,0,0,1,16.3776.88l.22-.0078.0229.22A4.5109,4.5109,0,0,1,16.4,2.9794Z" fill="#7b7b7b"/><path d="M20.4188,8.7829a4.6862,4.6862,0,0,0-2.248,3.9274,4.5729,4.5729,0,0,0,2.75,4.2065h.0009l.0062.0026.2037.0856-.071.2086c-.0042.0124.0006-.0008-.0056.0186a12.3028,12.3028,0,0,1-1.55,3.1325,11.204,11.204,0,0,1-1.4965,1.858,3.0193,3.0193,0,0,1-2.0467.9045,3.91,3.91,0,0,1-1.7824-.4367,4.1547,4.1547,0,0,0-1.8164-.4475,4.4231,4.4231,0,0,0-1.9142.443,4.34,4.34,0,0,1-1.6536.43h-.001a2.9055,2.9055,0,0,1-2.08-.938,12.0471,12.0471,0,0,1-1.5486-1.9426,14.0514,14.0514,0,0,1-2.2145-5.98A8.4216,8.4216,0,0,1,3.8333,8.99a5.7827,5.7827,0,0,1,2.02-2.0564A5.3649,5.3649,0,0,1,8.56,6.1632h0a6.1225,6.1225,0,0,1,2.3357.59,4.04,4.04,0,0,0,1.2605.377,4.1366,4.1366,0,0,0,1.2225-.36,6.4423,6.4423,0,0,1,2.9749-.6161,5.6621,5.6621,0,0,1,2.3888.6724A5.03,5.03,0,0,1,20.5069,8.44l.1358.2011-.2052.1309c-.0109.0071,0,0-.0187.0111Z" fill="#7b7b7b"/></svg>