<svg xmlns="http://www.w3.org/2000/svg" width="24" height="24" viewBox="0 0 24 24"><title>ic_linux</title><rect width="24" height="24" fill="none"/><path d="M10.5066,6.1345c0,.0493.02.0709.0613.0627.0329,0,.0685-.0383.107-.1169a.22.22,0,0,1,.1933-.1276l-.124-.0015Q10.5089,5.9857,10.5066,6.1345Z" fill="#7b7b7b"/><path d="M21.2861,19.5737a1.5865,1.5865,0,0,0-.38-.3075q-.037-.0252-.203-.12c-.1109-.0632-.199-.1186-.2642-.1647a1.8331,1.8331,0,0,1-.2578-.238,1.442,1.442,0,0,1-.25-.3565,2.7951,2.7951,0,0,1-.1734-.5041,3.0093,3.0093,0,0,1-.0911-.7.81.81,0,0,0-.1992.5858,1.9835,1.9835,0,0,0,.1756.9,1.02,1.02,0,0,0,.606.6021,2.9691,2.9691,0,0,1,.6343.2984.7108.7108,0,0,1,.3058.3566q.0654.1988-.2343.4245a3.42,3.42,0,0,1-.9592.44,8.2108,8.2108,0,0,0-1.2886.5115,9.0333,9.0333,0,0,0-1.1181.8106,1.7942,1.7942,0,0,1-1.0581.4277,1.0235,1.0235,0,0,1-.9-.4195,1.5654,1.5654,0,0,1-.2078-1.2483,5.9428,5.9428,0,0,0,.016-2.4152,2.4525,2.4525,0,0,1-.0721-1.2022c.0782-.3464.1962-.5468.3533-.6031s.3256.07.5041.3778q.0234.0622.1085.2431a1.5944,1.5944,0,0,0,.14.2555,2.3576,2.3576,0,0,0,.1648.1944.616.616,0,0,0,.2764.17,1.703,1.703,0,0,0,.39.0663,1.4294,1.4294,0,0,0,.7572-.1645,1.5162,1.5162,0,0,0,.5067-.4091q.17-.2266.34-.4356a.5884.5884,0,0,1,.2938-.2314q.1366-.023.2512-.27a2.168,2.168,0,0,0,.1564-.6855,4.31,4.31,0,0,0-.05-1.047,10.7085,10.7085,0,0,0-.7087-2.375,6.9692,6.9692,0,0,0-1.2087-2.0336,6.8336,6.8336,0,0,1-1.6154-2.72,7.9668,7.9668,0,0,1-.34-2.6545,3.8945,3.8945,0,0,0-.3439-1.832,3.59,3.59,0,0,0-1.1158-1.5182,3.2456,3.2456,0,0,0-1.0963-.527A4.6113,4.6113,0,0,0,11.8205.8728a2.7681,2.7681,0,0,0-2.62,1.5236,4.5607,4.5607,0,0,0-.32,1.8732q.0208,2.4531.1529,3.8419a9.56,9.56,0,0,1-1.5647,2.3967,3.0505,3.0505,0,0,0-.4911.6632,7.092,7.092,0,0,0-.3807.7512q-.14.3326-.3768.9622t-.3386.8881a3.2392,3.2392,0,0,1-.2788.5173,3.5034,3.5034,0,0,0-.3044.5781,1.9474,1.9474,0,0,0-.1315.6433,2.0843,2.0843,0,0,0,.019.47c.0308.1991.0924.2613.184.1881q.5624-.4151,1.3938.512a26.2137,26.2137,0,0,1,2.0577,3.0224q.1213.2123.2422.4547a3.51,3.51,0,0,1,.2278.6471,2.2626,2.2626,0,0,1,.0846.7262.92.92,0,0,1-.2921.5911,1.3473,1.3473,0,0,1-.8031.3372,2.0806,2.0806,0,0,1-.6868-.0581q-.402-.0916-1.0188-.2967t-.913-.283q-.4327-.105-1.23-.2688c-.5316-.11-.88-.19-1.0442-.2422q-.42-.1158-.4543-.3274a1.09,1.09,0,0,1,.1806-.5918,1.6317,1.6317,0,0,0,.2177-.6044,1,1,0,0,0-.01-.2725A1.0532,1.0532,0,0,0,3.27,19.304c-.02-.0494-.0545-.1247-.1024-.2242a1.919,1.919,0,0,1-.0968-.2245q-.2164-.5221-.0537-.706c.0763-.1065.254-.146.5344-.1176a1.6117,1.6117,0,0,0,1.0306-.1736A1.0452,1.0452,0,0,0,4.994,16.55a1.0941,1.0941,0,0,1-.156.6294,1.706,1.706,0,0,1-.5254.4279,1.7376,1.7376,0,0,1-.745.14,1.251,1.251,0,0,0-.7079.1649.4463.4463,0,0,0-.1342.3328,1.5628,1.5628,0,0,0,.0507.4531q.0587.23.1174.5275a1.9453,1.9453,0,0,1,.0435.4969,3.7076,3.7076,0,0,1-.2307.6718,1.13,1.13,0,0,0-.0968.8231.6116.6116,0,0,0,.2076.2441,1.35,1.35,0,0,0,.413.1841c.1767.0519.34.0933.4879.1235s.3543.07.6177.1191.4745.09.6306.1251a12.7119,12.7119,0,0,1,1.8023.5541,5.6606,5.6606,0,0,0,1.37.4,1.3779,1.3779,0,0,0,.6641-.1342,2.4094,2.4094,0,0,0,.5433-.347,2.2446,2.2446,0,0,1,.6666-.3632A2.8351,2.8351,0,0,1,11,21.9481q.2484-.01.7191-.0228c.3136-.0084.55-.0118.7064-.01q1.0653.0128,1.61.0312a1.4242,1.4242,0,0,1,.5806.1253.5456.5456,0,0,1,.27.245,1.6452,1.6452,0,0,0,.2006.3185,1.0708,1.0708,0,0,0,.3623.2944,2.188,2.188,0,0,0,1.1.1931,1.4343,1.4343,0,0,0,.8454-.2315,11.8912,11.8912,0,0,1,.9447-.7818,6.5025,6.5025,0,0,1,1.0672-.681c.0666-.0327.1784-.0843.3363-.1573s.2909-.1347.3988-.1868.2386-.1195.3925-.2a3.1966,3.1966,0,0,0,.3741-.2252,3.5011,3.5011,0,0,0,.294-.2384.6461.6461,0,0,0,.1952-.27.7058.7058,0,0,0,.0343-.2782A.5348.5348,0,0,0,21.2861,19.5737ZM14.789,7.5232q.038-.0243.05-.0181a.2744.2744,0,0,1,.049.05c.0243.03.0466.0567.0672.0814s.0487.0592.0855.1a.5229.5229,0,0,0,.1164.1.48.48,0,0,0,.1788.0707.3684.3684,0,0,1,.1605.0632.2588.2588,0,0,1,.0789.1442.3436.3436,0,0,1-.0464.2469.1776.1776,0,0,1-.1809.0971.9524.9524,0,0,1-.4787-.3958Q14.6135,7.7193,14.789,7.5232ZM13.31,2.6929a.4077.4077,0,0,0,.076-.129.2792.2792,0,0,0,.0077-.1555.2731.2731,0,0,1,.0143-.16.1566.1566,0,0,1,.1438-.0917c.0743.0011.1725.064.295.19.0249.0169.0634.0422.1169.0758a.4593.4593,0,0,1,.11.0882.1032.1032,0,0,1,.03.0623.1552.1552,0,0,1-.1122.0853.6841.6841,0,0,1-.1861.0226.2538.2538,0,0,0-.1118.0109.62.62,0,0,0-.1867.109c-.0586.0491-.1049.0863-.1382.11a.0761.0761,0,0,1-.099-.0013c-.0323-.05-.0444-.0852-.0355-.1057A.5859.5859,0,0,1,13.31,2.6929Zm-6.1054,9.2a1.2016,1.2016,0,0,0,.1259-.16.73.73,0,0,0,.07-.1665,1.0039,1.0039,0,0,1,.0573-.1544.061.061,0,0,1,.075-.0359.1815.1815,0,0,1,.037.0254.0438.0438,0,0,1,.012.031c0,.0121-.001.0253-.0006.0377a.2521.2521,0,0,1-.0069.049.2287.2287,0,0,1-.0193.0554A.3812.3812,0,0,0,7.53,11.65c-.009.0325-.018.0615-.0262.0856a.6084.6084,0,0,1-.1573.2207c-.0708.0657-.1233.0941-.1561.086C7.1165,12.0323,7.1211,11.9834,7.2049,11.8929ZM15.1455,18.72a4.2083,4.2083,0,0,1,.07.9113,9.0709,9.0709,0,0,1-.18,1.1133q-.1514.717-.1912.9516c-.1729-.01-.2714-.0757-.2946-.1957a.8528.8528,0,0,1,.08-.4633A5.1978,5.1978,0,0,0,14.9272,19.9q.0314-.5685-.1163-.6445-.1355-.1014-.4258.3657a2.7581,2.7581,0,0,1-2.205,1.052,2.245,2.245,0,0,1-2.0507-.47.24.24,0,0,0-.2478-.0341.348.348,0,0,0-.1622.1161c-.0088.0161,0,.0407.0237.0743s.0631.0833.1163.15a1.0892,1.0892,0,0,1,.1276.2q.4733.8476-.1,1.1382a3.3566,3.3566,0,0,0-.0762-.8744,2.2513,2.2513,0,0,0-.3389-.673,5.643,5.643,0,0,1-.3526-.5553.7762.7762,0,0,0,.7465-.8091.6815.6815,0,0,0-.2109-.473q-.1106-.1131-1.1409-.9607a12.7764,12.7764,0,0,1-1.2749-1.137q-.0489-.05-.2943-.2509a1.0042,1.0042,0,0,1-.3056-.3511,2.2437,2.2437,0,0,1-.1-2.0571.13.13,0,0,1,.05-.0612q.0618-.012.01.2226a2.456,2.456,0,0,0-.0584.6938,1.7154,1.7154,0,0,0,.4323,1.17q.2571.2619.36-.0334a1.8534,1.8534,0,0,0,.0766-.73q.0012-.6321.0285-.8542a6.386,6.386,0,0,1,.6095-1.74q.5008-1.0347.7871-1.1053a1.0552,1.0552,0,0,1-.1331-.7822,2.1564,2.1564,0,0,1,.2688-.7155q.183-.2953.373-.6827a1.6514,1.6514,0,0,0,.1942-.698.4488.4488,0,0,1,.0143-.1238q.0382-.1109.3063.2762a3.0683,3.0683,0,0,0,.77.9132.6317.6317,0,0,0,.607-.0048,5.0979,5.0979,0,0,0,.83-.5229,5.6717,5.6717,0,0,1,.8425-.5355.8314.8314,0,0,0,.1183-.0534c.0539-.0283.0955-.0489.1245-.0607s.0668-.03.1123-.0545.0809-.0445.1058-.0606a.7853.7853,0,0,0,.075-.0549.1579.1579,0,0,0,.05-.0613.1477.1477,0,0,0,.0131-.0559.165.165,0,0,0-.1036-.1378.3386.3386,0,0,0-.2171.0288,2.91,2.91,0,0,0-.305.1448c-.1125.0608-.2371.1293-.3746.2066s-.276.1473-.4176.2112a3.5986,3.5986,0,0,1-.4476.1686,1.84,1.84,0,0,1-.4471.0809,1.13,1.13,0,0,1-.8264-.2819.9357.9357,0,0,1-.2082-.2373q-.0115-.05.1122-.024a3.3364,3.3364,0,0,0,.9777.0368,3.8382,3.8382,0,0,0,.871-.2754c.0744-.0313.2632-.11.5666-.2348a7.45,7.45,0,0,1,.7028-.2579.3356.3356,0,0,0,.2054-.1145.176.176,0,0,0,.039-.1486.1666.1666,0,0,0-.0793-.1057q-.1351-.0769-.2487.0953a.632.632,0,0,1-.263.2145,2.4531,2.4531,0,0,1-.3668.1561c-.1126.0363-.2553.0773-.4288.1247s-.27.0757-.2862.0837a3.7489,3.7489,0,0,1-1.2656.17,1.3592,1.3592,0,0,1-.4388-.085.488.488,0,0,1-.2272-.1648,1.8746,1.8746,0,0,0-.1954-.2366,1.3646,1.3646,0,0,0-.3069-.2457.1827.1827,0,0,1-.09-.2236.6989.6989,0,0,1,.1957-.3323c.0082-.0082.0941-.059.2559-.152a1.02,1.02,0,0,0,.3438-.2871,1.3664,1.3664,0,0,1,.3885-.3546,1.8762,1.8762,0,0,0,.0219-.2721,1.0687,1.0687,0,0,0-.112-.4851.377.377,0,0,0-.3315-.2642.445.445,0,0,0-.4232.169.7434.7434,0,0,0-.1169.4565.8958.8958,0,0,0,.1129.417c.0684.1206.1321.18.19.1814.0906-.0067.119.0264.0853.1007a.3376.3376,0,0,1-.2.1711q-.087.0236-.19-.17a1.6686,1.6686,0,0,1-.1557-.466,1.7818,1.7818,0,0,1-.038-.4591,1.8811,1.8811,0,0,1,.2133-.7349.536.536,0,0,1,.5182-.3346.66.66,0,0,1,.5528.4283,2.3781,2.3781,0,0,1,.1847,1.1174q.0355.0869.1909.0641a1.8218,1.8218,0,0,1,.4088-.0015.559.559,0,0,1,.3639.1349.5537.5537,0,0,0,.0148-.186q-.2047-1.5633,1.1217-1.6469a1.7585,1.7585,0,0,1,.3336.0967,1.13,1.13,0,0,1,.289.1895.9835.9835,0,0,1,.2555.38,2.7994,2.7994,0,0,1,.16.6215q0,.0623-.0054.4585T13.9,6.2242c-.1739.0557-.2981.0527-.3716-.01s-.0643-.1724.0284-.3282a.9257.9257,0,0,0-.0407-.7192.574.574,0,0,0-.6276-.379.4839.4839,0,0,0-.45.3291,1.2249,1.2249,0,0,0-.1065.6308c.0225.2061.0665.3144.1329.3232a2.774,2.774,0,0,1,.4373.2032,2.4168,2.4168,0,0,0,.5481.23q.4821.1053.5481.3163a1.0868,1.0868,0,0,1-.0635.6124,1.281,1.281,0,0,0,.098,1.1591,3.3919,3.3919,0,0,0,.286.4128,2.9475,2.9475,0,0,1,.3573.6975,7.96,7.96,0,0,1,.3687,1.2808q.0122.0128.092.0872a1.2856,1.2856,0,0,1,.1585.188,3.5354,3.5354,0,0,1,.1886.3062,3.4548,3.4548,0,0,1,.2349.5663,8.1094,8.1094,0,0,1,.2313.8575,5.9416,5.9416,0,0,1,.1267,1.3267A3.9258,3.9258,0,0,0,16.164,15.35q.09.28.4745.2352a.633.633,0,0,0,.6252-.513,4.6612,4.6612,0,0,0-.628-3.4512,3.5705,3.5705,0,0,0-.6939-1.0367,2.9277,2.9277,0,0,1,.8811.9391,3.6826,3.6826,0,0,1,.5669,1.2832c.0074.0415.0292.1509.0642.3288s.0542.2815.0583.31.0194.1145.0467.2543a1.8538,1.8538,0,0,1,.04.2736c-.0006.0412.0028.1216.01.2414a1.1954,1.1954,0,0,1-.01.2792c-.013.0664-.0261.1539-.04.2657a2.04,2.04,0,0,1-.0657.3216c-.03.1024-.0629.2155-.097.3388q.6774.3056.6752.5286a1.5049,1.5049,0,0,0-.74-.2874,1.5431,1.5431,0,0,0-.9.12.6983.6983,0,0,0-.4349.651.7836.7836,0,0,0-.6349.2155,1.3575,1.3575,0,0,0-.295.87A6.5818,6.5818,0,0,0,15.1455,18.72Zm-4.95-13.506a.1153.1153,0,0,1-.0613-.0751c.0009-.0741.0385-.1022.1124-.0856q.0744.0264.14.1876a.6444.6444,0,0,1,.0267.3721.0331.0331,0,0,1-.0376.037c-.0909-.001-.1227-.0846-.0961-.2491Q10.3193,5.2152,10.1959,5.214Zm3.2058.2363c0,.0085-.0089.02-.0256.0372-.0666.04-.1.0481-.0992.0233q-.0457-.3348-.2184-.3864a.1531.1531,0,0,1-.0617-.0386.03.03,0,0,1,.0008-.0491.1427.1427,0,0,1,.0993-.0239c.0248-.0076.0617.0048.111.0384a.49.49,0,0,1,.1938.3991Z" fill="#7b7b7b"/><path d="M11.5863,5.9989a.2024.2024,0,0,1,.2159.0582c.061.0626.1085.09.1416.0825a.0738.0738,0,0,0,.0384-.1116Q11.8852,5.8654,11.5863,5.9989Z" fill="#7b7b7b"/></svg>