<svg xmlns="http://www.w3.org/2000/svg" width="24" height="24" viewBox="0 0 24 24"><rect width="24" height="24" fill="none"/><path d="M16.92.5482H7.08a1.5876,1.5876,0,0,0-1.59,1.59v19.73a1.5855,1.5855,0,0,0,1.59,1.58h9.84a1.5855,1.5855,0,0,0,1.59-1.58V2.1382A1.5876,1.5876,0,0,0,16.92.5482Zm-3.01,21.72H10.64a.3009.3009,0,0,1-.3-.3.2947.2947,0,0,1,.3-.3h3.27a.2947.2947,0,0,1,.3.3A.3009.3009,0,0,1,13.91,22.2682Zm4.1-2.78a1.3742,1.3742,0,0,1-1.37,1.38H7.36a1.3742,1.3742,0,0,1-1.37-1.38V3.6282a1.3742,1.3742,0,0,1,1.37-1.38h9.28a1.3742,1.3742,0,0,1,1.37,1.38Z" fill="#7b7b7b"/><path d="M16.8189,10.7193H11.8743V7.0437c1.6482-.2244,3.2964-.4565,4.9446-.6732C16.8421,6.4556,16.8344,9.6437,16.8189,10.7193Z" fill="#7b7b7b"/><path d="M11.0231,7.16v3.56H7.2547c0-1.0137,0-2.02.0077-3.041C8.516,7.5,9.77,7.3378,11.0231,7.16Z" fill="#7b7b7b"/><path d="M16.7957,15.9425c-1.6327-.2321-3.281-.4643-4.9214-.6964V11.5782h4.9369C16.8267,12.6306,16.8189,15.8419,16.7957,15.9425Z" fill="#7b7b7b"/><path d="M11.0231,11.5782V15.13c-1.2613-.1857-2.5148-.3637-3.7684-.5417-.0155-1.8881-.0155-2.1744-.0078-3.01Z" fill="#7b7b7b"/></svg>