<?xml version="1.0" encoding="utf-8"?>
<!-- Generator: Adobe Illustrator 19.2.1, SVG Export Plug-In . SVG Version: 6.00 Build 0)  -->
<svg version="1.1" id="Layer_1" xmlns="http://www.w3.org/2000/svg" xmlns:xlink="http://www.w3.org/1999/xlink" width="20" height="23.7439461" viewBox="0 0 20 23.7439461">
<path fill="#FFFFFF" d="M19.5808334,18.5037403c-0.3590794,0.8295479-0.7841129,1.5931396-1.2765656,2.2951794
	c-0.6712589,0.957056-1.220871,1.6195221-1.6444378,1.9873943c-0.6566029,0.6038399-1.3601055,0.9130878-2.1134405,0.9306774
	c-0.5408182,0-1.1930237-0.1538925-1.95222-0.4660702c-0.7616882-0.3107128-1.4616737-0.4646034-2.101716-0.4646034
	c-0.6712589,0-1.3911762,0.1538906-2.1612196,0.4646034c-0.7712154,0.3121815-1.3924966,0.474865-1.8675075,0.4909878
	c-0.7224097,0.0307789-1.4424744-0.2872639-2.1612196-0.9555912c-0.4587426-0.4001179-1.032537-1.0860348-1.7199183-2.057745
	c-0.7375056-1.0376682-1.343837-2.2409496-1.8188481-3.6127815C0.2550198,15.634038,0,14.1991844,0,12.8100595
	c0-1.5912361,0.3438372-2.9636526,1.0325371-4.1137333C1.5737948,7.7725387,2.2938592,7.0438271,3.195076,6.508872
	s1.8749819-0.8075624,2.9236407-0.8250041c0.5737948,0,1.3262501,0.1774879,2.2613225,0.5263081
	c0.9324341,0.3499928,1.5311451,0.5274806,1.7936392,0.5274806c0.1962481,0,0.861351-0.2075334,1.9888611-0.6212807
	c1.066247-0.3837023,1.9661446-0.5425768,2.7033567-0.4799948c1.9976559,0.1612196,3.4984608,0.9487033,4.4965553,2.3674345
	c-1.7866039,1.0825148-2.6703796,2.5987101-2.6527939,4.5437498c0.0161228,1.5150223,0.5657349,2.7757578,1.6459045,3.7767849
	C18.8450813,16.7889538,19.3917637,17.148035,20,17.4030552c-0.1319065,0.3825283-0.271143,0.7489376-0.4191704,1.100687
	L19.5808334,18.5037403z M14.9992704,0.4750113c0,1.1874691-0.4338264,2.2962043-1.2985487,3.3224394
	c-1.0435305,1.219991-2.3057318,1.9249599-3.6744843,1.8137181C10.0087957,5.4687095,9.998683,5.3187757,9.998683,5.1612201
	c0-1.1399679,0.4962635-2.3599589,1.3775473-3.3574677c0.4399824-0.5050565,0.9995604-0.9250038,1.6781473-1.2600031
	C13.7314997,0.2137476,14.3719797,0.0312473,14.9743538,0c0.0175886,0.1587425,0.0249157,0.3174996,0.0249157,0.4749964
	L14.9992704,0.4750113z"/>
</svg>
