<?xml version="1.0" encoding="utf-8"?>
<!-- Generator: Adobe Illustrator 19.2.1, SVG Export Plug-In . SVG Version: 6.00 Build 0)  -->
<svg version="1.1" id="Layer_1" xmlns="http://www.w3.org/2000/svg" xmlns:xlink="http://www.w3.org/1999/xlink" width="20" height="21.8222904" viewBox="0 0 20 21.8222904">
<g>
	<g>
		<path fill="#010101" d="M10.8348808,6.2525911c0.161767-0.0470881,0.3277979-0.0814481,0.451066-0.1919889
			C11.1342125,6.1071887,10.988246,6.1900787,10.8348808,6.2525911z"/>
		<path fill="#FFFFFF" d="M10.8274822,6.2554126c0.0025082-0.0010033,0.0048904-0.0018182,0.0073986-0.0028214
			C10.8323727,6.2532806,10.8299904,6.2546601,10.8274822,6.2554126z"/>
	</g>
	<g>
		<path fill="none" d="M8.1492977,4.2851782c0.1078453-0.019186,0.0910416-0.121388,0.0579357-0.1984463
			c-0.0289679-0.0676541-0.0373697-0.1672223-0.14396-0.1545568c-0.0769963,0.0346735-0.1218901,0.0876551-0.067842,0.1517978
			C8.0512342,4.1502471,8.0047112,4.3109484,8.1492977,4.2851782z"/>
		<path fill="none" d="M11.1451225,3.9321752c-0.0769968,0.0346735-0.1218901,0.0876551-0.0678425,0.1517978
			c0.0558033,0.0662742,0.0092802,0.2269754,0.1538668,0.2012053c0.1078453-0.019186,0.0910416-0.121388,0.0579357-0.1984463
			C11.2601147,4.0190778,11.2517128,3.9195096,11.1451225,3.9321752z"/>
		<path fill="none" d="M14.2625856,14.8730783c0.0379963-0.2832804,0.3132505-0.3639126,0.4755192-0.5457439
			c-0.412694-0.1629581-0.4384012-0.2020836-0.4629793-0.7216816c-0.034235-0.7194242,0.094552-1.4737101-0.2337475-2.1402779
			c-0.5038605-1.0225172-1.0759382-2.0096092-1.3781538-3.1222906c-0.0546751-0.2012053-0.2045288-0.3876762-0.3438492-0.5527039
			c-0.4416618-0.5228586-0.6688881-1.0722394-0.3772058-1.7588081c0.1607637-0.3785853-0.034234-0.5974092-0.4095583-0.7008023
			c-0.2903032-0.0799432-0.5836153-0.1642752-0.8564873-0.28861c-0.4876842-0.2222099-0.6272545-0.5673757-0.459343-1.0155582
			c0.1532393-0.4092453,0.4578381-0.5199113,0.8488379-0.4180858c0.3983974,0.1037691,0.526432,0.4328206,0.3883657,0.9844587
			c-0.0463982,0.1852794-0.0736103,0.3394599,0.1616411,0.3870492c0.2071629,0.0418839,0.308486-0.0722933,0.356389-0.263279
			c0.0855236-0.3409019,0.0124149-0.6688876-0.079504-0.9924214c-0.172802-0.6081936-0.5729561-0.908654-1.1706161-0.8954868
			C10.2264366,2.8398092,9.924346,3.1511793,9.8032084,3.7910993c-0.034234,0.1808906-0.0614462,0.367111-0.0578098,0.550133
			c0.0040131,0.2002025-0.054925,0.2439046-0.2600813,0.2381988C8.8120413,4.5606837,8.7938576,4.5542259,8.6793671,3.866528
			c-0.027463-0.1645887-0.0688448-0.3308699-0.1327991-0.4843605C8.4407291,3.1276667,8.2316866,2.991544,7.9586887,2.9708531
			c-0.2884216-0.0218198-0.4720082,0.1380033-0.600419,0.3783967c-0.1564999,0.2928734-0.1973805,0.603303-0.1428313,0.9284673
			c0.053421-0.0030098,0.090414-0.0197506,0.1187544-0.0438275C7.3324375,4.1204019,7.3458552,4.0025878,7.3862343,3.877187
			c0.1207609-0.2323048,0.3058524-0.3555112,0.5704479-0.2972624c0.2821522,0.0621359,0.4088068,0.286917,0.4501886,0.5406027
			c0.0313501,0.1923647-0.0047646,0.3957019-0.01091,0.5942116C8.4043627,4.7848377,8.390193,4.8274112,8.3078041,4.7874713
			C8.0632734,4.8188839,7.9407563,5.0629139,7.7151604,5.1273699v0.0000629v0.0000625
			C7.5811071,5.2510777,7.44279,5.3703966,7.3142543,5.4996219C7.2166924,5.5978107,7.1541176,5.7177567,7.2030239,5.8624692
			c0.0662117,0.1951861,1.0408258,0.8413763,1.2798405,0.845201c0.644309,0.0103455,1.2474861-0.1799498,1.8466511-0.3876138
			c0.3141289-0.1677232,0.722559-0.1380663,0.9598179-0.4749551c0.0570574-0.0811343,0.1941204-0.0875301,0.2653475-0.0004392
			c0.1126099,0.1380038-0.0245781,0.2062216-0.1134872,0.2699251c-0.3025923,0.2168808-0.666254,0.2768221-1.011734,0.3833504
			C9.6944866,6.9082489,8.9147444,7.1124015,8.0156212,6.939599C8.4191608,7.468853,8.8413849,7.6014643,9.4830608,7.36941
			c0.5187826-0.1875992,1.0099773-0.4503765,1.5178509-0.6692009C11.140357,6.640142,11.332346,6.488595,11.4285278,6.7203984
			c0.0785007,0.1897316-0.1346807,0.2355657-0.2622128,0.3007736c-0.5982876,0.3057275-1.1846609,0.6191664-1.7023153,1.0651546
			C8.9571295,8.5229092,8.3903179,8.4138107,7.9754925,7.8822365c-0.193368-0.2476664-0.3155084-0.5597262-0.6503282-0.7297068
			C7.2405186,7.5431528,7.0738611,7.8845563,6.8764801,8.2118521C6.5752678,8.7116375,6.3677292,9.2330532,6.46805,9.8357925
			c0.0384979,0.2314272-0.0690961,0.4224119-0.2059083,0.6008577c-0.8546062,1.1140604-1.1886735,2.386941-1.1518059,3.7739983
			c0.0030098,0.1149302,0.0193119,0.2891741-0.044517,0.3367643c-0.4424143,0.3298664-0.0899124,0.5535812,0.1069665,0.7587996
			c0.2313647,0.2411461,0.5071206,0.441411,0.7717166,0.6490116c0.5026059,0.3942595,1.0394468,0.7500849,1.5093236,1.1796446
			c0.4980917,0.4553928,0.4619761,0.9163036-0.0917935,1.236515c-0.3285499,0.1899815-0.2233386,0.3237209-0.0639544,0.5176544
			c0.3498683,0.4252338,0.6542158,0.8712215,0.621737,1.5762882c0.3182673-0.5209789,0.3067298-0.8934822-0.0308485-1.2513123
			c-0.0801311-0.0850849-0.272872-0.1703568-0.1334267-0.3170128c0.1078448-0.1136131,0.2741265-0.0108471,0.365418,0.0662117
			c0.2783899,0.2352505,0.571702,0.3983974,0.948782,0.4073639c1.2815962,0.0305977,2.5457611,0.0266476,3.3875761-1.1934395
			c0.0855236-0.1240845,0.2168179-0.2280407,0.3812189-0.1939945c0.1309185,0.0271492,0.1546192,0.1633968,0.1859694,0.2775745
			c0.0470247,0.17136-0.0061445,0.3342552-0.0455208,0.4969635c-0.0870285,0.3588963-0.1863451,0.7149715-0.2654734,1.0754986
			c-0.0354881,0.1622066-0.0628262,0.3901844,0.1418285,0.422226c0.1993866,0.0312233,0.1691656-0.208292,0.1898565-0.3370152
			c0.1149921-0.7144718,0.211175-1.4318886,0.2171936-2.1575832c0.0052671-0.6226139-0.008276-1.2458572,0.0147982-1.8677816
			c0.0170536-0.4574623,0.1685381-0.8367996,0.728076-0.8414392C14.1344252,15.0505209,14.2425213,15.0234966,14.2625856,14.8730783
			z"/>
		<path fill="#FFFFFF" d="M11.5546808,5.8446622c-0.0712271-0.087091-0.2082901-0.0806952-0.2653475,0.0004392
			c-0.2372589,0.3368888-0.645689,0.3072319-0.9598179,0.4749551c0.1827087,0.0381222,0.3441-0.002696,0.4979668-0.0646439
			c-0.1501045,0.0441408-0.2960711,0.0996308-0.3980227,0.2425251c0.34548-0.1065283,0.7091417-0.1664696,1.011734-0.3833504
			C11.5301027,6.0508838,11.6672907,5.982666,11.5546808,5.8446622z"/>
		<path fill="#FFFFFF" d="M8.2713127,4.209938c0.0273371,0.1477218,0.009656,0.3030934,0.073987,0.4464264
			c0.0136681,0.0386863,0.0759926,0.0702248,0.0422592,0.1077194C8.358717,4.7958732,8.3105631,4.7478447,8.2711878,4.7462144
			c-0.256319,0.0214434-0.4426651,0.1474714-0.5560274,0.3811555c0.225596-0.064456,0.3481131-0.308486,0.5926437-0.3398986
			C8.390193,4.8274112,8.4043627,4.7848377,8.3959608,4.7147388c0.0061455-0.1985097,0.0422602-0.4018469,0.01091-0.5942116
			C8.365489,3.8668416,8.2388344,3.6420605,7.9566822,3.5799246C7.6920867,3.5216758,7.5069952,3.6448822,7.3862343,3.877187
			c-0.040379,0.1254008-0.0537968,0.2432148-0.0520415,0.3567026C7.4222245,4.159276,7.4194655,4.0082307,7.5039854,3.9307959
			C7.9147987,3.6287682,8.1814003,3.7244489,8.2713127,4.209938z"/>
		<path fill="#FFFFFF" d="M19.562273,17.9544258c-0.7100201-0.5089397-1.545063-0.9036369-1.419035-2.0752573
			c-0.5831146,0.6597967-0.2482948,1.7998152,0.4850502,2.0378256c0.2228355,0.0723553,0.4592171,0.1079063,0.6756592,0.1943073
			c0.4416599,0.1760635,0.4827919,0.4816017,0.1190052,0.7947273c-0.2336216,0.2011433-0.5152721,0.3346958-0.8036938,0.4072399
			c-1.0319233,0.2595177-1.9319248,0.7464485-2.7457752,1.4291916c-0.5079985,0.4261761-1.1010189,0.4878101-1.6930361,0.154871
			c-0.6201067-0.3485508-0.5875025-0.930975-0.4795322-1.5122089c0.1092243-0.5878773,0.1144905-1.1664143-0.0121641-1.752161
			c-0.1176262-0.544302-0.1839628-1.0965672-0.1138639-1.6549768c0.0331059-0.2640314,0.1319218-0.5002861,0.4148254-0.5750875
			c0.322155-0.0851479,0.329052,0.2140589,0.4226007,0.3900585c0.4444208,0.8359852,1.0883532,1.0459671,1.934433,0.6229916
			c1.3664913-0.6829958,1.8396282-1.7058897,1.5303898-3.2468767c-0.3324375-1.6562309-1.1193275-3.0700617-2.1749506-4.3742294
			c-1.0778189-1.3314428-1.9897337-2.7588797-2.0237169-4.568162c-0.0091543-0.4869938-0.0674658-0.9733605-0.1113558-1.4592259
			c-0.1512337-1.6720937-1.2399635-2.5121536-2.9195814-2.6883416C10.452158-0.0294857,9.0602093-0.0229648,8.8989439,0.078359
			C7.8310308,0.1912824,7.1479731,0.6594661,6.7992334,1.6518251C6.6540194,2.0650833,6.5945792,2.4352663,6.5875568,2.8761127
			C6.5682449,4.1052909,6.6600385,5.2982912,6.7261248,6.5240836c0.0174308,0.3245997,0.0447679,0.6325216-0.1774421,0.8989353
			c-0.5279374,0.6333995-0.91994,1.3588424-1.4755907,1.9724917c-0.3281741,0.3623447-0.6170974,0.756856-0.7935362,1.2163868
			c-0.367048,0.9559307-0.7624366,1.89468-1.2629111,2.7909822c-0.2244673,0.4019718-0.3325629,0.8423166-0.2429013,1.3116293
			c0.0388741,0.2033377,0.1119828,0.3736315,0.3617811,0.2545013c0.5096288-0.2429647,0.8828213-0.0118504,1.1966994,0.3520622
			c0.9351139,1.0841532,1.7825723,2.2348928,2.5425005,3.4483957c0.1233945,0.1969414,0.2210817,0.4189644,0.2849107,0.6424274
			c0.2748785,0.9614487-0.3451028,1.8813248-1.2201495,1.7112198c-1.7300286-0.3362617-3.4423761-0.7635651-5.1619968-1.1536255
			c-0.397395-0.0901623-0.3918774-0.2923088-0.16114-0.5659332c0.4193402-0.4972763,0.4140733-1.0383186,0.1528635-1.6018696
			C0.7198043,17.695097,0.664628,17.5910778,0.6168503,17.48386c-0.2186989-0.490757-0.0778739-0.6907082,0.4638574-0.6573505
			c0.2011429,0.012413,0.4022857,0.0474644,0.602927,0.042448c0.8038188-0.0200653,1.2002107-0.5760918,1.0037078-1.3945827
			C2.5811367,15.4607077,2.52408,15.5368118,2.5066442,15.613802c-0.1583762,0.6993237-1.1264168,1.2142124-1.8037077,0.8771229
			c-0.1472932-0.073307-0.6042706,0.2606087-0.6555238,0.3921452c-0.1203373,0.3088341,0.148772,0.7881908,0.2374561,1.0731373
			c0.0837255,0.2690144,0.0655048,0.5028839,0.0655048,0.7782116c-0.0304724,0.3828487-0.3486141,0.7336578-0.3503697,1.1211452
			c-0.0015048,0.3405876,0.4292468,0.4890633,0.7231862,0.5450554c1.5854418,0.3018379,3.1654916,0.7162876,4.6733103,1.2995892
			c0.632772,0.2447834,1.2372036,0.1175022,1.742569-0.3462315c0.4123178-0.3781452,0.9068985-0.570385,1.4590378-0.6352787
			c1.3114414-0.1540565,2.6270208-0.0233879,3.9387121-0.0252686c0.2691107-0.0003777,0.4750185,0.1497898,0.6039305,0.394886
			c0.1191311,0.2267876,0.2726212,0.4247952,0.5120115,0.5397263c0.749896,0.3600864,1.991991,0.1761875,2.5886478-0.4296875
			c0.5778465-0.5866871,1.2555122-1.0069675,1.9938717-1.3469906c0.4574623-0.2107372,0.9250813-0.4054222,1.3266144-0.7176075
			C20.1389904,18.6851997,20.1529102,18.3778419,19.562273,17.9544258z M13.2771864,15.8930254
			c-0.0230742,0.6219244-0.009531,1.2451677-0.0147982,1.8677816c-0.0060186,0.7256947-0.1022015,1.4431114-0.2171936,2.1575832
			c-0.0206909,0.1287231,0.0095301,0.3682384-0.1898565,0.3370152c-0.2046547-0.0320415-0.1773167-0.2600193-0.1418285-0.422226
			c0.0791283-0.360527,0.1784449-0.7166023,0.2654734-1.0754986c0.0393763-0.1627083,0.0925455-0.3256035,0.0455208-0.4969635
			c-0.0313501-0.1141777-0.0550508-0.2504253-0.1859694-0.2775745c-0.1644011-0.0340462-0.2956953,0.06991-0.3812189,0.1939945
			c-0.841815,1.2200871-2.1059799,1.2240372-3.3875761,1.1934395c-0.37708-0.0089664-0.670392-0.1721134-0.948782-0.4073639
			c-0.0912914-0.0770588-0.2575731-0.1798248-0.365418-0.0662117c-0.1394453,0.146656,0.0532956,0.2319279,0.1334267,0.3170128
			c0.3375783,0.35783,0.3491158,0.7303333,0.0308485,1.2513123c0.0324788-0.7050667-0.2718687-1.1510544-0.621737-1.5762882
			c-0.1593843-0.1939335-0.2645955-0.327673,0.0639544-0.5176544c0.5537696-0.3202114,0.5898852-0.7811222,0.0917935-1.236515
			c-0.4698768-0.4295597-1.0067177-0.7853851-1.5093236-1.1796446c-0.264596-0.2076006-0.5403519-0.4078655-0.7717166-0.6490116
			c-0.1968789-0.2052183-0.5493808-0.4289331-0.1069665-0.7587996c0.0638289-0.0475903,0.0475268-0.2218342,0.044517-0.3367643
			c-0.0368676-1.3870573,0.2971997-2.6599379,1.1518059-3.7739983c0.1368122-0.1784458,0.2444062-0.3694305,0.2059083-0.6008577
			c-0.1003208-0.6027393,0.1072178-1.124155,0.4084301-1.6239405c0.197381-0.3272958,0.3640385-0.6686993,0.4486842-1.0593224
			c0.3348198,0.1699805,0.4569602,0.4820404,0.6503282,0.7297068c0.4148254,0.5315742,0.981637,0.6406727,1.4885073,0.2040901
			c0.5176544-0.4459882,1.1040277-0.7594271,1.7023153-1.0651546c0.127532-0.065208,0.3407135-0.111042,0.2622128-0.3007736
			C11.332346,6.488595,11.140357,6.640142,11.0009117,6.7002091C10.4930382,6.9190335,10.0018435,7.1818109,9.4830608,7.36941
			c-0.6416759,0.2320542-1.0639,0.099443-1.4674397-0.429811c0.8991232,0.1728024,1.6788654-0.0313501,2.4138384-0.4416614
			c-0.0332308-0.0593147-0.0665874-0.1185665-0.0999441-0.1778812c-0.599165,0.207664-1.202342,0.3979592-1.8466511,0.3876138
			c-0.2390146-0.0038247-1.2136288-0.6500149-1.2798405-0.845201C7.1541176,5.7177567,7.2166924,5.5978107,7.3142543,5.4996219
			C7.44279,5.3703966,7.5811071,5.2510777,7.7151604,5.1274953V5.1274328
			c-0.0028839-0.037683-0.0058937-0.075366-0.0089035-0.113049c-0.2333708-0.2293577-0.3672986-0.486743-0.3720641-0.7804942
			C7.3058524,4.2579665,7.2688594,4.2747073,7.2154384,4.2777171C7.1608891,3.9525528,7.2017698,3.6421232,7.3582697,3.3492498
			c0.1284108-0.2403934,0.3119974-0.4002166,0.600419-0.3783967C8.2316866,2.991544,8.4407291,3.1276667,8.5465679,3.3821676
			C8.6105223,3.5356581,8.6519041,3.7019393,8.6793671,3.866528c0.1144905,0.6876979,0.1326742,0.6941557,0.8059502,0.712903
			c0.2051563,0.0057058,0.2640944-0.0379963,0.2600813-0.2381988c-0.0036364-0.183022,0.0235758-0.3692424,0.0578098-0.550133
			c0.1211376-0.63992,0.4232283-0.9512901,0.9186859-0.9622626c0.5976601-0.0131671,0.9978142,0.2872932,1.1706161,0.8954868
			c0.0919189,0.3235338,0.1650276,0.6515195,0.079504,0.9924214c-0.0479031,0.1909857-0.1492262,0.3051629-0.356389,0.263279
			c-0.2352514-0.0475893-0.2080393-0.2017698-0.1616411-0.3870492c0.1380663-0.5516381,0.0100317-0.8806896-0.3883657-0.9844587
			c-0.3909998-0.1018255-0.6955986,0.0088406-0.8488379,0.4180858c-0.1679115,0.4481826-0.0283413,0.7933483,0.459343,1.0155582
			c0.272872,0.1243348,0.566184,0.2086668,0.8564873,0.28861c0.3753242,0.1033931,0.570322,0.322217,0.4095583,0.7008023
			c-0.2916822,0.6865687-0.064456,1.2359495,0.3772058,1.7588081c0.1393204,0.1650276,0.2891741,0.3514986,0.3438492,0.5527039
			c0.3022156,1.1126814,0.8742933,2.0997734,1.3781538,3.1222906c0.3282995,0.6665678,0.1995125,1.4208536,0.2337475,2.1402779
			c0.0245781,0.519598,0.0502853,0.5587234,0.4629793,0.7216816c-0.1622686,0.1818314-0.4375229,0.2624636-0.4755192,0.5457439
			c-0.0200644,0.1504183-0.1281605,0.1774426-0.2573233,0.1785078C13.4457245,15.0562258,13.29424,15.4355631,13.2771864,15.8930254
			z M11.2413836,4.3231902c-0.1758738,0.0313458-0.1192837-0.1641288-0.1871614-0.2447438
			c-0.0657434-0.078022-0.0111351-0.1424685,0.0825214-0.1846447c0.1296558-0.0154061,0.1398754,0.1057074,0.1751108,0.1880002
			C11.3521242,4.1755352,11.3725643,4.2998519,11.2413836,4.3231902z"/>
		<path fill="#FFFFFF" d="M10.3295155,6.3200564c0.0333567,0.0593147,0.0667133,0.1185665,0.0999441,0.1778812
			c0.1019516-0.1428943,0.2479181-0.1983843,0.3980227-0.2425251C10.6736155,6.3173604,10.5122242,6.3581786,10.3295155,6.3200564z"
			/>
		<path fill="#FFFFFF" d="M8.2711878,4.7462144C8.3105631,4.7478447,8.358717,4.7958732,8.3875589,4.7640839
			c0.0337334-0.0374947-0.0285912-0.0690331-0.0422592-0.1077194c-0.0643311-0.143333-0.0466499-0.2987046-0.073987-0.4464264
			c-0.0899124-0.4854891-0.356514-0.5811698-0.7673273-0.2791421C7.4194655,4.0082307,7.4222245,4.159276,7.3341928,4.2338896
			c0.0047655,0.2937512,0.1386933,0.5511365,0.3720641,0.7804942c0.0030098,0.037683,0.0060196,0.075366,0.0089035,0.113049
			V5.1273699C7.8285227,4.8936858,8.0148687,4.7676578,8.2711878,4.7462144z M8.0449858,3.8936827
			C8.1631088,3.879647,8.1724205,3.9899879,8.2045221,4.0649614C8.241209,4.1503572,8.2598314,4.2636166,8.1403189,4.2848787
			C7.9800878,4.3134365,8.0316448,4.1353488,7.9698043,4.061904C7.9099088,3.9908216,7.9596596,3.9321074,8.0449858,3.8936827z"/>
	</g>
	<path fill="#FFFFFF" d="M9.4194765,4.772337c0.037466-0.1345177,0.1577368-0.0775142,0.2424078-0.0872693
		C9.7679834,4.672843,9.8685284,4.715354,9.8671751,4.8367758c-0.0011148,0.1000223-0.0940475,0.1387358-0.179903,0.1088338
		C9.589673,4.9116187,9.4409981,4.9443555,9.4194765,4.772337z"/>
	<path fill="#FFFFFF" d="M8.3078079,4.7875118c0.0293779-0.0242596,0.0587568-0.0485201,0.0881357-0.0727797
		C8.4897423,4.709619,8.5835419,4.7045069,8.7370987,4.6961374c-0.113905,0.1871886-0.1860266,0.3461299-0.3874321,0.3061395
		C8.2663412,4.9857321,8.3010311,4.8653421,8.3078079,4.7875118z"/>
</g>
</svg>
