<?xml version="1.0" encoding="utf-8"?>
<!-- Generator: Adobe Illustrator 19.2.1, SVG Export Plug-In . SVG Version: 6.00 Build 0)  -->
<svg version="1.1" id="Layer_1" xmlns="http://www.w3.org/2000/svg" xmlns:xlink="http://www.w3.org/1999/xlink" width="20" height="19.8822002" viewBox="0 0 20 19.8822002">
<g id="_x32_DJlpg.tif_3_">
	<g>
		<path fill="#FFFFFF" d="M14.5695324,10.3196878c1.6411514-0.000021,3.2824173,0.0101042,4.9233742-0.0078278
			c0.3662243-0.0040016,0.5100536,0.0557823,0.5070477,0.4747581c-0.0207901,2.8980598-0.0120907,5.7963419-0.0090141,8.6945467
			c0.0002785,0.2603207,0.0352821,0.4496078-0.3721409,0.3900013c-3.363205-0.4920216-6.7295218-0.9632378-10.0977917-1.4193783
			c-0.3371372-0.0456581-0.4336081-0.1488075-0.4319563-0.4792118c0.0120392-2.4092941,0.0141001-4.8187246-0.0017843-7.227973
			c-0.002388-0.3624249,0.127038-0.4336319,0.4540977-0.4310389C11.2173328,10.3268433,12.8934593,10.3197088,14.5695324,10.3196878
			z"/>
		<path fill="#FFFFFF" d="M14.5178404,9.5361195c-1.6419945-0.0000048-3.2841129-0.0106916-4.9258919,0.0081224
			C9.2194424,9.5485096,9.0809669,9.4788256,9.0848036,9.0637035c0.0219593-2.3754482,0.0168953-4.7512374,0.0038538-7.1268187
			c-0.0019045-0.3467935,0.088459-0.4648359,0.4535971-0.5139638c3.3530712-0.4511345,6.7034369-0.9229262,10.0515604-1.4095123
			c0.3523331-0.0512054,0.4024734,0.039312,0.4013367,0.3570928c-0.0104599,2.9171228-0.0131874,5.8343377,0.002718,8.7514133
			c0.0019951,0.3656654-0.1275635,0.4233065-0.4492912,0.4206553C17.8717613,9.5287447,16.1947727,9.5361242,14.5178404,9.5361195z"
			/>
		<path fill="#FFFFFF" d="M4.2331071,10.3196955c1.1882548-0.000001,2.3769021,0.0173435,3.5645533-0.009428
			c0.4146695-0.009346,0.5656943,0.06991,0.560348,0.5311918c-0.0267267,2.306304-0.0247278,4.6132135-0.0012398,6.9195881
			c0.0044737,0.4392567-0.1324673,0.5200672-0.5280886,0.4621334c-2.1059513-0.3083706-4.2143869-0.5997849-6.3219233-0.897337
			c-0.0345448-0.004879-0.0684431-0.0142155-0.1029334-0.0196228c-0.4280599-0.0671005-0.995297,0.008419-1.2475693-0.2382507
			c-0.2879511-0.2815533-0.0891738-0.8600807-0.0921899-1.3083382c-0.0111668-1.6599913,0.0059691-3.3202209-0.0126289-4.9800777
			c-0.0040405-0.3606739,0.0863304-0.4758492,0.4598046-0.4687605C1.7514724,10.3343391,2.992429,10.3196955,4.2331071,10.3196955z"
			/>
		<path fill="#FFFFFF" d="M4.2192178,9.5361166c-1.2392151,0.0000029-2.4785442-0.00916-3.717566,0.0063028
			C0.1829612,9.5463963,0.046877,9.4926739,0.0504669,9.1239872c0.0193695-1.9895358,0.0137517-3.9793839,0.0040869-5.9690619
			C0.0531518,2.8662264,0.1041364,2.7345197,0.437195,2.6901934C2.8726349,2.366056,5.305337,2.0207446,7.7365446,1.6659614
			C8.1727133,1.602312,8.3685656,1.637168,8.3603868,2.1790321C8.3258867,4.4649506,8.3334637,6.7518167,8.356781,9.0380182
			c0.0043583,0.4272051-0.1299362,0.5147696-0.5248151,0.5068531C6.6281428,9.5207367,5.4235258,9.5361128,4.2192178,9.5361166z"/>
	</g>
</g>
</svg>
